<?xml version="1.0" encoding="UTF-8"?>
<!DOCTYPE svg PUBLIC "-//W3C//DTD SVG 1.1//EN" "http://www.w3.org/Graphics/SVG/1.1/DTD/svg11.dtd">
<svg xmlns="http://www.w3.org/2000/svg" version="1.1" width="691px" height="1056px" style="shape-rendering:geometricPrecision; text-rendering:geometricPrecision; image-rendering:optimizeQuality; fill-rule:evenodd; clip-rule:evenodd" xmlns:xlink="http://www.w3.org/1999/xlink">
<g><path style="opacity:0.906" fill="#bdbfc1" d="M 45.5,0.5 C 245.833,1.12134 446.166,1.62134 646.5,2C 665.686,6.52403 678.519,18.024 685,36.5C 684.264,355.74 684.431,674.906 685.5,994C 683.799,1022.7 669.466,1042.03 642.5,1052C 639.833,1052.33 637.167,1052.67 634.5,1053C 437.167,1053.67 239.833,1053.67 42.5,1053C 27.9238,1049.1 16.7571,1040.6 9,1027.5C 6.21067,1022.47 4.21067,1017.13 3,1011.5C 2.00077,1002.53 1.50077,993.531 1.5,984.5C 2.61472,668.167 2.78139,351.834 2,35.5C 3.21735,26.6166 7.38401,19.4499 14.5,14C 23.7345,6.70993 34.0678,2.20993 45.5,0.5 Z"/></g>
<g><path style="opacity:1" fill="#fefefe" d="M 42.5,5.5 C 243.5,5.98485 444.5,6.48485 645.5,7C 661.811,10.6415 673.311,20.1415 680,35.5C 680.667,356.167 680.667,676.833 680,997.5C 677.433,1024.07 663.267,1040.9 637.5,1048C 438.833,1048.67 240.167,1048.67 41.5,1048C 22.3766,1040.54 10.8766,1026.71 7,1006.5C 6.83333,979 6.66667,951.5 6.5,924C 7.64238,627.166 7.80904,330.333 7,33.5C 10.3006,24.5307 16.1339,17.6973 24.5,13C 30.3281,9.78826 36.3281,7.28826 42.5,5.5 Z"/></g>
<g><path style="opacity:1" fill="#1c1c12" d="M 42.5,54.5 C 44.8333,54.5 47.1667,54.5 49.5,54.5C 49.6667,90.5015 49.5,126.502 49,162.5C 46.5823,164.68 43.9156,165.013 41,163.5C 40.3333,127.833 40.3333,92.1667 41,56.5C 41.7172,55.9558 42.2172,55.2891 42.5,54.5 Z"/></g>
<g><path style="opacity:1" fill="#202016" d="M 74.5,55.5 C 81.3269,55.1241 87.9935,55.9574 94.5,58C 99.5512,60.7199 102.718,64.8865 104,70.5C 104.667,96.5 104.667,122.5 104,148.5C 100.428,159.888 92.5942,165.888 80.5,166.5C 69.3078,165.682 62.1411,160.015 59,149.5C 58.7597,122.831 59.093,96.1643 60,69.5C 61.4545,66.0879 63.2879,62.9212 65.5,60C 68.5919,58.4541 71.5919,56.9541 74.5,55.5 Z"/></g>
<g><path style="opacity:1" fill="#fcfcfc" d="M 76.5,64.5 C 80.6049,64.2338 84.6049,64.7338 88.5,66C 91,67.1667 92.8333,69 94,71.5C 94.6667,97.1667 94.6667,122.833 94,148.5C 88.5534,156.815 81.3867,158.648 72.5,154C 71.2125,152.59 70.0458,151.09 69,149.5C 68.3333,124.5 68.3333,99.5 69,74.5C 70.2133,70.1305 72.7133,66.7972 76.5,64.5 Z"/></g>
<g><path style="opacity:1" fill="#1c1c13" d="M 190.5,136.5 C 211.815,133.572 227.315,141.572 237,160.5C 239.82,174.22 236.82,186.553 228,197.5C 225.317,200.016 222.817,202.683 220.5,205.5C 221.167,205.833 221.833,206.167 222.5,206.5C 247.316,196.995 264.149,204.662 273,229.5C 276.057,247.528 270.223,261.695 255.5,272C 239.994,279.989 226.494,277.489 215,264.5C 212.167,258.83 208.834,253.497 205,248.5C 205.086,265.105 209.086,280.771 217,295.5C 217.495,297.473 217.662,299.473 217.5,301.5C 205.167,300.167 192.833,300.167 180.5,301.5C 184.493,291.153 187.66,280.486 190,269.5C 194.011,263.466 195.511,256.799 194.5,249.5C 192.408,249.561 190.908,250.561 190,252.5C 186.443,261.403 180.61,268.569 172.5,274C 143.562,278.893 127.895,266.727 125.5,237.5C 127.798,212.362 141.464,200.862 166.5,203C 180.162,208.679 181.662,206.513 171,196.5C 157.68,178.563 158.514,161.396 173.5,145C 179.259,142.121 184.925,139.287 190.5,136.5 Z"/></g>
<g><path style="opacity:1" fill="#1d1d13" d="M 487.5,137.5 C 498.3,137.376 508.3,140.209 517.5,146C 532.029,161.834 533.196,178.667 521,196.5C 518.295,200.03 515.462,203.364 512.5,206.5C 513.333,206.833 514.167,207.167 515,207.5C 539.378,198.526 555.712,206.193 564,230.5C 566.243,245.769 562.076,258.936 551.5,270C 534.946,281.324 519.779,279.824 506,265.5C 503.411,259.984 500.078,254.984 496,250.5C 495.78,266.621 499.78,281.621 508,295.5C 508.497,298.146 508.664,300.813 508.5,303.5C 496.472,301.228 484.472,301.228 472.5,303.5C 471.359,301.579 471.192,299.579 472,297.5C 480.52,283.285 484.52,267.952 484,251.5C 479.324,261.843 472.158,270.01 462.5,276C 437.475,280.653 422.308,270.486 417,245.5C 414.942,225.106 423.442,211.273 442.5,204C 444.667,203.833 446.833,203.667 449,203.5C 456.28,204.497 463.447,205.663 470.5,207C 464.133,200.304 458.966,192.804 455,184.5C 449.272,164.802 455.439,150.302 473.5,141C 478.278,139.751 482.945,138.584 487.5,137.5 Z"/></g>
<g><path style="opacity:1" fill="#1e1e14" d="M 63.5,175.5 C 70.2916,174.667 76.6249,175.834 82.5,179C 85.3686,181.906 86.7019,185.406 86.5,189.5C 85.6235,193.884 84.7902,198.218 84,202.5C 98.2446,203.088 103.911,210.421 101,224.5C 94.9673,235.623 86.8007,237.457 76.5,230C 75.2283,228.693 74.2283,227.193 73.5,225.5C 73.1667,226 72.8333,226.5 72.5,227C 74.0945,233.269 75.7612,239.436 77.5,245.5C 72.0414,245.897 66.7081,245.397 61.5,244C 65.1257,238.324 66.959,232.157 67,225.5C 58.32,237.031 49.32,237.365 40,226.5C 36.0181,211.318 41.8514,203.318 57.5,202.5C 56.9638,199.445 56.1305,196.445 55,193.5C 53.3,185.237 56.1333,179.237 63.5,175.5 Z"/></g>
<g><path style="opacity:1" fill="#1c1d13" d="M 336.5,235.5 C 350.558,234.136 363.058,237.803 374,246.5C 386.31,261.844 386.644,277.51 375,293.5C 371.038,296.274 368.538,299.941 367.5,304.5C 386.618,296.711 402.118,301.045 414,317.5C 421.257,333.787 419.59,349.12 409,363.5C 396.681,375.508 382.847,377.674 367.5,370C 361.241,363.745 355.741,356.912 351,349.5C 350.189,357.287 350.855,364.953 353,372.5C 356.52,381.532 360.02,390.532 363.5,399.5C 350.475,398.586 337.475,398.252 324.5,398.5C 329.888,386.838 334.388,374.838 338,362.5C 339.328,357.558 339.661,352.558 339,347.5C 334.045,353.911 329.211,360.411 324.5,367C 310.381,377.046 296.381,376.879 282.5,366.5C 266.559,346.604 266.559,326.77 282.5,307C 292.209,301.843 302.542,300.177 313.5,302C 316.834,302.789 320.001,303.956 323,305.5C 323.667,304.5 323.667,303.5 323,302.5C 311.217,292.151 305.883,279.151 307,263.5C 311.2,248.131 321.034,238.798 336.5,235.5 Z"/></g>
<g><path style="opacity:1" fill="#1c1c13" d="M 207.5,496.5 C 197.833,495.833 188.167,495.167 178.5,494.5C 183.224,481.834 188.057,469.167 193,456.5C 193.498,453.183 193.665,449.85 193.5,446.5C 193.5,445.5 193.5,444.5 193.5,443.5C 191.381,443.468 190.048,444.468 189.5,446.5C 184.992,458.508 176.658,466.674 164.5,471C 151.256,473.129 140.422,468.962 132,458.5C 119.059,438.862 120.892,420.695 137.5,404C 149.852,395.86 162.519,395.36 175.5,402.5C 176.167,402.167 176.833,401.833 177.5,401.5C 169.754,393.911 164.254,384.911 161,374.5C 158.473,351.002 168.973,337.169 192.5,333C 218.797,330.315 233.464,341.981 236.5,368C 235.845,381.001 230.345,391.501 220,399.5C 219.517,400.448 219.351,401.448 219.5,402.5C 244.339,392.607 261.839,399.94 272,424.5C 274.768,441.387 269.601,455.22 256.5,466C 240.784,474.875 226.617,473.041 214,460.5C 210.915,455.328 207.581,450.328 204,445.5C 203.333,450.5 203.333,455.5 204,460.5C 207.912,472.643 212.079,484.643 216.5,496.5C 213.5,496.5 210.5,496.5 207.5,496.5 Z"/></g>
<g><path style="opacity:1" fill="#1d1d13" d="M 482.5,333.5 C 501.775,331.843 516.275,339.176 526,355.5C 529.025,367.077 527.692,378.077 522,388.5C 518.547,393.621 514.714,398.454 510.5,403C 516.985,401.307 523.652,400.141 530.5,399.5C 549.568,401.065 560.401,411.399 563,430.5C 564.076,451.868 554.576,466.035 534.5,473C 522.065,474.537 511.899,470.371 504,460.5C 500.784,456.624 498.451,452.291 497,447.5C 494.704,444.612 493.538,445.112 493.5,449C 495.053,465.001 499.886,480.168 508,494.5C 508.49,495.793 508.657,497.127 508.5,498.5C 496.299,496.42 484.133,496.42 472,498.5C 471.167,498.167 470.333,497.833 469.5,497.5C 475.711,481.866 480.711,465.866 484.5,449.5C 484.523,447.933 484.023,446.6 483,445.5C 479.284,453.089 474.451,459.922 468.5,466C 455.139,474.63 441.806,474.63 428.5,466C 414.186,450.676 411.686,433.509 421,414.5C 433.095,398.735 448.262,395.069 466.5,403.5C 467.167,403.167 467.833,402.833 468.5,402.5C 463.486,396.972 458.986,390.972 455,384.5C 447.35,358.467 456.517,341.467 482.5,333.5 Z"/></g>
<g><path style="opacity:1" fill="#e6cb8b" d="M 193.5,446.5 C 192.167,446.5 190.833,446.5 189.5,446.5C 190.048,444.468 191.381,443.468 193.5,443.5C 193.5,444.5 193.5,445.5 193.5,446.5 Z"/></g>
<g><path style="opacity:1" fill="#babab8" d="M 178.5,494.5 C 188.167,495.167 197.833,495.833 207.5,496.5C 197.478,496.832 187.478,496.499 177.5,495.5C 177.624,494.893 177.957,494.56 178.5,494.5 Z"/></g>
<g><path style="opacity:1" fill="#1c1c13" d="M 178.5,555.5 C 190.746,556.491 202.913,556.824 215,556.5C 215.325,558.553 214.991,560.553 214,562.5C 207.619,575.31 203.452,588.81 201.5,603C 201.542,604.967 202.042,606.801 203,608.5C 206.558,600.26 211.725,593.093 218.5,587C 227.82,581.286 237.82,579.953 248.5,583C 260.106,588.615 267.272,597.782 270,610.5C 272.402,624.956 268.569,637.456 258.5,648C 245.98,655.648 232.98,656.482 219.5,650.5C 218.833,650.833 218.167,651.167 217.5,651.5C 219.771,655.274 222.604,658.607 226,661.5C 237.725,678.063 237.225,694.229 224.5,710C 207.992,722.154 190.658,723.487 172.5,714C 157.48,700.592 154.314,684.758 163,666.5C 167.546,661.623 171.713,656.456 175.5,651C 168.667,652.597 161.667,653.764 154.5,654.5C 142.26,652.957 132.76,646.957 126,636.5C 119.039,617.966 122.539,601.799 136.5,588C 152.62,576.741 167.453,578.241 181,592.5C 184.71,597.275 187.876,602.275 190.5,607.5C 191.893,605.326 191.56,603.493 189.5,602C 191.504,599.159 192.004,595.993 191,592.5C 185.732,580.529 181.565,568.195 178.5,555.5 Z"/></g>
<g><path style="opacity:1" fill="#1c1d13" d="M 504.5,556.5 C 505.552,556.351 506.552,556.517 507.5,557C 503.815,566.874 499.981,576.707 496,586.5C 493.53,594.391 492.697,602.391 493.5,610.5C 496.995,606.815 499.495,602.482 501,597.5C 517.431,578.706 534.764,577.706 553,594.5C 567.207,615.303 565.041,634.137 546.5,651C 534.457,658.09 522.291,658.256 510,651.5C 509.5,651.833 509,652.167 508.5,652.5C 511.81,656.978 515.31,661.311 519,665.5C 529.308,683.395 527.141,699.561 512.5,714C 495.797,723.921 479.13,723.921 462.5,714C 458.248,710.419 454.748,706.252 452,701.5C 449.339,692.567 449.006,683.567 451,674.5C 452.667,671.167 454.333,667.833 456,664.5C 460.534,660.301 464.701,655.801 468.5,651C 462.107,652.518 455.774,654.352 449.5,656.5C 431.802,655.915 420.302,647.248 415,630.5C 411.274,613.343 416.108,599.176 429.5,588C 445.671,578.918 460.171,581.084 473,594.5C 476.083,598.4 478.416,602.734 480,607.5C 480.689,608.357 481.522,609.023 482.5,609.5C 482.833,607.667 483.167,605.833 483.5,604C 482.225,599.334 481.392,594.501 481,589.5C 477.412,578.674 473.578,568.008 469.5,557.5C 477.35,557.423 485.183,557.756 493,558.5C 497.095,558.569 500.928,557.903 504.5,556.5 Z"/></g>
<g><path style="opacity:1" fill="#1c1c13" d="M 323.5,654.5 C 335.835,655.792 348.168,655.792 360.5,654.5C 356.645,666.572 352.479,678.572 348,690.5C 347.171,695.533 347.338,700.533 348.5,705.5C 352.333,699.833 356.167,694.167 360,688.5C 368.895,679.653 379.395,677.153 391.5,681C 403.579,685.944 411.413,694.777 415,707.5C 416.84,746.673 399.006,760.839 361.5,750C 381.767,766.442 384.934,785.609 371,807.5C 361.712,815.373 350.879,819.039 338.5,818.5C 321.83,817.406 310.33,809.072 304,793.5C 301.258,783.593 302.591,774.259 308,765.5C 311.976,760.023 316.142,754.69 320.5,749.5C 319.833,749.167 319.167,748.833 318.5,748.5C 292.989,758.661 276.156,750.661 268,724.5C 265.414,700.313 275.747,684.979 299,678.5C 306.649,679.05 313.816,681.216 320.5,685C 325.632,691.448 330.632,697.948 335.5,704.5C 336.661,700.205 336.828,695.871 336,691.5C 331.924,679.105 327.758,666.772 323.5,654.5 Z"/></g>
<g><path style="opacity:1" fill="#1c1c13" d="M 173.5,848.5 C 175.104,847.713 175.771,846.38 175.5,844.5C 173.302,844.12 171.635,844.787 170.5,846.5C 144.091,855.551 127.924,846.551 122,819.5C 120.126,800.072 127.96,786.239 145.5,778C 159.284,774.152 170.784,777.652 180,788.5C 183,793.167 186,797.833 189,802.5C 189.667,797.5 189.667,792.5 189,787.5C 185.257,775.44 181.424,763.44 177.5,751.5C 190.212,752.494 202.879,752.828 215.5,752.5C 207.391,766.659 202.391,781.826 200.5,798C 200.833,799.833 201.167,801.667 201.5,803.5C 202.478,803.023 203.311,802.357 204,801.5C 210.041,784.228 222.207,776.062 240.5,777C 258.784,782.562 268.45,794.896 269.5,814C 269.223,828.228 263.223,839.228 251.5,847C 246.291,849.51 240.791,850.677 235,850.5C 228.593,850.13 222.426,848.963 216.5,847C 222.2,853.562 227.033,860.729 231,868.5C 237.193,889.949 230.026,905.115 209.5,914C 200.887,915.505 192.22,915.839 183.5,915C 178.62,912.393 173.62,910.06 168.5,908C 166.353,904.885 163.853,902.052 161,899.5C 152.725,879.235 156.892,862.235 173.5,848.5 Z"/></g>
<g><path style="opacity:1" fill="#1c1c13" d="M 467.5,752.5 C 480.184,754.988 492.851,754.988 505.5,752.5C 504.646,757.22 503.479,761.886 502,766.5C 494.611,778.117 491.278,790.784 492,804.5C 492.667,805.833 493.333,805.833 494,804.5C 498.587,795.168 504.754,787.001 512.5,780C 536.051,774.521 551.885,783.021 560,805.5C 561.748,818.093 559.415,829.76 553,840.5C 543.403,849.78 531.903,853.614 518.5,852C 514.802,850.151 511.136,848.318 507.5,846.5C 506.417,847.365 506.251,848.365 507,849.5C 525.815,865.08 529.148,883.413 517,904.5C 514.261,907.118 511.427,909.618 508.5,912C 487.624,921.955 469.124,918.789 453,902.5C 447.376,891.363 446.042,879.697 449,867.5C 454.628,861.365 460.128,855.032 465.5,848.5C 464.833,848.167 464.167,847.833 463.5,847.5C 437.904,857.591 421.07,849.591 413,823.5C 410.33,807.503 415.164,794.336 427.5,784C 437.583,778.326 448.25,776.993 459.5,780C 462.485,781.936 465.318,784.102 468,786.5C 472.333,792.833 476.667,799.167 481,805.5C 482.499,797.627 481.166,790.294 477,783.5C 476.407,773.721 473.407,764.721 468,756.5C 467.51,755.207 467.343,753.873 467.5,752.5 Z"/></g>
<g><path style="opacity:1" fill="#1e1e14" d="M 605.5,848.5 C 606.043,848.44 606.376,848.107 606.5,847.5C 602.893,846.511 599.226,846.177 595.5,846.5C 587.491,841.808 584.324,834.808 586,825.5C 595.63,812.254 605.297,812.254 615,825.5C 615.667,823.833 615.667,822.167 615,820.5C 613.179,815.21 611.679,809.877 610.5,804.5C 615.119,805.314 619.786,805.647 624.5,805.5C 624.047,809.693 622.881,813.693 621,817.5C 619.447,825.961 620.947,826.627 625.5,819.5C 635.789,813.205 643.622,815.538 649,826.5C 650.82,841.181 644.32,848.514 629.5,848.5C 633.255,853.571 634.422,859.237 633,865.5C 632.654,867.848 631.487,869.681 629.5,871C 620.524,877.407 612.024,876.907 604,869.5C 598.978,862.032 599.478,855.032 605.5,848.5 Z"/></g>
<g><path style="opacity:1" fill="#efc44c" d="M 173.5,848.5 C 172.5,847.833 171.5,847.167 170.5,846.5C 171.635,844.787 173.302,844.12 175.5,844.5C 175.771,846.38 175.104,847.713 173.5,848.5 Z"/></g>
<g><path style="opacity:1" fill="#8b8b86" d="M 595.5,846.5 C 599.226,846.177 602.893,846.511 606.5,847.5C 606.376,848.107 606.043,848.44 605.5,848.5C 602.167,847.833 598.833,847.167 595.5,846.5 Z"/></g>
<g><path style="opacity:1" fill="#1f1f15" d="M 596.5,888.5 C 609.609,885.875 619.443,890.209 626,901.5C 626.667,929.167 626.667,956.833 626,984.5C 624.167,991.667 619.667,996.167 612.5,998C 599.442,1001.21 589.276,997.377 582,986.5C 581.333,959.5 581.333,932.5 582,905.5C 584.16,897.51 588.994,891.843 596.5,888.5 Z"/></g>
<g><path style="opacity:1" fill="#1e1e14" d="M 637.5,889.5 C 640.119,889.232 642.619,889.565 645,890.5C 645.667,926.167 645.667,961.833 645,997.5C 642.879,999.457 640.379,999.957 637.5,999C 636.874,998.25 636.374,997.416 636,996.5C 635.687,960.76 636.187,925.094 637.5,889.5 Z"/></g>
<g><path style="opacity:1" fill="#fafafa" d="M 600.5,897.5 C 607.519,896.61 613.019,898.944 617,904.5C 617.667,929.833 617.667,955.167 617,980.5C 615.424,987.401 611.09,990.401 604,989.5C 597.086,989.592 592.753,986.259 591,979.5C 590.264,954.819 590.598,930.153 592,905.5C 593.773,901.56 596.606,898.893 600.5,897.5 Z"/></g>
</svg>
