<?xml version="1.0" encoding="UTF-8"?>
<!DOCTYPE svg PUBLIC "-//W3C//DTD SVG 1.1//EN" "http://www.w3.org/Graphics/SVG/1.1/DTD/svg11.dtd">
<svg xmlns="http://www.w3.org/2000/svg" version="1.1" width="691px" height="1056px" style="shape-rendering:geometricPrecision; text-rendering:geometricPrecision; image-rendering:optimizeQuality; fill-rule:evenodd; clip-rule:evenodd" xmlns:xlink="http://www.w3.org/1999/xlink">
<g><path style="opacity:0.906" fill="#bdbfc1" d="M 45.5,0.5 C 245.833,1.12134 446.166,1.62134 646.5,2C 665.686,6.52403 678.519,18.024 685,36.5C 684.274,355.74 684.441,674.906 685.5,994C 683.799,1022.7 669.466,1042.03 642.5,1052C 639.833,1052.33 637.167,1052.67 634.5,1053C 437.167,1053.67 239.833,1053.67 42.5,1053C 27.9238,1049.1 16.7571,1040.6 9,1027.5C 6.21067,1022.47 4.21067,1017.13 3,1011.5C 2.00077,1002.53 1.50077,993.531 1.5,984.5C 2.61472,668.167 2.78139,351.834 2,35.5C 3.21735,26.6166 7.38401,19.4499 14.5,14C 23.7345,6.70993 34.0678,2.20993 45.5,0.5 Z"/></g>
<g><path style="opacity:1" fill="#fefefe" d="M 42.5,5.5 C 243.5,5.98485 444.5,6.48485 645.5,7C 661.811,10.6415 673.311,20.1415 680,35.5C 680.667,356.167 680.667,676.833 680,997.5C 677.215,1023.9 663.048,1040.73 637.5,1048C 438.833,1048.67 240.167,1048.67 41.5,1048C 22.3766,1040.54 10.8766,1026.71 7,1006.5C 6.83333,979 6.66667,951.5 6.5,924C 7.64238,627.166 7.80904,330.333 7,33.5C 10.3006,24.5307 16.1339,17.6973 24.5,13C 30.3281,9.78826 36.3281,7.28826 42.5,5.5 Z"/></g>
<g><path style="opacity:1" fill="#d22d0e" d="M 32.5,58.5 C 34.5273,58.3379 36.5273,58.5045 38.5,59C 39.1258,59.7504 39.6258,60.5838 40,61.5C 41.0125,96.4966 41.3459,131.497 41,166.5C 39.3342,169.379 36.8342,170.212 33.5,169C 32.1068,167.829 31.2735,166.329 31,164.5C 30.8333,147 30.6667,129.5 30.5,112C 30.5133,93.9483 31.18,76.115 32.5,58.5 Z"/></g>
<g><path style="opacity:1" fill="#d02404" d="M 66.5,58.5 C 79.2154,56.9966 88.7154,61.6633 95,72.5C 95.6667,99.8333 95.6667,127.167 95,154.5C 87.2342,169.715 75.4009,173.882 59.5,167C 53.6459,163.134 50.4792,157.634 50,150.5C 49.3333,124.5 49.3333,98.5 50,72.5C 53.27,65.127 58.77,60.4603 66.5,58.5 Z"/></g>
<g><path style="opacity:1" fill="#fefcfc" d="M 66.5,68.5 C 71.742,68.0227 76.742,68.8561 81.5,71C 83.604,73.0424 84.7707,75.5424 85,78.5C 85.6667,102.5 85.6667,126.5 85,150.5C 84.3717,154.467 82.205,157.301 78.5,159C 74.5,159.667 70.5,159.667 66.5,159C 62.8345,157.332 60.6678,154.499 60,150.5C 59.3333,125.5 59.3333,100.5 60,75.5C 61.6941,72.6424 63.8607,70.309 66.5,68.5 Z"/></g>
<g><path style="opacity:1" fill="#d02101" d="M 473.5,138.5 C 476.614,139.091 479.114,140.758 481,143.5C 500.956,168.458 521.289,193.125 542,217.5C 543.959,219.777 545.459,222.277 546.5,225C 524.143,255.532 500.81,285.366 476.5,314.5C 454.175,288.004 432.008,261.337 410,234.5C 407.63,232.13 406.13,229.296 405.5,226C 405.858,223.968 406.692,222.134 408,220.5C 430.108,193.243 451.941,165.91 473.5,138.5 Z"/></g>
<g><path style="opacity:1" fill="#d02101" d="M 206.5,140.5 C 209.056,141.543 211.223,143.21 213,145.5C 234.333,171.5 255.667,197.5 277,223.5C 279.149,227.087 278.816,230.42 276,233.5C 255.426,258.985 235.093,284.651 215,310.5C 213.281,312.557 211.281,314.224 209,315.5C 206.719,314.224 204.719,312.557 203,310.5C 182.711,285.209 162.044,260.209 141,235.5C 139.304,233.44 138.137,231.107 137.5,228.5C 138.816,225.205 140.649,222.205 143,219.5C 164.655,193.502 185.822,167.168 206.5,140.5 Z"/></g>
<g><path style="opacity:1" fill="#d02202" d="M 61.5,181.5 C 72.2238,192.23 81.8905,203.897 90.5,216.5C 81.9284,228.742 72.5951,240.409 62.5,251.5C 54.8423,243.006 47.3423,234.34 40,225.5C 37.5345,222.872 35.7012,219.872 34.5,216.5C 43.1085,204.555 52.1085,192.888 61.5,181.5 Z"/></g>
<g><path style="opacity:1" fill="#d02101" d="M 339.5,240.5 C 343.273,239.822 346.106,241.156 348,244.5C 366.761,267.684 385.761,290.684 405,313.5C 408.227,317.471 411.06,321.638 413.5,326C 412.324,329.514 410.491,332.681 408,335.5C 387.953,359.878 368.286,384.545 349,409.5C 347.316,411.351 345.483,413.018 343.5,414.5C 339.671,411.504 336.171,408.171 333,404.5C 314.045,380.543 294.712,356.876 275,333.5C 272.154,330.081 271.82,326.414 274,322.5C 296.563,295.684 318.396,268.35 339.5,240.5 Z"/></g>
<g><path style="opacity:1" fill="#d02101" d="M 475.5,338.5 C 477.144,338.286 478.644,338.62 480,339.5C 483.333,344.167 486.667,348.833 490,353.5C 508.429,376.018 527.095,398.352 546,420.5C 548,423.5 548,426.5 546,429.5C 535.617,442.215 525.617,455.215 516,468.5C 505.18,480.638 495.18,493.305 486,506.5C 483.592,509.248 480.926,511.582 478,513.5C 476.395,512.899 475.062,511.899 474,510.5C 452.296,483.971 430.462,457.638 408.5,431.5C 406.872,427.193 407.372,423.193 410,419.5C 432.321,392.836 454.155,365.836 475.5,338.5 Z"/></g>
<g><path style="opacity:1" fill="#d02101" d="M 207.5,341.5 C 211.672,343.158 215.172,345.825 218,349.5C 236.333,371.833 254.667,394.167 273,416.5C 275.826,419.989 277.993,423.822 279.5,428C 277.458,432.39 274.958,436.557 272,440.5C 252.286,464.545 232.953,488.879 214,513.5C 211.667,516.167 209.333,516.167 207,513.5C 185,486.833 163,460.167 141,433.5C 138.82,429.586 139.154,425.919 142,422.5C 163.842,395.469 185.675,368.469 207.5,341.5 Z"/></g>
<g><path style="opacity:1" fill="#d02101" d="M 476.5,538.5 C 477.978,538.238 479.311,538.571 480.5,539.5C 502.538,566.695 524.704,593.695 547,620.5C 547.273,622.101 547.773,623.601 548.5,625C 547.346,629.142 545.512,632.976 543,636.5C 536.293,643.538 529.96,650.872 524,658.5C 510.426,677.158 496.259,695.325 481.5,713C 480.167,713.667 478.833,713.667 477.5,713C 455.786,686.408 433.953,659.908 412,633.5C 407.964,629.361 407.631,625.028 411,620.5C 433.574,593.644 455.407,566.311 476.5,538.5 Z"/></g>
<g><path style="opacity:1" fill="#d02101" d="M 209.5,541.5 C 212.263,541.744 214.429,543.077 216,545.5C 236.289,570.791 256.956,595.791 278,620.5C 279.866,622.519 281.033,624.852 281.5,627.5C 280.467,631.229 278.634,634.563 276,637.5C 256.286,661.545 236.953,685.879 218,710.5C 214.651,716.528 210.985,716.861 207,711.5C 186.377,685.875 165.377,660.542 144,635.5C 140.372,632.359 139.705,628.692 142,624.5C 164.508,596.803 187.008,569.136 209.5,541.5 Z"/></g>
<g><path style="opacity:1" fill="#d02101" d="M 343.5,640.5 C 346.325,640.081 348.491,641.081 350,643.5C 362.689,658.688 375.189,674.022 387.5,689.5C 388.325,690.386 389.325,690.719 390.5,690.5C 390.491,692.308 390.991,693.975 392,695.5C 399.667,704.5 407.333,713.5 415,722.5C 416.301,724.365 416.635,726.365 416,728.5C 393.214,757.778 370.214,786.778 347,815.5C 345.739,815.241 344.739,814.574 344,813.5C 322.333,787.167 300.667,760.833 279,734.5C 277.134,732.481 275.967,730.148 275.5,727.5C 275.667,726.5 275.833,725.5 276,724.5C 298.713,696.626 321.213,668.626 343.5,640.5 Z"/></g>
<g><path style="opacity:1" fill="#d02101" d="M 479.5,737.5 C 503.513,765.352 527.013,793.685 550,822.5C 550.667,824.5 550.667,826.5 550,828.5C 528.619,854.879 507.619,881.546 487,908.5C 485.281,910.557 483.281,912.224 481,913.5C 479.395,912.899 478.062,911.899 477,910.5C 456.333,885.167 435.667,859.833 415,834.5C 408.577,830.29 407.91,825.29 413,819.5C 435.415,792.319 457.581,764.986 479.5,737.5 Z"/></g>
<g><path style="opacity:1" fill="#d02101" d="M 210.5,741.5 C 212.722,741.178 214.556,741.845 216,743.5C 237.667,769.833 259.333,796.167 281,822.5C 284.299,826.691 283.966,830.691 280,834.5C 258.385,862.094 236.552,889.428 214.5,916.5C 213.5,916 212.5,915.5 211.5,915C 189.03,887.858 166.53,860.691 144,833.5C 141.642,828.983 142.308,824.983 146,821.5C 168.092,795.248 189.592,768.582 210.5,741.5 Z"/></g>
<g><path style="opacity:1" fill="#d02302" d="M 623.5,802.5 C 625.39,802.297 626.89,802.963 628,804.5C 635.623,814.458 643.623,824.125 652,833.5C 652.167,834.5 652.333,835.5 652.5,836.5C 652.033,839.148 650.866,841.481 649,843.5C 641.394,853.058 633.561,862.392 625.5,871.5C 617.176,862.34 609.009,853.007 601,843.5C 599.304,841.44 598.137,839.107 597.5,836.5C 605.775,824.889 614.441,813.556 623.5,802.5 Z"/></g>
<g><path style="opacity:1" fill="#d12606" d="M 606.5,885.5 C 613.241,885.171 619.908,885.671 626.5,887C 631.731,889.232 635.231,893.065 637,898.5C 637.841,925.499 638.174,952.499 638,979.5C 636.363,987.138 631.863,992.305 624.5,995C 608.622,999.763 598.122,994.597 593,979.5C 593.351,952.839 593.351,926.172 593,899.5C 595.687,892.981 600.187,888.314 606.5,885.5 Z"/></g>
<g><path style="opacity:1" fill="#d12908" d="M 648.5,885.5 C 651.365,885.055 653.865,885.722 656,887.5C 657.539,922.818 657.872,958.152 657,993.5C 654.275,995.758 651.275,996.091 648,994.5C 647.174,958.095 647.34,921.762 648.5,885.5 Z"/></g>
<g><path style="opacity:1" fill="#fefdfc" d="M 612.5,894.5 C 618.369,894.066 623.202,896.066 627,900.5C 627.919,926.164 628.252,951.831 628,977.5C 623.557,986.646 616.724,988.813 607.5,984C 605.106,982.048 603.606,979.548 603,976.5C 602.333,951.833 602.333,927.167 603,902.5C 605.161,898.495 608.328,895.829 612.5,894.5 Z"/></g>
</svg>
