<?xml version="1.0" encoding="UTF-8"?>
<!DOCTYPE svg PUBLIC "-//W3C//DTD SVG 1.1//EN" "http://www.w3.org/Graphics/SVG/1.1/DTD/svg11.dtd">
<svg xmlns="http://www.w3.org/2000/svg" version="1.1" width="691px" height="1056px" style="shape-rendering:geometricPrecision; text-rendering:geometricPrecision; image-rendering:optimizeQuality; fill-rule:evenodd; clip-rule:evenodd" xmlns:xlink="http://www.w3.org/1999/xlink">
<g><path style="opacity:0.906" fill="#bdbfc1" d="M 45.5,0.5 C 245.833,1.12134 446.166,1.62134 646.5,2C 665.686,6.52403 678.519,18.024 685,36.5C 684.264,355.74 684.431,674.906 685.5,994C 683.799,1022.7 669.466,1042.03 642.5,1052C 639.833,1052.33 637.167,1052.67 634.5,1053C 437.167,1053.67 239.833,1053.67 42.5,1053C 27.9238,1049.1 16.7571,1040.6 9,1027.5C 6.21067,1022.47 4.21067,1017.13 3,1011.5C 2.00077,1002.53 1.50077,993.531 1.5,984.5C 2.61472,668.167 2.78139,351.834 2,35.5C 3.21735,26.6166 7.38401,19.4499 14.5,14C 23.7345,6.70993 34.0678,2.20993 45.5,0.5 Z"/></g>
<g><path style="opacity:1" fill="#fefefe" d="M 42.5,5.5 C 243.5,5.98485 444.5,6.48485 645.5,7C 661.811,10.6415 673.311,20.1415 680,35.5C 680.667,356.167 680.667,676.833 680,997.5C 677.433,1024.07 663.267,1040.9 637.5,1048C 438.833,1048.67 240.167,1048.67 41.5,1048C 22.3766,1040.54 10.8766,1026.71 7,1006.5C 6.83333,979 6.66667,951.5 6.5,924C 7.64238,627.166 7.80904,330.333 7,33.5C 10.3006,24.5307 16.1339,17.6973 24.5,13C 30.3281,9.78826 36.3281,7.28826 42.5,5.5 Z"/></g>
<g><path style="opacity:1" fill="#d12909" d="M 42.5,53.5 C 45.3938,53.0423 47.8938,53.709 50,55.5C 50.6667,77.1667 50.6667,98.8333 50,120.5C 49.9833,134.987 49.3166,149.32 48,163.5C 45.7635,162.944 43.7635,161.944 42,160.5C 40.531,125.512 40.1977,90.5117 41,55.5C 41.7172,54.9558 42.2172,54.2891 42.5,53.5 Z"/></g>
<g><path style="opacity:1" fill="#d02505" d="M 72.5,54.5 C 79.5736,54.161 86.5736,54.661 93.5,56C 98.7306,58.2315 102.231,62.0648 104,67.5C 104.667,94.8333 104.667,122.167 104,149.5C 101.511,157.675 96.0107,162.508 87.5,164C 76.1206,166.721 67.2873,163.221 61,153.5C 60.6667,152.167 60.3333,150.833 60,149.5C 59.3333,122.5 59.3333,95.5 60,68.5C 61.9265,61.7448 66.0932,57.0781 72.5,54.5 Z"/></g>
<g><path style="opacity:1" fill="#fefafa" d="M 76.5,63.5 C 83.3507,62.8251 89.184,64.8251 94,69.5C 95.935,95.1485 95.935,120.815 94,146.5C 89.2381,155.128 82.4047,157.295 73.5,153C 71.9512,151.786 70.7845,150.286 70,148.5C 69.3333,122.5 69.3333,96.5 70,70.5C 71.0183,66.9853 73.1849,64.652 76.5,63.5 Z"/></g>
<g><path style="opacity:1" fill="#d02101" d="M 157.5,137.5 C 178.778,134.554 194.278,142.554 204,161.5C 219.091,136.408 239.257,131.074 264.5,145.5C 271.921,153.857 275.587,163.69 275.5,175C 274.624,190.296 270.124,204.463 262,217.5C 245.833,243.346 227,267.179 205.5,289C 202.211,289.746 199.711,288.58 198,285.5C 177.692,263.197 159.692,239.197 144,213.5C 133.414,196.317 130.747,177.984 136,158.5C 139.802,147.862 146.969,140.862 157.5,137.5 Z"/></g>
<g><path style="opacity:1" fill="#d02100" d="M 440.5,138.5 C 457.205,135.899 471.038,140.899 482,153.5C 483.599,156.378 485.433,159.044 487.5,161.5C 492.994,153.84 499.661,147.34 507.5,142C 539.428,131.786 556.762,143.286 559.5,176.5C 558.377,192.368 553.544,207.035 545,220.5C 528.878,244.882 510.712,267.715 490.5,289C 488.5,289.667 486.5,289.667 484.5,289C 463.455,266.724 444.955,242.557 429,216.5C 421.414,204.578 417.581,191.578 417.5,177.5C 416.55,159.176 424.217,146.176 440.5,138.5 Z"/></g>
<g><path style="opacity:1" fill="#d02202" d="M 48.5,177.5 C 53.777,176.931 58.777,177.765 63.5,180C 66,182.5 68.5,185 71,187.5C 79.6577,175.798 89.6577,174.465 101,183.5C 105.155,194.786 103.821,205.452 97,215.5C 89.4767,227.362 80.81,238.362 71,248.5C 57.5857,235.425 46.9191,220.425 39,203.5C 36.7849,197.346 37.1182,191.346 40,185.5C 42.0738,181.923 44.9072,179.256 48.5,177.5 Z"/></g>
<g><path style="opacity:1" fill="#d02101" d="M 302.5,241.5 C 316.805,239.989 328.639,244.656 338,255.5C 340.268,259.051 342.768,262.384 345.5,265.5C 359.102,242.8 378.102,236.633 402.5,247C 410.228,253.281 414.728,261.447 416,271.5C 417.668,289.496 413.668,306.163 404,321.5C 387.455,347.061 368.622,370.894 347.5,393C 345.833,393.667 344.167,393.667 342.5,393C 322.758,371.599 304.924,348.766 289,324.5C 280.375,311.624 275.541,297.457 274.5,282C 273.894,268.138 278.56,256.472 288.5,247C 293.168,244.82 297.834,242.987 302.5,241.5 Z"/></g>
<g><path style="opacity:1" fill="#d02101" d="M 156.5,345.5 C 168.56,343.605 179.56,346.105 189.5,353C 194.818,357.638 199.318,362.804 203,368.5C 208.536,359.636 216.036,352.803 225.5,348C 256.25,340.42 272.583,352.42 274.5,384C 273.539,397.675 269.705,410.509 263,422.5C 246.374,449.229 227.208,474.062 205.5,497C 203.421,497.808 201.421,497.641 199.5,496.5C 179.744,474.985 161.91,451.985 146,427.5C 137.56,414.015 133.06,399.349 132.5,383.5C 131.985,365.148 139.985,352.481 156.5,345.5 Z"/></g>
<g><path style="opacity:1" fill="#d02100" d="M 440.5,346.5 C 456.414,343.76 469.581,348.427 480,360.5C 481.944,364.11 484.277,367.443 487,370.5C 500.644,347.063 519.811,340.896 544.5,352C 554.017,360.87 558.684,371.87 558.5,385C 557.51,399.455 553.343,412.955 546,425.5C 528.983,452.359 509.15,477.025 486.5,499.5C 464.844,478.019 446.011,454.352 430,428.5C 423.706,418.249 419.373,407.249 417,395.5C 413.748,378.699 417.915,364.199 429.5,352C 433.259,350.121 436.925,348.287 440.5,346.5 Z"/></g>
<g><path style="opacity:1" fill="#d02100" d="M 201.5,550.5 C 202.239,550.369 202.906,550.536 203.5,551C 225.677,574.166 245.177,599.333 262,626.5C 270.577,641.049 273.91,656.716 272,673.5C 266.835,698.516 251.669,708.016 226.5,702C 215.753,697.419 207.753,689.919 202.5,679.5C 197.74,685.848 192.407,691.682 186.5,697C 172.08,705.616 157.747,705.616 143.5,697C 134.358,687.579 130.358,676.245 131.5,663C 131.01,654.46 132.51,646.294 136,638.5C 147.652,616.192 161.652,595.526 178,576.5C 186.04,567.963 193.874,559.296 201.5,550.5 Z"/></g>
<g><path style="opacity:1" fill="#d02101" d="M 485.5,551.5 C 509.481,574.66 529.981,600.66 547,629.5C 557.189,646.963 559.189,665.296 553,684.5C 544.344,702.735 530.177,708.902 510.5,703C 506.673,701.254 503.007,699.254 499.5,697C 494.182,692.362 489.682,687.196 486,681.5C 482.524,685.647 479.024,689.813 475.5,694C 461.722,705.241 446.722,707.241 430.5,700C 422.933,694.751 418.099,687.584 416,678.5C 412.854,660.261 416.187,643.261 426,627.5C 442.995,599.998 462.829,574.664 485.5,551.5 Z"/></g>
<g><path style="opacity:1" fill="#d02101" d="M 341.5,660.5 C 344.652,659.959 347.152,660.959 349,663.5C 367.913,684.072 384.913,706.072 400,729.5C 408.625,742.376 413.459,756.543 414.5,772C 414.673,785.676 410.006,797.342 400.5,807C 383.689,815.659 368.023,813.992 353.5,802C 350.033,797.551 346.7,793.051 343.5,788.5C 328.982,812.064 309.315,817.898 284.5,806C 273.931,794.158 270.098,780.325 273,764.5C 275.02,753.107 279.02,742.441 285,732.5C 301.378,706.616 320.211,682.616 341.5,660.5 Z"/></g>
<g><path style="opacity:1" fill="#d02101" d="M 199.5,763.5 C 202.785,763.269 205.285,764.603 207,767.5C 226.587,789.415 244.254,812.748 260,837.5C 272.542,857.021 274.876,877.687 267,899.5C 258.85,912.672 247.017,918.172 231.5,916C 217.391,912.701 207.224,904.534 201,891.5C 187.805,914.343 168.972,920.843 144.5,911C 135.913,903.975 131.08,894.808 130,883.5C 128.849,868.946 131.849,855.28 139,842.5C 156.317,814.013 176.483,787.679 199.5,763.5 Z"/></g>
<g><path style="opacity:1" fill="#d02101" d="M 484.5,764.5 C 488.737,767.228 492.571,770.561 496,774.5C 513.947,794.402 529.947,815.736 544,838.5C 554.255,854.911 557.588,872.578 554,891.5C 549.884,908.287 539.217,916.954 522,917.5C 513.785,917.142 506.285,914.642 499.5,910C 493.865,905.209 489.199,899.709 485.5,893.5C 480.96,898.72 476.293,903.887 471.5,909C 456.873,918.268 441.873,918.935 426.5,911C 419.29,904.061 415.123,895.561 414,885.5C 412.657,868.205 416.657,852.205 426,837.5C 443.495,811.511 462.995,787.177 484.5,764.5 Z"/></g>
<g><path style="opacity:1" fill="#d02202" d="M 614.5,808.5 C 619.029,808.496 622.529,810.496 625,814.5C 634.152,824.796 641.819,836.129 648,848.5C 650.182,856.284 649.849,863.951 647,871.5C 641.972,876.952 635.806,878.785 628.5,877C 624.405,874.741 620.738,871.907 617.5,868.5C 614.346,871.243 611.012,873.743 607.5,876C 596.613,880.549 589.113,877.383 585,866.5C 583.284,857.162 584.95,848.496 590,840.5C 597.233,829.103 605.399,818.436 614.5,808.5 Z"/></g>
<g><path style="opacity:1" fill="#d12605" d="M 606.5,889.5 C 617.182,889.249 624.682,893.915 629,903.5C 629.167,917.167 629.333,930.833 629.5,944.5C 629.642,959.232 629.142,973.898 628,988.5C 623.461,996.608 616.461,1000.61 607,1000.5C 597.539,1000.61 590.539,996.608 586,988.5C 584.868,974.219 584.368,959.885 584.5,945.5C 584.667,932.5 584.833,919.5 585,906.5C 587.974,895.344 595.141,889.677 606.5,889.5 Z"/></g>
<g><path style="opacity:1" fill="#d12a0a" d="M 640.5,890.5 C 643.119,890.232 645.619,890.565 648,891.5C 648.667,927.5 648.667,963.5 648,999.5C 645,1002.17 642,1002.17 639,999.5C 638.333,968.5 638.333,937.5 639,906.5C 639.215,901.085 639.715,895.752 640.5,890.5 Z"/></g>
<g><path style="opacity:1" fill="#fefbfb" d="M 602.5,899.5 C 609.219,898.542 614.719,900.542 619,905.5C 619.667,931.167 619.667,956.833 619,982.5C 617.327,988.355 613.327,991.021 607,990.5C 600.191,990.938 595.858,987.938 594,981.5C 593.117,956.81 593.45,932.144 595,907.5C 597.028,904.308 599.528,901.641 602.5,899.5 Z"/></g>
</svg>
