<?xml version="1.0" encoding="UTF-8"?>
<!DOCTYPE svg PUBLIC "-//W3C//DTD SVG 1.1//EN" "http://www.w3.org/Graphics/SVG/1.1/DTD/svg11.dtd">
<svg xmlns="http://www.w3.org/2000/svg" version="1.1" width="691px" height="1056px" style="shape-rendering:geometricPrecision; text-rendering:geometricPrecision; image-rendering:optimizeQuality; fill-rule:evenodd; clip-rule:evenodd" xmlns:xlink="http://www.w3.org/1999/xlink">
<g><path style="opacity:0.906" fill="#bdbfc1" d="M 45.5,0.5 C 245.833,1.12134 446.166,1.62134 646.5,2C 665.686,6.52403 678.519,18.024 685,36.5C 684.264,355.74 684.431,674.906 685.5,994C 683.799,1022.7 669.466,1042.03 642.5,1052C 639.833,1052.33 637.167,1052.67 634.5,1053C 437.167,1053.67 239.833,1053.67 42.5,1053C 27.9238,1049.1 16.7571,1040.6 9,1027.5C 6.21067,1022.47 4.21067,1017.13 3,1011.5C 2.00077,1002.53 1.50077,993.531 1.5,984.5C 2.61472,668.167 2.78139,351.834 2,35.5C 3.21735,26.6166 7.38401,19.4499 14.5,14C 23.7345,6.70993 34.0678,2.20993 45.5,0.5 Z"/></g>
<g><path style="opacity:1" fill="#fefefe" d="M 42.5,5.5 C 243.5,5.98485 444.5,6.48485 645.5,7C 661.811,10.6415 673.311,20.1415 680,35.5C 680.667,356.167 680.667,676.833 680,997.5C 677.433,1024.07 663.267,1040.9 637.5,1048C 438.833,1048.67 240.167,1048.67 41.5,1048C 22.3766,1040.54 10.8766,1026.71 7,1006.5C 6.83333,979 6.66667,951.5 6.5,924C 7.64238,627.166 7.80904,330.333 7,33.5C 10.3006,24.5307 16.1339,17.6973 24.5,13C 30.3281,9.78826 36.3281,7.28826 42.5,5.5 Z"/></g>
<g><path style="opacity:1" fill="#000000" d="M 40.5,169.5 C 37.8333,169.5 35.1667,169.5 32.5,169.5C 32.5,133.5 32.5,97.5 32.5,61.5C 34.8021,60.1783 37.1354,60.1783 39.5,61.5C 40.4999,97.4938 40.8332,133.494 40.5,169.5 Z"/></g>
<g><path style="opacity:1" fill="#0a0a0a" d="M 66.5,61.5 C 74.6432,60.6491 82.3099,62.1491 89.5,66C 92.4905,68.9904 94.6572,72.4904 96,76.5C 96.6667,102.5 96.6667,128.5 96,154.5C 93.7192,163.781 87.8859,169.281 78.5,171C 65.1093,173.891 55.9426,169.057 51,156.5C 50.3333,129.833 50.3333,103.167 51,76.5C 53.4548,68.5428 58.6215,63.5428 66.5,61.5 Z"/></g>
<g><path style="opacity:1" fill="#444444" d="M 32.5,61.5 C 32.5,97.5 32.5,133.5 32.5,169.5C 35.1667,169.5 37.8333,169.5 40.5,169.5C 37.7131,170.477 34.7131,170.81 31.5,170.5C 31.1682,133.996 31.5016,97.6628 32.5,61.5 Z"/></g>
<g><path style="opacity:1" fill="#fbfbfb" d="M 68.5,70.5 C 75.4512,69.4276 81.2845,71.4276 86,76.5C 86.6667,101.833 86.6667,127.167 86,152.5C 84.3232,159.167 79.9899,162.5 73,162.5C 66.5007,162.672 62.1674,159.672 60,153.5C 59.7009,128.163 60.0342,102.83 61,77.5C 62.7424,74.2543 65.2424,71.921 68.5,70.5 Z"/></g>
<g><path style="opacity:1" fill="#010101" d="M 194.5,125.5 C 212.469,147.646 230.303,169.979 248,192.5C 254.518,200.536 259.185,209.536 262,219.5C 263.816,231.077 262.15,242.077 257,252.5C 245.461,267.022 231.627,269.856 215.5,261C 209.895,254.951 204.895,248.451 200.5,241.5C 199.336,247.472 199.17,253.472 200,259.5C 202.236,269.206 205.07,278.706 208.5,288C 198.839,288.5 189.172,288.666 179.5,288.5C 182.428,278.881 185.261,269.215 188,259.5C 189.275,253.207 189.608,246.874 189,240.5C 184.6,244.967 180.934,249.967 178,255.5C 165.501,267.445 152.001,268.611 137.5,259C 127.271,248.212 123.437,235.379 126,220.5C 128.129,211.242 132.129,202.909 138,195.5C 157.082,172.319 175.915,148.986 194.5,125.5 Z"/></g>
<g><path style="opacity:1" fill="#010101" d="M 503.5,290.5 C 493.985,290.827 484.652,290.494 475.5,289.5C 481.674,275.124 484.174,260.124 483,244.5C 478.786,252.101 473.286,258.601 466.5,264C 448.58,272.138 434.747,267.638 425,250.5C 421.754,241.08 420.754,231.413 422,221.5C 423.245,215.678 425.578,210.345 429,205.5C 449.691,179.644 470.191,153.644 490.5,127.5C 510.525,153.024 530.358,178.691 550,204.5C 561.331,222.487 561.331,240.487 550,258.5C 539.259,268.896 527.093,271.062 513.5,265C 506.543,259.261 500.876,252.428 496.5,244.5C 494.533,248.963 494.033,253.63 495,258.5C 497.213,269.354 500.047,280.021 503.5,290.5 Z"/></g>
<g><path style="opacity:1" fill="#030303" d="M 58.5,178.5 C 68.9281,189.974 78.4281,202.307 87,215.5C 87.6667,220.833 87.6667,226.167 87,231.5C 83.2351,237.76 77.7351,239.927 70.5,238C 67.7047,236.207 65.2047,234.04 63,231.5C 62.6667,231.833 62.3333,232.167 62,232.5C 61.8602,237.558 62.3602,242.558 63.5,247.5C 60.5176,247.963 57.5176,248.296 54.5,248.5C 55.0907,242.789 55.5907,237.123 56,231.5C 41.6483,243.363 32.815,240.196 29.5,222C 29.3291,218.871 30.1624,216.037 32,213.5C 41.0738,201.938 49.9072,190.271 58.5,178.5 Z"/></g>
<g><path style="opacity:1" fill="#010101" d="M 354.5,396.5 C 350.18,397.166 345.68,397.499 341,397.5C 336.114,397.493 331.614,396.826 327.5,395.5C 332.045,382.696 335.045,369.53 336.5,356C 336.643,350.514 335.143,350.014 332,354.5C 321.276,374.853 305.776,379.687 285.5,369C 274.961,358.715 270.794,346.215 273,331.5C 274.592,323.049 277.926,315.382 283,308.5C 302.674,283.997 322.507,259.664 342.5,235.5C 361.16,258.999 379.66,282.666 398,306.5C 411.364,324.517 413.031,343.517 403,363.5C 393.881,374.426 382.381,377.926 368.5,374C 360.315,368.978 353.981,362.145 349.5,353.5C 348.833,352.167 348.167,352.167 347.5,353.5C 346.386,358.446 346.219,363.446 347,368.5C 349.504,377.852 352.004,387.186 354.5,396.5 Z"/></g>
<g><path style="opacity:1" fill="#424242" d="M 475.5,289.5 C 484.652,290.494 493.985,290.827 503.5,290.5C 493.992,291.823 484.325,291.823 474.5,290.5C 474.624,289.893 474.957,289.56 475.5,289.5 Z"/></g>
<g><path style="opacity:1" fill="#010101" d="M 192.5,341.5 C 213.184,366.693 233.351,392.36 253,418.5C 262.578,435.321 262.911,452.321 254,469.5C 242.66,483.374 229.16,485.874 213.5,477C 207.904,471.407 203.07,465.24 199,458.5C 196.85,462.214 196.183,466.214 197,470.5C 199.543,482.004 202.709,493.337 206.5,504.5C 196.935,504.615 187.268,504.615 177.5,504.5C 180.626,495.286 183.459,485.953 186,476.5C 187.33,470.548 187.663,464.548 187,458.5C 186.107,457.289 185.274,457.289 184.5,458.5C 180.429,466.067 175.096,472.567 168.5,478C 149.269,485.466 135.102,479.966 126,461.5C 121.639,447.225 122.972,433.558 130,420.5C 151.047,394.292 171.881,367.958 192.5,341.5 Z"/></g>
<g><path style="opacity:1" fill="#020202" d="M 487.5,345.5 C 490.394,346.882 492.894,348.882 495,351.5C 511.425,373.347 528.091,395.014 545,416.5C 557.508,432.404 559.841,449.737 552,468.5C 544.1,481.362 532.6,486.529 517.5,484C 511.206,481.709 506.039,477.875 502,472.5C 499.333,468.5 496.667,464.5 494,460.5C 492.466,464.711 492.133,469.044 493,473.5C 495.523,484.926 498.356,496.259 501.5,507.5C 492.167,507.5 482.833,507.5 473.5,507.5C 476.02,497.104 478.853,486.77 482,476.5C 482.667,471.5 482.667,466.5 482,461.5C 481.667,461.167 481.333,460.833 481,460.5C 476.603,469.564 470.103,476.731 461.5,482C 437.727,487.254 423.894,477.754 420,453.5C 418.353,441.444 421.02,430.444 428,420.5C 447.842,395.47 467.675,370.47 487.5,345.5 Z"/></g>
<g><path style="opacity:1" fill="#444444" d="M 327.5,395.5 C 331.614,396.826 336.114,397.493 341,397.5C 345.68,397.499 350.18,397.166 354.5,396.5C 355.043,396.56 355.376,396.893 355.5,397.5C 345.856,398.498 336.19,398.832 326.5,398.5C 326.263,397.209 326.596,396.209 327.5,395.5 Z"/></g>
<g><path style="opacity:1" fill="#828282" d="M 176.5,557.5 C 186.341,556.177 196.341,556.177 206.5,557.5C 206.376,558.107 206.043,558.44 205.5,558.5C 196.014,557.506 186.348,557.173 176.5,557.5 Z"/></g>
<g><path style="opacity:1" fill="#010101" d="M 176.5,557.5 C 186.348,557.173 196.014,557.506 205.5,558.5C 198.856,572.743 195.523,587.743 195.5,603.5C 196.675,603.719 197.675,603.386 198.5,602.5C 202.924,593.909 209.258,587.075 217.5,582C 244.403,577.888 258.403,589.555 259.5,617C 259.137,627.424 255.97,636.924 250,645.5C 230.5,669.667 211,693.833 191.5,718C 188.358,717.912 185.858,716.412 184,713.5C 167.049,690.881 149.716,668.547 132,646.5C 123.004,633.831 120.004,619.831 123,604.5C 130.907,581.462 146.074,574.628 168.5,584C 174.92,589.712 180.253,596.212 184.5,603.5C 186.307,587.393 183.64,572.06 176.5,557.5 Z"/></g>
<g><path style="opacity:1" fill="#c0c0c0" d="M 501.5,559.5 C 491.652,559.173 481.986,559.506 472.5,560.5C 471.957,560.44 471.624,560.107 471.5,559.5C 481.659,558.177 491.659,558.177 501.5,559.5 Z"/></g>
<g><path style="opacity:1" fill="#010101" d="M 501.5,559.5 C 498.708,567.045 496.208,574.711 494,582.5C 492.595,590.16 492.428,597.827 493.5,605.5C 498.694,595.473 506.361,587.973 516.5,583C 536.957,580.641 549.457,589.474 554,609.5C 556.36,622.474 554.027,634.474 547,645.5C 526.907,671.349 506.574,697.015 486,722.5C 463.851,696.022 442.851,668.688 423,640.5C 418.249,628.5 417.249,616.166 420,603.5C 427.997,584.42 441.831,578.254 461.5,585C 464.423,587.045 467.257,589.212 470,591.5C 473.268,596.384 476.768,601.051 480.5,605.5C 481.83,589.812 479.163,574.812 472.5,560.5C 481.986,559.506 491.652,559.173 501.5,559.5 Z"/></g>
<g><path style="opacity:1" fill="#010101" d="M 324.5,666.5 C 333.857,666.168 343.19,666.502 352.5,667.5C 345.856,681.765 342.523,696.765 342.5,712.5C 343.822,712.67 344.989,712.337 346,711.5C 359.303,686.417 376.97,682.75 399,700.5C 408.92,717.426 408.92,734.426 399,751.5C 378.333,777.5 357.667,803.5 337,829.5C 320.759,809.348 304.759,789.015 289,768.5C 282.882,761.044 277.549,753.044 273,744.5C 267.789,730.178 268.456,716.178 275,702.5C 284.374,689.82 296.541,685.986 311.5,691C 320.103,696.269 326.603,703.436 331,712.5C 332.576,706.612 332.909,700.612 332,694.5C 329.496,685.148 326.996,675.814 324.5,666.5 Z"/></g>
<g><path style="opacity:1" fill="#010101" d="M 174.5,769.5 C 184.008,768.177 193.675,768.177 203.5,769.5C 197.16,783.857 193.827,798.857 193.5,814.5C 194.822,814.67 195.989,814.337 197,813.5C 200.762,806.742 205.595,800.909 211.5,796C 225.888,788.679 238.722,790.846 250,802.5C 260.743,821.702 259.743,840.368 247,858.5C 227.326,883.003 207.493,907.336 187.5,931.5C 168.011,906.539 148.511,881.539 129,856.5C 121.098,843.886 118.431,830.219 121,815.5C 130.42,791.026 146.586,785.193 169.5,798C 174.195,803.227 178.528,808.727 182.5,814.5C 184.003,798.702 181.337,783.702 174.5,769.5 Z"/></g>
<g><path style="opacity:1" fill="#010101" d="M 470.5,771.5 C 480.19,771.168 489.856,771.502 499.5,772.5C 492.197,786.706 489.53,801.706 491.5,817.5C 496.697,807.804 504.03,800.304 513.5,795C 534.128,791.99 546.961,800.49 552,820.5C 553.989,832.872 551.989,844.538 546,855.5C 525.876,882.087 505.043,908.087 483.5,933.5C 462.619,908.081 442.453,882.081 423,855.5C 415.946,841.734 414.613,827.401 419,812.5C 428.301,795.097 442.134,789.93 460.5,797C 467.603,802.381 473.436,808.881 478,816.5C 478.287,814.109 478.787,811.776 479.5,809.5C 478.705,796.319 475.705,783.652 470.5,771.5 Z"/></g>
<g><path style="opacity:1" fill="#040404" d="M 612.5,812.5 C 615.833,812.5 619.167,812.5 622.5,812.5C 621.566,817.671 620.566,822.837 619.5,828C 619.833,828.5 620.167,829 620.5,829.5C 625.184,823.657 631.184,821.49 638.5,823C 643.861,825.888 646.528,830.388 646.5,836.5C 646.449,840.821 645.282,844.821 643,848.5C 634.691,859.643 626.191,870.643 617.5,881.5C 607.743,870.907 598.909,859.573 591,847.5C 587.853,840.43 587.853,833.43 591,826.5C 599.604,819.208 607.271,820.208 614,829.5C 614.688,823.718 614.188,818.051 612.5,812.5 Z"/></g>
<g><path style="opacity:1" fill="#060606" d="M 597.5,892.5 C 606.587,891.054 614.753,893.054 622,898.5C 623.586,900.67 624.92,903.004 626,905.5C 626.667,932.5 626.667,959.5 626,986.5C 624.491,995.342 619.324,1000.51 610.5,1002C 600.734,1004.3 592.234,1002.14 585,995.5C 583.249,993.51 582.249,991.177 582,988.5C 581.333,961.833 581.333,935.167 582,908.5C 583.979,900.021 589.146,894.688 597.5,892.5 Z"/></g>
<g><path style="opacity:1" fill="#000000" d="M 639.5,894.5 C 641.167,894.5 642.833,894.5 644.5,894.5C 644.5,930.833 644.5,967.167 644.5,1003.5C 642.833,1003.5 641.167,1003.5 639.5,1003.5C 638.5,1003.5 637.5,1003.5 636.5,1003.5C 636.5,967.167 636.5,930.833 636.5,894.5C 637.5,894.5 638.5,894.5 639.5,894.5 Z"/></g>
<g><path style="opacity:1" fill="#818181" d="M 639.5,894.5 C 641.265,893.539 643.265,893.205 645.5,893.5C 645.5,930.5 645.5,967.5 645.5,1004.5C 643.265,1004.79 641.265,1004.46 639.5,1003.5C 641.167,1003.5 642.833,1003.5 644.5,1003.5C 644.5,967.167 644.5,930.833 644.5,894.5C 642.833,894.5 641.167,894.5 639.5,894.5 Z"/></g>
<g><path style="opacity:1" fill="#fcfcfc" d="M 597.5,902.5 C 602.179,902.334 606.845,902.501 611.5,903C 613.917,904.663 615.75,906.829 617,909.5C 617.333,934.838 617,960.171 616,985.5C 615.5,990 613,992.5 608.5,993C 599.717,995.828 593.883,992.995 591,984.5C 590.333,960.5 590.333,936.5 591,912.5C 591.932,908.288 594.098,904.955 597.5,902.5 Z"/></g>
</svg>
