<?xml version="1.0" encoding="UTF-8"?>
<!DOCTYPE svg PUBLIC "-//W3C//DTD SVG 1.1//EN" "http://www.w3.org/Graphics/SVG/1.1/DTD/svg11.dtd">
<svg xmlns="http://www.w3.org/2000/svg" version="1.1" width="691px" height="1056px" style="shape-rendering:geometricPrecision; text-rendering:geometricPrecision; image-rendering:optimizeQuality; fill-rule:evenodd; clip-rule:evenodd" xmlns:xlink="http://www.w3.org/1999/xlink">
<g><path style="opacity:0.906" fill="#bdbfc1" d="M 45.5,0.5 C 245.833,1.12134 446.166,1.62134 646.5,2C 665.686,6.52403 678.519,18.024 685,36.5C 684.264,355.74 684.431,674.906 685.5,994C 683.799,1022.7 669.466,1042.03 642.5,1052C 639.833,1052.33 637.167,1052.67 634.5,1053C 437.167,1053.67 239.833,1053.67 42.5,1053C 27.9238,1049.1 16.7571,1040.6 9,1027.5C 6.21067,1022.47 4.21067,1017.13 3,1011.5C 2.00077,1002.53 1.50077,993.531 1.5,984.5C 2.61472,668.167 2.78139,351.834 2,35.5C 3.21735,26.6166 7.38401,19.4499 14.5,14C 23.7345,6.70993 34.0678,2.20993 45.5,0.5 Z"/></g>
<g><path style="opacity:1" fill="#fefefe" d="M 42.5,5.5 C 243.5,5.98485 444.5,6.48485 645.5,7C 661.811,10.6415 673.311,20.1415 680,35.5C 680.667,356.167 680.667,676.833 680,997.5C 677.215,1023.9 663.048,1040.73 637.5,1048C 438.833,1048.67 240.167,1048.67 41.5,1048C 22.3766,1040.54 10.8766,1026.71 7,1006.5C 6.83333,979 6.66667,951.5 6.5,924C 7.64238,627.166 7.80904,330.333 7,33.5C 10.3006,24.5307 16.1339,17.6973 24.5,13C 30.3281,9.78826 36.3281,7.28826 42.5,5.5 Z"/></g>
<g><path style="opacity:1" fill="#0c0c0c" d="M 65.5,54.5 C 93.0722,53.2404 104.572,66.2404 100,93.5C 98.315,99.0409 95.4817,103.874 91.5,108C 85.3575,112.795 78.6909,116.795 71.5,120C 66.7286,123.138 62.2286,126.638 58,130.5C 54.9368,134.569 52.2701,138.902 50,143.5C 47.9642,146.896 48.1309,150.062 50.5,153C 63.5,153.667 76.5,153.667 89.5,153C 90.4714,147.928 90.8047,142.762 90.5,137.5C 94.1535,135.772 97.3201,136.438 100,139.5C 100.5,147.159 100.666,154.826 100.5,162.5C 80.4972,162.667 60.4972,162.5 40.5,162C 38.0632,155.975 37.8966,149.808 40,143.5C 44.5108,131.99 51.6774,122.49 61.5,115C 67.8455,110.826 74.5122,107.159 81.5,104C 92.0966,94.4244 94.2632,83.2578 88,70.5C 81.1697,64.8424 73.3364,63.009 64.5,65C 55.7265,69.0381 50.7265,75.8714 49.5,85.5C 42.5994,89.2986 39.7661,87.2986 41,79.5C 44.6741,66.6601 52.8408,58.3267 65.5,54.5 Z"/></g>
<g><path style="opacity:1" fill="#040404" d="M 338.5,117.5 C 354.275,115.325 367.441,119.991 378,131.5C 386.262,144.594 386.595,157.928 379,171.5C 375.193,176.941 371.027,182.108 366.5,187C 370.458,186.245 374.458,185.245 378.5,184C 397.817,181.029 410.984,188.529 418,206.5C 422.576,222.225 419.409,236.059 408.5,248C 390.854,261.891 374.688,260.391 360,243.5C 357.417,238.664 354.583,233.997 351.5,229.5C 350.337,234.802 350.171,240.136 351,245.5C 355.005,257.683 359.505,269.683 364.5,281.5C 351.956,280.256 339.29,280.256 326.5,281.5C 326.34,279.801 326.506,278.134 327,276.5C 333.809,263.6 338.309,249.934 340.5,235.5C 340.167,233.5 339.833,231.5 339.5,229.5C 335.867,234.655 332.367,239.988 329,245.5C 311.448,260.928 294.781,259.928 279,242.5C 268.688,225.909 269.022,209.575 280,193.5C 292.999,181.26 307.499,179.26 323.5,187.5C 324.167,187.167 324.833,186.833 325.5,186.5C 317.169,178.838 311.669,169.505 309,158.5C 306.005,144.657 310.172,133.49 321.5,125C 324.167,123.333 326.833,121.667 329.5,120C 332.628,119.159 335.628,118.325 338.5,117.5 Z"/></g>
<g><path style="opacity:1" fill="#050505" d="M 76.5,245.5 C 71.6367,245.819 66.97,245.486 62.5,244.5C 63.6304,239.776 64.9637,235.109 66.5,230.5C 68.0739,228.898 68.7406,226.898 68.5,224.5C 67.1667,224.5 65.8333,224.5 64.5,224.5C 64.5674,225.959 64.2341,227.292 63.5,228.5C 56.5116,237.472 49.0116,237.805 41,229.5C 34.5549,212.554 40.3882,204.054 58.5,204C 55.2607,198.502 53.7607,192.669 54,186.5C 59.4825,176.542 67.6492,173.709 78.5,178C 85.0702,181.655 87.2368,187.155 85,194.5C 84.0251,197.76 82.8584,200.927 81.5,204C 93.2305,202.911 100.231,208.077 102.5,219.5C 98.7937,235.194 90.127,239.028 76.5,231C 72.9401,224.715 71.7735,225.215 73,232.5C 74.2823,236.84 75.4489,241.173 76.5,245.5 Z"/></g>
<g><path style="opacity:1" fill="#355f98" d="M 66.5,230.5 C 66.1788,228.952 65.1788,228.285 63.5,228.5C 64.2341,227.292 64.5674,225.959 64.5,224.5C 65.8333,224.5 67.1667,224.5 68.5,224.5C 68.7406,226.898 68.0739,228.898 66.5,230.5 Z"/></g>
<g><path style="opacity:1" fill="#828282" d="M 62.5,244.5 C 66.97,245.486 71.6367,245.819 76.5,245.5C 71.6523,246.814 66.6523,246.814 61.5,245.5C 61.6236,244.893 61.9569,244.56 62.5,244.5 Z"/></g>
<g><path style="opacity:1" fill="#030303" d="M 321.5,776.5 C 333.836,777.755 346.169,777.755 358.5,776.5C 354.248,788.087 350.081,799.754 346,811.5C 344.375,817.127 344.208,822.794 345.5,828.5C 349.32,822.87 353.154,817.204 357,811.5C 363.898,803.965 372.398,800.799 382.5,802C 399.584,804.752 409.751,814.585 413,831.5C 415.045,843.687 412.379,854.687 405,864.5C 391.834,876.791 377.167,878.791 361,870.5C 360.5,870.833 360,871.167 359.5,871.5C 366.028,877.863 371.194,885.197 375,893.5C 380.556,922.41 368.723,938.076 339.5,940.5C 312.535,939.371 299.701,925.371 301,898.5C 304.948,888.097 310.781,878.93 318.5,871C 311.795,872.559 304.961,873.726 298,874.5C 281.399,873.24 270.733,864.574 266,848.5C 263.1,827.466 270.933,811.966 289.5,802C 296.5,801.333 303.5,801.333 310.5,802C 315.565,805.057 320.065,808.89 324,813.5C 327.395,818.053 330.562,822.72 333.5,827.5C 334.662,822.869 334.828,818.202 334,813.5C 331.657,806.153 329.323,798.819 327,791.5C 323.073,787.354 321.239,782.354 321.5,776.5 Z"/></g>
<g><path style="opacity:1" fill="#494949" d="M 609.5,809.5 C 614.348,808.186 619.348,808.186 624.5,809.5C 624.376,810.107 624.043,810.44 623.5,810.5C 619.03,809.514 614.363,809.181 609.5,809.5 Z"/></g>
<g><path style="opacity:1" fill="#060606" d="M 609.5,809.5 C 614.363,809.181 619.03,809.514 623.5,810.5C 622.97,812.924 622.136,815.257 621,817.5C 620.186,819.902 620.353,822.235 621.5,824.5C 632.399,815.271 641.232,816.938 648,829.5C 649.214,836.858 647.048,843.024 641.5,848C 639.655,849.128 637.655,849.628 635.5,849.5C 632.753,849.187 630.086,849.52 627.5,850.5C 627.624,851.107 627.957,851.44 628.5,851.5C 635.411,862.22 633.411,870.72 622.5,877C 612.951,880.042 605.784,877.208 601,868.5C 599.877,862.204 601.044,856.37 604.5,851C 587.082,849.306 581.582,840.473 588,824.5C 591.742,819.709 596.576,817.876 602.5,819C 606.595,821.259 610.262,824.093 613.5,827.5C 613.464,821.343 612.131,815.343 609.5,809.5 Z"/></g>
<g><path style="opacity:1" fill="#5a5a5a" d="M 635.5,849.5 C 633.167,850.167 630.833,850.833 628.5,851.5C 627.957,851.44 627.624,851.107 627.5,850.5C 630.086,849.52 632.753,849.187 635.5,849.5 Z"/></g>
<g><path style="opacity:1" fill="#080808" d="M 589.5,891.5 C 608.836,891.333 628.17,891.5 647.5,892C 650.503,904.512 648.003,916.012 640,926.5C 631.023,936.905 620.19,944.738 607.5,950C 596.898,958.465 594.064,968.965 599,981.5C 607.94,991.471 618.107,992.971 629.5,986C 635.182,981.133 638.516,974.966 639.5,967.5C 641.765,966.353 644.098,966.186 646.5,967C 646.953,984.244 638.62,994.91 621.5,999C 593.699,999.194 582.866,985.694 589,958.5C 591.726,953.945 594.226,949.278 596.5,944.5C 610.02,939.487 621.853,931.82 632,921.5C 636.927,915.718 639.26,909.051 639,901.5C 625.909,900.345 612.742,900.178 599.5,901C 599,901.5 598.5,902 598,902.5C 597.667,906.5 597.333,910.5 597,914.5C 594.519,916.314 591.685,916.98 588.5,916.5C 588.198,908.082 588.531,899.748 589.5,891.5 Z"/></g>
</svg>
