<?xml version="1.0" encoding="UTF-8"?>
<!DOCTYPE svg PUBLIC "-//W3C//DTD SVG 1.1//EN" "http://www.w3.org/Graphics/SVG/1.1/DTD/svg11.dtd">
<svg xmlns="http://www.w3.org/2000/svg" version="1.1" width="691px" height="1056px" style="shape-rendering:geometricPrecision; text-rendering:geometricPrecision; image-rendering:optimizeQuality; fill-rule:evenodd; clip-rule:evenodd" xmlns:xlink="http://www.w3.org/1999/xlink">
<g><path style="opacity:0.906" fill="#bdbfc1" d="M 45.5,0.5 C 245.833,1.12134 446.166,1.62134 646.5,2C 665.686,6.52403 678.519,18.024 685,36.5C 684.264,355.74 684.431,674.906 685.5,994C 683.799,1022.7 669.466,1042.03 642.5,1052C 639.833,1052.33 637.167,1052.67 634.5,1053C 437.167,1053.67 239.833,1053.67 42.5,1053C 27.9238,1049.1 16.7571,1040.6 9,1027.5C 6.21067,1022.47 4.21067,1017.13 3,1011.5C 2.00077,1002.53 1.50077,993.531 1.5,984.5C 2.61472,668.167 2.78139,351.834 2,35.5C 3.21735,26.6166 7.38401,19.4499 14.5,14C 23.7345,6.70993 34.0678,2.20993 45.5,0.5 Z"/></g>
<g><path style="opacity:1" fill="#fefefe" d="M 42.5,5.5 C 243.5,5.98485 444.5,6.48485 645.5,7C 661.811,10.6415 673.311,20.1415 680,35.5C 680.667,356.167 680.667,676.833 680,997.5C 677.215,1023.9 663.048,1040.73 637.5,1048C 438.833,1048.67 240.167,1048.67 41.5,1048C 22.3766,1040.54 10.8766,1026.71 7,1006.5C 6.83333,979 6.66667,951.5 6.5,924C 7.64238,627.166 7.80904,330.333 7,33.5C 10.3006,24.5307 16.1339,17.6973 24.5,13C 30.3281,9.78826 36.3281,7.28826 42.5,5.5 Z"/></g>
<g><path style="opacity:1" fill="#d12606" d="M 58.5,55.5 C 88.9916,53.8205 100.825,67.8205 94,97.5C 90.5611,104.269 85.7278,109.769 79.5,114C 63.996,119.172 52.496,129.005 45,143.5C 43.8756,146.442 43.5423,149.442 44,152.5C 57.086,154.906 70.2526,155.073 83.5,153C 84,152.5 84.5,152 85,151.5C 85.4992,146.845 85.6658,142.179 85.5,137.5C 88.8333,137.5 92.1667,137.5 95.5,137.5C 95.6664,145.507 95.4997,153.507 95,161.5C 94.5,162 94,162.5 93.5,163C 74.1667,163.667 54.8333,163.667 35.5,163C 35,162.5 34.5,162 34,161.5C 31.5472,149.204 34.2138,138.204 42,128.5C 52.1574,117.671 63.9908,109.171 77.5,103C 85.9229,94.1041 87.7562,83.9375 83,72.5C 75.8831,65.1407 67.3831,62.974 57.5,66C 53.052,68.1145 49.552,71.2811 47,75.5C 45.5432,79.8842 43.7099,84.0509 41.5,88C 39.2305,88.7581 37.0639,88.5914 35,87.5C 34.5597,70.7718 42.393,60.1051 58.5,55.5 Z"/></g>
<g><path style="opacity:1" fill="#d02101" d="M 345.5,139.5 C 346.239,139.369 346.906,139.536 347.5,140C 371.318,168.652 394.652,197.652 417.5,227C 415.044,231.41 412.21,235.576 409,239.5C 390,262.5 371,285.5 352,308.5C 349.984,310.684 347.817,312.684 345.5,314.5C 343.517,313.018 341.684,311.351 340,309.5C 318.667,283.5 297.333,257.5 276,231.5C 274.578,228.97 274.245,226.303 275,223.5C 298.365,195.309 321.865,167.309 345.5,139.5 Z"/></g>
<g><path style="opacity:1" fill="#d02202" d="M 60.5,179.5 C 63.6516,178.959 66.1516,179.959 68,182.5C 75.2888,192.124 82.9555,201.458 91,210.5C 91.6667,212.167 91.6667,213.833 91,215.5C 82.6227,224.875 74.6227,234.542 67,244.5C 63.0725,247.448 59.7392,246.782 57,242.5C 52.0914,234.921 46.4247,227.921 40,221.5C 37.435,219.037 35.935,216.037 35.5,212.5C 35.6667,211.5 35.8333,210.5 36,209.5C 44.7575,199.916 52.9242,189.916 60.5,179.5 Z"/></g>
<g><path style="opacity:1" fill="#d02101" d="M 342.5,740.5 C 343.93,740.421 345.264,740.754 346.5,741.5C 368.144,768.312 389.978,794.979 412,821.5C 414.816,824.58 415.149,827.913 413,831.5C 392.333,856.833 371.667,882.167 351,907.5C 348.618,910.219 345.951,912.553 343,914.5C 334.358,904.599 325.691,894.599 317,884.5C 301.819,865.322 286.653,846.156 271.5,827C 294.231,797.432 317.898,768.598 342.5,740.5 Z"/></g>
<g><path style="opacity:1" fill="#d02302" d="M 622.5,805.5 C 623.93,805.421 625.264,805.754 626.5,806.5C 634.427,816.684 642.594,826.684 651,836.5C 651.781,837.729 652.281,839.062 652.5,840.5C 643.899,852.673 634.566,864.339 624.5,875.5C 614.244,864.084 604.577,852.251 595.5,840C 596.213,836.948 598.046,834.782 601,833.5C 608.382,824.291 615.549,814.957 622.5,805.5 Z"/></g>
<g><path style="opacity:1" fill="#d12605" d="M 594.5,890.5 C 613.503,890.333 632.503,890.5 651.5,891C 652.667,891.5 653.5,892.333 654,893.5C 655.474,905.741 652.474,916.741 645,926.5C 635.669,936.415 624.836,944.248 612.5,950C 600.683,959.416 598.516,970.582 606,983.5C 615.996,991.289 626.163,991.456 636.5,984C 640.63,979.24 643.296,973.74 644.5,967.5C 647.106,966.348 649.773,966.182 652.5,967C 651.943,987.393 641.276,998.227 620.5,999.5C 607.313,999.656 598.147,993.656 593,981.5C 589.263,965.868 593.43,952.701 605.5,942C 617.282,937.547 627.449,930.714 636,921.5C 639.111,917.613 641.444,913.28 643,908.5C 643.814,906.098 643.647,903.765 642.5,901.5C 629.879,900.353 617.212,900.186 604.5,901C 603.874,901.75 603.374,902.584 603,903.5C 602.667,907.167 602.333,910.833 602,914.5C 599,917.167 596,917.167 593,914.5C 592.333,907.167 592.333,899.833 593,892.5C 593.717,891.956 594.217,891.289 594.5,890.5 Z"/></g>
</svg>
