<?xml version="1.0" encoding="UTF-8"?>
<!DOCTYPE svg PUBLIC "-//W3C//DTD SVG 1.1//EN" "http://www.w3.org/Graphics/SVG/1.1/DTD/svg11.dtd">
<svg xmlns="http://www.w3.org/2000/svg" version="1.1" width="691px" height="1056px" style="shape-rendering:geometricPrecision; text-rendering:geometricPrecision; image-rendering:optimizeQuality; fill-rule:evenodd; clip-rule:evenodd" xmlns:xlink="http://www.w3.org/1999/xlink">
<g><path style="opacity:0.906" fill="#bdbfc1" d="M 45.5,0.5 C 245.833,1.12134 446.166,1.62134 646.5,2C 665.686,6.52403 678.519,18.024 685,36.5C 684.264,355.74 684.431,674.906 685.5,994C 683.799,1022.7 669.466,1042.03 642.5,1052C 639.833,1052.33 637.167,1052.67 634.5,1053C 437.167,1053.67 239.833,1053.67 42.5,1053C 27.9238,1049.1 16.7571,1040.6 9,1027.5C 6.21067,1022.47 4.21067,1017.13 3,1011.5C 2.00077,1002.53 1.50077,993.531 1.5,984.5C 2.61472,668.167 2.78139,351.834 2,35.5C 3.21735,26.6166 7.38401,19.4499 14.5,14C 23.7345,6.70993 34.0678,2.20993 45.5,0.5 Z"/></g>
<g><path style="opacity:1" fill="#fefefe" d="M 42.5,5.5 C 243.5,5.98485 444.5,6.48485 645.5,7C 661.811,10.6415 673.311,20.1415 680,35.5C 680.667,356.167 680.667,676.833 680,997.5C 677.215,1023.9 663.048,1040.73 637.5,1048C 438.833,1048.67 240.167,1048.67 41.5,1048C 22.3766,1040.54 10.8766,1026.71 7,1006.5C 6.83333,979 6.66667,951.5 6.5,924C 7.64238,627.166 7.80904,330.333 7,33.5C 10.3006,24.5307 16.1339,17.6973 24.5,13C 30.3281,9.78826 36.3281,7.28826 42.5,5.5 Z"/></g>
<g><path style="opacity:1" fill="#cd382d" d="M 64.5,53.5 C 70.5092,53.3338 76.5092,53.5005 82.5,54C 98.3901,59.6119 105.223,70.7786 103,87.5C 101.534,92.2316 99.8671,96.8982 98,101.5C 90.1278,109.525 80.9612,115.691 70.5,120C 61.5024,125.331 55.0024,132.831 51,142.5C 49.7496,145.077 49.4163,147.743 50,150.5C 50.7504,151.126 51.5838,151.626 52.5,152C 64.8333,152.667 77.1667,152.667 89.5,152C 90.7014,151.097 91.5348,149.931 92,148.5C 92.499,144.179 92.6657,139.846 92.5,135.5C 95.2377,135.851 97.9044,136.518 100.5,137.5C 101.665,145.145 101.831,152.812 101,160.5C 100.5,161 100,161.5 99.5,162C 80.1558,162.529 60.8224,162.196 41.5,161C 41,160.5 40.5,160 40,159.5C 37.7983,148.113 40.1317,137.78 47,128.5C 57.3808,116.548 69.8808,107.382 84.5,101C 92.0723,93.719 94.5723,84.8856 92,74.5C 89.6676,68.8356 85.5009,65.3356 79.5,64C 63.2204,61.5565 53.3871,68.3898 50,84.5C 47.5823,86.6801 44.9156,87.0135 42,85.5C 41.192,75.276 44.692,66.776 52.5,60C 56.4339,57.5361 60.4339,55.3694 64.5,53.5 Z"/></g>
<g><path style="opacity:1" fill="#cc3329" d="M 305.5,124.5 C 325.413,123.119 340.08,131.119 349.5,148.5C 353.657,144.174 357.657,139.674 361.5,135C 376.862,123.609 392.862,122.609 409.5,132C 414.61,136.45 418.11,141.95 420,148.5C 422.738,162.463 421.738,176.13 417,189.5C 399.567,222.17 377.4,251.336 350.5,277C 347.692,277.92 345.525,277.087 344,274.5C 330.95,260.052 318.617,245.052 307,229.5C 296.229,215.046 287.562,199.379 281,182.5C 276.088,165.875 278.088,150.208 287,135.5C 292.101,129.873 298.267,126.206 305.5,124.5 Z"/></g>
<g><path style="opacity:1" fill="#cc342a" d="M 47.5,173.5 C 52.2675,173.191 56.9342,173.691 61.5,175C 64.646,177.312 67.646,179.812 70.5,182.5C 76.5204,175.154 84.1871,172.321 93.5,174C 97.2749,175.442 100.108,177.942 102,181.5C 103.456,187.097 103.789,192.763 103,198.5C 95.5911,215.242 85.0911,229.742 71.5,242C 69.212,242.418 67.212,241.751 65.5,240C 55.6649,229.178 47.1649,217.345 40,204.5C 36.3538,195.576 36.6871,186.909 41,178.5C 42.9651,176.45 45.1318,174.783 47.5,173.5 Z"/></g>
<g><path style="opacity:1" fill="#cc3329" d="M 341.5,776.5 C 343.679,776.84 345.512,777.84 347,779.5C 366.919,801.746 384.919,825.413 401,850.5C 411.924,867.453 415.257,885.786 411,905.5C 402.889,926.638 387.723,934.138 365.5,928C 361.241,926.066 357.241,923.732 353.5,921C 349.262,916.105 345.095,911.271 341,906.5C 335.752,915.08 328.585,921.58 319.5,926C 307.191,929.879 295.191,929.212 283.5,924C 275.456,917.413 270.956,908.913 270,898.5C 268.79,888.268 269.79,878.268 273,868.5C 275.727,862.046 278.727,855.712 282,849.5C 299.457,823.212 319.29,798.879 341.5,776.5 Z"/></g>
<g><path style="opacity:1" fill="#cc342a" d="M 616.5,808.5 C 617.873,808.343 619.207,808.51 620.5,809C 633.203,821.578 643.036,836.078 650,852.5C 651.31,859.871 650.31,866.871 647,873.5C 635.773,880.16 625.939,878.494 617.5,868.5C 610.965,876.72 602.632,879.22 592.5,876C 586.876,871.669 584.209,865.836 584.5,858.5C 586.411,849.008 590.245,840.342 596,832.5C 602.669,824.333 609.502,816.333 616.5,808.5 Z"/></g>
<g><path style="opacity:1" fill="#cc362c" d="M 587.5,893.5 C 607.503,893.333 627.503,893.5 647.5,894C 648,894.5 648.5,895 649,895.5C 650.896,907.368 648.229,918.035 641,927.5C 630.692,938.903 618.525,947.736 604.5,954C 595.783,963.107 594.283,973.273 600,984.5C 608.587,992.41 618.087,993.577 628.5,988C 634.197,983.108 637.697,976.941 639,969.5C 646.851,966.683 649.518,969.35 647,977.5C 639.757,996.875 625.924,1004.38 605.5,1000C 589.824,993.825 583.657,982.325 587,965.5C 588.93,958.308 592.43,951.974 597.5,946.5C 604.563,942.042 611.897,937.876 619.5,934C 630.854,927.323 637.354,917.49 639,904.5C 638.25,903.874 637.416,903.374 636.5,903C 624.167,902.333 611.833,902.333 599.5,903C 598.874,903.75 598.374,904.584 598,905.5C 597.667,909.5 597.333,913.5 597,917.5C 593.725,919.091 590.725,918.758 588,916.5C 588.509,908.855 588.342,901.188 587.5,893.5 Z"/></g>
</svg>
