<?xml version="1.0" encoding="UTF-8"?>
<!DOCTYPE svg PUBLIC "-//W3C//DTD SVG 1.1//EN" "http://www.w3.org/Graphics/SVG/1.1/DTD/svg11.dtd">
<svg xmlns="http://www.w3.org/2000/svg" version="1.1" width="691px" height="1056px" style="shape-rendering:geometricPrecision; text-rendering:geometricPrecision; image-rendering:optimizeQuality; fill-rule:evenodd; clip-rule:evenodd" xmlns:xlink="http://www.w3.org/1999/xlink">
<g><path style="opacity:0.906" fill="#bdbfc1" d="M 45.5,0.5 C 245.833,1.12134 446.166,1.62134 646.5,2C 665.686,6.52403 678.519,18.024 685,36.5C 684.264,355.74 684.431,674.906 685.5,994C 683.799,1022.7 669.466,1042.03 642.5,1052C 639.833,1052.33 637.167,1052.67 634.5,1053C 437.167,1053.67 239.833,1053.67 42.5,1053C 27.9238,1049.1 16.7571,1040.6 9,1027.5C 6.21067,1022.47 4.21067,1017.13 3,1011.5C 2.00077,1002.53 1.50077,993.531 1.5,984.5C 2.61472,668.167 2.78139,351.834 2,35.5C 3.21735,26.6166 7.38401,19.4499 14.5,14C 23.7345,6.70993 34.0678,2.20993 45.5,0.5 Z"/></g>
<g><path style="opacity:1" fill="#fefefe" d="M 42.5,5.5 C 243.5,5.98485 444.5,6.48485 645.5,7C 661.811,10.6415 673.311,20.1415 680,35.5C 680.667,356.167 680.667,676.833 680,997.5C 677.215,1023.9 663.048,1040.73 637.5,1048C 438.833,1048.67 240.167,1048.67 41.5,1048C 22.3766,1040.54 10.8766,1026.71 7,1006.5C 6.83333,979 6.66667,951.5 6.5,924C 7.64238,627.166 7.80904,330.333 7,33.5C 10.3006,24.5307 16.1339,17.6973 24.5,13C 30.3281,9.78826 36.3281,7.28826 42.5,5.5 Z"/></g>
<g><path style="opacity:1" fill="#060606" d="M 61.5,54.5 C 71.8262,53.5803 81.1595,56.0803 89.5,62C 99.8827,75.9124 100.049,90.0791 90,104.5C 88.1667,106.333 86.3333,108.167 84.5,110C 71.3903,116.797 59.8903,125.631 50,136.5C 46.6274,141.09 45.4607,146.09 46.5,151.5C 59.7602,153.779 73.0935,154.112 86.5,152.5C 87.1637,147.527 87.4971,142.527 87.5,137.5C 90.5,137.5 93.5,137.5 96.5,137.5C 96.309,145.84 95.9756,154.174 95.5,162.5C 75.8333,162.5 56.1667,162.5 36.5,162.5C 34.0602,142.542 41.0602,126.709 57.5,115C 65.3333,110.584 72.9999,105.918 80.5,101C 88.3047,91.5429 89.4713,81.3762 84,70.5C 74.2552,61.762 64.0885,61.262 53.5,69C 49.0683,74.0299 46.4016,79.8632 45.5,86.5C 42.8333,86.5 40.1667,86.5 37.5,86.5C 37.5318,69.8077 45.5318,59.141 61.5,54.5 Z"/></g>
<g><path style="opacity:1" fill="#020202" d="M 344.5,121.5 C 347.056,122.543 349.223,124.21 351,126.5C 367.951,149.119 385.284,171.453 403,193.5C 414.402,209.403 416.402,226.403 409,244.5C 397.307,262.138 382.474,265.304 364.5,254C 360.212,248.59 356.045,243.09 352,237.5C 351.667,237.833 351.333,238.167 351,238.5C 350.333,243.5 350.333,248.5 351,253.5C 353.837,263.519 356.671,273.519 359.5,283.5C 350.167,283.5 340.833,283.5 331.5,283.5C 333.996,274.853 336.496,266.186 339,257.5C 340.254,250.535 340.587,243.535 340,236.5C 335.513,241.476 331.513,246.809 328,252.5C 316.693,261.726 304.526,262.893 291.5,256C 280.449,245.181 275.949,232.015 278,216.5C 279.977,208.232 283.31,200.566 288,193.5C 306.666,169.338 325.5,145.338 344.5,121.5 Z"/></g>
<g><path style="opacity:1" fill="#040404" d="M 70.5,242.5 C 68.0122,244.388 65.0122,245.055 61.5,244.5C 62.6706,238.474 63.504,232.474 64,226.5C 61.079,230.092 57.579,232.925 53.5,235C 42.678,235.453 37.3446,230.119 37.5,219C 37.2672,215.541 38.1005,212.374 40,209.5C 48.6667,198.167 57.3333,186.833 66,175.5C 76.0975,186.928 85.4308,198.928 94,211.5C 97.0374,219.7 95.5374,226.867 89.5,233C 86.0684,235.072 82.4017,235.738 78.5,235C 75.3333,232.5 72.1667,230 69,227.5C 69.4067,232.435 69.9067,237.435 70.5,242.5 Z"/></g>
<g><path style="opacity:1" fill="#919191" d="M 70.5,242.5 C 71.404,243.209 71.7373,244.209 71.5,245.5C 67.9581,245.813 64.6248,245.479 61.5,244.5C 65.0122,245.055 68.0122,244.388 70.5,242.5 Z"/></g>
<g><path style="opacity:1" fill="#010101" d="M 330.5,764.5 C 338.656,763.343 346.99,763.177 355.5,764C 356.624,764.249 357.624,764.749 358.5,765.5C 355.083,774.584 352.583,783.918 351,793.5C 350.053,799.343 350.386,805.01 352,810.5C 356.051,800.45 362.885,792.95 372.5,788C 393.496,784.324 406.663,792.824 412,813.5C 413.857,825.547 411.857,836.88 406,847.5C 386.393,874.375 366.059,900.708 345,926.5C 324.269,901.766 304.269,876.432 285,850.5C 275.433,833.294 275.1,815.96 284,798.5C 297.203,784.328 311.537,782.995 327,794.5C 331.057,799.558 334.724,804.892 338,810.5C 338.333,810.167 338.667,809.833 339,809.5C 339.667,803.833 339.667,798.167 339,792.5C 336.764,782.864 333.93,773.531 330.5,764.5 Z"/></g>
<g><path style="opacity:1" fill="#030303" d="M 619.5,803.5 C 622.167,803.5 624.833,803.5 627.5,803.5C 626.332,809.496 625.498,815.496 625,821.5C 627.894,818.639 631.061,816.139 634.5,814C 645.905,812.563 651.572,817.73 651.5,829.5C 651.493,833.519 650.327,837.185 648,840.5C 639.691,851.643 631.191,862.643 622.5,873.5C 613.423,862.591 604.923,851.258 597,839.5C 593.769,832.113 593.769,824.78 597,817.5C 605.514,811.187 612.514,812.52 618,821.5C 619.077,819.884 619.577,818.051 619.5,816C 618.48,811.761 618.48,807.595 619.5,803.5 Z"/></g>
<g><path style="opacity:1" fill="#080808" d="M 644.5,896.5 C 645.043,896.44 645.376,896.107 645.5,895.5C 642.232,894.513 638.898,894.18 635.5,894.5C 624.833,894.5 614.167,894.5 603.5,894.5C 602.947,899.482 602.613,904.482 602.5,909.5C 599.833,909.5 597.167,909.5 594.5,909.5C 594.185,901.58 594.518,893.747 595.5,886C 612.461,884.423 629.461,884.09 646.5,885C 649.367,885.029 651.867,885.862 654,887.5C 655.114,904.778 648.947,918.945 635.5,930C 628.333,935.42 620.667,940.087 612.5,944C 602.243,952.605 599.743,963.105 605,975.5C 613.686,984.268 623.52,985.768 634.5,980C 640.193,975.119 643.693,968.952 645,961.5C 647.333,960.167 649.667,960.167 652,961.5C 652.909,977.843 645.409,988.01 629.5,992C 600.126,993.76 588.626,980.26 595,951.5C 597.084,947.664 599.417,943.997 602,940.5C 609.744,934.709 617.911,929.542 626.5,925C 636.409,918.024 642.409,908.524 644.5,896.5 Z"/></g>
<g><path style="opacity:1" fill="#7d7d7d" d="M 635.5,894.5 C 638.898,894.18 642.232,894.513 645.5,895.5C 645.376,896.107 645.043,896.44 644.5,896.5C 641.5,895.833 638.5,895.167 635.5,894.5 Z"/></g>
</svg>
