<?xml version="1.0" encoding="UTF-8"?>
<!DOCTYPE svg PUBLIC "-//W3C//DTD SVG 1.1//EN" "http://www.w3.org/Graphics/SVG/1.1/DTD/svg11.dtd">
<svg xmlns="http://www.w3.org/2000/svg" version="1.1" width="691px" height="1056px" style="shape-rendering:geometricPrecision; text-rendering:geometricPrecision; image-rendering:optimizeQuality; fill-rule:evenodd; clip-rule:evenodd" xmlns:xlink="http://www.w3.org/1999/xlink">
<g><path style="opacity:0.906" fill="#bdbfc1" d="M 45.5,0.5 C 245.833,1.12134 446.166,1.62134 646.5,2C 665.686,6.52403 678.519,18.024 685,36.5C 684.264,355.74 684.431,674.906 685.5,994C 683.799,1022.7 669.466,1042.03 642.5,1052C 639.833,1052.33 637.167,1052.67 634.5,1053C 437.167,1053.67 239.833,1053.67 42.5,1053C 27.9238,1049.1 16.7571,1040.6 9,1027.5C 6.21067,1022.47 4.21067,1017.13 3,1011.5C 2.00077,1002.53 1.50077,993.531 1.5,984.5C 2.61472,668.167 2.78139,351.834 2,35.5C 3.21735,26.6166 7.38401,19.4499 14.5,14C 23.7345,6.70993 34.0678,2.20993 45.5,0.5 Z"/></g>
<g><path style="opacity:1" fill="#fefefe" d="M 42.5,5.5 C 243.5,5.98228 444.5,6.48228 645.5,7C 661.811,10.6415 673.311,20.1415 680,35.5C 680.667,356.167 680.667,676.833 680,997.5C 677.215,1023.9 663.048,1040.73 637.5,1048C 438.833,1048.67 240.167,1048.67 41.5,1048C 22.3766,1040.54 10.8766,1026.71 7,1006.5C 6.83333,979 6.66667,951.5 6.5,924C 7.64238,627.166 7.80904,330.333 7,33.5C 10.3006,24.5307 16.1339,17.6973 24.5,13C 30.3281,9.78826 36.3281,7.28826 42.5,5.5 Z"/></g>
<g><path style="opacity:1" fill="#0a0a0a" d="M 39.5,57.5 C 57.8364,57.3334 76.1697,57.5001 94.5,58C 99.8687,59.578 102.035,63.078 101,68.5C 91.4493,78.0502 82.616,88.2169 74.5,99C 98.6517,105.453 107.818,120.953 102,145.5C 91.7293,168.152 74.896,174.985 51.5,166C 39.2299,159.124 33.8966,148.791 35.5,135C 39.2739,133.817 42.4406,134.651 45,137.5C 45.74,148.814 51.5733,155.98 62.5,159C 81.8195,160.186 91.8195,151.019 92.5,131.5C 91.2216,116.054 82.8883,109.221 67.5,111C 64.5673,112.054 61.7339,113.22 59,114.5C 51.7265,112.073 50.7265,108.073 56,102.5C 65.6869,91.6475 75.1869,80.6475 84.5,69.5C 72.8476,68.3341 61.1809,68.1675 49.5,69C 49,69.5 48.5,70 48,70.5C 47.8253,74.211 47.3253,77.8776 46.5,81.5C 43.3864,83.0623 40.553,82.7289 38,80.5C 37.3333,73.5 37.3333,66.5 38,59.5C 38.7172,58.9558 39.2172,58.2891 39.5,57.5 Z"/></g>
<g><path style="opacity:1" fill="#040404" d="M 349.5,230.5 C 349.44,229.957 349.107,229.624 348.5,229.5C 347.197,232.645 347.197,235.645 348.5,238.5C 349.6,243.833 350.767,249.166 352,254.5C 355.808,263.771 359.308,273.104 362.5,282.5C 349.836,281.191 337.17,281.191 324.5,282.5C 328.662,270.841 332.828,259.174 337,247.5C 340.611,227.035 337.944,225.702 329,243.5C 313.819,260.274 297.319,261.774 279.5,248C 265.848,230.734 265.014,212.901 277,194.5C 285.148,185.252 295.315,181.752 307.5,184C 312.373,184.884 317.04,186.384 321.5,188.5C 321.833,188 322.167,187.5 322.5,187C 313.446,178.73 307.612,168.563 305,156.5C 305.738,131.927 318.571,118.927 343.5,117.5C 366.166,118.344 379.166,129.844 382.5,152C 381.075,165.437 375.241,176.603 365,185.5C 364.517,186.448 364.351,187.448 364.5,188.5C 368.802,187.021 373.135,185.521 377.5,184C 402.03,181.926 415.696,193.092 418.5,217.5C 417.164,244.341 403.164,257.507 376.5,257C 364.333,252.833 356.167,244.667 352,232.5C 351.292,231.619 350.458,230.953 349.5,230.5 Z"/></g>
<g><path style="opacity:1" fill="#050505" d="M 57.5,179.5 C 78.2381,178.374 84.5715,187.207 76.5,206C 90.7098,206.209 97.2098,213.375 96,227.5C 92.8903,236.307 86.7236,239.807 77.5,238C 74.0589,236.224 70.8922,234.057 68,231.5C 67.3333,233.5 67.3333,235.5 68,237.5C 69.9334,240.893 71.1,244.559 71.5,248.5C 68.65,248.636 65.8166,248.969 63,249.5C 60.7395,249.561 58.7395,248.894 57,247.5C 58.064,243.666 59.564,239.833 61.5,236C 60.5915,233.681 58.9248,233.014 56.5,234C 50.5818,239.657 44.2484,239.99 37.5,235C 31.2941,227.433 30.9608,219.6 36.5,211.5C 40.7967,207.89 45.7967,206.557 51.5,207.5C 51.1353,204.375 50.302,201.375 49,198.5C 46.6553,189.722 49.4886,183.389 57.5,179.5 Z"/></g>
<g><path style="opacity:1" fill="#6f6f6f" d="M 349.5,230.5 C 348.527,232.948 348.194,235.615 348.5,238.5C 347.197,235.645 347.197,232.645 348.5,229.5C 349.107,229.624 349.44,229.957 349.5,230.5 Z"/></g>
<g><path style="opacity:1" fill="#040404" d="M 307.5,585.5 C 305.099,583.938 303.099,584.271 301.5,586.5C 298.303,586.595 295.303,585.928 292.5,584.5C 290.96,580.463 287.96,578.297 283.5,578C 284.861,576.416 285.528,574.582 285.5,572.5C 282.833,572.5 280.167,572.5 277.5,572.5C 270.816,564.459 267.816,555.126 268.5,544.5C 271.634,543.892 272.301,542.226 270.5,539.5C 274.224,523.439 284.224,514.439 300.5,512.5C 307.678,513.069 314.678,514.403 321.5,516.5C 321.649,515.448 321.483,514.448 321,513.5C 303.868,498.192 300.868,480.525 312,460.5C 327.528,446.411 345.028,443.578 364.5,452C 383.485,465.245 387.318,482.078 376,502.5C 373.036,506.466 369.703,510.133 366,513.5C 365.517,514.448 365.351,515.448 365.5,516.5C 369.827,515.449 374.16,514.282 378.5,513C 398.903,511.073 412.07,519.906 418,539.5C 420.092,555.561 415.259,569.061 403.5,580C 384.819,591.278 368.986,588.111 356,570.5C 355.356,565.872 353.19,562.205 349.5,559.5C 349.167,561 348.833,562.5 348.5,564C 350.604,580.554 355.604,596.22 363.5,611C 351.337,610.251 339.171,610.418 327,611.5C 326.167,611.167 325.333,610.833 324.5,610.5C 329.894,598.152 334.394,585.486 338,572.5C 338.499,568.514 338.666,564.514 338.5,560.5C 337.325,560.281 336.325,560.614 335.5,561.5C 331.937,568.794 327.27,575.294 321.5,581C 317.234,583.811 312.567,585.311 307.5,585.5 Z"/></g>
<g><path style="opacity:1" fill="#265e99" d="M 270.5,539.5 C 272.301,542.226 271.634,543.892 268.5,544.5C 268.402,542.447 269.069,540.78 270.5,539.5 Z"/></g>
<g><path style="opacity:1" fill="#1d5897" d="M 277.5,572.5 C 280.167,572.5 282.833,572.5 285.5,572.5C 285.528,574.582 284.861,576.416 283.5,578C 287.96,578.297 290.96,580.463 292.5,584.5C 286.802,582.983 281.968,579.983 278,575.5C 277.517,574.552 277.351,573.552 277.5,572.5 Z"/></g>
<g><path style="opacity:1" fill="#255f9e" d="M 307.5,585.5 C 305.901,587.729 303.901,588.062 301.5,586.5C 303.099,584.271 305.099,583.938 307.5,585.5 Z"/></g>
<g><path style="opacity:1" fill="#030303" d="M 337.5,829.5 C 337.56,830.043 337.893,830.376 338.5,830.5C 339.8,827.691 339.8,825.024 338.5,822.5C 337.593,809.278 333.76,796.945 327,785.5C 325.921,782.937 325.421,780.271 325.5,777.5C 337.786,778.721 349.953,778.721 362,777.5C 362.667,778.833 362.667,780.167 362,781.5C 357.741,791.692 353.741,802.026 350,812.5C 349.333,817.833 349.333,823.167 350,828.5C 353.581,823.672 356.915,818.672 360,813.5C 369.012,803.163 380.179,799.663 393.5,803C 399.423,805.876 404.923,809.376 410,813.5C 420.989,829.827 421.322,846.494 411,863.5C 404.098,871.7 395.264,875.7 384.5,875.5C 377.646,874.948 370.98,873.781 364.5,872C 371.597,879.096 377.097,887.262 381,896.5C 384.866,914.931 378.699,928.765 362.5,938C 346.64,943.755 331.64,942.089 317.5,933C 304.539,919.998 302.039,905.165 310,888.5C 312.916,883.58 316.582,879.247 321,875.5C 321.49,874.207 321.657,872.873 321.5,871.5C 301.521,880.613 285.354,876.28 273,858.5C 266.322,843.64 267.322,829.307 276,815.5C 289.339,800.913 304.506,798.413 321.5,808C 327.939,814.393 333.272,821.56 337.5,829.5 Z"/></g>
<g><path style="opacity:1" fill="#060606" d="M 615.5,807.5 C 620.305,806.513 625.305,806.179 630.5,806.5C 629.507,811.313 628.007,815.98 626,820.5C 625.202,822.259 625.369,823.926 626.5,825.5C 629.055,822.902 631.721,820.402 634.5,818C 646.238,815.378 653.238,820.045 655.5,832C 654.159,843.834 647.492,849.334 635.5,848.5C 635.954,851.14 637.121,853.473 639,855.5C 641.136,868.238 635.803,875.238 623,876.5C 610.416,875.016 605.416,868.016 608,855.5C 609.366,853.63 610.533,851.63 611.5,849.5C 611.291,848.914 610.957,848.414 610.5,848C 595.957,848.755 589.791,841.922 592,827.5C 598.673,814.835 607.173,813.335 617.5,823C 618.448,823.483 619.448,823.649 620.5,823.5C 619.747,817.802 618.08,812.468 615.5,807.5 Z"/></g>
<g><path style="opacity:1" fill="#6d6d6d" d="M 338.5,822.5 C 339.8,825.024 339.8,827.691 338.5,830.5C 337.893,830.376 337.56,830.043 337.5,829.5C 338.468,827.393 338.802,825.059 338.5,822.5 Z"/></g>
<g><path style="opacity:1" fill="#080808" d="M 613.5,885.5 C 636.701,883.248 650.701,893.414 655.5,916C 654.472,920.206 651.805,921.539 647.5,920C 643.783,900.314 632.116,892.314 612.5,896C 599.886,904.078 595.052,915.578 598,930.5C 600.93,939.8 607.263,944.8 617,945.5C 621.766,944.579 626.433,943.246 631,941.5C 635.691,942.207 637.357,944.874 636,949.5C 624.938,961.392 614.438,973.726 604.5,986.5C 616.486,987.666 628.486,987.833 640.5,987C 641,986.5 641.5,986 642,985.5C 642.238,981.778 642.738,978.111 643.5,974.5C 651.564,972.4 654.564,975.566 652.5,984C 652.333,986.833 652.167,989.667 652,992.5C 650.992,994.259 649.492,995.426 647.5,996C 629.5,996.667 611.5,996.667 593.5,996C 590.277,992.888 589.777,989.388 592,985.5C 598.961,976.87 606.295,968.537 614,960.5C 615.128,958.655 615.628,956.655 615.5,954.5C 597.321,951.65 587.988,940.984 587.5,922.5C 588.069,904.33 596.735,891.996 613.5,885.5 Z"/></g>
</svg>
