<?xml version="1.0" encoding="UTF-8"?>
<!DOCTYPE svg PUBLIC "-//W3C//DTD SVG 1.1//EN" "http://www.w3.org/Graphics/SVG/1.1/DTD/svg11.dtd">
<svg xmlns="http://www.w3.org/2000/svg" version="1.1" width="691px" height="1056px" style="shape-rendering:geometricPrecision; text-rendering:geometricPrecision; image-rendering:optimizeQuality; fill-rule:evenodd; clip-rule:evenodd" xmlns:xlink="http://www.w3.org/1999/xlink">
<g><path style="opacity:0.906" fill="#bdbfc1" d="M 45.5,0.5 C 245.833,1.12134 446.166,1.62134 646.5,2C 665.686,6.52403 678.519,18.024 685,36.5C 684.264,355.74 684.431,674.906 685.5,994C 683.799,1022.7 669.466,1042.03 642.5,1052C 639.833,1052.33 637.167,1052.67 634.5,1053C 437.167,1053.67 239.833,1053.67 42.5,1053C 27.9238,1049.1 16.7571,1040.6 9,1027.5C 6.21067,1022.47 4.21067,1017.13 3,1011.5C 2.00077,1002.53 1.50077,993.531 1.5,984.5C 2.61472,668.167 2.78139,351.834 2,35.5C 3.21735,26.6166 7.38401,19.4499 14.5,14C 23.7345,6.70993 34.0678,2.20993 45.5,0.5 Z"/></g>
<g><path style="opacity:1" fill="#fefefe" d="M 42.5,5.5 C 243.5,5.98485 444.5,6.48485 645.5,7C 661.811,10.6415 673.311,20.1415 680,35.5C 680.667,356.167 680.667,676.833 680,997.5C 677.215,1023.9 663.048,1040.73 637.5,1048C 438.833,1048.67 240.167,1048.67 41.5,1048C 22.3766,1040.54 10.8766,1026.71 7,1006.5C 6.83333,979 6.66667,951.5 6.5,924C 7.64238,627.166 7.80904,330.333 7,33.5C 10.3006,24.5307 16.1339,17.6973 24.5,13C 30.3281,9.78826 36.3281,7.28826 42.5,5.5 Z"/></g>
<g><path style="opacity:1" fill="#d12606" d="M 79.5,56.5 C 83.1907,57.5185 86.8574,57.6852 90.5,57C 94.1229,58.788 96.4563,61.6213 97.5,65.5C 89.159,76.0035 80.659,86.3369 72,96.5C 71.5172,97.448 71.3505,98.448 71.5,99.5C 86.2398,101.775 95.4065,110.108 99,124.5C 101.238,139.79 96.7381,152.623 85.5,163C 67.9232,173.429 52.0898,171.263 38,156.5C 33.8162,150.431 32.1495,143.765 33,136.5C 36.2935,133.689 39.2935,134.022 42,137.5C 44.7206,154.287 54.554,161.454 71.5,159C 83.15,154.156 89.15,145.323 89.5,132.5C 89.2613,119.434 82.7613,111.767 70,109.5C 65.9006,109.816 62.0673,110.983 58.5,113C 53.8737,114.357 51.2071,112.691 50.5,108C 51.2007,105.62 52.3674,103.453 54,101.5C 62.3333,91.8333 70.6667,82.1667 79,72.5C 80.0086,70.9751 80.5086,69.3084 80.5,67.5C 69.1618,67.3335 57.8284,67.5001 46.5,68C 46,68.5 45.5,69 45,69.5C 44.7618,73.2222 44.2618,76.8889 43.5,80.5C 41.2351,81.6474 38.9018,81.8141 36.5,81C 35.8742,80.2496 35.3742,79.4162 35,78.5C 34.3333,72.5 34.3333,66.5 35,60.5C 35.7504,59.8742 36.5838,59.3742 37.5,59C 51.6185,57.9048 65.6185,57.0715 79.5,56.5 Z"/></g>
<g><path style="opacity:1" fill="#d02101" d="M 338.5,140.5 C 340.936,140.317 343.103,140.984 345,142.5C 365.188,168.201 385.855,193.534 407,218.5C 409.37,220.87 410.87,223.704 411.5,227C 408.215,233.966 403.715,240.133 398,245.5C 396.414,247.67 395.08,250.004 394,252.5C 388.667,258.5 383.333,264.5 378,270.5C 367.717,284.784 357.05,298.784 346,312.5C 343.833,314.464 341.499,314.798 339,313.5C 318.145,287.132 296.811,261.132 275,235.5C 273.086,233.252 271.586,230.752 270.5,228C 271.278,225.61 272.445,223.443 274,221.5C 296.01,194.759 317.51,167.759 338.5,140.5 Z"/></g>
<g><path style="opacity:1" fill="#d02302" d="M 60.5,182.5 C 63.9594,183.436 66.7928,185.436 69,188.5C 74.2896,196.059 80.2896,203.059 87,209.5C 89.8857,213.598 90.219,217.931 88,222.5C 85.6667,224.833 83.3333,227.167 81,229.5C 75.9474,235.552 71.2807,241.885 67,248.5C 65.9384,249.899 64.605,250.899 63,251.5C 54.0713,241.229 45.0713,230.895 36,220.5C 35.245,217.697 35.5783,215.03 37,212.5C 45.0919,202.621 52.9252,192.621 60.5,182.5 Z"/></g>
<g><path style="opacity:1" fill="#d02101" d="M 342.5,439.5 C 343.675,439.281 344.675,439.614 345.5,440.5C 366.605,467.678 388.439,494.345 411,520.5C 413.846,523.919 414.18,527.586 412,531.5C 390.724,557.761 369.891,584.261 349.5,611C 347.933,612.076 346.266,612.909 344.5,613.5C 341.093,612.374 338.26,610.374 336,607.5C 315.333,582.167 294.667,556.833 274,531.5C 273.362,530.391 272.862,529.225 272.5,528C 291.116,503.941 309.616,479.774 328,455.5C 333.41,450.595 338.243,445.262 342.5,439.5 Z"/></g>
<g><path style="opacity:1" fill="#d02101" d="M 343.5,739.5 C 344.552,739.351 345.552,739.517 346.5,740C 367.299,765.737 388.465,791.237 410,816.5C 412.793,819.453 414.96,822.787 416.5,826.5C 416.281,827.938 415.781,829.271 415,830.5C 403.606,844.549 392.273,858.549 381,872.5C 372.649,884.536 363.816,896.202 354.5,907.5C 352.473,910.194 350.139,912.527 347.5,914.5C 346.062,914.281 344.729,913.781 343.5,913C 339.698,907.927 335.531,903.094 331,898.5C 314.062,876.322 296.395,854.655 278,833.5C 276.692,831.866 275.858,830.032 275.5,828C 276.13,824.704 277.63,821.87 280,819.5C 301.416,792.985 322.583,766.318 343.5,739.5 Z"/></g>
<g><path style="opacity:1" fill="#d02302" d="M 623.5,801.5 C 632.315,811.762 641.149,822.095 650,832.5C 652.295,836.692 651.628,840.359 648,843.5C 640.167,853.167 632.333,862.833 624.5,872.5C 614.192,861.367 604.858,849.534 596.5,837C 604.895,824.763 613.895,812.93 623.5,801.5 Z"/></g>
<g><path style="opacity:1" fill="#d12505" d="M 607.5,984.5 C 606.596,985.209 606.263,986.209 606.5,987.5C 618.012,987.828 629.346,987.495 640.5,986.5C 641.117,986.389 641.617,986.056 642,985.5C 642.333,982.167 642.667,978.833 643,975.5C 645.76,973.297 648.76,972.964 652,974.5C 652.812,981.747 652.646,988.914 651.5,996C 632.853,997.422 614.186,997.756 595.5,997C 591.788,994.442 590.622,990.942 592,986.5C 600.224,977.28 608.058,967.78 615.5,958C 614.18,955.108 611.846,953.775 608.5,954C 590.331,944.873 584.164,930.373 590,910.5C 597.066,890.047 611.232,882.213 632.5,887C 645.865,891.869 653.532,901.369 655.5,915.5C 654.181,919.327 651.514,920.827 647.5,920C 645.658,912.315 641.991,905.648 636.5,900C 618.946,890.849 606.446,895.349 599,913.5C 598.333,919.5 598.333,925.5 599,931.5C 606.543,946.179 617.377,949.179 631.5,940.5C 634.5,941.5 636.5,943.5 637.5,946.5C 627.89,959.447 617.89,972.114 607.5,984.5 Z"/></g>
<g><path style="opacity:1" fill="#f2c3ba" d="M 607.5,984.5 C 618.116,986.477 629.116,987.144 640.5,986.5C 629.346,987.495 618.012,987.828 606.5,987.5C 606.263,986.209 606.596,985.209 607.5,984.5 Z"/></g>
</svg>
