<?xml version="1.0" encoding="UTF-8"?>
<!DOCTYPE svg PUBLIC "-//W3C//DTD SVG 1.1//EN" "http://www.w3.org/Graphics/SVG/1.1/DTD/svg11.dtd">
<svg xmlns="http://www.w3.org/2000/svg" version="1.1" width="691px" height="1056px" style="shape-rendering:geometricPrecision; text-rendering:geometricPrecision; image-rendering:optimizeQuality; fill-rule:evenodd; clip-rule:evenodd" xmlns:xlink="http://www.w3.org/1999/xlink">
<g><path style="opacity:0.906" fill="#bdbfc1" d="M 45.5,0.5 C 245.833,1.12134 446.166,1.62134 646.5,2C 665.686,6.52403 678.519,18.024 685,36.5C 684.264,355.74 684.431,674.906 685.5,994C 683.799,1022.7 669.466,1042.03 642.5,1052C 639.833,1052.33 637.167,1052.67 634.5,1053C 437.167,1053.67 239.833,1053.67 42.5,1053C 27.9238,1049.1 16.7571,1040.6 9,1027.5C 6.21067,1022.47 4.21067,1017.13 3,1011.5C 2.00077,1002.53 1.50077,993.531 1.5,984.5C 2.61472,668.167 2.78139,351.834 2,35.5C 3.21735,26.6166 7.38401,19.4499 14.5,14C 23.7345,6.70993 34.0678,2.20993 45.5,0.5 Z"/></g>
<g><path style="opacity:1" fill="#fefefe" d="M 42.5,5.5 C 243.5,5.98485 444.5,6.48485 645.5,7C 661.811,10.6415 673.311,20.1415 680,35.5C 680.667,356.167 680.667,676.833 680,997.5C 677.215,1023.9 663.048,1040.73 637.5,1048C 438.833,1048.67 240.167,1048.67 41.5,1048C 22.3766,1040.54 10.8766,1026.71 7,1006.5C 6.83333,979 6.66667,951.5 6.5,924C 7.64238,627.166 7.80904,330.333 7,33.5C 10.3006,24.5307 16.1339,17.6973 24.5,13C 30.3281,9.78826 36.3281,7.28826 42.5,5.5 Z"/></g>
<g><path style="opacity:1" fill="#cd382d" d="M 66.5,50.5 C 79.1983,50.943 91.865,51.443 104.5,52C 106.63,54.2609 107.964,56.9275 108.5,60C 99.8316,70.6681 91.1649,81.3347 82.5,92C 105.592,98.9875 114.092,114.487 108,138.5C 100.551,158.475 86.3841,166.308 65.5,162C 49.408,156.333 42.0746,145.333 43.5,129C 45.5,128.333 47.5,128.333 49.5,129C 51.8489,133.698 54.0156,138.531 56,143.5C 63.5538,152.206 73.0538,155.04 84.5,152C 96.3968,145.327 101.23,135.16 99,121.5C 96.1018,106.789 87.2685,101.289 72.5,105C 67.1887,110.094 62.8553,109.261 59.5,102.5C 68.5164,90.3268 78.3498,78.9934 89,68.5C 90.3662,66.6297 91.5328,64.6297 92.5,62.5C 89.777,61.3885 86.9436,60.7219 84,60.5C 75.1839,61.2312 66.3506,61.7312 57.5,62C 55.9785,65.6442 55.1452,69.4775 55,73.5C 52,76.1667 49,76.1667 46,73.5C 46.7786,69.0175 46.6119,64.5175 45.5,60C 45.411,57.2875 46.0776,54.7875 47.5,52.5C 53.9875,51.8332 60.3208,51.1666 66.5,50.5 Z"/></g>
<g><path style="opacity:1" fill="#cc3329" d="M 301.5,125.5 C 322.871,122.768 338.704,130.768 349,149.5C 363.215,125.872 382.715,120.039 407.5,132C 417.8,143.115 421.967,156.282 420,171.5C 416.525,188.78 409.525,204.447 399,218.5C 388,232.5 377,246.5 366,260.5C 360.6,267.233 354.6,273.233 348,278.5C 325.69,256.187 306.357,231.521 290,204.5C 278.479,186.094 275.479,166.428 281,145.5C 285.106,135.893 291.939,129.226 301.5,125.5 Z"/></g>
<g><path style="opacity:1" fill="#cc352a" d="M 51.5,173.5 C 55.247,173.392 58.9137,173.892 62.5,175C 66.1052,177.383 69.6052,179.883 73,182.5C 76.2109,179.627 79.7109,177.127 83.5,175C 100.498,172.999 107.665,180.499 105,197.5C 97.8552,216.294 86.5218,231.961 71,244.5C 63.5203,236.199 56.5203,227.533 50,218.5C 45.607,212.381 42.2737,205.714 40,198.5C 37.4324,186.98 41.2657,178.646 51.5,173.5 Z"/></g>
<g><path style="opacity:1" fill="#cc3329" d="M 300.5,450.5 C 309.961,449.483 318.961,450.983 327.5,455C 334.808,460.301 340.641,466.801 345,474.5C 354.618,457.104 369.451,449.271 389.5,451C 402.89,454.056 411.39,462.223 415,475.5C 418.153,492.741 415.487,509.075 407,524.5C 389.61,552.417 369.444,578.25 346.5,602C 342.328,602.868 339.162,601.368 337,597.5C 318.076,576.248 301.076,553.581 286,529.5C 273.962,510.377 271.295,490.044 278,468.5C 282.48,458.501 289.98,452.501 300.5,450.5 Z"/></g>
<g><path style="opacity:1" fill="#cc3429" d="M 341.5,776.5 C 344.414,777.906 346.914,779.906 349,782.5C 368.62,805.077 386.286,829.077 402,854.5C 413.716,875.612 414.382,896.945 404,918.5C 385.454,934.684 367.121,934.351 349,917.5C 346.568,913.626 343.902,909.959 341,906.5C 337.239,910.938 333.405,915.438 329.5,920C 317.011,929.137 303.344,931.47 288.5,927C 280.323,922.84 274.823,916.34 272,907.5C 268.377,894.382 268.711,881.382 273,868.5C 278.804,854.884 286.138,842.217 295,830.5C 309.345,811.456 324.845,793.456 341.5,776.5 Z"/></g>
<g><path style="opacity:1" fill="#cc352b" d="M 614.5,807.5 C 615.552,807.351 616.552,807.517 617.5,808C 628.212,819.377 637.378,831.877 645,845.5C 648.141,852.196 649.141,859.196 648,866.5C 644.328,875.809 637.495,879.642 627.5,878C 622.467,876.133 618.467,872.966 615.5,868.5C 608.942,876.187 600.608,879.02 590.5,877C 582.998,870.815 580.498,862.981 583,853.5C 584.783,847.933 587.117,842.599 590,837.5C 597.457,826.918 605.624,816.918 614.5,807.5 Z"/></g>
<g><path style="opacity:1" fill="#cd372d" d="M 604.5,892.5 C 622.896,889.782 636.396,896.449 645,912.5C 646.244,916.779 646.577,921.112 646,925.5C 642.943,926.451 639.777,926.784 636.5,926.5C 635.331,908.509 625.665,900.343 607.5,902C 598.193,905.31 592.36,911.81 590,921.5C 587.193,933.499 590.693,942.999 600.5,950C 602.909,950.935 605.409,951.435 608,951.5C 612.458,950.405 616.958,949.405 621.5,948.5C 628.382,948.405 630.216,951.405 627,957.5C 615.757,968.739 605.257,980.572 595.5,993C 607.147,994.221 618.814,994.555 630.5,994C 631.701,993.097 632.535,991.931 633,990.5C 633.333,987.5 633.667,984.5 634,981.5C 636.401,980.398 638.901,980.231 641.5,981C 642.126,981.75 642.626,982.584 643,983.5C 643.667,989.5 643.667,995.5 643,1001.5C 642.25,1002.13 641.416,1002.63 640.5,1003C 622.5,1003.67 604.5,1003.67 586.5,1003C 582.027,1001.23 580.194,998.06 581,993.5C 589.295,983.368 597.795,973.368 606.5,963.5C 583.624,955.425 575.124,939.425 581,915.5C 585.441,904.224 593.274,896.558 604.5,892.5 Z"/></g>
</svg>
