<?xml version="1.0" encoding="UTF-8"?>
<!DOCTYPE svg PUBLIC "-//W3C//DTD SVG 1.1//EN" "http://www.w3.org/Graphics/SVG/1.1/DTD/svg11.dtd">
<svg xmlns="http://www.w3.org/2000/svg" version="1.1" width="691px" height="1056px" style="shape-rendering:geometricPrecision; text-rendering:geometricPrecision; image-rendering:optimizeQuality; fill-rule:evenodd; clip-rule:evenodd" xmlns:xlink="http://www.w3.org/1999/xlink">
<g><path style="opacity:0.906" fill="#bdbfc1" d="M 45.5,0.5 C 245.833,1.12134 446.166,1.62134 646.5,2C 665.686,6.52403 678.519,18.024 685,36.5C 684.264,355.74 684.431,674.906 685.5,994C 683.799,1022.7 669.466,1042.03 642.5,1052C 639.833,1052.33 637.167,1052.67 634.5,1053C 437.167,1053.67 239.833,1053.67 42.5,1053C 27.9238,1049.1 16.7571,1040.6 9,1027.5C 6.21067,1022.47 4.21067,1017.13 3,1011.5C 2.00077,1002.53 1.50077,993.531 1.5,984.5C 2.61472,668.167 2.78139,351.834 2,35.5C 3.21735,26.6166 7.38401,19.4499 14.5,14C 23.7345,6.70993 34.0678,2.20993 45.5,0.5 Z"/></g>
<g><path style="opacity:1" fill="#fefefe" d="M 42.5,5.5 C 243.5,5.98228 444.5,6.48228 645.5,7C 661.811,10.6415 673.311,20.1415 680,35.5C 680.667,356.167 680.667,676.833 680,997.5C 677.215,1023.9 663.048,1040.73 637.5,1048C 438.833,1048.67 240.167,1048.67 41.5,1048C 22.3766,1040.54 10.8766,1026.71 7,1006.5C 6.83333,979 6.66667,951.5 6.5,924C 7.64238,627.166 7.80904,330.333 7,33.5C 10.3006,24.5307 16.1339,17.6973 24.5,13C 30.3281,9.78826 36.3281,7.28826 42.5,5.5 Z"/></g>
<g><path style="opacity:1" fill="#080808" d="M 67.5,54.5 C 76.1731,54.3336 84.8397,54.5002 93.5,55C 96.5711,56.6417 98.5711,59.1417 99.5,62.5C 90.8658,73.4743 82.1991,84.4743 73.5,95.5C 95.7511,101.314 104.918,115.647 101,138.5C 94.5368,161.317 79.7035,170.15 56.5,165C 42.2285,159.28 35.3951,148.78 36,133.5C 38.4659,132.223 40.9659,132.223 43.5,133.5C 47.9183,154.379 60.2516,161.213 80.5,154C 91.0451,144.655 94.5451,133.155 91,119.5C 82.9596,105.655 72.1263,102.989 58.5,111.5C 55.9763,109.81 53.9763,107.643 52.5,105C 63.6191,91.9258 74.6191,78.7591 85.5,65.5C 72.8508,64.5009 60.1842,64.1676 47.5,64.5C 47.4135,68.8566 47.0802,73.19 46.5,77.5C 43.8333,77.5 41.1667,77.5 38.5,77.5C 38.1697,70.4684 38.503,63.4684 39.5,56.5C 48.962,55.8576 58.2953,55.1909 67.5,54.5 Z"/></g>
<g><path style="opacity:1" fill="#010101" d="M 359.5,282.5 C 355.18,283.166 350.68,283.499 346,283.5C 341.114,283.493 336.614,282.826 332.5,281.5C 334.559,274.155 336.725,266.822 339,259.5C 340.522,252.184 340.688,244.851 339.5,237.5C 334.775,244.42 329.442,250.92 323.5,257C 306.206,265.568 292.373,261.734 282,245.5C 275.121,229.553 276.121,214.22 285,199.5C 305,172.833 325,146.167 345,119.5C 364.284,145.119 383.951,170.453 404,195.5C 412.949,210.229 414.949,225.896 410,242.5C 402.632,257.166 390.799,262.999 374.5,260C 371.339,258.587 368.339,256.92 365.5,255C 360.702,249.219 356.036,243.385 351.5,237.5C 350.338,242.467 350.171,247.467 351,252.5C 353.53,262.626 356.364,272.626 359.5,282.5 Z"/></g>
<g><path style="opacity:1" fill="#040404" d="M 65.5,177.5 C 75.906,189.417 85.406,202.084 94,215.5C 94.6667,219.833 94.6667,224.167 94,228.5C 91.1579,236.173 85.6579,239.006 77.5,237C 74.3699,234.872 71.5366,232.372 69,229.5C 69.3354,235.51 70.1688,241.51 71.5,247.5C 68.1667,247.5 64.8333,247.5 61.5,247.5C 62.3239,243.201 62.9906,238.867 63.5,234.5C 63.1667,232.833 62.8333,231.167 62.5,229.5C 58.8245,236.335 53.1578,238.835 45.5,237C 39.5535,233.609 36.8869,228.442 37.5,221.5C 37.2952,218.205 38.1285,215.205 40,212.5C 48.5186,200.774 57.0186,189.108 65.5,177.5 Z"/></g>
<g><path style="opacity:1" fill="#3d3d3d" d="M 332.5,281.5 C 336.614,282.826 341.114,283.493 346,283.5C 350.68,283.499 355.18,283.166 359.5,282.5C 360.043,282.56 360.376,282.893 360.5,283.5C 350.856,284.498 341.19,284.832 331.5,284.5C 331.263,283.209 331.596,282.209 332.5,281.5 Z"/></g>
<g><path style="opacity:1" fill="#010101" d="M 354.5,605.5 C 347.833,604.833 341.167,604.167 334.5,603.5C 336.962,595.61 339.128,587.61 341,579.5C 341.667,572.833 341.667,566.167 341,559.5C 337.667,564.167 334.333,568.833 331,573.5C 317.993,584.985 304.493,585.485 290.5,575C 285.337,569.507 282.171,563.007 281,555.5C 278.253,541.615 280.92,528.948 289,517.5C 308.333,492.167 327.667,466.833 347,441.5C 366.093,466.015 385.426,490.349 405,514.5C 416.008,529.919 418.341,546.586 412,564.5C 404.268,578.446 392.434,583.946 376.5,581C 372.655,579.58 369.322,577.413 366.5,574.5C 362.522,569.354 358.355,564.354 354,559.5C 353.253,566.882 353.586,574.215 355,581.5C 357.504,589.519 360.004,597.519 362.5,605.5C 359.833,605.5 357.167,605.5 354.5,605.5 Z"/></g>
<g><path style="opacity:1" fill="#818181" d="M 334.5,603.5 C 341.167,604.167 347.833,604.833 354.5,605.5C 347.468,605.83 340.468,605.497 333.5,604.5C 333.624,603.893 333.957,603.56 334.5,603.5 Z"/></g>
<g><path style="opacity:1" fill="#010101" d="M 335.5,764.5 C 344.857,764.168 354.19,764.502 363.5,765.5C 357.168,779.829 354.168,794.829 354.5,810.5C 355.675,810.719 356.675,810.386 357.5,809.5C 362.122,798.378 370.122,790.878 381.5,787C 405.381,786.881 417.381,798.881 417.5,823C 417.792,831.33 415.959,839.164 412,846.5C 392.215,873.746 371.715,900.413 350.5,926.5C 329.623,901.753 309.456,876.419 290,850.5C 280.88,834.116 280.214,817.45 288,800.5C 298.338,787.503 311.171,784.336 326.5,791C 332.736,796.239 337.903,802.406 342,809.5C 343.011,810.337 344.178,810.67 345.5,810.5C 344.694,794.609 341.36,779.276 335.5,764.5 Z"/></g>
<g><path style="opacity:1" fill="#030303" d="M 625.5,801.5 C 627.833,801.5 630.167,801.5 632.5,801.5C 631.224,807.815 630.391,814.148 630,820.5C 632.921,816.908 636.421,814.075 640.5,812C 650.999,810.995 656.332,815.828 656.5,826.5C 656.703,830.411 655.87,834.078 654,837.5C 645.818,849.193 637.152,860.527 628,871.5C 619.285,861.12 610.952,850.453 603,839.5C 598.843,831.965 598.51,824.298 602,816.5C 610.449,810.514 618.116,811.514 625,819.5C 625.089,813.864 624.255,808.364 622.5,803C 623.737,802.768 624.737,802.268 625.5,801.5 Z"/></g>
<g><path style="opacity:1" fill="#0a0a0a" d="M 621.5,881.5 C 645.291,880.633 657.958,891.966 659.5,915.5C 656.833,915.5 654.167,915.5 651.5,915.5C 648.695,897.216 638.028,889.383 619.5,892C 608.808,897.694 603.141,906.694 602.5,919C 604.65,937.729 614.65,944.396 632.5,939C 637.215,937.527 640.881,938.86 643.5,943C 632.645,955.687 621.978,968.521 611.5,981.5C 623.43,983.978 635.43,984.145 647.5,982C 648.297,978.255 648.797,974.421 649,970.5C 651.916,968.987 654.582,969.32 657,971.5C 657.5,978.492 657.666,985.492 657.5,992.5C 639.182,993.569 620.849,993.736 602.5,993C 596.453,990.098 595.286,985.931 599,980.5C 606.688,971.646 614.188,962.646 621.5,953.5C 616.4,950.11 611.067,946.943 605.5,944C 594.789,935.719 590.956,924.886 594,911.5C 597.186,895.821 606.353,885.821 621.5,881.5 Z"/></g>
</svg>
