<?xml version="1.0" encoding="UTF-8"?>
<!DOCTYPE svg PUBLIC "-//W3C//DTD SVG 1.1//EN" "http://www.w3.org/Graphics/SVG/1.1/DTD/svg11.dtd">
<svg xmlns="http://www.w3.org/2000/svg" version="1.1" width="691px" height="1056px" style="shape-rendering:geometricPrecision; text-rendering:geometricPrecision; image-rendering:optimizeQuality; fill-rule:evenodd; clip-rule:evenodd" xmlns:xlink="http://www.w3.org/1999/xlink">
<g><path style="opacity:0.906" fill="#bdbfc1" d="M 45.5,0.5 C 245.833,1.12134 446.166,1.62134 646.5,2C 665.686,6.52403 678.519,18.024 685,36.5C 684.274,355.74 684.441,674.906 685.5,994C 683.799,1022.7 669.466,1042.03 642.5,1052C 639.833,1052.33 637.167,1052.67 634.5,1053C 437.167,1053.67 239.833,1053.67 42.5,1053C 27.9238,1049.1 16.7571,1040.6 9,1027.5C 6.21067,1022.47 4.21067,1017.13 3,1011.5C 2.00077,1002.53 1.50077,993.531 1.5,984.5C 2.61472,668.167 2.78139,351.834 2,35.5C 3.21735,26.6166 7.38401,19.4499 14.5,14C 23.7345,6.70993 34.0678,2.20993 45.5,0.5 Z"/></g>
<g><path style="opacity:1" fill="#fefefe" d="M 42.5,5.5 C 243.5,5.98485 444.5,6.48485 645.5,7C 661.811,10.6415 673.311,20.1415 680,35.5C 680.667,356.167 680.667,676.833 680,997.5C 677.215,1023.9 663.048,1040.73 637.5,1048C 438.833,1048.67 240.167,1048.67 41.5,1048C 22.3766,1040.54 10.8766,1026.71 7,1006.5C 6.83333,979 6.66667,951.5 6.5,924C 7.64238,627.166 7.80904,330.333 7,33.5C 10.3006,24.5307 16.1339,17.6973 24.5,13C 30.3281,9.78826 36.3281,7.28826 42.5,5.5 Z"/></g>
<g><path style="opacity:1" fill="#1e1e14" d="M 74.5,58.5 C 78.5,58.5 82.5,58.5 86.5,58.5C 86.3334,80.8358 86.5,103.169 87,125.5C 87.5,126 88,126.5 88.5,127C 91.5,127.333 94.5,127.667 97.5,128C 99.8845,130.885 99.8845,133.885 97.5,137C 94.2423,137.212 91.0757,137.712 88,138.5C 86.0056,144.06 86.1722,149.56 88.5,155C 91.6865,155.889 94.8532,156.722 98,157.5C 98.6667,159.5 98.6667,161.5 98,163.5C 87.7581,165.462 77.2581,166.128 66.5,165.5C 66.25,162.786 66.0833,160.119 66,157.5C 69.2432,155.737 72.7432,155.071 76.5,155.5C 77.7028,149.486 77.7028,143.486 76.5,137.5C 64.187,136.771 51.8537,136.271 39.5,136C 36.3171,134.982 34.9838,132.815 35.5,129.5C 35.8044,125.886 36.9711,122.552 39,119.5C 50.845,99.1392 62.6783,78.8058 74.5,58.5 Z"/></g>
<g><path style="opacity:1" fill="#fcfcfb" d="M 74.5,77.5 C 75.4959,77.4142 76.3292,77.7476 77,78.5C 77.6667,94.1667 77.6667,109.833 77,125.5C 76.5,126 76,126.5 75.5,127C 65.8161,127.832 56.1495,127.665 46.5,126.5C 56.0981,110.302 65.4314,93.9688 74.5,77.5 Z"/></g>
<g><path style="opacity:1" fill="#1d1d13" d="M 187.5,137.5 C 203.77,135.231 217.604,139.898 229,151.5C 237.13,164.614 237.464,177.947 230,191.5C 226.213,196.956 222.046,202.123 217.5,207C 247.182,196.339 265.515,206.339 272.5,237C 270.869,262.967 257.203,276.3 231.5,277C 218.164,272.667 208.997,263.833 204,250.5C 203.333,249.167 202.667,249.167 202,250.5C 201.274,255.239 201.607,259.905 203,264.5C 206.609,277.045 210.776,289.378 215.5,301.5C 202.829,301.667 190.162,301.5 177.5,301C 177.043,300.586 176.709,300.086 176.5,299.5C 185.821,283.698 190.655,266.698 191,248.5C 186.709,254.915 182.542,261.415 178.5,268C 161.764,280.931 145.764,280.098 130.5,265.5C 126.799,259.566 123.965,253.232 122,246.5C 119.155,226.026 127.322,211.859 146.5,204C 155.836,202.721 164.836,203.888 173.5,207.5C 174.167,207.167 174.833,206.833 175.5,206.5C 166.988,198.48 161.155,188.813 158,177.5C 157.293,156.376 167.126,143.043 187.5,137.5 Z"/></g>
<g><path style="opacity:1" fill="#1d1d13" d="M 483.5,271.5 C 484.586,271.38 485.253,270.713 485.5,269.5C 485.457,268.584 485.124,267.917 484.5,267.5C 485.896,261.936 486.563,256.269 486.5,250.5C 486.53,249.503 486.03,248.836 485,248.5C 483.251,248.748 482.418,249.748 482.5,251.5C 476.335,269.746 463.668,278.246 444.5,277C 426.156,270.982 416.823,258.315 416.5,239C 418.676,213.158 432.676,201.491 458.5,204C 462.073,205.371 465.573,206.871 469,208.5C 469.315,207.092 468.982,205.759 468,204.5C 453.925,191.599 449.592,175.932 455,157.5C 467.281,139.961 483.781,134.127 504.5,140C 524.316,146.78 532.482,160.613 529,181.5C 525.5,191.171 520,199.505 512.5,206.5C 513.167,206.833 513.833,207.167 514.5,207.5C 541.231,197.448 558.397,206.115 566,233.5C 567.126,251.752 559.959,265.585 544.5,275C 536.246,277.696 527.913,278.029 519.5,276C 515.333,272.5 511.167,269 507,265.5C 504.411,259.984 501.078,254.984 497,250.5C 496.333,255.167 496.333,259.833 497,264.5C 500.233,275.758 504.233,286.758 509,297.5C 509.494,299.134 509.66,300.801 509.5,302.5C 496.788,301.506 484.121,301.172 471.5,301.5C 475.516,291.474 479.516,281.474 483.5,271.5 Z"/></g>
<g><path style="opacity:1" fill="#1e1e15" d="M 61.5,175.5 C 69.4719,175.442 75.9719,178.442 81,184.5C 82.5204,188.375 82.8538,192.375 82,196.5C 80.3029,198.699 78.8029,201.032 77.5,203.5C 96.9938,204.985 102.327,214.485 93.5,232C 83.8013,237.989 75.6346,236.489 69,227.5C 69.6328,233.576 70.7995,239.576 72.5,245.5C 67.8333,245.833 63.1667,246.167 58.5,246.5C 59.3778,240.904 60.7111,235.404 62.5,230C 62.1667,229.167 61.8333,228.333 61.5,227.5C 54.7577,236.681 46.591,238.014 37,231.5C 30.1837,221.899 31.3504,213.399 40.5,206C 45.0509,204.785 49.7176,204.119 54.5,204C 44.5184,191.226 46.8517,181.726 61.5,175.5 Z"/></g>
<g><path style="opacity:1" fill="#06559b" d="M 486.5,250.5 C 485.167,250.833 483.833,251.167 482.5,251.5C 482.418,249.748 483.251,248.748 485,248.5C 486.03,248.836 486.53,249.503 486.5,250.5 Z"/></g>
<g><path style="opacity:1" fill="#0e5190" d="M 484.5,267.5 C 485.124,267.917 485.457,268.584 485.5,269.5C 485.253,270.713 484.586,271.38 483.5,271.5C 483.433,270.041 483.766,268.708 484.5,267.5 Z"/></g>
<g><path style="opacity:1" fill="#1c1c13" d="M 177.5,752.5 C 190.188,753.401 202.854,753.734 215.5,753.5C 210.56,766.08 206.06,778.746 202,791.5C 201.066,796.351 201.399,801.017 203,805.5C 207.122,793.731 214.622,784.898 225.5,779C 257.517,775.681 272.684,790.181 271,822.5C 265.773,843.724 252.273,853.224 230.5,851C 226.693,849.119 222.693,847.953 218.5,847.5C 219.949,851.472 222.449,854.806 226,857.5C 235.337,870.188 237.004,883.855 231,898.5C 225.614,907.611 217.78,913.444 207.5,916C 193.318,918.526 180.318,915.693 168.5,907.5C 158.53,896.541 155.697,883.874 160,869.5C 161.746,865.673 163.746,862.007 166,858.5C 169.396,855.607 172.229,852.274 174.5,848.5C 173.833,848.167 173.167,847.833 172.5,847.5C 147.746,857.038 130.913,849.371 122,824.5C 119.356,809.102 123.523,795.935 134.5,785C 158.753,770.973 176.586,776.806 188,802.5C 189,803.833 190,803.833 191,802.5C 191.751,797.428 191.418,792.428 190,787.5C 185.921,775.76 181.754,764.093 177.5,752.5 Z"/></g>
<g><path style="opacity:1" fill="#a1a19d" d="M 482.5,753.5 C 478.671,752.931 475.337,753.598 472.5,755.5C 471.596,754.791 471.263,753.791 471.5,752.5C 475.371,752.185 479.038,752.518 482.5,753.5 Z"/></g>
<g><path style="opacity:1" fill="#1c1c13" d="M 496.5,804.5 C 496.56,805.043 496.893,805.376 497.5,805.5C 498.386,804.675 498.719,803.675 498.5,802.5C 503.615,788.391 513.615,780.058 528.5,777.5C 552.526,779.719 564.859,792.886 565.5,817C 564.511,828.978 559.511,838.978 550.5,847C 544.433,849.602 538.1,851.435 531.5,852.5C 525.541,851.041 519.541,849.708 513.5,848.5C 515.289,852.812 518.123,856.479 522,859.5C 523.743,863.984 525.743,868.317 528,872.5C 530.37,905.129 515.203,919.963 482.5,917C 456.847,909.873 447.68,893.373 455,867.5C 459.306,861.028 463.806,854.694 468.5,848.5C 468,848.167 467.5,847.833 467,847.5C 450.962,854.77 436.629,852.436 424,840.5C 416.452,828.44 414.452,815.44 418,801.5C 427.532,780.813 443.032,773.979 464.5,781C 468.916,783.412 472.749,786.578 476,790.5C 485.391,811.238 488.057,810.238 484,787.5C 480.664,776.657 476.83,765.991 472.5,755.5C 475.337,753.598 478.671,752.931 482.5,753.5C 491.616,753.971 500.616,753.305 509.5,751.5C 509.833,752 510.167,752.5 510.5,753C 507.448,760.266 504.281,767.433 501,774.5C 498.234,781.96 496.401,789.626 495.5,797.5C 495.56,799.921 495.893,802.254 496.5,804.5 Z"/></g>
<g><path style="opacity:1" fill="#a38e57" d="M 498.5,802.5 C 498.719,803.675 498.386,804.675 497.5,805.5C 496.893,805.376 496.56,805.043 496.5,804.5C 497.167,803.833 497.833,803.167 498.5,802.5 Z"/></g>
<g><path style="opacity:1" fill="#1e1e14" d="M 625.5,821.5 C 624.566,822.568 624.232,823.901 624.5,825.5C 627.5,825.833 628.833,824.5 628.5,821.5C 629.277,818.888 630.944,817.055 633.5,816C 649.558,813.391 656.392,820.225 654,836.5C 650.388,844.785 643.888,848.452 634.5,847.5C 640.849,855.097 641.015,862.763 635,870.5C 630.936,872.393 626.769,874.059 622.5,875.5C 610.177,873.181 605.01,865.848 607,853.5C 609.304,851.22 610.804,848.554 611.5,845.5C 598.798,848.143 591.798,842.976 590.5,830C 592.148,819.015 598.482,814.015 609.5,815C 612.939,817.139 616.106,819.639 619,822.5C 619.662,816.312 618.162,810.645 614.5,805.5C 619.518,804.786 624.518,804.119 629.5,803.5C 629.833,803.833 630.167,804.167 630.5,804.5C 628.225,809.991 626.558,815.658 625.5,821.5 Z"/></g>
<g><path style="opacity:1" fill="#195b9d" d="M 625.5,821.5 C 626.5,821.5 627.5,821.5 628.5,821.5C 628.833,824.5 627.5,825.833 624.5,825.5C 624.232,823.901 624.566,822.568 625.5,821.5 Z"/></g>
<g><path style="opacity:1" fill="#1e1e15" d="M 593.5,889.5 C 603.506,889.334 613.506,889.5 623.5,890C 624.591,892.064 624.758,894.231 624,896.5C 621.034,898.034 617.867,899.2 614.5,900C 612.076,905.354 611.909,910.854 614,916.5C 625.758,917.322 637.591,917.822 649.5,918C 652.909,919.167 654.909,921.5 655.5,925C 643.661,947.842 631.161,970.342 618,992.5C 613.715,996.732 609.048,997.398 604,994.5C 603.81,984.12 603.31,973.787 602.5,963.5C 602.421,952.984 602.755,942.484 603.5,932C 603.561,930.289 602.894,928.956 601.5,928C 598.447,927.821 595.447,927.321 592.5,926.5C 590.938,923.386 591.271,920.553 593.5,918C 596.758,917.788 599.924,917.288 603,916.5C 603.667,911.167 603.667,905.833 603,900.5C 599.7,899.374 596.366,898.374 593,897.5C 592.278,894.739 592.445,892.073 593.5,889.5 Z"/></g>
<g><path style="opacity:1" fill="#fcfcfc" d="M 614.5,976.5 C 613.504,961.342 613.17,946.009 613.5,930.5C 613.414,929.504 613.748,928.671 614.5,928C 623.518,927.168 632.518,927.335 641.5,928.5C 634.527,945.794 625.527,961.794 614.5,976.5 Z"/></g>
<g><path style="opacity:1" fill="#91918c" d="M 613.5,930.5 C 613.17,946.009 613.504,961.342 614.5,976.5C 614.217,977.289 613.717,977.956 613,978.5C 612.172,962.328 612.339,946.328 613.5,930.5 Z"/></g>
</svg>
