<?xml version="1.0" encoding="UTF-8"?>
<!DOCTYPE svg PUBLIC "-//W3C//DTD SVG 1.1//EN" "http://www.w3.org/Graphics/SVG/1.1/DTD/svg11.dtd">
<svg xmlns="http://www.w3.org/2000/svg" version="1.1" width="691px" height="1056px" style="shape-rendering:geometricPrecision; text-rendering:geometricPrecision; image-rendering:optimizeQuality; fill-rule:evenodd; clip-rule:evenodd" xmlns:xlink="http://www.w3.org/1999/xlink">
<g><path style="opacity:0.906" fill="#bdbfc1" d="M 45.5,0.5 C 245.833,1.12134 446.166,1.62134 646.5,2C 665.686,6.52403 678.519,18.024 685,36.5C 684.274,355.74 684.441,674.906 685.5,994C 683.799,1022.7 669.466,1042.03 642.5,1052C 639.833,1052.33 637.167,1052.67 634.5,1053C 437.167,1053.67 239.833,1053.67 42.5,1053C 27.9238,1049.1 16.7571,1040.6 9,1027.5C 6.21067,1022.47 4.21067,1017.13 3,1011.5C 2.00077,1002.53 1.50077,993.531 1.5,984.5C 2.61472,668.167 2.78139,351.834 2,35.5C 3.21735,26.6166 7.38401,19.4499 14.5,14C 23.7345,6.70993 34.0678,2.20993 45.5,0.5 Z"/></g>
<g><path style="opacity:1" fill="#fefefe" d="M 42.5,5.5 C 243.5,5.98485 444.5,6.48485 645.5,7C 661.811,10.6415 673.311,20.1415 680,35.5C 680.667,356.167 680.667,676.833 680,997.5C 677.215,1023.9 663.048,1040.73 637.5,1048C 438.833,1048.67 240.167,1048.67 41.5,1048C 22.3766,1040.54 10.8766,1026.71 7,1006.5C 6.83333,979 6.66667,951.5 6.5,924C 7.64238,627.166 7.80904,330.333 7,33.5C 10.3006,24.5307 16.1339,17.6973 24.5,13C 30.3281,9.78826 36.3281,7.28826 42.5,5.5 Z"/></g>
<g><path style="opacity:1" fill="#d02505" d="M 71.5,61.5 C 73.1439,61.2865 74.6439,61.6198 76,62.5C 76.3333,84.1667 76.6667,105.833 77,127.5C 77.3742,128.416 77.8742,129.25 78.5,130C 82.3546,130.764 85.8546,132.264 89,134.5C 89.4955,136.473 89.6621,138.473 89.5,140.5C 85.3504,140.601 81.517,141.601 78,143.5C 77.1743,148.589 77.5076,153.589 79,158.5C 82.227,158.953 85.227,159.953 88,161.5C 88.8141,163.902 88.6474,166.235 87.5,168.5C 82.3825,169.143 77.2159,169.476 72,169.5C 66.7503,169.47 61.7503,168.804 57,167.5C 56.2419,165.231 56.4086,163.064 57.5,161C 60.9029,160.9 64.0696,160.066 67,158.5C 67.6667,153.833 67.6667,149.167 67,144.5C 66.6258,143.584 66.1258,142.75 65.5,142C 53.5,141.667 41.5,141.333 29.5,141C 28.0692,140.535 26.9025,139.701 26,138.5C 25.3333,135.5 25.3333,132.5 26,129.5C 38,107.5 50,85.5 62,63.5C 65.2704,62.868 68.4371,62.2014 71.5,61.5 Z"/></g>
<g><path style="opacity:1" fill="#fefcfb" d="M 63.5,81.5 C 64.5,81.5 65.5,81.5 66.5,81.5C 66.8328,97.8469 66.4994,114.18 65.5,130.5C 55.8809,131.641 46.2143,131.807 36.5,131C 46.1598,114.846 55.1598,98.346 63.5,81.5 Z"/></g>
<g><path style="opacity:1" fill="#d02101" d="M 470.5,137.5 C 472.679,137.84 474.512,138.84 476,140.5C 496.667,165.167 517.333,189.833 538,214.5C 540.466,217.128 542.299,220.128 543.5,223.5C 523.226,250.95 502.726,278.283 482,305.5C 480.122,307.043 478.622,308.876 477.5,311C 475.833,311.667 474.167,311.667 472.5,311C 449.696,284.192 426.863,257.358 404,230.5C 401.642,225.983 402.308,221.983 406,218.5C 427.714,191.625 449.214,164.625 470.5,137.5 Z"/></g>
<g><path style="opacity:1" fill="#d02101" d="M 202.5,141.5 C 206.753,144.611 210.586,148.277 214,152.5C 234.957,177.593 255.791,202.759 276.5,228C 260.277,250.267 243.444,272.1 226,293.5C 224.92,295.996 223.586,298.33 222,300.5C 217.298,306.199 212.298,311.533 207,316.5C 203.779,315.284 201.112,313.284 199,310.5C 178.714,284.944 157.714,259.944 136,235.5C 135.125,234.127 134.625,232.627 134.5,231C 135.13,227.704 136.63,224.87 139,222.5C 160.763,195.911 181.929,168.911 202.5,141.5 Z"/></g>
<g><path style="opacity:1" fill="#d02202" d="M 57.5,184.5 C 59.371,184.859 60.871,185.859 62,187.5C 69.3333,196.167 76.6667,204.833 84,213.5C 87.3333,217.167 87.3333,220.833 84,224.5C 75.9925,234.67 67.8258,244.67 59.5,254.5C 50.8428,245.007 42.3428,235.34 34,225.5C 31.1845,222.42 30.8511,219.087 33,215.5C 41.3808,205.292 49.5475,194.958 57.5,184.5 Z"/></g>
<g><path style="opacity:1" fill="#d02101" d="M 480.5,737.5 C 483.959,738.436 486.793,740.436 489,743.5C 510.958,769.926 532.791,796.426 554.5,823C 553.722,825.39 552.555,827.557 551,829.5C 529.975,856.357 509.142,883.357 488.5,910.5C 485.244,912.838 482.411,912.171 480,908.5C 460.381,883.612 440.048,859.279 419,835.5C 416.207,832.547 414.04,829.213 412.5,825.5C 434.775,795.888 457.442,766.555 480.5,737.5 Z"/></g>
<g><path style="opacity:1" fill="#d02101" d="M 212.5,742.5 C 214.722,742.178 216.556,742.845 218,744.5C 239.333,769.833 260.667,795.167 282,820.5C 283.959,822.777 285.459,825.277 286.5,828C 285.87,831.296 284.37,834.13 282,836.5C 261.285,862.213 240.952,888.213 221,914.5C 219.938,915.899 218.605,916.899 217,917.5C 191.933,889.265 167.766,860.265 144.5,830.5C 166.775,800.888 189.442,771.555 212.5,742.5 Z"/></g>
<g><path style="opacity:1" fill="#d02303" d="M 627.5,798.5 C 637.875,809.585 647.541,821.252 656.5,833.5C 649.924,842.971 643.09,852.304 636,861.5C 634.024,863.877 631.857,865.877 629.5,867.5C 626.273,865.803 623.44,863.47 621,860.5C 613.914,851.974 607.081,843.307 600.5,834.5C 609.01,822.153 618.01,810.153 627.5,798.5 Z"/></g>
<g><path style="opacity:1" fill="#d12606" d="M 611.5,884.5 C 617.176,884.334 622.843,884.501 628.5,885C 631.928,887.145 632.428,889.979 630,893.5C 626.773,893.953 623.773,894.953 621,896.5C 620.333,901.5 620.333,906.5 621,911.5C 621.5,912 622,912.5 622.5,913C 634.167,913.333 645.833,913.667 657.5,914C 660.291,915.119 661.957,917.119 662.5,920C 661.701,924.1 660.201,927.934 658,931.5C 647.667,950.167 637.333,968.833 627,987.5C 623.042,992.489 618.375,993.489 613,990.5C 612.166,968.802 611,947.135 609.5,925.5C 606.55,924.512 603.55,923.679 600.5,923C 597.833,920 597.833,917 600.5,914C 608.244,915.422 611.578,912.255 610.5,904.5C 610.333,902.5 610.167,900.5 610,898.5C 606.725,896.684 603.392,895.018 600,893.5C 599.333,891.167 599.333,888.833 600,886.5C 603.935,885.862 607.769,885.196 611.5,884.5 Z"/></g>
<g><path style="opacity:1" fill="#fef7f6" d="M 622.5,923.5 C 631.5,923.5 640.5,923.5 649.5,923.5C 641.942,940.235 633.275,956.401 623.5,972C 622.552,972.483 621.552,972.649 620.5,972.5C 620.333,956.83 620.5,941.163 621,925.5C 621.717,924.956 622.217,924.289 622.5,923.5 Z"/></g>
</svg>
