<?xml version="1.0" encoding="UTF-8"?>
<!DOCTYPE svg PUBLIC "-//W3C//DTD SVG 1.1//EN" "http://www.w3.org/Graphics/SVG/1.1/DTD/svg11.dtd">
<svg xmlns="http://www.w3.org/2000/svg" version="1.1" width="691px" height="1056px" style="shape-rendering:geometricPrecision; text-rendering:geometricPrecision; image-rendering:optimizeQuality; fill-rule:evenodd; clip-rule:evenodd" xmlns:xlink="http://www.w3.org/1999/xlink">
<g><path style="opacity:0.906" fill="#bdbfc1" d="M 45.5,0.5 C 245.833,1.12134 446.166,1.62134 646.5,2C 665.686,6.52403 678.519,18.024 685,36.5C 684.264,355.74 684.431,674.906 685.5,994C 683.799,1022.7 669.466,1042.03 642.5,1052C 639.833,1052.33 637.167,1052.67 634.5,1053C 437.167,1053.67 239.833,1053.67 42.5,1053C 27.9238,1049.1 16.7571,1040.6 9,1027.5C 6.21067,1022.47 4.21067,1017.13 3,1011.5C 2.00077,1002.53 1.50077,993.531 1.5,984.5C 2.61472,668.167 2.78139,351.834 2,35.5C 3.21735,26.6166 7.38401,19.4499 14.5,14C 23.7345,6.70993 34.0678,2.20993 45.5,0.5 Z"/></g>
<g><path style="opacity:1" fill="#fefefe" d="M 42.5,5.5 C 243.5,5.98485 444.5,6.48485 645.5,7C 661.811,10.6415 673.311,20.1415 680,35.5C 680.667,356.167 680.667,676.833 680,997.5C 677.215,1023.9 663.048,1040.73 637.5,1048C 438.833,1048.67 240.167,1048.67 41.5,1048C 22.3766,1040.54 10.8766,1026.71 7,1006.5C 6.83333,979 6.66667,951.5 6.5,924C 7.64238,627.166 7.80904,330.333 7,33.5C 10.3006,24.5307 16.1339,17.6973 24.5,13C 30.3281,9.78826 36.3281,7.28826 42.5,5.5 Z"/></g>
<g><path style="opacity:1" fill="#cd382d" d="M 72.5,59.5 C 76.1817,59.3347 79.8484,59.5014 83.5,60C 84,60.5 84.5,61 85,61.5C 85.1485,83.521 85.8151,105.521 87,127.5C 90.0757,128.288 93.2423,128.788 96.5,129C 97.8333,132 97.8333,135 96.5,138C 93.5,138.333 90.5,138.667 87.5,139C 86.4392,140.849 85.7725,142.849 85.5,145C 86.1459,148.812 86.6459,152.646 87,156.5C 90.0567,157.451 93.2234,157.784 96.5,157.5C 96.5,160.833 96.5,164.167 96.5,167.5C 85.8333,167.5 75.1667,167.5 64.5,167.5C 64.2601,164.421 64.5934,161.421 65.5,158.5C 68.7041,157.796 71.8708,157.13 75,156.5C 76.3929,151.905 76.7262,147.239 76,142.5C 74.786,140.951 73.286,139.785 71.5,139C 60.1667,138.667 48.8333,138.333 37.5,138C 35.626,135.251 34.2927,132.251 33.5,129C 46.6509,105.991 59.6509,82.8247 72.5,59.5 Z"/></g>
<g><path style="opacity:1" fill="#fefcfc" d="M 72.5,79.5 C 73.5,79.5 74.5,79.5 75.5,79.5C 75.6666,95.5035 75.4999,111.503 75,127.5C 65.2441,128.651 55.4107,128.818 45.5,128C 54.9046,112.021 63.9046,95.8542 72.5,79.5 Z"/></g>
<g><path style="opacity:1" fill="#cc3329" d="M 422.5,137.5 C 442.646,135.405 457.646,143.072 467.5,160.5C 471.282,155.546 475.282,150.712 479.5,146C 489.878,138.122 501.545,135.455 514.5,138C 531.681,143.655 539.681,155.655 538.5,174C 538.536,188.893 534.703,202.727 527,215.5C 510.587,242.163 491.42,266.663 469.5,289C 467.299,289.825 465.466,289.325 464,287.5C 455.333,277.5 446.667,267.5 438,257.5C 429.333,245.5 420.667,233.5 412,221.5C 405.667,210.164 401,198.164 398,185.5C 394.674,168.482 399.174,153.982 411.5,142C 415.113,140.19 418.779,138.69 422.5,137.5 Z"/></g>
<g><path style="opacity:1" fill="#cc3329" d="M 170.5,138.5 C 191.495,136.08 206.995,144.08 217,162.5C 223.449,151.52 232.616,143.686 244.5,139C 277.786,136.625 292.286,152.125 288,185.5C 285.975,196.909 281.975,207.575 276,217.5C 259.354,243.138 240.854,267.305 220.5,290C 217.788,290.738 215.455,290.071 213.5,288C 195.421,268.722 178.921,248.222 164,226.5C 158.551,217.267 153.884,207.6 150,197.5C 145.162,183.388 145.495,169.388 151,155.5C 155.481,147.369 161.981,141.702 170.5,138.5 Z"/></g>
<g><path style="opacity:1" fill="#cc352a" d="M 46.5,177.5 C 50.6049,177.234 54.6049,177.734 58.5,179C 61.1306,181.977 64.1306,184.477 67.5,186.5C 70.9732,182.929 74.9732,180.096 79.5,178C 89.7402,176.031 96.5735,179.865 100,189.5C 100.573,195.539 100.239,201.539 99,207.5C 90.8126,221.512 81.3126,234.512 70.5,246.5C 68.9255,247.631 67.2588,247.798 65.5,247C 55.3626,236.264 46.5292,224.431 39,211.5C 35.977,205.118 34.6436,198.451 35,191.5C 36.8726,185.136 40.7059,180.469 46.5,177.5 Z"/></g>
<g><path style="opacity:1" fill="#cc3329" d="M 468.5,763.5 C 472.981,765.459 476.815,768.459 480,772.5C 496.114,790.078 510.78,808.744 524,828.5C 531.834,840.17 537.501,852.837 541,866.5C 543.069,881.063 540.069,894.396 532,906.5C 524.851,913.162 516.351,916.162 506.5,915.5C 497.402,915.785 489.402,912.952 482.5,907C 478.267,902.767 474.1,898.6 470,894.5C 466.858,898.068 463.691,901.734 460.5,905.5C 450.092,914.133 438.092,917.633 424.5,916C 413.967,913.804 406.801,907.638 403,897.5C 396.656,875.868 399.656,855.535 412,836.5C 428.754,810.577 447.587,786.243 468.5,763.5 Z"/></g>
<g><path style="opacity:1" fill="#cc3329" d="M 218.5,764.5 C 223.74,768.233 228.574,772.566 233,777.5C 250.929,797.759 266.929,819.426 281,842.5C 291.212,860.284 293.212,878.951 287,898.5C 282.918,907.584 276.085,913.417 266.5,916C 252.477,919.008 240.311,915.842 230,906.5C 226.833,902.167 223.667,897.833 220.5,893.5C 216.004,900.28 210.671,906.446 204.5,912C 192.18,917.832 179.513,918.832 166.5,915C 163,912.167 159.5,909.333 156,906.5C 147.049,890.109 146.049,873.109 153,855.5C 159.136,841.219 166.803,827.886 176,815.5C 189.243,797.65 203.409,780.65 218.5,764.5 Z"/></g>
<g><path style="opacity:1" fill="#cc352a" d="M 617.5,803.5 C 618.552,803.351 619.552,803.517 620.5,804C 633.022,816.515 643.189,830.682 651,846.5C 652.397,854.231 651.397,861.564 648,868.5C 643.23,872.645 637.73,874.145 631.5,873C 626.973,870.904 622.973,868.071 619.5,864.5C 616.025,866.808 612.692,869.308 609.5,872C 598.915,875.813 591.415,872.646 587,862.5C 585.422,852.39 587.422,843.057 593,834.5C 600.212,823.409 608.378,813.076 617.5,803.5 Z"/></g>
<g><path style="opacity:1" fill="#cd372d" d="M 593.5,887.5 C 602.839,887.334 612.173,887.5 621.5,888C 624.113,890.795 624.113,893.629 621.5,896.5C 618.63,897.122 615.796,897.789 613,898.5C 610.891,904.103 611.058,909.603 613.5,915C 625.167,915.333 636.833,915.667 648.5,916C 653.224,918.435 654.724,922.269 653,927.5C 641,948.833 629,970.167 617,991.5C 613.319,994.36 609.152,995.193 604.5,994C 603.874,993.25 603.374,992.416 603,991.5C 602.667,970.5 602.333,949.5 602,928.5C 601.167,927.667 600.333,926.833 599.5,926C 591.363,927.538 588.696,924.538 591.5,917C 594.903,916.9 598.07,916.066 601,914.5C 602.534,910.289 602.867,905.956 602,901.5C 598.892,899.13 595.559,897.13 592,895.5C 591.109,892.502 591.609,889.836 593.5,887.5 Z"/></g>
<g><path style="opacity:1" fill="#f0c6c2" d="M 614.5,926.5 C 623.675,925.178 633.008,925.178 642.5,926.5C 642.376,927.107 642.043,927.44 641.5,927.5C 632.682,926.507 623.682,926.173 614.5,926.5 Z"/></g>
<g><path style="opacity:1" fill="#fefcfc" d="M 614.5,926.5 C 623.682,926.173 632.682,926.507 641.5,927.5C 633.099,943.3 624.433,958.967 615.5,974.5C 614.675,975.386 613.675,975.719 612.5,975.5C 612.333,959.497 612.5,943.497 613,927.5C 613.383,926.944 613.883,926.611 614.5,926.5 Z"/></g>
</svg>
