<?xml version="1.0" encoding="UTF-8"?>
<!DOCTYPE svg PUBLIC "-//W3C//DTD SVG 1.1//EN" "http://www.w3.org/Graphics/SVG/1.1/DTD/svg11.dtd">
<svg xmlns="http://www.w3.org/2000/svg" version="1.1" width="691px" height="1056px" style="shape-rendering:geometricPrecision; text-rendering:geometricPrecision; image-rendering:optimizeQuality; fill-rule:evenodd; clip-rule:evenodd" xmlns:xlink="http://www.w3.org/1999/xlink">
<g><path style="opacity:0.906" fill="#bdbfc1" d="M 45.5,0.5 C 245.833,1.12134 446.166,1.62134 646.5,2C 665.686,6.52403 678.519,18.024 685,36.5C 684.274,355.74 684.441,674.906 685.5,994C 683.799,1022.7 669.466,1042.03 642.5,1052C 639.833,1052.33 637.167,1052.67 634.5,1053C 437.167,1053.67 239.833,1053.67 42.5,1053C 27.9238,1049.1 16.7571,1040.6 9,1027.5C 6.21067,1022.47 4.21067,1017.13 3,1011.5C 2.00077,1002.53 1.50077,993.531 1.5,984.5C 2.61472,668.167 2.78139,351.834 2,35.5C 3.21735,26.6166 7.38401,19.4499 14.5,14C 23.7345,6.70993 34.0678,2.20993 45.5,0.5 Z"/></g>
<g><path style="opacity:1" fill="#fefefe" d="M 42.5,5.5 C 243.5,5.98485 444.5,6.48485 645.5,7C 661.811,10.6415 673.311,20.1415 680,35.5C 680.667,356.167 680.667,676.833 680,997.5C 677.215,1023.9 663.048,1040.73 637.5,1048C 438.833,1048.67 240.167,1048.67 41.5,1048C 22.3766,1040.54 10.8766,1026.71 7,1006.5C 6.83333,979 6.66667,951.5 6.5,924C 7.64238,627.166 7.80904,330.333 7,33.5C 10.3006,24.5307 16.1339,17.6973 24.5,13C 30.3281,9.78826 36.3281,7.28826 42.5,5.5 Z"/></g>
<g><path style="opacity:1" fill="#070707" d="M 72.5,55.5 C 76.1667,55.5 79.8333,55.5 83.5,55.5C 83.5,78.1667 83.5,100.833 83.5,123.5C 87.1352,124.114 90.8019,124.448 94.5,124.5C 94.2436,126.792 94.5769,128.959 95.5,131C 91.988,132.314 88.3214,133.314 84.5,134C 83.1926,139.779 83.1926,145.612 84.5,151.5C 87.4466,152.423 90.4466,153.089 93.5,153.5C 93.7771,156.448 93.4438,159.281 92.5,162C 82.8161,162.832 73.1495,162.665 63.5,161.5C 62.6072,158.916 62.2739,156.249 62.5,153.5C 65.667,153.6 68.667,152.933 71.5,151.5C 72.4959,145.537 72.8293,139.537 72.5,133.5C 60.4954,133.667 48.4954,133.5 36.5,133C 33.484,131.471 32.1506,128.971 32.5,125.5C 32.8044,121.886 33.9711,118.552 36,115.5C 47.2526,96.6636 58.2526,77.6636 69,58.5C 70.1451,57.3636 71.3117,56.3636 72.5,55.5 Z"/></g>
<g><path style="opacity:1" fill="#f8f8f8" d="M 72.5,70.5 C 73.4912,77.3134 73.8245,84.3134 73.5,91.5C 73.5,102.167 73.5,112.833 73.5,123.5C 63.4778,123.832 53.4778,123.499 43.5,122.5C 53.2228,105.133 62.8895,87.7992 72.5,70.5 Z"/></g>
<g><path style="opacity:1" fill="#505050" d="M 73.5,91.5 C 73.8245,84.3134 73.4912,77.3134 72.5,70.5C 72.7828,69.7109 73.2828,69.0442 74,68.5C 74.8223,76.3446 74.6557,84.0113 73.5,91.5 Z"/></g>
<g><path style="opacity:1" fill="#010101" d="M 484.5,282.5 C 476.833,281.833 469.167,281.167 461.5,280.5C 464.711,271.031 467.211,261.364 469,251.5C 469.751,246.428 469.418,241.428 468,236.5C 464.253,243.483 459.419,249.649 453.5,255C 440.841,261.637 428.841,260.637 417.5,252C 408.841,240.25 405.674,227.084 408,212.5C 409.858,206.451 412.525,200.784 416,195.5C 435.292,169.712 455.125,144.379 475.5,119.5C 494.524,143.357 513.357,167.357 532,191.5C 543.273,206.833 545.606,223.499 539,241.5C 532.29,255.607 521.124,261.44 505.5,259C 500.221,257.384 495.721,254.551 492,250.5C 488.333,245.5 484.667,240.5 481,235.5C 479.675,239.428 479.342,243.428 480,247.5C 482.258,259.105 485.425,270.439 489.5,281.5C 487.955,282.452 486.288,282.785 484.5,282.5 Z"/></g>
<g><path style="opacity:1" fill="#010101" d="M 229.5,281.5 C 220.167,282.833 210.833,282.833 201.5,281.5C 207.361,267.056 210.528,252.056 211,236.5C 210.107,235.289 209.274,235.289 208.5,236.5C 204.216,245.915 197.549,253.082 188.5,258C 164.695,262.548 151.195,252.715 148,228.5C 146.308,215.933 149.308,204.6 157,194.5C 175.667,170.5 194.333,146.5 213,122.5C 214.085,121.707 215.252,121.04 216.5,120.5C 235.827,144.665 254.993,168.999 274,193.5C 285.909,211.436 286.576,229.769 276,248.5C 264.871,260.556 252.038,262.722 237.5,255C 231.661,249.475 226.661,243.308 222.5,236.5C 221.337,241.802 221.171,247.136 222,252.5C 224.036,262.309 226.536,271.976 229.5,281.5 Z"/></g>
<g><path style="opacity:1" fill="#030303" d="M 64.5,174.5 C 66.0174,174.511 67.1841,175.177 68,176.5C 77.0695,187.638 85.4029,199.305 93,211.5C 93.6667,216.167 93.6667,220.833 93,225.5C 90.4457,232.815 85.279,235.648 77.5,234C 74.3055,232.305 71.9722,229.805 70.5,226.5C 69.914,226.709 69.414,227.043 69,227.5C 68.978,232.818 69.1447,238.151 69.5,243.5C 66.5,243.5 63.5,243.5 60.5,243.5C 61.3398,237.807 62.3398,232.14 63.5,226.5C 62.448,226.351 61.448,226.517 60.5,227C 55.7699,234.724 49.4365,236.391 41.5,232C 35.9889,224.72 35.1556,216.887 39,208.5C 47.7167,197.29 56.2167,185.956 64.5,174.5 Z"/></g>
<g><path style="opacity:1" fill="#434343" d="M 461.5,280.5 C 469.167,281.167 476.833,281.833 484.5,282.5C 476.472,282.831 468.472,282.498 460.5,281.5C 460.624,280.893 460.957,280.56 461.5,280.5 Z"/></g>
<g><path style="opacity:1" fill="#aeaeae" d="M 201.5,281.5 C 210.833,282.833 220.167,282.833 229.5,281.5C 230.043,281.56 230.376,281.893 230.5,282.5C 220.5,283.833 210.5,283.833 200.5,282.5C 200.624,281.893 200.957,281.56 201.5,281.5 Z"/></g>
<g><path style="opacity:1" fill="#010101" d="M 212.5,762.5 C 218.167,763.167 223.833,763.833 229.5,764.5C 223.265,778.575 220.932,793.242 222.5,808.5C 226.661,801.692 231.661,795.525 237.5,790C 253.549,782.012 267.049,785.178 278,799.5C 286.134,817.488 284.8,834.821 274,851.5C 255.333,875.5 236.667,899.5 218,923.5C 216.915,924.293 215.748,924.96 214.5,925.5C 196.494,901.51 177.994,877.843 159,854.5C 146.206,837.285 144.206,818.951 153,799.5C 163.767,784.802 177.267,781.635 193.5,790C 199.759,796.255 205.259,803.088 210,810.5C 210.686,803.125 210.353,795.792 209,788.5C 206.594,779.786 204.094,771.119 201.5,762.5C 205.167,762.5 208.833,762.5 212.5,762.5 Z"/></g>
<g><path style="opacity:1" fill="#454545" d="M 212.5,762.5 C 218.537,762.171 224.537,762.504 230.5,763.5C 230.376,764.107 230.043,764.44 229.5,764.5C 223.833,763.833 218.167,763.167 212.5,762.5 Z"/></g>
<g><path style="opacity:1" fill="#010101" d="M 460.5,763.5 C 469.991,762.342 479.658,762.175 489.5,763C 482.335,777.478 479.835,792.645 482,808.5C 486.833,798.333 494.333,790.833 504.5,786C 524.604,783.452 537.104,791.952 542,811.5C 544.07,823.894 542.07,835.561 536,846.5C 515.667,873.167 495.333,899.833 475,926.5C 453.272,899.372 432.272,871.705 412,843.5C 406.878,830.383 406.211,817.05 410,803.5C 419.457,786.362 433.29,781.529 451.5,789C 458.286,794.399 463.786,800.899 468,808.5C 470.156,804.738 470.823,800.738 470,796.5C 467.586,785.162 464.42,774.162 460.5,763.5 Z"/></g>
<g><path style="opacity:1" fill="#030303" d="M 618.5,802.5 C 621.898,802.18 625.232,802.513 628.5,803.5C 627.204,809.137 626.371,814.804 626,820.5C 633.797,810.778 642.13,810.111 651,818.5C 652.334,826.2 651.334,833.533 648,840.5C 640.374,851.289 632.207,861.622 623.5,871.5C 614.425,860.348 605.592,849.014 597,837.5C 592.261,827.714 594.094,819.548 602.5,813C 609.816,811.49 615.816,813.657 620.5,819.5C 620.833,818.667 621.167,817.833 621.5,817C 620.56,812.132 619.56,807.299 618.5,802.5 Z"/></g>
<g><path style="opacity:1" fill="#070707" d="M 626.5,883.5 C 626.5,886.167 626.5,888.833 626.5,891.5C 624.901,891.232 623.568,891.566 622.5,892.5C 621.167,892.5 619.833,892.5 618.5,892.5C 616.544,898.412 615.877,904.745 616.5,911.5C 617.833,911.5 619.167,911.5 620.5,911.5C 630.839,911.334 641.172,911.5 651.5,912C 657.158,913.829 658.992,917.663 657,923.5C 644.565,945.593 631.732,967.427 618.5,989C 614.514,989.499 610.514,989.666 606.5,989.5C 606.833,967.157 606.5,944.823 605.5,922.5C 602.292,921.198 598.959,920.531 595.5,920.5C 595.5,917.833 595.5,915.167 595.5,912.5C 599.072,912.062 602.572,911.396 606,910.5C 606.499,904.843 606.666,899.176 606.5,893.5C 602.739,893.352 599.239,892.352 596,890.5C 595.104,887.975 595.604,885.808 597.5,884C 607.161,883.5 616.828,883.334 626.5,883.5 Z"/></g>
<g><path style="opacity:1" fill="#939393" d="M 626.5,883.5 C 627.477,886.287 627.81,889.287 627.5,892.5C 625.833,892.5 624.167,892.5 622.5,892.5C 623.568,891.566 624.901,891.232 626.5,891.5C 626.5,888.833 626.5,886.167 626.5,883.5 Z"/></g>
<g><path style="opacity:1" fill="#a1a1a1" d="M 618.5,892.5 C 617.545,898.409 617.211,904.409 617.5,910.5C 618.791,910.263 619.791,910.596 620.5,911.5C 619.167,911.5 617.833,911.5 616.5,911.5C 615.877,904.745 616.544,898.412 618.5,892.5 Z"/></g>
<g><path style="opacity:1" fill="#fafafa" d="M 616.5,921.5 C 625.857,921.168 635.19,921.502 644.5,922.5C 637.388,940.064 628.222,956.397 617,971.5C 616.5,954.837 616.333,938.17 616.5,921.5 Z"/></g>
</svg>
