<?xml version="1.0" encoding="UTF-8"?>
<!DOCTYPE svg PUBLIC "-//W3C//DTD SVG 1.1//EN" "http://www.w3.org/Graphics/SVG/1.1/DTD/svg11.dtd">
<svg xmlns="http://www.w3.org/2000/svg" version="1.1" width="691px" height="1056px" style="shape-rendering:geometricPrecision; text-rendering:geometricPrecision; image-rendering:optimizeQuality; fill-rule:evenodd; clip-rule:evenodd" xmlns:xlink="http://www.w3.org/1999/xlink">
<g><path style="opacity:0.906" fill="#bdbfc1" d="M 45.5,0.5 C 245.833,1.12134 446.166,1.62134 646.5,2C 665.686,6.52403 678.519,18.024 685,36.5C 684.274,355.74 684.441,674.906 685.5,994C 683.799,1022.7 669.466,1042.03 642.5,1052C 639.833,1052.33 637.167,1052.67 634.5,1053C 437.167,1053.67 239.833,1053.67 42.5,1053C 27.9238,1049.1 16.7571,1040.6 9,1027.5C 6.21067,1022.47 4.21067,1017.13 3,1011.5C 2.00077,1002.53 1.50077,993.531 1.5,984.5C 2.61472,668.167 2.78139,351.834 2,35.5C 3.21735,26.6166 7.38401,19.4499 14.5,14C 23.7345,6.70993 34.0678,2.20993 45.5,0.5 Z"/></g>
<g><path style="opacity:1" fill="#fefefe" d="M 42.5,5.5 C 243.5,5.98485 444.5,6.48485 645.5,7C 661.811,10.6415 673.311,20.1415 680,35.5C 680.667,356.167 680.667,676.833 680,997.5C 677.215,1023.9 663.048,1040.73 637.5,1048C 438.833,1048.67 240.167,1048.67 41.5,1048C 22.3766,1040.54 10.8766,1026.71 7,1006.5C 6.83333,979 6.66667,951.5 6.5,924C 7.64238,627.166 7.80904,330.333 7,33.5C 10.3006,24.5307 16.1339,17.6973 24.5,13C 30.3281,9.78826 36.3281,7.28826 42.5,5.5 Z"/></g>
<g><path style="opacity:1" fill="#202016" d="M 49.5,53.5 C 64.1705,53.3334 78.8371,53.5001 93.5,54C 95.3398,56.8263 96.0065,59.9929 95.5,63.5C 83.4954,63.3335 71.4954,63.5001 59.5,64C 57.2063,74.6707 55.8729,85.5041 55.5,96.5C 61.4829,95.5087 67.4829,94.5087 73.5,93.5C 98.1334,96.6585 108.633,110.659 105,135.5C 101.39,153.946 90.223,163.613 71.5,164.5C 68.5,164.333 65.5,164.167 62.5,164C 52.4041,159.169 46.4041,151.169 44.5,140C 44.8333,139.167 45.1667,138.333 45.5,137.5C 52.4615,135.273 55.9615,137.939 56,145.5C 64.144,156.324 73.9774,158.158 85.5,151C 96.2256,139.757 98.3922,126.923 92,112.5C 83.472,103.083 73.3054,100.916 61.5,106C 58.5,108.333 55.5,110.667 52.5,113C 49.3307,113.978 46.4973,113.478 44,111.5C 45.4995,92.1639 47.3328,72.8305 49.5,53.5 Z"/></g>
<g><path style="opacity:1" fill="#1c1c13" d="M 191.5,136.5 C 207.183,133.565 220.683,137.565 232,148.5C 241.085,162.109 241.752,176.109 234,190.5C 229.777,196.349 225.61,202.015 221.5,207.5C 233.991,201.017 246.658,200.851 259.5,207C 272.907,217.204 278.073,230.704 275,247.5C 270.546,260.953 261.713,270.12 248.5,275C 235.963,277.488 225.463,273.988 217,264.5C 213.915,259.328 210.581,254.328 207,249.5C 206.333,253.833 206.333,258.167 207,262.5C 210.479,275.437 214.646,288.103 219.5,300.5C 206.829,299.222 194.163,299.222 181.5,300.5C 181.402,296.75 182.569,293.417 185,290.5C 188.335,279.817 191.668,269.15 195,258.5C 195.854,254.375 195.52,250.375 194,246.5C 189.78,256.788 183.28,265.288 174.5,272C 157.857,278.527 144.024,274.694 133,260.5C 122.415,241.328 124.582,223.828 139.5,208C 148.234,201.849 157.9,199.849 168.5,202C 182.441,209.479 183.941,207.646 173,196.5C 160.726,180.357 160.392,164.024 172,147.5C 177.908,142.633 184.408,138.967 191.5,136.5 Z"/></g>
<g><path style="opacity:1" fill="#1d1d13" d="M 486.5,138.5 C 500.614,137.593 512.948,141.76 523.5,151C 534.153,166.447 533.987,181.947 523,197.5C 520.02,201.647 516.52,205.314 512.5,208.5C 513.167,208.833 513.833,209.167 514.5,209.5C 531.312,201.898 546.146,204.565 559,217.5C 566.365,227.851 568.365,239.184 565,251.5C 559.37,270.579 546.537,279.745 526.5,279C 521.087,276.795 515.754,274.295 510.5,271.5C 506.333,264.5 502.167,257.5 498,250.5C 497.333,255.5 497.333,260.5 498,265.5C 501.485,278.454 505.651,291.12 510.5,303.5C 497.915,302.762 485.415,302.429 473,302.5C 474.154,298.673 475.154,294.673 476,290.5C 480.645,283.233 483.311,275.233 484,266.5C 487.994,261.865 488.494,256.865 485.5,251.5C 481.458,257.081 477.791,262.914 474.5,269C 460.771,280.892 446.437,281.559 431.5,271C 417.33,255.71 414.663,238.544 423.5,219.5C 432.2,206.979 444.2,202.145 459.5,205C 463.694,206.951 468.028,207.951 472.5,208C 466.972,201.773 461.806,195.273 457,188.5C 450.634,162.227 460.468,145.56 486.5,138.5 Z"/></g>
<g><path style="opacity:1" fill="#1e1e14" d="M 67.5,173.5 C 82.0356,172.534 88.5356,179.2 87,193.5C 86.1515,196.698 84.6515,199.531 82.5,202C 94.8079,200.156 101.808,205.323 103.5,217.5C 101.93,229.236 95.2638,234.402 83.5,233C 80.0354,230.537 76.8688,227.704 74,224.5C 74.7091,230.667 76.0425,236.667 78,242.5C 73.5986,243.467 69.0986,243.8 64.5,243.5C 64.338,238.818 65.5046,234.485 68,230.5C 68.6667,228.5 68.6667,226.5 68,224.5C 61.1175,234.931 52.7841,236.265 43,228.5C 35.1325,212.821 39.9658,203.488 57.5,200.5C 57.8333,200 58.1667,199.5 58.5,199C 51.989,186.813 54.989,178.313 67.5,173.5 Z"/></g>
<g><path style="opacity:1" fill="#1d1d13" d="M 333.5,445.5 C 350.315,442.494 364.481,447.161 376,459.5C 385.214,475.066 384.214,490.066 373,504.5C 368.865,507.542 366.365,511.209 365.5,515.5C 381.463,507.344 395.963,509.344 409,521.5C 422.064,542.114 419.898,560.948 402.5,578C 386.41,588.085 371.91,586.252 359,572.5C 355.828,568.159 353.161,563.492 351,558.5C 350,557.167 349,557.167 348,558.5C 349.255,574.61 353.588,589.944 361,604.5C 361.494,606.134 361.66,607.801 361.5,609.5C 348.831,608.193 336.164,608.193 323.5,609.5C 328.271,596.952 332.771,584.286 337,571.5C 337.418,567.822 337.918,564.155 338.5,560.5C 338.167,559.5 337.833,558.5 337.5,557.5C 336.186,558.313 335.019,559.313 334,560.5C 322.963,583.846 306.13,589.346 283.5,577C 271.709,566.029 267.209,552.529 270,536.5C 279.44,511.538 296.607,504.204 321.5,514.5C 321.833,514.167 322.167,513.833 322.5,513.5C 317.509,507.518 313.009,501.185 309,494.5C 302.221,477.783 305.721,463.616 319.5,452C 323.913,449.036 328.58,446.869 333.5,445.5 Z"/></g>
<g><path style="opacity:1" fill="#1c1d13" d="M 176.5,751.5 C 188.851,751.168 201.185,751.501 213.5,752.5C 210.098,761.872 206.598,771.205 203,780.5C 200.84,788.099 200.007,795.766 200.5,803.5C 203.749,800.008 206.249,796.008 208,791.5C 221.487,774.427 237.321,771.927 255.5,784C 267.974,795.72 271.807,809.887 267,826.5C 262.313,841.191 252.313,849.191 237,850.5C 229.678,850.086 222.678,848.419 216,845.5C 215.333,846.5 215.333,847.5 216,848.5C 232.821,862.773 236.488,879.773 227,899.5C 220.572,907.899 212.072,913.066 201.5,915C 186.468,917.433 173.634,913.267 163,902.5C 153.977,889.225 153.31,875.558 161,861.5C 164.69,856.131 168.857,851.131 173.5,846.5C 170.374,845.581 167.374,846.081 164.5,848C 136.922,852.113 121.922,840.113 119.5,812C 123.213,785.658 138.213,773.992 164.5,777C 168.007,779.254 171.673,781.254 175.5,783C 180,789.5 184.5,796 189,802.5C 189.545,785.47 185.212,769.804 176,755.5C 175.421,754.072 175.588,752.738 176.5,751.5 Z"/></g>
<g><path style="opacity:1" fill="#1c1d13" d="M 479.5,805.5 C 479.56,806.043 479.893,806.376 480.5,806.5C 481.809,802.351 481.809,798.351 480.5,794.5C 479.771,789.707 477.937,785.374 475,781.5C 474.831,772.816 472.498,764.816 468,757.5C 467.333,756.5 467.333,755.5 468,754.5C 480.432,754.764 492.932,754.43 505.5,753.5C 504.685,757.144 503.852,760.811 503,764.5C 494.637,777.284 490.971,791.284 492,806.5C 496,800.5 500,794.5 504,788.5C 515.703,778.23 528.536,776.73 542.5,784C 556.418,794.01 561.918,807.51 559,824.5C 554.924,844.894 542.424,854.394 521.5,853C 516.811,851.658 512.145,850.658 507.5,850C 513.536,857.233 518.703,865.067 523,873.5C 524.134,883.497 522.801,893.164 519,902.5C 499.488,922.632 478.654,924.298 456.5,907.5C 448.289,898.011 445.456,887.011 448,874.5C 451.354,864.979 456.854,856.812 464.5,850C 455.951,851.599 447.284,852.266 438.5,852C 422.075,847.907 413.242,837.407 412,820.5C 411.333,816.5 411.333,812.5 412,808.5C 415.29,800.08 419.457,792.246 424.5,785C 431.687,781.378 439.187,779.211 447,778.5C 456.695,779.353 464.695,783.686 471,791.5C 473.593,796.361 476.427,801.028 479.5,805.5 Z"/></g>
<g><path style="opacity:1" fill="#9c9c98" d="M 480.5,794.5 C 481.809,798.351 481.809,802.351 480.5,806.5C 479.893,806.376 479.56,806.043 479.5,805.5C 480.482,802.038 480.815,798.371 480.5,794.5 Z"/></g>
<g><path style="opacity:1" fill="#1d1d14" d="M 609.5,807.5 C 614.5,807.5 619.5,807.5 624.5,807.5C 623.302,812.238 621.802,816.905 620,821.5C 619.333,823.167 619.333,824.833 620,826.5C 630.026,814.181 639.36,814.514 648,827.5C 650.476,842.25 644.309,849.583 629.5,849.5C 631.232,853.473 632.232,857.639 632.5,862C 631.048,872.452 625.048,877.452 614.5,877C 599.748,872.684 596.414,863.851 604.5,850.5C 600.365,848.622 596.032,847.455 591.5,847C 585.111,839.944 583.944,832.11 588,823.5C 598.186,814.485 606.853,815.819 614,827.5C 614.065,820.518 612.565,813.851 609.5,807.5 Z"/></g>
<g><path style="opacity:1" fill="#1f1f15" d="M 608.5,889.5 C 624.149,888.329 634.982,894.995 641,909.5C 641.497,912.146 641.664,914.813 641.5,917.5C 638.756,918.205 636.089,918.205 633.5,917.5C 628.367,900.433 617.701,895.6 601.5,903C 591.913,912.161 588.747,923.328 592,936.5C 593.736,943.237 597.903,947.737 604.5,950C 609.833,950.667 615.167,950.667 620.5,950C 625.947,947.198 631.113,944.031 636,940.5C 637.888,940.796 639.722,941.296 641.5,942C 642.116,943.4 642.449,944.9 642.5,946.5C 640.626,964.246 638.293,981.913 635.5,999.5C 621.512,1000.67 607.512,1000.83 593.5,1000C 591.32,997.582 590.987,994.916 592.5,992C 603.5,991.667 614.5,991.333 625.5,991C 626,990.5 626.5,990 627,989.5C 628.607,978.878 630.107,968.211 631.5,957.5C 595.199,966.38 578.699,952.046 582,914.5C 586.476,901.523 595.31,893.19 608.5,889.5 Z"/></g>
</svg>
