<?xml version="1.0" encoding="UTF-8"?>
<!DOCTYPE svg PUBLIC "-//W3C//DTD SVG 1.1//EN" "http://www.w3.org/Graphics/SVG/1.1/DTD/svg11.dtd">
<svg xmlns="http://www.w3.org/2000/svg" version="1.1" width="691px" height="1056px" style="shape-rendering:geometricPrecision; text-rendering:geometricPrecision; image-rendering:optimizeQuality; fill-rule:evenodd; clip-rule:evenodd" xmlns:xlink="http://www.w3.org/1999/xlink">
<g><path style="opacity:0.906" fill="#bdbfc1" d="M 45.5,0.5 C 245.833,1.12134 446.166,1.62134 646.5,2C 665.686,6.52403 678.519,18.024 685,36.5C 684.264,355.74 684.431,674.906 685.5,994C 683.799,1022.7 669.466,1042.03 642.5,1052C 639.833,1052.33 637.167,1052.67 634.5,1053C 437.167,1053.67 239.833,1053.67 42.5,1053C 27.9238,1049.1 16.7571,1040.6 9,1027.5C 6.21067,1022.47 4.21067,1017.13 3,1011.5C 2.00077,1002.53 1.50077,993.531 1.5,984.5C 2.61472,668.167 2.78139,351.834 2,35.5C 3.21735,26.6166 7.38401,19.4499 14.5,14C 23.7345,6.70993 34.0678,2.20993 45.5,0.5 Z"/></g>
<g><path style="opacity:1" fill="#fefefe" d="M 42.5,5.5 C 243.5,5.98228 444.5,6.48228 645.5,7C 661.811,10.6415 673.311,20.1415 680,35.5C 680.667,356.167 680.667,676.833 680,997.5C 677.215,1023.9 663.048,1040.73 637.5,1048C 438.833,1048.67 240.167,1048.67 41.5,1048C 22.3766,1040.54 10.8766,1026.71 7,1006.5C 6.83333,979 6.66667,951.5 6.5,924C 7.64238,627.166 7.80904,330.333 7,33.5C 10.3006,24.5307 16.1339,17.6973 24.5,13C 30.3281,9.78826 36.3281,7.28826 42.5,5.5 Z"/></g>
<g><path style="opacity:1" fill="#d12909" d="M 35.5,56.5 C 49.8372,56.3334 64.1705,56.5001 78.5,57C 79.1381,60.0707 79.1381,63.2374 78.5,66.5C 66.8286,66.3335 55.1619,66.5001 43.5,67C 43,67.5 42.5,68 42,68.5C 40.5882,78.7922 39.7549,89.1255 39.5,99.5C 56.5463,93.476 71.7129,96.476 85,108.5C 90.635,120.557 91.9683,133.223 89,146.5C 78.7375,166.557 63.2375,172.39 42.5,164C 33.67,158.669 29.67,151.002 30.5,141C 32.8333,140.333 35.1667,140.333 37.5,141C 45.2432,160.129 57.4098,163.629 74,151.5C 81.2684,140.011 82.2684,128.011 77,115.5C 63.3925,103.129 50.2259,103.629 37.5,117C 33.7261,118.183 30.5594,117.349 28,114.5C 29.123,96.4807 30.7897,78.4807 33,60.5C 33.6622,59.0161 34.4955,57.6828 35.5,56.5 Z"/></g>
<g><path style="opacity:1" fill="#d02101" d="M 475.5,138.5 C 477.903,138.393 479.736,139.393 481,141.5C 501.956,167.459 523.29,193.125 545,218.5C 549.559,223.089 549.559,227.756 545,232.5C 523.288,258.544 501.954,284.877 481,311.5C 480.261,312.574 479.261,313.241 478,313.5C 452.761,285.258 428.595,256.091 405.5,226C 428.653,196.681 451.986,167.515 475.5,138.5 Z"/></g>
<g><path style="opacity:1" fill="#d02101" d="M 204.5,140.5 C 206.144,140.286 207.644,140.62 209,141.5C 230.624,168.126 252.624,194.459 275,220.5C 278.516,224.075 279.183,228.075 277,232.5C 266.375,245.793 255.375,258.793 244,271.5C 241.584,274.663 239.418,277.996 237.5,281.5C 227.646,293.247 217.813,304.913 208,316.5C 186.667,291.167 165.333,265.833 144,240.5C 140.79,236.576 137.956,232.41 135.5,228C 156.56,200.266 178.394,173.1 201,146.5C 202.394,144.612 203.56,142.612 204.5,140.5 Z"/></g>
<g><path style="opacity:1" fill="#d02202" d="M 57.5,182.5 C 60.7845,182.269 63.2845,183.603 65,186.5C 71.7622,195.019 78.7622,203.352 86,211.5C 87.373,213.695 87.7063,216.029 87,218.5C 78,229.5 69,240.5 60,251.5C 51,240.833 42,230.167 33,219.5C 32.2189,218.271 31.7189,216.938 31.5,215.5C 39.9225,204.329 48.5892,193.329 57.5,182.5 Z"/></g>
<g><path style="opacity:1" fill="#d02101" d="M 342.5,439.5 C 345.959,440.436 348.793,442.436 351,445.5C 371.956,471.459 393.29,497.125 415,522.5C 417.104,525.758 416.77,528.758 414,531.5C 391.326,559.67 368.493,587.67 345.5,615.5C 320.532,586.86 296.532,557.526 273.5,527.5C 273.719,526.062 274.219,524.729 275,523.5C 297.713,495.626 320.213,467.626 342.5,439.5 Z"/></g>
<g><path style="opacity:1" fill="#d02101" d="M 480.5,738.5 C 483.394,739.882 485.894,741.882 488,744.5C 510.226,771.054 532.059,797.888 553.5,825C 552.722,827.39 551.555,829.557 550,831.5C 528.47,858.358 506.97,885.191 485.5,912C 483.421,912.808 481.421,912.641 479.5,911.5C 458.239,885.316 436.739,859.316 415,833.5C 413.086,831.252 411.586,828.752 410.5,826C 432.996,796.182 456.329,767.015 480.5,738.5 Z"/></g>
<g><path style="opacity:1" fill="#d02101" d="M 210.5,740.5 C 212.679,740.84 214.512,741.84 216,743.5C 236.956,769.459 258.29,795.125 280,820.5C 281.555,822.443 282.722,824.61 283.5,827C 278.451,835.387 272.618,843.22 266,850.5C 261.427,857.744 256.093,864.41 250,870.5C 239.381,884.787 228.381,898.787 217,912.5C 214.333,915.167 211.667,915.167 209,912.5C 186.667,885.5 164.333,858.5 142,831.5C 140.802,827.191 141.802,823.524 145,820.5C 167.046,793.96 188.879,767.293 210.5,740.5 Z"/></g>
<g><path style="opacity:1" fill="#d02302" d="M 626.5,801.5 C 628.716,802.203 630.549,803.536 632,805.5C 639.289,815.124 646.955,824.458 655,833.5C 655.167,834.5 655.333,835.5 655.5,836.5C 655.033,839.148 653.866,841.481 652,843.5C 644.239,853.351 636.239,863.018 628,872.5C 618.107,860.944 608.607,849.111 599.5,837C 608.726,825.282 617.726,813.449 626.5,801.5 Z"/></g>
<g><path style="opacity:1" fill="#d12605" d="M 623.5,885.5 C 640.312,883.981 651.812,890.981 658,906.5C 659.188,912.676 656.688,914.842 650.5,913C 648.248,907.824 645.248,903.157 641.5,899C 629.908,893.19 620.074,895.356 612,905.5C 605.527,918.246 606.36,930.412 614.5,942C 627.862,950.477 639.862,948.811 650.5,937C 653.588,936.153 656.421,936.653 659,938.5C 658.433,956.872 657.1,975.206 655,993.5C 653.786,995.049 652.286,996.215 650.5,997C 636.95,996.94 623.45,996.44 610,995.5C 609.231,992.901 609.398,990.401 610.5,988C 620.5,987.667 630.5,987.333 640.5,987C 643.232,986.602 645.065,985.102 646,982.5C 647.152,973.173 647.818,963.839 648,954.5C 647.439,953.978 646.772,953.645 646,953.5C 636.653,956.825 627.153,957.325 617.5,955C 604.027,948.743 597.36,938.077 597.5,923C 596.857,910.978 600.857,900.978 609.5,893C 613.886,889.828 618.552,887.328 623.5,885.5 Z"/></g>
</svg>
