<?xml version="1.0" encoding="UTF-8"?>
<!DOCTYPE svg PUBLIC "-//W3C//DTD SVG 1.1//EN" "http://www.w3.org/Graphics/SVG/1.1/DTD/svg11.dtd">
<svg xmlns="http://www.w3.org/2000/svg" version="1.1" width="691px" height="1056px" style="shape-rendering:geometricPrecision; text-rendering:geometricPrecision; image-rendering:optimizeQuality; fill-rule:evenodd; clip-rule:evenodd" xmlns:xlink="http://www.w3.org/1999/xlink">
<g><path style="opacity:0.906" fill="#bdbfc1" d="M 45.5,0.5 C 245.833,1.12134 446.166,1.62134 646.5,2C 665.686,6.52403 678.519,18.024 685,36.5C 684.274,355.74 684.441,674.906 685.5,994C 683.799,1022.7 669.466,1042.03 642.5,1052C 639.833,1052.33 637.167,1052.67 634.5,1053C 437.167,1053.67 239.833,1053.67 42.5,1053C 27.9238,1049.1 16.7571,1040.6 9,1027.5C 6.21067,1022.47 4.21067,1017.13 3,1011.5C 2.00077,1002.53 1.50077,993.531 1.5,984.5C 2.61472,668.167 2.78139,351.834 2,35.5C 3.21735,26.6166 7.38401,19.4499 14.5,14C 23.7345,6.70993 34.0678,2.20993 45.5,0.5 Z"/></g>
<g><path style="opacity:1" fill="#fefefe" d="M 42.5,5.5 C 243.5,5.98485 444.5,6.48485 645.5,7C 661.811,10.6415 673.311,20.1415 680,35.5C 680.667,356.167 680.667,676.833 680,997.5C 677.215,1023.9 663.048,1040.73 637.5,1048C 438.833,1048.67 240.167,1048.67 41.5,1048C 22.3766,1040.54 10.8766,1026.71 7,1006.5C 6.83333,979 6.66667,951.5 6.5,924C 7.64238,627.166 7.80904,330.333 7,33.5C 10.3006,24.5307 16.1339,17.6973 24.5,13C 30.3281,9.78826 36.3281,7.28826 42.5,5.5 Z"/></g>
<g><path style="opacity:1" fill="#cd382d" d="M 75.5,58.5 C 83.1028,56.4184 85.9361,59.0851 84,66.5C 83.1667,67.3333 82.3333,68.1667 81.5,69C 71.1933,68.7986 60.86,69.2986 50.5,70.5C 48.1031,73.7274 46.9365,77.3941 47,81.5C 46.5004,88.4921 46.3337,95.4921 46.5,102.5C 63.4533,95.3239 78.2867,98.3239 91,111.5C 94.6633,118.147 96.1633,125.313 95.5,133C 95.4169,159.085 82.4169,171.419 56.5,170C 45.0949,166.095 38.0949,158.262 35.5,146.5C 36.9799,142.95 39.6466,141.783 43.5,143C 45.8289,148.654 49.1623,153.654 53.5,158C 71.7053,163.976 82.5387,157.476 86,138.5C 88.3189,116.486 78.4855,106.986 56.5,110C 51.3115,112.184 46.9782,115.518 43.5,120C 37.8184,121.48 34.8184,119.313 34.5,113.5C 35.8066,96.4331 37.6399,79.4331 40,62.5C 40.8333,61.6667 41.6667,60.8333 42.5,60C 53.6743,59.8305 64.6743,59.3305 75.5,58.5 Z"/></g>
<g><path style="opacity:1" fill="#cc3329" d="M 495.5,136.5 C 520.632,133.472 534.799,144.472 538,169.5C 538.809,182.084 536.475,194.084 531,205.5C 514.157,236.833 492.99,264.833 467.5,289.5C 444.85,267.025 425.017,242.359 408,215.5C 397.15,198.559 393.817,180.226 398,160.5C 404.816,141.499 418.316,133.999 438.5,138C 443.651,138.91 448.318,140.91 452.5,144C 457.75,148.744 462.417,153.911 466.5,159.5C 473.576,148.409 483.242,140.743 495.5,136.5 Z"/></g>
<g><path style="opacity:1" fill="#cc3429" d="M 247.5,138.5 C 271.222,137.066 284.389,148.066 287,171.5C 287.755,180.268 287.088,188.934 285,197.5C 280.611,207.278 275.944,216.945 271,226.5C 254.971,248.867 237.804,270.367 219.5,291C 217.833,291.667 216.167,291.667 214.5,291C 192.501,268.189 173.001,243.356 156,216.5C 151.671,207.181 148.338,197.514 146,187.5C 142.68,169.573 147.846,154.74 161.5,143C 184.687,135.092 202.687,141.592 215.5,162.5C 218.876,159.286 221.71,155.619 224,151.5C 230.682,144.913 238.516,140.579 247.5,138.5 Z"/></g>
<g><path style="opacity:1" fill="#cc342a" d="M 44.5,179.5 C 53.443,178.562 60.6097,181.562 66,188.5C 69.2354,184.941 73.0687,182.108 77.5,180C 86.6431,177.802 93.4765,180.636 98,188.5C 99.0726,196.017 98.4059,203.35 96,210.5C 88.2818,225.28 78.6151,238.613 67,250.5C 53.6705,238.167 43.0038,223.834 35,207.5C 32.1933,198.818 33.36,190.818 38.5,183.5C 40.5654,182.143 42.5654,180.81 44.5,179.5 Z"/></g>
<g><path style="opacity:1" fill="#cc3329" d="M 300.5,450.5 C 313.821,449.333 325.321,453.333 335,462.5C 337.361,466.567 340.194,470.233 343.5,473.5C 347.282,468.546 351.282,463.712 355.5,459C 368.07,450.128 381.737,448.128 396.5,453C 406.104,457.948 411.937,465.782 414,476.5C 415.599,489.508 414.266,502.174 410,514.5C 392.919,547.407 371.419,577.074 345.5,603.5C 321.49,580.991 300.99,555.658 284,527.5C 274.894,512.305 271.561,495.972 274,478.5C 276.614,463.057 285.448,453.724 300.5,450.5 Z"/></g>
<g><path style="opacity:1" fill="#cc3329" d="M 469.5,762.5 C 471.582,762.472 473.416,763.139 475,764.5C 493.473,785.301 510.806,806.968 527,829.5C 533.739,840.045 538.739,851.378 542,863.5C 545.044,879.218 542.044,893.551 533,906.5C 517.941,917.886 502.441,918.386 486.5,908C 481.23,903.404 476.73,898.238 473,892.5C 467.475,901.025 460.308,907.858 451.5,913C 428.696,921.992 412.529,915.492 403,893.5C 399.635,873.656 402.968,854.989 413,837.5C 429.799,810.881 448.632,785.881 469.5,762.5 Z"/></g>
<g><path style="opacity:1" fill="#cc3329" d="M 219.5,765.5 C 220.552,765.351 221.552,765.517 222.5,766C 243.517,786.91 262.017,809.743 278,834.5C 284.593,844.685 289.259,855.685 292,867.5C 294.27,881.894 291.603,895.227 284,907.5C 272.07,917.803 258.57,920.303 243.5,915C 239.156,912.829 235.156,910.163 231.5,907C 228.697,902.564 225.531,898.397 222,894.5C 210.85,914.557 194.016,922.057 171.5,917C 158.017,910.568 151.184,899.735 151,884.5C 150.08,871.099 152.747,858.432 159,846.5C 175.756,817.004 195.923,790.004 219.5,765.5 Z"/></g>
<g><path style="opacity:1" fill="#cc342a" d="M 618.5,802.5 C 619.873,802.343 621.207,802.51 622.5,803C 634.412,814.994 644.246,828.494 652,843.5C 655.964,854.933 653.131,864.1 643.5,871C 634.122,873.156 626.788,870.323 621.5,862.5C 615.232,870.089 607.232,873.255 597.5,872C 590.913,867.659 587.913,861.492 588.5,853.5C 588.3,848.964 589.133,844.631 591,840.5C 598.836,826.836 608.003,814.17 618.5,802.5 Z"/></g>
<g><path style="opacity:1" fill="#cd392e" d="M 616.5,884.5 C 633.297,881.812 645.131,888.146 652,903.5C 654.005,910.49 651.505,913.324 644.5,912C 643.036,906.07 640.036,901.07 635.5,897C 618.543,890.728 607.71,896.228 603,913.5C 601.874,921.045 602.54,928.379 605,935.5C 611.521,945.007 620.354,948.173 631.5,945C 636.947,942.623 641.614,939.29 645.5,935C 651.654,934.089 654.32,936.756 653.5,943C 652.255,958.858 650.755,974.692 649,990.5C 648.727,992.329 647.893,993.829 646.5,995C 632.592,995.823 618.758,995.656 605,994.5C 604.333,992.167 604.333,989.833 605,987.5C 605.75,986.874 606.584,986.374 607.5,986C 617.5,985.667 627.5,985.333 637.5,985C 638.333,984.167 639.167,983.333 640,982.5C 640.282,976.784 640.948,971.117 642,965.5C 642.796,961.245 642.629,957.079 641.5,953C 606.639,961.143 590.472,947.31 593,911.5C 596.228,898.309 604.061,889.309 616.5,884.5 Z"/></g>
</svg>
