<?xml version="1.0" encoding="UTF-8"?>
<!DOCTYPE svg PUBLIC "-//W3C//DTD SVG 1.1//EN" "http://www.w3.org/Graphics/SVG/1.1/DTD/svg11.dtd">
<svg xmlns="http://www.w3.org/2000/svg" version="1.1" width="691px" height="1056px" style="shape-rendering:geometricPrecision; text-rendering:geometricPrecision; image-rendering:optimizeQuality; fill-rule:evenodd; clip-rule:evenodd" xmlns:xlink="http://www.w3.org/1999/xlink">
<g><path style="opacity:0.906" fill="#bdbfc1" d="M 45.5,0.5 C 245.833,1.12134 446.166,1.62134 646.5,2C 665.686,6.52403 678.519,18.024 685,36.5C 684.274,355.74 684.441,674.906 685.5,994C 683.799,1022.7 669.466,1042.03 642.5,1052C 639.833,1052.33 637.167,1052.67 634.5,1053C 437.167,1053.67 239.833,1053.67 42.5,1053C 27.9238,1049.1 16.7571,1040.6 9,1027.5C 6.21067,1022.47 4.21067,1017.13 3,1011.5C 2.00077,1002.53 1.50077,993.531 1.5,984.5C 2.61472,668.167 2.78139,351.834 2,35.5C 3.21735,26.6166 7.38401,19.4499 14.5,14C 23.7345,6.70993 34.0678,2.20993 45.5,0.5 Z"/></g>
<g><path style="opacity:1" fill="#fefefe" d="M 42.5,5.5 C 243.5,5.98485 444.5,6.48485 645.5,7C 661.811,10.6415 673.311,20.1415 680,35.5C 680.667,356.167 680.667,676.833 680,997.5C 677.215,1023.9 663.048,1040.73 637.5,1048C 438.833,1048.67 240.167,1048.67 41.5,1048C 22.3766,1040.54 10.8766,1026.71 7,1006.5C 6.83333,979 6.66667,951.5 6.5,924C 7.64238,627.166 7.80904,330.333 7,33.5C 10.3006,24.5307 16.1339,17.6973 24.5,13C 30.3281,9.78826 36.3281,7.28826 42.5,5.5 Z"/></g>
<g><path style="opacity:1" fill="#090909" d="M 82.5,53.5 C 82.5,55.8333 82.5,58.1667 82.5,60.5C 79.6146,60.1936 76.9479,60.5269 74.5,61.5C 65.5,61.5 56.5,61.5 47.5,61.5C 46.0027,72.7995 45.1693,84.1329 45,95.5C 61.897,87.9165 76.5637,90.9165 89,104.5C 94.0918,112.847 95.7585,121.847 94,131.5C 89.9279,155.908 75.7612,165.742 51.5,161C 40.5375,156.038 35.2042,147.705 35.5,136C 37.74,135.023 40.0733,134.523 42.5,134.5C 46.9731,152.236 57.6397,157.403 74.5,150C 84.0815,140.8 87.2482,129.633 84,116.5C 78.9944,104.143 69.8278,99.3093 56.5,102C 50.9961,104.173 45.9961,107.173 41.5,111C 37.1352,112.459 34.1352,111.126 32.5,107C 35.1103,88.8959 37.1103,70.7292 38.5,52.5C 53.3428,52.1707 68.0095,52.504 82.5,53.5 Z"/></g>
<g><path style="opacity:1" fill="#505050" d="M 82.5,53.5 C 83.4731,55.9479 83.8064,58.6146 83.5,61.5C 80.5,61.5 77.5,61.5 74.5,61.5C 76.9479,60.5269 79.6146,60.1936 82.5,60.5C 82.5,58.1667 82.5,55.8333 82.5,53.5 Z"/></g>
<g><path style="opacity:1" fill="#010101" d="M 215.5,120.5 C 235.766,145.293 255.599,170.626 275,196.5C 285.81,213.699 286.143,231.032 276,248.5C 262.113,263.189 247.446,264.189 232,251.5C 228.638,246.97 225.471,242.303 222.5,237.5C 221.675,236.614 220.675,236.281 219.5,236.5C 219.52,252.244 222.853,267.244 229.5,281.5C 219.833,282.833 210.167,282.833 200.5,281.5C 206.837,267.154 210.17,252.154 210.5,236.5C 209.325,236.281 208.325,236.614 207.5,237.5C 203.766,244.73 198.766,250.897 192.5,256C 177.755,263.608 164.922,261.108 154,248.5C 145.363,231.807 145.363,215.14 154,198.5C 174.013,172.002 194.513,146.002 215.5,120.5 Z"/></g>
<g><path style="opacity:1" fill="#010101" d="M 487.5,280.5 C 479.231,282.47 470.565,283.136 461.5,282.5C 460.876,282.083 460.543,281.416 460.5,280.5C 466.525,266.41 469.358,251.744 469,236.5C 467.488,237.257 466.154,238.257 465,239.5C 454.477,260.692 438.977,265.525 418.5,254C 411.899,247.965 408.065,240.465 407,231.5C 405.211,218.771 407.878,207.104 415,196.5C 433.912,170.756 453.746,145.756 474.5,121.5C 476.817,123.316 478.984,125.316 481,127.5C 497.617,149.786 514.617,171.786 532,193.5C 541.871,208.342 544.204,224.342 539,241.5C 531.189,257.114 518.689,262.948 501.5,259C 493.315,253.978 486.981,247.145 482.5,238.5C 481.833,237.167 481.167,237.167 480.5,238.5C 479.386,243.446 479.219,248.446 480,253.5C 482.506,262.507 485.006,271.507 487.5,280.5 Z"/></g>
<g><path style="opacity:1" fill="#030303" d="M 69.5,241.5 C 67.0122,243.388 64.0122,244.055 60.5,243.5C 60.5,242.5 60.5,241.5 60.5,240.5C 61.428,235.846 61.928,231.179 62,226.5C 54.5011,236.057 46.5011,236.724 38,228.5C 34.1277,220.693 34.7944,213.36 40,206.5C 47.9516,195.547 56.2849,184.88 65,174.5C 74.1515,185.473 82.8182,196.807 91,208.5C 93.8768,215.027 94.2101,221.693 92,228.5C 83.4801,237.159 75.9801,236.492 69.5,226.5C 68.0542,227.171 67.3875,228.338 67.5,230C 68.3624,233.811 69.0291,237.644 69.5,241.5 Z"/></g>
<g><path style="opacity:1" fill="#b9b9b9" d="M 60.5,240.5 C 60.5,241.5 60.5,242.5 60.5,243.5C 64.0122,244.055 67.0122,243.388 69.5,241.5C 70.404,242.209 70.7373,243.209 70.5,244.5C 66.8333,244.5 63.1667,244.5 59.5,244.5C 59.2322,242.901 59.5655,241.568 60.5,240.5 Z"/></g>
<g><path style="opacity:1" fill="#3f3f3f" d="M 487.5,280.5 C 488.404,281.209 488.737,282.209 488.5,283.5C 479.318,283.827 470.318,283.493 461.5,282.5C 470.565,283.136 479.231,282.47 487.5,280.5 Z"/></g>
<g><path style="opacity:1" fill="#010101" d="M 350.5,604.5 C 343.605,604.15 336.938,603.15 330.5,601.5C 336.041,587.338 339.041,572.672 339.5,557.5C 338.325,557.281 337.325,557.614 336.5,558.5C 332.226,566.902 326.226,573.736 318.5,579C 295.435,584.714 281.601,575.88 277,552.5C 275.115,541.54 276.782,531.207 282,521.5C 302.046,495.243 322.212,469.076 342.5,443C 345.642,443.088 348.142,444.588 350,447.5C 366.617,469.786 383.617,491.786 401,513.5C 411.428,526.931 414.428,541.931 410,558.5C 402.997,578.062 389.497,584.895 369.5,579C 361.774,573.736 355.774,566.902 351.5,558.5C 350.726,557.289 349.893,557.289 349,558.5C 348.283,565.618 348.95,572.618 351,579.5C 353.207,587.952 355.707,596.286 358.5,604.5C 355.833,604.5 353.167,604.5 350.5,604.5 Z"/></g>
<g><path style="opacity:1" fill="#414141" d="M 330.5,601.5 C 336.938,603.15 343.605,604.15 350.5,604.5C 343.5,604.5 336.5,604.5 329.5,604.5C 329.263,603.209 329.596,602.209 330.5,601.5 Z"/></g>
<g><path style="opacity:1" fill="#010101" d="M 199.5,763.5 C 209.172,763.334 218.839,763.5 228.5,764C 220.883,779.076 218.05,794.909 220,811.5C 224.723,800.778 232.223,792.611 242.5,787C 263.554,784.073 276.388,792.906 281,813.5C 282.602,825.486 280.602,836.819 275,847.5C 255.212,874.084 234.712,900.084 213.5,925.5C 193.288,901.418 173.788,876.751 155,851.5C 144.147,835.216 142.813,818.216 151,800.5C 162.031,785.553 175.864,782.386 192.5,791C 198.096,796.593 202.93,802.76 207,809.5C 207.667,802.5 207.667,795.5 207,788.5C 205.199,779.933 202.699,771.6 199.5,763.5 Z"/></g>
<g><path style="opacity:1" fill="#010101" d="M 459.5,763.5 C 468.839,763.334 478.173,763.5 487.5,764C 481.42,778.569 478.086,793.736 477.5,809.5C 478.822,809.67 479.989,809.337 481,808.5C 488.028,792.448 500.195,785.282 517.5,787C 533.147,793.267 540.814,804.934 540.5,822C 540.422,831.812 537.922,840.979 533,849.5C 513.382,875.453 493.382,901.12 473,926.5C 450.851,900.022 429.851,872.688 410,844.5C 403.788,829.326 404.122,814.326 411,799.5C 422.112,785.575 435.612,782.742 451.5,791C 457.096,796.593 461.93,802.76 466,809.5C 468.34,805.445 469.007,801.111 468,796.5C 465.261,785.454 462.428,774.454 459.5,763.5 Z"/></g>
<g><path style="opacity:1" fill="#040404" d="M 616.5,803.5 C 619.833,803.5 623.167,803.5 626.5,803.5C 625.331,809.497 624.498,815.497 624,821.5C 628.323,816.083 633.823,813.583 640.5,814C 647.364,816.549 650.698,821.549 650.5,829C 650.643,833.219 649.476,837.052 647,840.5C 638.667,851.5 630.333,862.5 622,873.5C 613.427,863.35 605.093,853.016 597,842.5C 591.545,834.313 591.212,825.98 596,817.5C 599.831,813.872 604.331,812.705 609.5,814C 613.281,815.618 616.281,818.118 618.5,821.5C 618.833,820.667 619.167,819.833 619.5,819C 618.416,813.834 617.416,808.668 616.5,803.5 Z"/></g>
<g><path style="opacity:1" fill="#080808" d="M 618.5,884.5 C 638.577,882.167 649.91,890.834 652.5,910.5C 650.131,910.851 647.797,911.018 645.5,911C 643.374,905.205 640.04,900.205 635.5,896C 620.537,890.234 610.037,894.734 604,909.5C 601.315,919.251 602.315,928.584 607,937.5C 614.34,945.42 623.174,947.586 633.5,944C 638.565,941.596 643.065,938.43 647,934.5C 649.433,935.479 651.933,936.145 654.5,936.5C 652.28,955.81 650.28,975.143 648.5,994.5C 633.833,994.5 619.167,994.5 604.5,994.5C 604.5,991.5 604.5,988.5 604.5,985.5C 616.414,985.821 628.247,985.488 640,984.5C 640.575,973.747 641.742,963.08 643.5,952.5C 643,952.167 642.5,951.833 642,951.5C 607.362,960.516 591.362,947.183 594,911.5C 596.828,897.512 604.994,888.512 618.5,884.5 Z"/></g>
</svg>
