<?xml version="1.0" encoding="UTF-8"?>
<!DOCTYPE svg PUBLIC "-//W3C//DTD SVG 1.1//EN" "http://www.w3.org/Graphics/SVG/1.1/DTD/svg11.dtd">
<svg xmlns="http://www.w3.org/2000/svg" version="1.1" width="683px" height="1052px" style="shape-rendering:geometricPrecision; text-rendering:geometricPrecision; image-rendering:optimizeQuality; fill-rule:evenodd; clip-rule:evenodd" xmlns:xlink="http://www.w3.org/1999/xlink">
<g><path style="opacity:0.913" fill="#bec0c2" d="M 37.5,-0.5 C 238.833,-0.5 440.167,-0.5 641.5,-0.5C 661.223,3.55801 674.889,14.8913 682.5,33.5C 682.5,355.5 682.5,677.5 682.5,999.5C 677.846,1026.82 662.179,1044.16 635.5,1051.5C 436.5,1051.5 237.5,1051.5 38.5,1051.5C 17.7251,1043.73 4.72506,1029.06 -0.5,1007.5C -0.5,681.833 -0.5,356.167 -0.5,30.5C 4.92172,17.5799 14.2551,8.41325 27.5,3C 30.98,1.89744 34.3133,0.73077 37.5,-0.5 Z"/></g>
<g><path style="opacity:1" fill="#fefefe" d="M 38.5,4.5 C 239.5,4.33333 440.5,4.5 641.5,5C 659.567,8.73773 671.733,19.2377 678,36.5C 677.753,358.165 677.42,679.832 677,1001.5C 673.653,1018.69 664.486,1031.85 649.5,1041C 645.167,1043.58 640.5,1045.25 635.5,1046C 436.167,1046.67 236.833,1046.67 37.5,1046C 20.6155,1038.78 9.78215,1026.28 5,1008.5C 4.33333,682.5 4.33333,356.5 5,30.5C 9.86789,19.9667 17.7012,12.4667 28.5,8C 31.8502,6.51368 35.1835,5.34702 38.5,4.5 Z"/></g>
<g><path style="opacity:1" fill="#202016" d="M 60.5,56.5 C 78.376,53.762 90.376,60.762 96.5,77.5C 95.1812,81.3275 92.5145,82.8275 88.5,82C 86.28,77.1156 83.28,72.7822 79.5,69C 63.3692,63.7558 52.5359,69.2558 47,85.5C 46.2219,90.7772 45.0552,95.9438 43.5,101C 43.8333,102.167 44.1667,103.333 44.5,104.5C 51.228,97.9018 59.228,94.4018 68.5,94C 96.5119,104.332 104.012,123.166 91,150.5C 77.2207,166.176 62.2207,167.509 46,154.5C 35.3823,137.35 31.3823,118.683 34,98.5C 35.6081,83.6327 41.7748,71.1327 52.5,61C 55.3911,59.7258 58.0578,58.2258 60.5,56.5 Z"/></g>
<g><path style="opacity:1" fill="#fcfcfb" d="M 60.5,104.5 C 74.6263,102.65 83.4596,108.65 87,122.5C 88.6079,133.913 85.1079,143.413 76.5,151C 61.8128,156.24 51.9795,151.407 47,136.5C 44.1546,122.544 48.6546,111.877 60.5,104.5 Z"/></g>
<g><path style="opacity:1" fill="#1c1d13" d="M 187.5,135.5 C 203.101,133.862 216.268,138.528 227,149.5C 238.512,170.622 234.846,188.622 216,203.5C 215.517,204.448 215.351,205.448 215.5,206.5C 220.042,204.735 224.709,203.235 229.5,202C 249.917,199.962 263.084,208.796 269,228.5C 271.962,246.059 266.462,260.226 252.5,271C 240.639,275.987 228.973,275.654 217.5,270C 215.667,268.167 213.833,266.333 212,264.5C 208.723,258.926 205.223,253.592 201.5,248.5C 200.279,254.193 200.446,259.86 202,265.5C 206.035,276.944 210.035,288.278 214,299.5C 201.57,299.217 189.07,299.551 176.5,300.5C 180.332,286.837 184.832,273.504 190,260.5C 190.854,256.375 190.52,252.375 189,248.5C 184.273,256.562 178.773,264.062 172.5,271C 147.807,280.731 130.974,272.897 122,247.5C 119.366,232.074 123.532,218.907 134.5,208C 147.022,199.966 159.856,199.466 173,206.5C 174.059,206.37 174.892,205.87 175.5,205C 157.516,189.903 153.349,171.736 163,150.5C 166.783,147.684 170.283,144.517 173.5,141C 178.306,139.237 182.972,137.404 187.5,135.5 Z"/></g>
<g><path style="opacity:1" fill="#1c1d13" d="M 471.5,300.5 C 470.5,300.5 469.5,300.5 468.5,300.5C 468.5,298.5 468.5,296.5 468.5,294.5C 472.391,284.004 476.224,273.337 480,262.5C 481.683,257.799 481.683,253.133 480,248.5C 475.138,258.436 468.305,266.602 459.5,273C 438.31,278.779 423.476,271.612 415,251.5C 409.45,234.815 412.95,220.315 425.5,208C 437.491,200.302 449.991,199.469 463,205.5C 463.833,205.167 464.667,204.833 465.5,204.5C 459.699,198.533 454.866,191.866 451,184.5C 444.841,166.646 449.341,152.146 464.5,141C 481.664,132.602 497.997,133.936 513.5,145C 526.408,159.323 527.908,174.823 518,191.5C 515.036,195.466 511.703,199.133 508,202.5C 507.517,203.448 507.351,204.448 507.5,205.5C 511.811,204.351 516.144,203.184 520.5,202C 541.21,199.447 554.377,208.28 560,228.5C 562.345,246.152 556.512,260.319 542.5,271C 529.222,278.039 516.889,276.706 505.5,267C 500.474,261.783 496.308,255.95 493,249.5C 492.606,265.922 496.606,281.255 505,295.5C 505.667,296.833 505.667,298.167 505,299.5C 493.865,299.254 482.698,299.588 471.5,300.5 Z"/></g>
<g><path style="opacity:1" fill="#1d1e14" d="M 46.5,203.5 C 49.2469,203.813 51.9135,203.48 54.5,202.5C 54.3764,201.893 54.0431,201.56 53.5,201.5C 52.0546,197.662 50.7213,193.829 49.5,190C 52.1654,177.488 59.832,172.822 72.5,176C 80.7731,179.045 83.9397,184.879 82,193.5C 80.5498,196.008 79.3832,198.675 78.5,201.5C 83.6344,202.897 88.6344,204.731 93.5,207C 95.0488,208.214 96.2155,209.714 97,211.5C 98.954,219.509 97.1206,226.342 91.5,232C 87.4446,234.34 83.1113,235.007 78.5,234C 75.6667,231.833 72.8333,229.667 70,227.5C 69.3333,229.5 69.3333,231.5 70,233.5C 71.7594,237.009 72.926,240.675 73.5,244.5C 70.6811,244.869 67.8477,245.202 65,245.5C 62.6477,245.695 60.6477,245.028 59,243.5C 60.2657,239.599 61.599,235.599 63,231.5C 63.6667,229.167 63.6667,226.833 63,224.5C 58.3869,233.892 51.2202,236.726 41.5,233C 32.7359,224.184 32.4026,215.184 40.5,206C 42.2166,204.441 44.2166,203.608 46.5,203.5 Z"/></g>
<g><path style="opacity:1" fill="#8d8d88" d="M 53.5,201.5 C 54.0431,201.56 54.3764,201.893 54.5,202.5C 51.9135,203.48 49.2469,203.813 46.5,203.5C 48.8333,202.833 51.1667,202.167 53.5,201.5 Z"/></g>
<g><path style="opacity:1" fill="#969692" d="M 468.5,294.5 C 468.5,296.5 468.5,298.5 468.5,300.5C 469.5,300.5 470.5,300.5 471.5,300.5C 470.432,301.434 469.099,301.768 467.5,301.5C 467.198,298.941 467.532,296.607 468.5,294.5 Z"/></g>
<g><path style="opacity:1" fill="#1c1c13" d="M 493.5,556.5 C 493.44,555.957 493.107,555.624 492.5,555.5C 491.194,558.98 491.194,562.313 492.5,565.5C 493.973,578.754 498.14,591.087 505,602.5C 505.667,603.833 505.667,605.167 505,606.5C 493.221,606.276 481.387,606.61 469.5,607.5C 468.359,605.579 468.192,603.579 469,601.5C 473.042,592.05 476.709,582.383 480,572.5C 480.83,566.804 480.663,561.137 479.5,555.5C 475.509,565.314 469.176,573.148 460.5,579C 441.616,586.142 427.116,580.975 417,563.5C 406.84,540.203 412.673,522.37 434.5,510C 444.58,507.48 454.246,508.647 463.5,513.5C 465.101,512.965 465.601,511.965 465,510.5C 451.085,498.828 446.085,484.161 450,466.5C 456.929,451.439 468.762,443.439 485.5,442.5C 516.186,445.244 528.352,461.577 522,491.5C 517.986,499.184 512.819,506.017 506.5,512C 513.253,510.776 520.086,509.609 527,508.5C 544.973,509.464 555.973,518.798 560,536.5C 562.234,556.875 554.4,571.708 536.5,581C 522.982,584.982 511.482,581.816 502,571.5C 499.155,566.473 496.321,561.473 493.5,556.5 Z"/></g>
<g><path style="opacity:1" fill="#1c1c13" d="M 189.5,567.5 C 190.811,563.317 190.811,558.984 189.5,554.5C 188.893,554.624 188.56,554.957 188.5,555.5C 184.179,563.956 178.512,571.456 171.5,578C 146.269,587.799 129.769,579.632 122,553.5C 118.906,534.732 125.406,520.565 141.5,511C 145.562,509.654 149.728,508.821 154,508.5C 161.083,509.252 167.916,510.919 174.5,513.5C 174.649,512.448 174.483,511.448 174,510.5C 166.361,503.867 160.694,495.867 157,486.5C 154.401,463.491 164.234,449.325 186.5,444C 202.092,441.532 215.592,445.698 227,456.5C 236.628,473.405 235.295,489.405 223,504.5C 220.5,507 218,509.5 215.5,512C 222.314,510.408 229.314,509.241 236.5,508.5C 257.874,511.715 268.874,524.215 269.5,546C 266.985,572.186 252.651,584.186 226.5,582C 218.511,578.018 211.677,572.518 206,565.5C 204.054,562.861 203.054,559.861 203,556.5C 200.875,555.149 199.708,555.815 199.5,558.5C 201.986,575.124 206.986,590.957 214.5,606C 201.838,606.5 189.171,606.667 176.5,606.5C 180.237,598.226 182.737,589.559 184,580.5C 186.708,576.544 188.541,572.211 189.5,567.5 Z"/></g>
<g><path style="opacity:1" fill="#868681" d="M 493.5,556.5 C 492.523,559.287 492.19,562.287 492.5,565.5C 491.194,562.313 491.194,558.98 492.5,555.5C 493.107,555.624 493.44,555.957 493.5,556.5 Z"/></g>
<g><path style="opacity:1" fill="#a3a39f" d="M 188.5,555.5 C 188.56,554.957 188.893,554.624 189.5,554.5C 190.811,558.984 190.811,563.317 189.5,567.5C 189.817,563.298 189.483,559.298 188.5,555.5 Z"/></g>
<g><path style="opacity:1" fill="#1c1d13" d="M 467.5,750.5 C 479.823,751.683 492.157,751.683 504.5,750.5C 504.66,752.199 504.494,753.866 504,755.5C 499.012,766.128 495.012,777.128 492,788.5C 491.172,793.202 491.338,797.869 492.5,802.5C 496.541,795.597 501.208,789.097 506.5,783C 531.089,769.646 548.589,776.146 559,802.5C 562.551,820.523 557.051,835.023 542.5,846C 531.245,850.755 520.078,850.588 509,845.5C 508.167,845.833 507.333,846.167 506.5,846.5C 516.8,854.932 522.8,865.765 524.5,879C 524.124,897.456 515.124,909.123 497.5,914C 476.099,919.512 460.266,912.679 450,893.5C 445.995,881.865 447.329,870.865 454,860.5C 457.453,855.379 461.286,850.546 465.5,846C 433.141,855.988 415.141,844.155 411.5,810.5C 414.226,792.481 424.226,780.981 441.5,776C 451.476,775.204 460.31,778.037 468,784.5C 472.004,790.661 476.171,796.661 480.5,802.5C 481.66,798.541 481.827,794.541 481,790.5C 477.33,776.84 472.83,763.507 467.5,750.5 Z"/></g>
<g><path style="opacity:1" fill="#1d1d13" d="M 204.5,750.5 C 207.5,750.5 210.5,750.5 213.5,750.5C 208.837,763.322 204.671,776.322 201,789.5C 200.333,794.5 200.333,799.5 201,804.5C 203.921,799.659 206.588,794.659 209,789.5C 225.865,771.177 243.199,770.844 261,788.5C 272.476,806.145 271.976,823.478 259.5,840.5C 251.85,847.272 242.85,850.272 232.5,849.5C 229.167,849.333 225.833,849.167 222.5,849C 220.796,845.309 218.129,844.142 214.5,845.5C 217.776,850.279 221.609,854.612 226,858.5C 235.944,873.138 235.944,887.805 226,902.5C 208.296,917.878 189.463,919.378 169.5,907C 154.271,892.438 152.437,876.272 164,858.5C 167.314,854.352 170.814,850.352 174.5,846.5C 173.833,846.167 173.167,845.833 172.5,845.5C 146.038,856.018 128.871,847.685 121,820.5C 119.303,798.376 128.803,783.543 149.5,776C 168.287,775.15 180.787,783.65 187,801.5C 188,802.833 189,802.833 190,801.5C 189.607,795.517 188.941,789.517 188,783.5C 184.254,772.76 180.421,762.093 176.5,751.5C 186.015,751.827 195.348,751.494 204.5,750.5 Z"/></g>
<g><path style="opacity:1" fill="#b2b2af" d="M 612.5,802.5 C 616.298,801.517 620.298,801.183 624.5,801.5C 624.784,803.415 624.451,805.081 623.5,806.5C 623.5,805.167 623.5,803.833 623.5,802.5C 619.833,802.5 616.167,802.5 612.5,802.5 Z"/></g>
<g><path style="opacity:1" fill="#1e1e15" d="M 612.5,802.5 C 616.167,802.5 619.833,802.5 623.5,802.5C 623.5,803.833 623.5,805.167 623.5,806.5C 621.291,811.285 620.458,816.285 621,821.5C 629.964,809.587 638.964,809.587 648,821.5C 650.638,828.702 649.472,835.202 644.5,841C 639.777,843.235 634.777,844.069 629.5,843.5C 631.4,847.977 632.733,852.644 633.5,857.5C 632.738,867.26 627.405,872.26 617.5,872.5C 604.994,871.496 599.828,864.83 602,852.5C 603.136,849.904 603.969,847.237 604.5,844.5C 590.526,845.026 584.359,838.36 586,824.5C 592.545,810.604 601.378,808.937 612.5,819.5C 612.5,820.5 612.5,821.5 612.5,822.5C 613.5,822.5 614.5,822.5 615.5,822.5C 615.737,821.209 615.404,820.209 614.5,819.5C 612.844,814.849 611.177,810.183 609.5,805.5C 609.516,803.484 610.516,802.484 612.5,802.5 Z"/></g>
<g><path style="opacity:1" fill="#f5ca4f" d="M 612.5,819.5 C 613.167,819.5 613.833,819.5 614.5,819.5C 615.404,820.209 615.737,821.209 615.5,822.5C 614.5,822.5 613.5,822.5 612.5,822.5C 612.5,821.5 612.5,820.5 612.5,819.5 Z"/></g>
<g><path style="opacity:1" fill="#1f2016" d="M 609.5,887.5 C 629.998,887.82 642.165,898.153 646,918.5C 651.671,941.046 648.671,962.379 637,982.5C 625.346,995.123 611.846,997.623 596.5,990C 590.228,985.278 586.728,979.111 586,971.5C 591.979,967.776 595.646,969.443 597,976.5C 608.234,988.646 619.234,988.313 630,975.5C 635.337,966.824 637.504,957.491 636.5,947.5C 622.292,959.222 607.958,959.388 593.5,948C 591.377,943.585 588.877,939.418 586,935.5C 582.131,918.772 586.297,904.606 598.5,893C 602.017,890.674 605.683,888.84 609.5,887.5 Z"/></g>
<g><path style="opacity:1" fill="#fcfcfc" d="M 609.5,897.5 C 622.771,896.588 631.271,902.588 635,915.5C 636.568,926.072 633.734,935.238 626.5,943C 610.423,950.956 599.923,946.123 595,928.5C 592.845,914.813 597.679,904.48 609.5,897.5 Z"/></g>
</svg>
