<?xml version="1.0" encoding="UTF-8"?>
<!DOCTYPE svg PUBLIC "-//W3C//DTD SVG 1.1//EN" "http://www.w3.org/Graphics/SVG/1.1/DTD/svg11.dtd">
<svg xmlns="http://www.w3.org/2000/svg" version="1.1" width="691px" height="1056px" style="shape-rendering:geometricPrecision; text-rendering:geometricPrecision; image-rendering:optimizeQuality; fill-rule:evenodd; clip-rule:evenodd" xmlns:xlink="http://www.w3.org/1999/xlink">
<g><path style="opacity:0.906" fill="#bdbfc1" d="M 45.5,0.5 C 245.833,1.12134 446.166,1.62134 646.5,2C 665.686,6.52403 678.519,18.024 685,36.5C 684.274,355.74 684.441,674.906 685.5,994C 683.799,1022.7 669.466,1042.03 642.5,1052C 639.833,1052.33 637.167,1052.67 634.5,1053C 437.167,1053.67 239.833,1053.67 42.5,1053C 27.9238,1049.1 16.7571,1040.6 9,1027.5C 6.21067,1022.47 4.21067,1017.13 3,1011.5C 2.00077,1002.53 1.50077,993.531 1.5,984.5C 2.61472,668.167 2.78139,351.834 2,35.5C 3.21735,26.6166 7.38401,19.4499 14.5,14C 23.7345,6.70993 34.0678,2.20993 45.5,0.5 Z"/></g>
<g><path style="opacity:1" fill="#fefefe" d="M 42.5,5.5 C 243.5,5.98485 444.5,6.48485 645.5,7C 661.811,10.6415 673.311,20.1415 680,35.5C 680.667,356.167 680.667,676.833 680,997.5C 677.215,1023.9 663.048,1040.73 637.5,1048C 438.833,1048.67 240.167,1048.67 41.5,1048C 22.3766,1040.54 10.8766,1026.71 7,1006.5C 6.83333,979 6.66667,951.5 6.5,924C 7.64238,627.166 7.80904,330.333 7,33.5C 10.3006,24.5307 16.1339,17.6973 24.5,13C 30.3281,9.78826 36.3281,7.28826 42.5,5.5 Z"/></g>
<g><path style="opacity:1" fill="#d12606" d="M 63.5,55.5 C 77.6482,53.7183 88.4816,58.7183 96,70.5C 100.548,77.5365 98.7151,81.0365 90.5,81C 83.2374,65.6901 72.2374,62.0234 57.5,70C 49.1935,78.4501 45.1935,88.6168 45.5,100.5C 46.8734,100.657 48.2068,100.49 49.5,100C 66.355,89.2407 80.855,91.7407 93,107.5C 102.347,125.883 99.8472,142.383 85.5,157C 64.2202,167.968 48.7202,162.468 39,140.5C 30.0755,115.526 32.0755,91.5263 45,68.5C 50.2609,62.7171 56.4276,58.3838 63.5,55.5 Z"/></g>
<g><path style="opacity:1" fill="#fefcfb" d="M 62.5,103.5 C 76.3448,102.001 84.8448,108.001 88,121.5C 90.1903,132.271 87.357,141.437 79.5,149C 63.9482,156.477 53.4482,151.977 48,135.5C 45.0708,121.041 49.9041,110.374 62.5,103.5 Z"/></g>
<g><path style="opacity:1" fill="#d02101" d="M 210.5,139.5 C 211.93,139.421 213.264,139.754 214.5,140.5C 238.106,168.895 261.106,197.729 283.5,227C 261.725,254.446 239.559,281.612 217,308.5C 214.984,310.684 212.817,312.684 210.5,314.5C 187.885,286.712 165.052,259.046 142,231.5C 139.798,227.258 140.131,223.258 143,219.5C 165.711,192.961 188.211,166.294 210.5,139.5 Z"/></g>
<g><path style="opacity:1" fill="#d02101" d="M 481.5,140.5 C 482.822,140.33 483.989,140.663 485,141.5C 505.621,167.789 526.621,193.789 548,219.5C 554,225.5 554,231.5 548,237.5C 525.928,263.561 503.928,289.561 482,315.5C 479.384,313.888 477.05,311.888 475,309.5C 454.906,284.317 434.573,259.317 414,234.5C 410.601,231.253 409.934,227.586 412,223.5C 435.754,196.253 458.921,168.586 481.5,140.5 Z"/></g>
<g><path style="opacity:1" fill="#d02202" d="M 62.5,177.5 C 64.9032,177.393 66.7365,178.393 68,180.5C 76.1809,191.344 84.3476,202.178 92.5,213C 84.6805,222.822 76.8472,232.656 69,242.5C 66.6706,246.729 63.6706,247.396 60,244.5C 51.3909,234.131 42.8909,223.631 34.5,213C 43.7277,200.956 53.061,189.122 62.5,177.5 Z"/></g>
<g><path style="opacity:1" fill="#d02101" d="M 208.5,439.5 C 209.552,439.351 210.552,439.517 211.5,440C 235.492,468.14 258.826,496.64 281.5,525.5C 280.778,527.944 279.778,530.278 278.5,532.5C 255.5,559.833 232.5,587.167 209.5,614.5C 207.183,612.684 205.016,610.684 203,608.5C 184.379,584.877 165.379,561.543 146,538.5C 142.655,534.469 139.821,530.136 137.5,525.5C 160.403,496.258 184.07,467.591 208.5,439.5 Z"/></g>
<g><path style="opacity:1" fill="#d02101" d="M 478.5,440.5 C 479.873,440.343 481.207,440.51 482.5,441C 499.686,461.856 516.519,483.023 533,504.5C 538.333,510.5 543.667,516.5 549,522.5C 551.816,525.58 552.149,528.913 550,532.5C 527.261,559.649 504.761,586.983 482.5,614.5C 480.926,615.631 479.259,615.798 477.5,615C 473.382,608.882 468.549,603.382 463,598.5C 461.414,596.33 460.08,593.996 459,591.5C 441.092,570.926 423.925,549.76 407.5,528C 416.024,517.789 424.191,507.289 432,496.5C 446.678,480.153 461.012,463.487 475,446.5C 476.394,444.612 477.56,442.612 478.5,440.5 Z"/></g>
<g><path style="opacity:1" fill="#d02101" d="M 205.5,739.5 C 207.792,739.244 209.959,739.577 212,740.5C 221.198,754.037 231.531,766.704 243,778.5C 253.035,793.226 264.035,807.226 276,820.5C 279.243,824.762 279.243,829.096 276,833.5C 270.26,838.244 265.594,843.91 262,850.5C 244.165,871.014 226.665,891.847 209.5,913C 208.667,913.167 207.833,913.333 207,913.5C 204.408,911.916 202.074,909.916 200,907.5C 191.679,897.501 183.679,887.167 176,876.5C 169.225,870.928 163.891,864.261 160,856.5C 154.162,851.675 149.495,846.008 146,839.5C 141.704,835.723 138.538,831.223 136.5,826C 137.13,822.704 138.63,819.87 141,817.5C 163.112,791.899 184.612,765.899 205.5,739.5 Z"/></g>
<g><path style="opacity:1" fill="#d02101" d="M 477.5,740.5 C 481.067,742.557 484.234,745.223 487,748.5C 505.269,772.676 524.269,796.342 544,819.5C 546.351,822.205 548.184,825.205 549.5,828.5C 541.679,838.793 533.846,849.126 526,859.5C 510.287,878.952 494.121,897.952 477.5,916.5C 464.809,900.463 451.642,884.796 438,869.5C 431.095,859.258 423.428,849.591 415,840.5C 411.934,836.278 409.101,831.944 406.5,827.5C 407.091,825.734 407.924,824.067 409,822.5C 432.09,795.281 454.923,767.947 477.5,740.5 Z"/></g>
<g><path style="opacity:1" fill="#d02302" d="M 622.5,807.5 C 624.144,807.286 625.644,807.62 627,808.5C 633.621,817.456 640.621,826.123 648,834.5C 649.633,836.453 650.799,838.62 651.5,841C 643.502,853.342 634.336,864.842 624,875.5C 621.719,874.224 619.719,872.557 618,870.5C 612.689,863.688 607.189,857.021 601.5,850.5C 596.439,844.599 596.273,838.599 601,832.5C 608.032,823.975 615.198,815.641 622.5,807.5 Z"/></g>
<g><path style="opacity:1" fill="#d12606" d="M 614.5,891.5 C 632.997,891.173 644.83,899.84 650,917.5C 656.511,941.124 654.178,963.791 643,985.5C 633.509,997.051 621.342,1001.05 606.5,997.5C 597.906,993.246 592.24,986.579 589.5,977.5C 589.709,976.006 590.376,974.839 591.5,974C 594.146,973.503 596.813,973.336 599.5,973.5C 602.097,984.478 609.097,989.645 620.5,989C 635.968,982.239 642.801,970.406 641,953.5C 620.47,967.357 604.137,963.69 592,942.5C 586.604,926.227 589.437,911.727 600.5,899C 604.826,895.673 609.492,893.173 614.5,891.5 Z"/></g>
<g><path style="opacity:1" fill="#fefbfb" d="M 616.5,901.5 C 632.362,902.701 640.362,911.368 640.5,927.5C 639.92,940.697 633.254,948.697 620.5,951.5C 606.254,948.903 599.254,940.236 599.5,925.5C 600.288,913.887 605.955,905.887 616.5,901.5 Z"/></g>
</svg>
