<?xml version="1.0" encoding="UTF-8"?>
<!DOCTYPE svg PUBLIC "-//W3C//DTD SVG 1.1//EN" "http://www.w3.org/Graphics/SVG/1.1/DTD/svg11.dtd">
<svg xmlns="http://www.w3.org/2000/svg" version="1.1" width="691px" height="1056px" style="shape-rendering:geometricPrecision; text-rendering:geometricPrecision; image-rendering:optimizeQuality; fill-rule:evenodd; clip-rule:evenodd" xmlns:xlink="http://www.w3.org/1999/xlink">
<g><path style="opacity:0.906" fill="#bdbfc1" d="M 45.5,0.5 C 245.833,1.12134 446.166,1.62134 646.5,2C 665.686,6.52403 678.519,18.024 685,36.5C 684.264,355.74 684.431,674.906 685.5,994C 683.799,1022.7 669.466,1042.03 642.5,1052C 639.833,1052.33 637.167,1052.67 634.5,1053C 437.167,1053.67 239.833,1053.67 42.5,1053C 27.9238,1049.1 16.7571,1040.6 9,1027.5C 6.21067,1022.47 4.21067,1017.13 3,1011.5C 2.00077,1002.53 1.50077,993.531 1.5,984.5C 2.61472,668.167 2.78139,351.834 2,35.5C 3.21735,26.6166 7.38401,19.4499 14.5,14C 23.7345,6.70993 34.0678,2.20993 45.5,0.5 Z"/></g>
<g><path style="opacity:1" fill="#fefefe" d="M 42.5,5.5 C 243.5,5.98228 444.5,6.48228 645.5,7C 661.811,10.6415 673.311,20.1415 680,35.5C 680.667,356.167 680.667,676.833 680,997.5C 677.215,1023.9 663.048,1040.73 637.5,1048C 438.833,1048.67 240.167,1048.67 41.5,1048C 22.3766,1040.54 10.8766,1026.71 7,1006.5C 6.83333,979 6.66667,951.5 6.5,924C 7.64238,627.166 7.80904,330.333 7,33.5C 10.3006,24.5307 16.1339,17.6973 24.5,13C 30.3281,9.78826 36.3281,7.28826 42.5,5.5 Z"/></g>
<g><path style="opacity:1" fill="#cd382d" d="M 60.5,56.5 C 66.5092,56.3338 72.5092,56.5005 78.5,57C 90.4597,59.9484 96.9597,67.4484 98,79.5C 95.8471,81.4439 93.3471,81.9439 90.5,81C 80.9833,63.1269 68.8166,60.9602 54,74.5C 48.1473,82.5594 45.6473,91.5594 46.5,101.5C 50.5627,99.6322 54.5627,97.4655 58.5,95C 83.342,91.8235 97.0087,102.824 99.5,128C 98.9684,142.49 92.6351,153.49 80.5,161C 61.6751,166.18 48.1751,160.014 40,142.5C 29.8455,116.773 31.6788,92.1061 45.5,68.5C 47.8333,66.1667 50.1667,63.8333 52.5,61.5C 55.568,60.3087 58.2346,58.642 60.5,56.5 Z"/></g>
<g><path style="opacity:1" fill="#fefcfc" d="M 63.5,103.5 C 76.6164,102.805 84.7831,108.805 88,121.5C 90.6507,133.013 87.484,142.513 78.5,150C 62.79,156.228 52.6233,151.061 48,134.5C 45.7755,120.282 50.9421,109.948 63.5,103.5 Z"/></g>
<g><path style="opacity:1" fill="#cc3329" d="M 175.5,136.5 C 195.771,134.8 210.771,142.8 220.5,160.5C 223.806,157.233 226.639,153.567 229,149.5C 242.986,136.925 258.819,134.092 276.5,141C 285.047,146.59 290.213,154.424 292,164.5C 293.73,179.055 291.73,193.055 286,206.5C 279.859,217.437 273.193,228.104 266,238.5C 252.245,255.593 237.745,272.093 222.5,288C 219.86,288.839 217.527,288.339 215.5,286.5C 207.471,276.458 198.971,266.792 190,257.5C 183.385,247.884 176.385,238.55 169,229.5C 163.746,220.661 158.746,211.661 154,202.5C 148.907,187.683 148.24,172.683 152,157.5C 156.629,146.693 164.463,139.693 175.5,136.5 Z"/></g>
<g><path style="opacity:1" fill="#cc3329" d="M 428.5,138.5 C 444.185,136.517 457.352,141.184 468,152.5C 469.201,156.356 471.201,159.689 474,162.5C 477.763,157.064 481.93,151.897 486.5,147C 491.393,144.267 496.393,141.933 501.5,140C 526.005,134.818 540.839,144.318 546,168.5C 547.392,179.53 546.058,190.197 542,200.5C 531.449,222.706 518.116,243.039 502,261.5C 494.431,269.646 487.098,277.979 480,286.5C 476.273,292.404 472.273,292.738 468,287.5C 451.947,269.049 436.614,250.049 422,230.5C 418.432,223.263 414.432,216.263 410,209.5C 406.001,199.337 403.501,188.837 402.5,178C 402.85,159.083 411.516,145.916 428.5,138.5 Z"/></g>
<g><path style="opacity:1" fill="#cc342a" d="M 83.5,173.5 C 87.93,173.469 92.0966,174.469 96,176.5C 103.544,185.342 104.544,195.009 99,205.5C 91.5329,219.129 82.3663,231.462 71.5,242.5C 69.1608,243.724 66.8275,243.724 64.5,242.5C 59.4357,237.88 55.2691,232.547 52,226.5C 50,224.5 48,222.5 46,220.5C 44.7765,216.385 42.7765,212.718 40,209.5C 34.951,200.098 34.2844,190.431 38,180.5C 44.0149,174.274 51.1816,172.774 59.5,176C 62.646,178.312 65.646,180.812 68.5,183.5C 72.7025,178.904 77.7025,175.57 83.5,173.5 Z"/></g>
<g><path style="opacity:1" fill="#cc3329" d="M 176.5,448.5 C 185.343,448.346 193.676,450.179 201.5,454C 208.56,459.044 214.06,465.21 218,472.5C 220.392,470.761 222.059,468.428 223,465.5C 226.737,462.886 229.903,459.719 232.5,456C 246.807,448.106 261.474,447.44 276.5,454C 283.911,459.747 288.411,467.247 290,476.5C 290.667,484.167 290.667,491.833 290,499.5C 288.257,502.957 287.257,506.623 287,510.5C 282.427,518.645 278.093,526.978 274,535.5C 257.718,558.793 239.551,580.626 219.5,601C 218.167,601.667 216.833,601.667 215.5,601C 194.368,578.859 175.535,555.025 159,529.5C 155.022,521.219 151.355,512.886 148,504.5C 145.193,490.814 146.193,477.481 151,464.5C 154.131,460.367 157.631,456.534 161.5,453C 166.604,451.424 171.604,449.924 176.5,448.5 Z"/></g>
<g><path style="opacity:1" fill="#cc3329" d="M 432.5,450.5 C 450.925,450.45 463.759,458.783 471,475.5C 474.807,470.059 478.973,464.892 483.5,460C 495.614,451.425 508.947,449.091 523.5,453C 531.726,456.99 537.559,463.156 541,471.5C 542.991,480.747 543.657,490.08 543,499.5C 541.122,507.355 538.789,515.021 536,522.5C 518.296,551.893 497.129,578.726 472.5,603C 471.167,603.667 469.833,603.667 468.5,603C 447.625,580.411 428.791,556.245 412,530.5C 399.654,510.302 397.32,488.968 405,466.5C 406.167,464.667 407.333,462.833 408.5,461C 412.5,458.333 416.5,455.667 420.5,453C 424.637,452.161 428.637,451.327 432.5,450.5 Z"/></g>
<g><path style="opacity:1" fill="#cc3329" d="M 213.5,763.5 C 215.591,763.318 217.591,763.652 219.5,764.5C 229.147,775.981 238.98,787.314 249,798.5C 254.513,806.858 260.513,814.858 267,822.5C 273.205,832.038 278.539,842.038 283,852.5C 290.803,872.133 288.803,890.467 277,907.5C 273.515,910.548 269.682,913.048 265.5,915C 242.813,919.904 226.313,912.071 216,891.5C 204.982,910.628 188.482,918.462 166.5,915C 163.167,913.333 159.833,911.667 156.5,910C 155,907.167 152.833,905 150,903.5C 142.384,888.067 141.384,872.067 147,855.5C 149,850.833 151,846.167 153,841.5C 170.737,813.599 190.903,787.599 213.5,763.5 Z"/></g>
<g><path style="opacity:1" fill="#cc3329" d="M 467.5,765.5 C 469.199,765.34 470.866,765.506 472.5,766C 489.793,784.631 505.626,804.464 520,825.5C 526.109,834.716 531.442,844.383 536,854.5C 543.836,874.594 541.503,893.26 529,910.5C 526.942,912.524 524.609,914.191 522,915.5C 497.873,922.848 480.373,915.182 469.5,892.5C 456.052,915.865 436.718,922.698 411.5,913C 403.499,906.338 398.999,897.838 398,887.5C 396.384,871.581 399.384,856.581 407,842.5C 421.126,820.37 436.793,799.37 454,779.5C 458.731,774.938 463.231,770.271 467.5,765.5 Z"/></g>
<g><path style="opacity:1" fill="#cc342a" d="M 615.5,807.5 C 617.527,807.338 619.527,807.505 621.5,808C 633.693,820.187 643.526,834.02 651,849.5C 652.055,856.686 651.388,863.686 649,870.5C 640.945,877.854 632.445,878.354 623.5,872C 622.12,870.075 620.62,868.241 619,866.5C 612.081,876.23 603.247,878.73 592.5,874C 584.572,865.075 583.406,855.242 589,844.5C 592.333,839.167 595.667,833.833 599,828.5C 604.738,821.606 610.238,814.606 615.5,807.5 Z"/></g>
<g><path style="opacity:1" fill="#cd372d" d="M 613.5,891.5 C 628.3,888.984 639.133,894.317 646,907.5C 649.726,913.677 652.059,920.344 653,927.5C 656.51,949.131 652.51,969.131 641,987.5C 627.942,1000.34 613.442,1002.01 597.5,992.5C 592.999,986.999 590.665,980.665 590.5,973.5C 593.176,972.992 595.843,972.825 598.5,973C 601.819,983.984 609.152,988.984 620.5,988C 626.604,986.918 631.437,983.751 635,978.5C 640.215,970.199 642.548,961.199 642,951.5C 621.585,966.917 604.918,963.584 592,941.5C 586.266,923.735 590.1,908.568 603.5,896C 607.042,894.725 610.375,893.225 613.5,891.5 Z"/></g>
<g><path style="opacity:1" fill="#fefcfc" d="M 614.5,901.5 C 627.74,900.038 636.24,905.705 640,918.5C 641.763,927.573 640.096,935.906 635,943.5C 628.006,950.991 619.84,952.491 610.5,948C 598.238,936.636 596.404,923.803 605,909.5C 607.772,906.217 610.939,903.55 614.5,901.5 Z"/></g>
</svg>
