<?xml version="1.0" encoding="UTF-8"?>
<!DOCTYPE svg PUBLIC "-//W3C//DTD SVG 1.1//EN" "http://www.w3.org/Graphics/SVG/1.1/DTD/svg11.dtd">
<svg xmlns="http://www.w3.org/2000/svg" version="1.1" width="683px" height="1052px" style="shape-rendering:geometricPrecision; text-rendering:geometricPrecision; image-rendering:optimizeQuality; fill-rule:evenodd; clip-rule:evenodd" xmlns:xlink="http://www.w3.org/1999/xlink">
<g><path style="opacity:0.913" fill="#bec0c2" d="M 37.5,-0.5 C 238.833,-0.5 440.167,-0.5 641.5,-0.5C 661.223,3.55801 674.889,14.8913 682.5,33.5C 682.5,355.5 682.5,677.5 682.5,999.5C 677.846,1026.82 662.179,1044.16 635.5,1051.5C 436.5,1051.5 237.5,1051.5 38.5,1051.5C 17.7251,1043.73 4.72506,1029.06 -0.5,1007.5C -0.5,681.833 -0.5,356.167 -0.5,30.5C 4.92172,17.5799 14.2551,8.41325 27.5,3C 30.98,1.89744 34.3133,0.73077 37.5,-0.5 Z"/></g>
<g><path style="opacity:1" fill="#fefefe" d="M 38.5,4.5 C 239.5,4.33333 440.5,4.5 641.5,5C 659.567,8.73773 671.733,19.2377 678,36.5C 677.753,358.165 677.42,679.832 677,1001.5C 673.653,1018.69 664.486,1031.85 649.5,1041C 645.167,1043.58 640.5,1045.25 635.5,1046C 436.167,1046.67 236.833,1046.67 37.5,1046C 20.6155,1038.78 9.78215,1026.28 5,1008.5C 4.33333,682.5 4.33333,356.5 5,30.5C 9.86789,19.9667 17.7012,12.4667 28.5,8C 31.8502,6.51368 35.1835,5.34702 38.5,4.5 Z"/></g>
<g><path style="opacity:1" fill="#070707" d="M 57.5,54.5 C 75.9952,51.2335 87.9952,58.4001 93.5,76C 91.4569,78.6891 88.7903,79.6891 85.5,79C 81.1608,67.3251 72.8275,62.3251 60.5,64C 51.4905,68.4862 45.6572,75.6528 43,85.5C 41.0666,91.2041 40.2332,96.8707 40.5,102.5C 53.0332,90.9191 66.6999,89.4191 81.5,98C 93.8083,110.347 96.9749,124.847 91,141.5C 84.1337,156.185 72.6337,162.351 56.5,160C 47.0915,156.925 40.5915,150.759 37,141.5C 26.9387,115.327 28.6053,89.9941 42,65.5C 46.4778,60.694 51.6444,57.0274 57.5,54.5 Z"/></g>
<g><path style="opacity:1" fill="#fbfbfb" d="M 58.5,101.5 C 72.1976,100.681 80.6976,107.015 84,120.5C 85.6235,132.314 81.7902,141.814 72.5,149C 56.8776,153.592 47.3776,147.758 44,131.5C 41.6208,117.927 46.4541,107.927 58.5,101.5 Z"/></g>
<g><path style="opacity:1" fill="#010101" d="M 225.5,281.5 C 221.167,282.167 216.833,282.833 212.5,283.5C 207.5,283.5 202.5,283.5 197.5,283.5C 199.898,275.14 202.398,266.806 205,258.5C 206.657,251.57 207.323,244.57 207,237.5C 206.586,237.043 206.086,236.709 205.5,236.5C 202.086,240.994 198.919,245.66 196,250.5C 183.51,262.398 170.01,263.565 155.5,254C 140.564,235.152 139.731,215.652 153,195.5C 171.667,171.5 190.333,147.5 209,123.5C 210.586,122.624 212.086,121.624 213.5,120.5C 231.475,144.309 249.642,167.976 268,191.5C 281.35,209.453 283.017,228.453 273,248.5C 263.766,259.467 252.266,262.967 238.5,259C 234.084,256.588 230.251,253.422 227,249.5C 224.247,244.992 221.247,240.659 218,236.5C 216.994,238.534 216.494,240.7 216.5,243C 216.959,247.172 217.459,251.338 218,255.5C 220.192,264.271 222.692,272.938 225.5,281.5 Z"/></g>
<g><path style="opacity:1" fill="#010101" d="M 470.5,121.5 C 474.498,124.665 477.998,128.332 481,132.5C 496.667,152.833 512.333,173.167 528,193.5C 540.825,211.537 541.825,230.203 531,249.5C 521.1,260.267 509.266,263.1 495.5,258C 488.272,252.933 482.605,246.433 478.5,238.5C 477.675,237.614 476.675,237.281 475.5,237.5C 475.298,253.285 478.631,268.285 485.5,282.5C 475.856,283.498 466.19,283.832 456.5,283.5C 458.892,275.155 461.392,266.822 464,258.5C 465.283,251.202 465.617,243.869 465,236.5C 460.311,243.73 454.811,250.23 448.5,256C 427.76,265.544 413.26,259.711 405,238.5C 401.317,224.56 402.984,211.227 410,198.5C 429.68,172.336 449.846,146.669 470.5,121.5 Z"/></g>
<g><path style="opacity:1" fill="#040404" d="M 61.5,174.5 C 70.4639,185.07 78.9639,196.07 87,207.5C 90.639,214.223 91.3057,221.223 89,228.5C 85.1055,233.688 79.9388,235.522 73.5,234C 70.9708,231.971 68.3041,230.138 65.5,228.5C 65.1667,229.5 64.8333,230.5 64.5,231.5C 65.4277,235.803 66.0944,240.136 66.5,244.5C 63.1667,244.5 59.8333,244.5 56.5,244.5C 57.1773,239.28 58.1773,234.113 59.5,229C 59.1667,228.5 58.8333,228 58.5,227.5C 53.7606,233.136 47.7606,235.302 40.5,234C 34.94,230.214 32.2733,224.88 32.5,218C 32.3291,214.871 33.1624,212.037 35,209.5C 43.8423,197.803 52.6756,186.137 61.5,174.5 Z"/></g>
<g><path style="opacity:1" fill="#434343" d="M 225.5,281.5 C 226.043,281.56 226.376,281.893 226.5,282.5C 221.88,283.493 217.214,283.827 212.5,283.5C 216.833,282.833 221.167,282.167 225.5,281.5 Z"/></g>
<g><path style="opacity:1" fill="#010101" d="M 225.5,603.5 C 215.985,603.827 206.652,603.494 197.5,602.5C 203.195,588.05 206.195,573.05 206.5,557.5C 205.325,557.281 204.325,557.614 203.5,558.5C 198.944,569.223 191.277,576.723 180.5,581C 155.67,581.504 143.337,569.171 143.5,544C 143.366,534.734 145.866,526.234 151,518.5C 170.472,493.061 190.305,467.894 210.5,443C 211.784,442.316 212.951,442.483 214,443.5C 233,468.167 252,492.833 271,517.5C 278.146,529.225 280.479,541.892 278,555.5C 272.71,576.233 259.543,584.4 238.5,580C 235.073,578.204 231.906,576.037 229,573.5C 225.327,568.334 221.494,563.334 217.5,558.5C 216.359,565.181 216.526,571.847 218,578.5C 220.203,586.941 222.703,595.274 225.5,603.5 Z"/></g>
<g><path style="opacity:1" fill="#010101" d="M 469.5,441.5 C 471.463,442.96 473.296,444.627 475,446.5C 493,469.833 511,493.167 529,516.5C 537.96,530.505 539.96,545.505 535,561.5C 528.002,577.915 515.836,584.082 498.5,580C 489.343,575.544 482.509,568.71 478,559.5C 477.333,558.167 476.667,558.167 476,559.5C 474.682,562.406 474.348,565.406 475,568.5C 478.276,580.825 481.443,593.158 484.5,605.5C 475.18,604.871 465.846,604.538 456.5,604.5C 459.094,594.547 461.594,584.547 464,574.5C 464.772,569.096 464.439,563.762 463,558.5C 458.786,566.101 453.286,572.601 446.5,578C 427.678,585.176 413.845,579.676 405,561.5C 400.088,545.819 402.088,531.153 411,517.5C 430.333,492.005 449.833,466.672 469.5,441.5 Z"/></g>
<g><path style="opacity:1" fill="#505050" d="M 197.5,602.5 C 206.652,603.494 215.985,603.827 225.5,603.5C 215.992,604.823 206.325,604.823 196.5,603.5C 196.624,602.893 196.957,602.56 197.5,602.5 Z"/></g>
<g><path style="opacity:1" fill="#010101" d="M 197.5,763.5 C 206.839,763.334 216.173,763.5 225.5,764C 219.127,778.8 216.127,794.133 216.5,810C 217.332,810.688 217.998,810.521 218.5,809.5C 229.033,786.216 245.366,780.716 267.5,793C 277.613,804.279 281.113,817.446 278,832.5C 276.448,838.489 274.115,844.156 271,849.5C 251.382,875.453 231.382,901.12 211,926.5C 191.092,901.682 171.426,876.682 152,851.5C 143.489,838.241 141.155,823.908 145,808.5C 152.897,787.969 167.064,781.802 187.5,790C 190.295,791.793 192.795,793.96 195,796.5C 198.333,801.167 201.667,805.833 205,810.5C 206.545,805.953 206.879,801.287 206,796.5C 203.633,785.365 200.8,774.365 197.5,763.5 Z"/></g>
<g><path style="opacity:1" fill="#434343" d="M 481.5,763.5 C 473.167,764.167 464.833,764.833 456.5,765.5C 455.957,765.44 455.624,765.107 455.5,764.5C 464.141,763.502 472.808,763.169 481.5,763.5 Z"/></g>
<g><path style="opacity:1" fill="#010101" d="M 481.5,763.5 C 482.675,763.281 483.675,763.614 484.5,764.5C 477.36,778.727 474.86,793.727 477,809.5C 481.214,801.899 486.714,795.399 493.5,790C 511.854,782.923 525.688,788.09 535,805.5C 539.373,820.871 537.707,835.537 530,849.5C 510.544,875.419 490.377,900.753 469.5,925.5C 447.358,899.523 426.525,872.523 407,844.5C 401.438,830.938 401.105,817.271 406,803.5C 417.338,784.991 432.171,781.491 450.5,793C 455.274,798.051 459.44,803.551 463,809.5C 465.059,805.425 465.726,801.091 465,796.5C 462.631,786.021 459.797,775.688 456.5,765.5C 464.833,764.833 473.167,764.167 481.5,763.5 Z"/></g>
<g><path style="opacity:1" fill="#030303" d="M 613.5,804.5 C 616.833,804.5 620.167,804.5 623.5,804.5C 622.765,809.746 621.765,814.912 620.5,820C 621,820.167 621.5,820.333 622,820.5C 627.562,813.201 634.395,811.701 642.5,816C 644.049,817.214 645.215,818.714 646,820.5C 646.667,825.5 646.667,830.5 646,835.5C 637.579,848.663 628.412,861.329 618.5,873.5C 608.11,861.721 598.943,849.054 591,835.5C 590.333,830.833 590.333,826.167 591,821.5C 594.558,813.557 600.391,811.39 608.5,815C 610.684,817.016 612.684,819.183 614.5,821.5C 615.693,815.757 615.36,810.09 613.5,804.5 Z"/></g>
<g><path style="opacity:1" fill="#070707" d="M 610.5,886.5 C 628.639,885.135 640.473,893.135 646,910.5C 654.181,935.765 651.514,959.765 638,982.5C 626.179,993.624 613.013,995.458 598.5,988C 593.116,983.57 589.783,977.903 588.5,971C 590.067,969.19 592.067,968.023 594.5,967.5C 597.946,974.114 602.946,979.28 609.5,983C 623.704,984.48 632.871,978.314 637,964.5C 638.982,958.278 639.982,951.945 640,945.5C 620.496,961.057 604.162,958.391 591,937.5C 583.803,919.472 587.303,903.972 601.5,891C 604.592,889.454 607.592,887.954 610.5,886.5 Z"/></g>
<g><path style="opacity:1" fill="#fbfbfb" d="M 612.5,895.5 C 622.032,894.531 629.199,898.197 634,906.5C 640.138,919.509 638.305,931.342 628.5,942C 611.935,948.632 601.435,943.132 597,925.5C 595.46,911.912 600.627,901.912 612.5,895.5 Z"/></g>
</svg>
