<?xml version="1.0" encoding="UTF-8"?>
<!DOCTYPE svg PUBLIC "-//W3C//DTD SVG 1.1//EN" "http://www.w3.org/Graphics/SVG/1.1/DTD/svg11.dtd">
<svg xmlns="http://www.w3.org/2000/svg" version="1.1" width="683px" height="1052px" style="shape-rendering:geometricPrecision; text-rendering:geometricPrecision; image-rendering:optimizeQuality; fill-rule:evenodd; clip-rule:evenodd" xmlns:xlink="http://www.w3.org/1999/xlink">
<g><path style="opacity:0.913" fill="#bec0c2" d="M 37.5,-0.5 C 238.833,-0.5 440.167,-0.5 641.5,-0.5C 661.223,3.55801 674.889,14.8913 682.5,33.5C 682.5,355.5 682.5,677.5 682.5,999.5C 677.846,1026.82 662.179,1044.16 635.5,1051.5C 436.5,1051.5 237.5,1051.5 38.5,1051.5C 17.7251,1043.73 4.72506,1029.06 -0.5,1007.5C -0.5,681.833 -0.5,356.167 -0.5,30.5C 4.92172,17.5799 14.2551,8.41325 27.5,3C 30.98,1.89744 34.3133,0.73077 37.5,-0.5 Z"/></g>
<g><path style="opacity:1" fill="#fefefe" d="M 38.5,4.5 C 239.5,4.33333 440.5,4.5 641.5,5C 659.567,8.73773 671.733,19.2377 678,36.5C 677.753,358.165 677.42,679.832 677,1001.5C 673.653,1018.69 664.486,1031.85 649.5,1041C 645.167,1043.58 640.5,1045.25 635.5,1046C 436.167,1046.67 236.833,1046.67 37.5,1046C 20.6155,1038.78 9.78215,1026.28 5,1008.5C 4.33333,682.5 4.33333,356.5 5,30.5C 9.86789,19.9667 17.7012,12.4667 28.5,8C 31.8502,6.51368 35.1835,5.34702 38.5,4.5 Z"/></g>
<g><path style="opacity:1" fill="#d12505" d="M 73.5,76.5 C 74.404,75.791 74.7373,74.791 74.5,73.5C 60.6565,73.171 46.9898,73.5043 33.5,74.5C 32.8826,74.6107 32.3826,74.944 32,75.5C 31.6667,81.1667 31.3333,86.8333 31,92.5C 28.3333,93.8333 25.6667,93.8333 23,92.5C 21.3695,82.9647 21.2028,73.4647 22.5,64C 42.3487,63.7915 62.182,63.2915 82,62.5C 83.4357,62.5589 84.769,62.8922 86,63.5C 87.8403,65.6808 89.0069,68.1808 89.5,71C 80.1897,85.1135 72.0231,99.9469 65,115.5C 62.1559,125.208 59.1559,134.875 56,144.5C 54.98,151.799 54.3134,159.132 54,166.5C 51.5686,169.518 48.5686,170.185 45,168.5C 43.6469,155.882 44.9802,143.549 49,131.5C 55.0197,112.134 63.1863,93.8009 73.5,76.5 Z"/></g>
<g><path style="opacity:1" fill="#f1baaf" d="M 33.5,74.5 C 46.9898,73.5043 60.6565,73.171 74.5,73.5C 74.7373,74.791 74.404,75.791 73.5,76.5C 60.5419,74.5186 47.2086,73.8519 33.5,74.5 Z"/></g>
<g><path style="opacity:1" fill="#d02101" d="M 466.5,135.5 C 470.302,136.779 473.469,139.112 476,142.5C 494.957,165.793 514.291,188.793 534,211.5C 536.572,214.403 538.739,217.569 540.5,221C 539.722,223.39 538.555,225.557 537,227.5C 516.333,254.167 495.667,280.833 475,307.5C 473.938,308.899 472.605,309.899 471,310.5C 447.65,284.149 424.65,257.482 402,230.5C 398.667,226.167 398.667,221.833 402,217.5C 423.75,190.318 445.25,162.985 466.5,135.5 Z"/></g>
<g><path style="opacity:1" fill="#d02101" d="M 198.5,141.5 C 202.147,141.622 204.981,143.288 207,146.5C 227.523,172.369 248.856,197.703 271,222.5C 272.422,225.03 272.755,227.697 272,230.5C 251.982,255.523 232.315,280.857 213,306.5C 210.594,308.983 208.427,311.65 206.5,314.5C 204.5,315.833 202.5,315.833 200.5,314.5C 178.661,288.428 156.495,262.428 134,236.5C 130.667,232.167 130.667,227.833 134,223.5C 155.394,195.956 176.894,168.622 198.5,141.5 Z"/></g>
<g><path style="opacity:1" fill="#d02302" d="M 53.5,183.5 C 56.3943,184.882 58.8943,186.882 61,189.5C 68.5955,199.018 76.4288,208.352 84.5,217.5C 76.1924,228.975 67.6924,240.308 59,251.5C 56.4082,252.982 54.0749,252.648 52,250.5C 45.0832,240.912 37.4165,231.912 29,223.5C 27,220.833 27,218.167 29,215.5C 37.7897,205.223 45.9564,194.556 53.5,183.5 Z"/></g>
<g><path style="opacity:1" fill="#d02101" d="M 335.5,288.5 C 337.144,288.286 338.644,288.62 340,289.5C 362.096,316.019 384.429,342.352 407,368.5C 410.201,372.088 410.201,375.755 407,379.5C 385.667,406.833 364.333,434.167 343,461.5C 340.119,463.028 337.786,462.362 336,459.5C 313.904,432.981 291.571,406.648 269,380.5C 268.219,379.271 267.719,377.938 267.5,376.5C 289.775,346.888 312.442,317.555 335.5,288.5 Z"/></g>
<g><path style="opacity:1" fill="#d02101" d="M 473.5,434.5 C 476.797,437.296 479.964,440.296 483,443.5C 502.291,467.126 521.958,490.46 542,513.5C 543.914,515.748 545.414,518.248 546.5,521C 525.065,550.106 503.232,578.94 481,607.5C 479.534,609.325 477.701,609.825 475.5,609C 453.548,583.593 431.715,558.093 410,532.5C 407.534,529.872 405.701,526.872 404.5,523.5C 404.719,522.062 405.219,520.729 406,519.5C 428.508,491.136 451.008,462.803 473.5,434.5 Z"/></g>
<g><path style="opacity:1" fill="#d02101" d="M 204.5,441.5 C 205.873,441.343 207.207,441.51 208.5,442C 227.68,464.183 246.513,486.683 265,509.5C 270.687,514.172 275.187,519.672 278.5,526C 278.375,527.627 277.875,529.127 277,530.5C 255.813,558.549 234.313,586.549 212.5,614.5C 210.5,615.833 208.5,615.833 206.5,614.5C 185.1,588.301 163.267,562.634 141,537.5C 137.739,534.131 136.739,530.131 138,525.5C 159.934,497.288 182.101,469.288 204.5,441.5 Z"/></g>
<g><path style="opacity:1" fill="#d02101" d="M 478.5,735.5 C 482.302,736.779 485.469,739.112 488,742.5C 507.624,766.46 527.624,790.127 548,813.5C 549.914,815.748 551.414,818.248 552.5,821C 530.341,851.486 507.341,881.319 483.5,910.5C 459.509,883.006 435.676,855.339 412,827.5C 411.219,826.271 410.719,824.938 410.5,823.5C 432.775,793.888 455.442,764.555 478.5,735.5 Z"/></g>
<g><path style="opacity:1" fill="#d02101" d="M 211.5,741.5 C 213.903,741.393 215.736,742.393 217,744.5C 238.626,770.461 260.626,796.128 283,821.5C 285,824.833 285,828.167 283,831.5C 261.278,859.048 239.778,886.714 218.5,914.5C 216.926,915.631 215.259,915.798 213.5,915C 196.629,895.394 180.129,875.56 164,855.5C 158.898,849.642 153.565,843.976 148,838.5C 145.827,835.654 144.327,832.488 143.5,829C 144.676,825.486 146.509,822.319 149,819.5C 169.728,793.288 190.561,767.288 211.5,741.5 Z"/></g>
<g><path style="opacity:1" fill="#d02202" d="M 625.5,796.5 C 635.573,806.07 644.74,816.404 653,827.5C 653.841,831.12 653.174,834.454 651,837.5C 644.951,844.548 639.284,851.881 634,859.5C 630.074,865.736 625.741,866.069 621,860.5C 613.667,851.833 606.333,843.167 599,834.5C 598.833,833.667 598.667,832.833 598.5,832C 599.936,829.204 601.436,826.371 603,823.5C 610.711,814.627 618.211,805.627 625.5,796.5 Z"/></g>
<g><path style="opacity:1" fill="#d12707" d="M 630.5,881.5 C 633.365,881.055 635.865,881.722 638,883.5C 638.1,902.562 634.433,920.895 627,938.5C 621.888,951.391 615.721,963.724 608.5,975.5C 608.709,976.086 609.043,976.586 609.5,977C 622.5,977.667 635.5,977.667 648.5,977C 649,976.5 649.5,976 650,975.5C 650.499,969.509 650.666,963.509 650.5,957.5C 653.833,957.5 657.167,957.5 660.5,957.5C 661.126,967.595 660.459,977.428 658.5,987C 641.825,987.275 625.158,987.775 608.5,988.5C 604.445,988.425 600.445,987.925 596.5,987C 593.903,984.683 593.07,981.85 594,978.5C 614.615,949.283 626.782,916.95 630.5,881.5 Z"/></g>
</svg>
