<?xml version="1.0" encoding="UTF-8"?>
<!DOCTYPE svg PUBLIC "-//W3C//DTD SVG 1.1//EN" "http://www.w3.org/Graphics/SVG/1.1/DTD/svg11.dtd">
<svg xmlns="http://www.w3.org/2000/svg" version="1.1" width="691px" height="1056px" style="shape-rendering:geometricPrecision; text-rendering:geometricPrecision; image-rendering:optimizeQuality; fill-rule:evenodd; clip-rule:evenodd" xmlns:xlink="http://www.w3.org/1999/xlink">
<g><path style="opacity:0.906" fill="#bdbfc1" d="M 45.5,0.5 C 245.833,1.12134 446.166,1.62134 646.5,2C 665.686,6.52403 678.519,18.024 685,36.5C 684.274,355.74 684.441,674.906 685.5,994C 683.799,1022.7 669.466,1042.03 642.5,1052C 639.833,1052.33 637.167,1052.67 634.5,1053C 437.167,1053.67 239.833,1053.67 42.5,1053C 27.9238,1049.1 16.7571,1040.6 9,1027.5C 6.21067,1022.47 4.21067,1017.13 3,1011.5C 2.00077,1002.53 1.50077,993.531 1.5,984.5C 2.61472,668.167 2.78139,351.834 2,35.5C 3.21735,26.6166 7.38401,19.4499 14.5,14C 23.7345,6.70993 34.0678,2.20993 45.5,0.5 Z"/></g>
<g><path style="opacity:1" fill="#fefefe" d="M 42.5,5.5 C 243.5,5.98485 444.5,6.48485 645.5,7C 661.811,10.6415 673.311,20.1415 680,35.5C 680.667,356.167 680.667,676.833 680,997.5C 677.215,1023.9 663.048,1040.73 637.5,1048C 438.833,1048.67 240.167,1048.67 41.5,1048C 22.3766,1040.54 10.8766,1026.71 7,1006.5C 6.83333,979 6.66667,951.5 6.5,924C 7.64238,627.166 7.80904,330.333 7,33.5C 10.3006,24.5307 16.1339,17.6973 24.5,13C 30.3281,9.78826 36.3281,7.28826 42.5,5.5 Z"/></g>
<g><path style="opacity:1" fill="#cd392e" d="M 85.5,57.5 C 90.093,57.6742 94.4263,58.6742 98.5,60.5C 100.436,63.208 100.936,66.208 100,69.5C 79.58,97.6774 67.08,129.177 62.5,164C 57.1795,165.832 54.5129,163.999 54.5,158.5C 57.7505,126.578 68.4171,97.4117 86.5,71C 86.3552,70.228 86.0219,69.5613 85.5,69C 72.1667,68.3333 58.8333,68.3333 45.5,69C 45,69.5 44.5,70 44,70.5C 43.6667,75.8333 43.3333,81.1667 43,86.5C 39.5281,89.418 36.5281,89.0846 34,85.5C 33.3333,77.5 33.3333,69.5 34,61.5C 34.8333,60.6667 35.6667,59.8333 36.5,59C 53.0051,58.8315 69.3385,58.3315 85.5,57.5 Z"/></g>
<g><path style="opacity:1" fill="#cc3429" d="M 500.5,136.5 C 512.827,135.884 523.327,139.884 532,148.5C 541.158,165.748 541.824,183.415 534,201.5C 531.333,207.5 528.667,213.5 526,219.5C 509.189,244.972 490.189,268.639 469,290.5C 459.676,281.509 450.676,272.176 442,262.5C 431.281,248.781 420.948,234.781 411,220.5C 406.467,211.429 402.467,202.096 399,192.5C 396.226,179.161 397.226,166.161 402,153.5C 413.533,136.927 428.7,132.76 447.5,141C 456.002,145.669 462.669,152.169 467.5,160.5C 470.806,157.233 473.639,153.567 476,149.5C 482.908,142.631 491.074,138.298 500.5,136.5 Z"/></g>
<g><path style="opacity:1" fill="#cc3329" d="M 174.5,138.5 C 192.039,137.517 205.206,144.517 214,159.5C 214.739,160.574 215.739,161.241 217,161.5C 222.193,153.308 229.026,146.808 237.5,142C 251.619,136.296 264.953,137.63 277.5,146C 286.936,157.483 290.436,170.649 288,185.5C 285.716,196.685 282.05,207.352 277,217.5C 261.563,240.948 244.563,263.282 226,284.5C 223.561,287.612 220.561,289.945 217,291.5C 193.563,268.292 173.229,242.625 156,214.5C 150.17,203.348 147.003,191.515 146.5,179C 144.952,157.502 154.285,144.002 174.5,138.5 Z"/></g>
<g><path style="opacity:1" fill="#cc352a" d="M 79.5,177.5 C 94.8552,177.507 101.355,185.173 99,200.5C 98.2023,203.893 97.2023,207.226 96,210.5C 88.7561,225.319 78.9228,237.986 66.5,248.5C 62.546,245.714 59.046,242.381 56,238.5C 49.9448,230.778 44.2781,222.778 39,214.5C 32.6356,204.473 31.9689,194.14 37,183.5C 42.9623,178.199 49.7956,177.033 57.5,180C 60.6301,182.128 63.4634,184.628 66,187.5C 69.8362,183.149 74.3362,179.816 79.5,177.5 Z"/></g>
<g><path style="opacity:1" fill="#cc3329" d="M 297.5,294.5 C 318.101,292.281 333.268,300.281 343,318.5C 356.896,294.423 376.396,288.256 401.5,300C 413.204,311.793 417.371,325.96 414,342.5C 411.24,354.111 406.907,365.111 401,375.5C 385.031,400.907 366.531,424.407 345.5,446C 342.692,446.92 340.525,446.087 339,443.5C 318.372,421.548 300.039,397.881 284,372.5C 276.719,360.325 272.886,347.159 272.5,333C 271.761,313.916 280.095,301.083 297.5,294.5 Z"/></g>
<g><path style="opacity:1" fill="#cc3329" d="M 425.5,449.5 C 443.733,447.697 457.233,454.697 466,470.5C 466.739,471.574 467.739,472.241 469,472.5C 474.149,464.354 480.982,457.854 489.5,453C 526.166,443.981 542.999,458.481 540,496.5C 536.803,511.223 531.136,524.889 523,537.5C 507.461,560.916 489.795,582.582 470,602.5C 447.405,580.567 427.738,556.234 411,529.5C 406.503,521.509 402.836,513.175 400,504.5C 397.216,491.485 398.216,478.819 403,466.5C 407.829,457.156 415.329,451.489 425.5,449.5 Z"/></g>
<g><path style="opacity:1" fill="#cc3329" d="M 248.5,450.5 C 271.844,448.375 285.344,458.709 289,481.5C 290.561,499.16 286.561,515.493 277,530.5C 260.627,556.247 242.127,580.414 221.5,603C 219.833,603.667 218.167,603.667 216.5,603C 197.414,583.03 180.081,561.697 164.5,539C 161.054,531.94 157.22,525.107 153,518.5C 145.056,499.457 145.723,480.791 155,462.5C 159.701,456.584 165.868,453.084 173.5,452C 189.233,449.302 202.067,454.136 212,466.5C 213.523,469.555 215.523,472.222 218,474.5C 221.73,468.762 226.23,463.596 231.5,459C 236.906,455.486 242.572,452.653 248.5,450.5 Z"/></g>
<g><path style="opacity:1" fill="#cc3329" d="M 467.5,764.5 C 469.527,764.338 471.527,764.505 473.5,765C 494.049,786.956 512.549,810.456 529,835.5C 542.895,856.668 545.228,879.001 536,902.5C 525.389,915.191 511.889,919.358 495.5,915C 485.052,909.719 477.052,901.885 471.5,891.5C 458.421,914.689 439.421,921.522 414.5,912C 406.845,906.095 402.345,898.261 401,888.5C 399.1,874.981 400.767,861.981 406,849.5C 411.658,837.508 418.325,826.175 426,815.5C 439.373,798.063 453.207,781.063 467.5,764.5 Z"/></g>
<g><path style="opacity:1" fill="#cc3329" d="M 217.5,765.5 C 219.827,765.247 221.827,765.914 223.5,767.5C 243.762,788.919 261.928,811.919 278,836.5C 290.984,856.409 293.984,877.742 287,900.5C 277.811,916.102 264.311,921.268 246.5,916C 244.122,915.489 241.788,914.822 239.5,914C 232.683,908.017 226.016,901.851 219.5,895.5C 214.38,902.454 208.38,908.621 201.5,914C 167.891,925.186 150.224,913.019 148.5,877.5C 148.963,867.315 151.463,857.648 156,848.5C 161.205,837.976 167.205,827.976 174,818.5C 187.608,800.062 202.108,782.396 217.5,765.5 Z"/></g>
<g><path style="opacity:1" fill="#cc352b" d="M 618.5,803.5 C 619.552,803.351 620.552,803.517 621.5,804C 631.144,813.973 639.644,824.806 647,836.5C 653.256,846.555 653.923,856.889 649,867.5C 637.691,876.646 628.191,874.98 620.5,862.5C 615.565,868.75 609.232,873.084 601.5,875.5C 597.523,872.691 593.69,869.691 590,866.5C 586.838,861.223 585.838,855.557 587,849.5C 594.301,831.873 604.801,816.54 618.5,803.5 Z"/></g>
<g><path style="opacity:1" fill="#cd382d" d="M 624.5,890.5 C 627.119,890.232 629.619,890.565 632,891.5C 632.667,896.5 632.667,901.5 632,906.5C 630.939,911.104 630.273,915.771 630,920.5C 626.504,933.512 621.837,946.178 616,958.5C 611.555,966.407 606.888,974.074 602,981.5C 601.506,983.134 601.34,984.801 601.5,986.5C 614.837,986.667 628.171,986.5 641.5,986C 642.893,984.829 643.727,983.329 644,981.5C 644.333,976.833 644.667,972.167 645,967.5C 647.719,966.556 650.552,966.223 653.5,966.5C 653.666,975.839 653.5,985.173 653,994.5C 652.25,995.126 651.416,995.626 650.5,996C 630.833,996.667 611.167,996.667 591.5,996C 587.489,993.649 585.989,990.149 587,985.5C 608.239,957.282 620.739,925.615 624.5,890.5 Z"/></g>
</svg>
