<?xml version="1.0" encoding="UTF-8"?>
<!DOCTYPE svg PUBLIC "-//W3C//DTD SVG 1.1//EN" "http://www.w3.org/Graphics/SVG/1.1/DTD/svg11.dtd">
<svg xmlns="http://www.w3.org/2000/svg" version="1.1" width="691px" height="1056px" style="shape-rendering:geometricPrecision; text-rendering:geometricPrecision; image-rendering:optimizeQuality; fill-rule:evenodd; clip-rule:evenodd" xmlns:xlink="http://www.w3.org/1999/xlink">
<g><path style="opacity:0.906" fill="#bdbfc1" d="M 45.5,0.5 C 245.833,1.12134 446.166,1.62134 646.5,2C 665.686,6.52403 678.519,18.024 685,36.5C 684.274,355.74 684.441,674.906 685.5,994C 683.799,1022.7 669.466,1042.03 642.5,1052C 639.833,1052.33 637.167,1052.67 634.5,1053C 437.167,1053.67 239.833,1053.67 42.5,1053C 27.9238,1049.1 16.7571,1040.6 9,1027.5C 6.21067,1022.47 4.21067,1017.13 3,1011.5C 2.00077,1002.53 1.50077,993.531 1.5,984.5C 2.61472,668.167 2.78139,351.834 2,35.5C 3.21735,26.6166 7.38401,19.4499 14.5,14C 23.7345,6.70993 34.0678,2.20993 45.5,0.5 Z"/></g>
<g><path style="opacity:1" fill="#fefefe" d="M 42.5,5.5 C 243.5,5.98485 444.5,6.48485 645.5,7C 661.811,10.6415 673.311,20.1415 680,35.5C 680.667,356.167 680.667,676.833 680,997.5C 677.215,1023.9 663.048,1040.73 637.5,1048C 438.833,1048.67 240.167,1048.67 41.5,1048C 22.3766,1040.54 10.8766,1026.71 7,1006.5C 6.83333,979 6.66667,951.5 6.5,924C 7.64238,627.166 7.80904,330.333 7,33.5C 10.3006,24.5307 16.1339,17.6973 24.5,13C 30.3281,9.78826 36.3281,7.28826 42.5,5.5 Z"/></g>
<g><path style="opacity:1" fill="#080808" d="M 42.5,57.5 C 59.5033,57.3334 76.5033,57.5001 93.5,58C 98.5681,60.9825 99.7348,65.1492 97,70.5C 75.9859,97.5435 64.1525,128.21 61.5,162.5C 58.8333,162.5 56.1667,162.5 53.5,162.5C 52.7553,150.954 53.922,139.621 57,128.5C 64.7975,107.903 73.9641,87.9029 84.5,68.5C 70.1821,67.5007 55.8488,67.1674 41.5,67.5C 40.8096,73.8097 40.4763,80.143 40.5,86.5C 37.8333,86.5 35.1667,86.5 32.5,86.5C 32.5,77.1667 32.5,67.8333 32.5,58.5C 36.0419,58.8128 39.3752,58.4794 42.5,57.5 Z"/></g>
<g><path style="opacity:1" fill="#010101" d="M 226.5,284.5 C 217.682,285.493 208.682,285.827 199.5,285.5C 198.903,285.265 198.57,284.765 198.5,284C 201.938,274.685 204.772,265.185 207,255.5C 207.667,250.167 207.667,244.833 207,239.5C 206.333,238.167 205.667,238.167 205,239.5C 201.13,249.089 194.63,256.256 185.5,261C 163.619,265.81 150.119,257.31 145,235.5C 142.512,222.459 144.846,210.459 152,199.5C 171.758,173.652 191.758,147.986 212,122.5C 231.333,146.5 250.667,170.5 270,194.5C 283.149,212.14 284.816,230.807 275,250.5C 264.759,262.467 252.259,265.634 237.5,260C 229.852,254.687 224.018,247.854 220,239.5C 218.196,241.277 217.363,243.444 217.5,246C 220.108,258.932 223.108,271.765 226.5,284.5 Z"/></g>
<g><path style="opacity:1" fill="#010101" d="M 488.5,284.5 C 479.167,285.833 469.833,285.833 460.5,284.5C 465.229,271.918 468.229,258.918 469.5,245.5C 469.167,243.167 468.833,240.833 468.5,238.5C 465.013,243.463 461.513,248.463 458,253.5C 445.19,265.765 431.69,266.598 417.5,256C 411.764,250.361 408.264,243.528 407,235.5C 404.639,222.508 406.972,210.508 414,199.5C 433.758,173.652 453.758,147.986 474,122.5C 493,146.167 512,169.833 531,193.5C 543.121,209.377 545.788,226.711 539,245.5C 530.768,260.586 518.268,265.753 501.5,261C 493.015,256.223 486.681,249.39 482.5,240.5C 481.833,239.167 481.167,239.167 480.5,240.5C 479.394,244.777 479.228,249.11 480,253.5C 482.142,264.053 484.975,274.387 488.5,284.5 Z"/></g>
<g><path style="opacity:1" fill="#040404" d="M 59.5,177.5 C 67.2186,185.908 74.7186,194.575 82,203.5C 84.583,206.997 86.9164,210.664 89,214.5C 89.6667,218.833 89.6667,223.167 89,227.5C 84.828,237.829 77.9947,239.996 68.5,234C 67,232.5 65.5,231 64,229.5C 63.4361,235.258 63.9361,240.925 65.5,246.5C 62.1667,246.5 58.8333,246.5 55.5,246.5C 56.5591,240.818 57.3924,235.151 58,229.5C 57.586,229.043 57.086,228.709 56.5,228.5C 51.3179,237.62 44.3179,239.454 35.5,234C 30.0265,227.378 29.1931,220.212 33,212.5C 42.0496,200.957 50.8829,189.29 59.5,177.5 Z"/></g>
<g><path style="opacity:1" fill="#010101" d="M 342.5,284.5 C 343.552,284.351 344.552,284.517 345.5,285C 364.787,309.076 383.954,333.242 403,357.5C 414.732,375.182 415.399,393.182 405,411.5C 388.86,427.757 373.193,427.423 358,410.5C 355.584,407.337 353.418,404.004 351.5,400.5C 350.675,399.614 349.675,399.281 348.5,399.5C 348.522,415.234 351.855,430.234 358.5,444.5C 348.856,445.498 339.19,445.832 329.5,445.5C 335.402,430.765 338.735,415.432 339.5,399.5C 338.178,399.33 337.011,399.663 336,400.5C 330.822,412.348 321.988,419.848 309.5,423C 297.374,424.02 287.874,419.52 281,409.5C 273.383,393.326 273.716,377.326 282,361.5C 302.175,335.803 322.342,310.136 342.5,284.5 Z"/></g>
<g><path style="opacity:1" fill="#c0c0c0" d="M 226.5,284.5 C 227.043,284.56 227.376,284.893 227.5,285.5C 218.008,286.822 208.675,286.822 199.5,285.5C 208.682,285.827 217.682,285.493 226.5,284.5 Z"/></g>
<g><path style="opacity:1" fill="#b9b9b9" d="M 460.5,284.5 C 469.833,285.833 479.167,285.833 488.5,284.5C 489.043,284.56 489.376,284.893 489.5,285.5C 479.5,286.833 469.5,286.833 459.5,285.5C 459.624,284.893 459.957,284.56 460.5,284.5 Z"/></g>
<g><path style="opacity:1" fill="#010101" d="M 474.5,443.5 C 493.314,467.097 512.147,490.764 531,514.5C 544.66,533.058 545.993,552.392 535,572.5C 521.842,585.696 507.676,586.863 492.5,576C 488.796,571.428 485.463,566.594 482.5,561.5C 481.833,560.167 481.167,560.167 480.5,561.5C 479.386,566.446 479.219,571.446 480,576.5C 482.942,586.489 485.775,596.489 488.5,606.5C 478.81,606.832 469.144,606.498 459.5,605.5C 466.164,590.852 469.33,575.518 469,559.5C 463.856,566.278 458.356,572.778 452.5,579C 436.568,587.271 423.068,584.438 412,570.5C 403.938,552.671 404.938,535.338 415,518.5C 434.667,493.337 454.5,468.337 474.5,443.5 Z"/></g>
<g><path style="opacity:1" fill="#010101" d="M 226.5,604.5 C 225.448,606.256 223.781,606.923 221.5,606.5C 214.833,606.5 208.167,606.5 201.5,606.5C 200.209,606.737 199.209,606.404 198.5,605.5C 203.395,592.588 206.728,579.255 208.5,565.5C 208.41,563.772 208.077,562.106 207.5,560.5C 206.833,559.167 206.167,559.167 205.5,560.5C 201.429,568.067 196.096,574.567 189.5,580C 171.563,587.687 157.73,583.187 148,566.5C 141.707,549.028 143.707,532.695 154,517.5C 172.908,494.015 191.574,470.348 210,446.5C 211,445.833 212,445.167 213,444.5C 232.813,468.134 252.147,492.134 271,516.5C 284.298,534.994 284.965,553.994 273,573.5C 263.988,583.056 253.155,585.889 240.5,582C 236.044,580.021 232.21,577.187 229,573.5C 225.995,569.003 222.828,564.669 219.5,560.5C 217.533,564.963 217.033,569.63 218,574.5C 220.534,584.601 223.368,594.601 226.5,604.5 Z"/></g>
<g><path style="opacity:1" fill="#787878" d="M 198.5,605.5 C 199.209,606.404 200.209,606.737 201.5,606.5C 200.292,607.782 198.958,607.782 197.5,606.5C 197.624,605.893 197.957,605.56 198.5,605.5 Z"/></g>
<g><path style="opacity:1" fill="#898989" d="M 226.5,604.5 C 227.404,605.209 227.737,606.209 227.5,607.5C 225.265,607.795 223.265,607.461 221.5,606.5C 223.781,606.923 225.448,606.256 226.5,604.5 Z"/></g>
<g><path style="opacity:1" fill="#434343" d="M 200.5,765.5 C 209.525,765.168 218.525,765.502 227.5,766.5C 227.376,767.107 227.043,767.44 226.5,767.5C 217.833,766.833 209.167,766.167 200.5,765.5 Z"/></g>
<g><path style="opacity:1" fill="#010101" d="M 460.5,765.5 C 469.833,765.5 479.167,765.5 488.5,765.5C 485.707,773.714 483.207,782.048 481,790.5C 479.588,797.458 478.921,804.458 479,811.5C 480,812.833 481,812.833 482,811.5C 486.833,801.333 494.333,793.833 504.5,789C 525.484,786.656 537.984,795.823 542,816.5C 543.746,829.514 541.079,841.514 534,852.5C 514.694,878.144 494.694,903.144 474,927.5C 472.739,927.241 471.739,926.574 471,925.5C 453.048,901.88 434.715,878.546 416,855.5C 405.123,840.341 402.789,824.008 409,806.5C 418.947,788.74 433.114,784.24 451.5,793C 453.96,794.458 456.127,796.291 458,798.5C 461.333,803.167 464.667,807.833 468,812.5C 469.492,807.589 469.826,802.589 469,797.5C 466.477,786.74 463.643,776.073 460.5,765.5 Z"/></g>
<g><path style="opacity:1" fill="#010101" d="M 200.5,765.5 C 209.167,766.167 217.833,766.833 226.5,767.5C 220.626,781.946 217.793,796.946 218,812.5C 222.06,808.708 225.393,804.374 228,799.5C 244.382,784.294 260.049,784.96 275,801.5C 284.741,820.772 283.074,839.105 270,856.5C 251,880.5 232,904.5 213,928.5C 192.908,905.078 173.575,881.078 155,856.5C 144.632,842.322 141.632,826.655 146,809.5C 156.027,789.064 171.194,783.897 191.5,794C 196.847,799.202 201.347,805.035 205,811.5C 205.667,812.833 206.333,812.833 207,811.5C 207.524,795.917 204.69,780.917 198.5,766.5C 198.957,765.702 199.624,765.369 200.5,765.5 Z"/></g>
<g><path style="opacity:1" fill="#595959" d="M 625.5,805.5 C 623.5,806.167 621.5,806.833 619.5,807.5C 618.957,807.44 618.624,807.107 618.5,806.5C 620.743,805.526 623.076,805.192 625.5,805.5 Z"/></g>
<g><path style="opacity:1" fill="#030303" d="M 625.5,805.5 C 626.5,805.5 627.5,805.5 628.5,805.5C 627.556,811.154 627.056,816.82 627,822.5C 629.833,820.333 632.667,818.167 635.5,816C 646.994,813.992 652.994,818.826 653.5,830.5C 653.493,834.519 652.327,838.185 650,841.5C 641.333,852.833 632.667,864.167 624,875.5C 613.895,863.396 604.561,850.729 596,837.5C 595.333,832.5 595.333,827.5 596,822.5C 599.845,816.333 605.345,814.166 612.5,816C 615.312,817.977 617.978,820.144 620.5,822.5C 620.833,821.5 621.167,820.5 621.5,819.5C 620.51,815.544 619.844,811.544 619.5,807.5C 621.5,806.833 623.5,806.167 625.5,805.5 Z"/></g>
<g><path style="opacity:1" fill="#040404" d="M 623.5,888.5 C 626.5,888.5 629.5,888.5 632.5,888.5C 630.248,922.924 619.248,954.258 599.5,982.5C 614.152,983.499 628.818,983.833 643.5,983.5C 643.833,977.5 644.167,971.5 644.5,965.5C 647.167,965.5 649.833,965.5 652.5,965.5C 653.122,974.932 652.456,984.099 650.5,993C 630.5,993.667 610.5,993.667 590.5,993C 587.547,990.474 586.381,987.308 587,983.5C 608.109,955.349 620.276,923.683 623.5,888.5 Z"/></g>
</svg>
