<?xml version="1.0" encoding="UTF-8"?>
<!DOCTYPE svg PUBLIC "-//W3C//DTD SVG 1.1//EN" "http://www.w3.org/Graphics/SVG/1.1/DTD/svg11.dtd">
<svg xmlns="http://www.w3.org/2000/svg" version="1.1" width="691px" height="1056px" style="shape-rendering:geometricPrecision; text-rendering:geometricPrecision; image-rendering:optimizeQuality; fill-rule:evenodd; clip-rule:evenodd" xmlns:xlink="http://www.w3.org/1999/xlink">
<g><path style="opacity:0.906" fill="#bdbfc1" d="M 45.5,0.5 C 245.833,1.12134 446.166,1.62134 646.5,2C 665.686,6.52403 678.519,18.024 685,36.5C 684.264,355.74 684.431,674.906 685.5,994C 683.799,1022.7 669.466,1042.03 642.5,1052C 639.833,1052.33 637.167,1052.67 634.5,1053C 437.167,1053.67 239.833,1053.67 42.5,1053C 27.9238,1049.1 16.7571,1040.6 9,1027.5C 6.21067,1022.47 4.21067,1017.13 3,1011.5C 2.00077,1002.53 1.50077,993.531 1.5,984.5C 2.61472,668.167 2.78139,351.834 2,35.5C 3.21735,26.6166 7.38401,19.4499 14.5,14C 23.7345,6.70993 34.0678,2.20993 45.5,0.5 Z"/></g>
<g><path style="opacity:1" fill="#fefefe" d="M 42.5,5.5 C 243.5,5.98485 444.5,6.48485 645.5,7C 661.811,10.6415 673.311,20.1415 680,35.5C 680.667,356.167 680.667,676.833 680,997.5C 677.215,1023.9 663.048,1040.73 637.5,1048C 438.833,1048.67 240.167,1048.67 41.5,1048C 22.3766,1040.54 10.8766,1026.71 7,1006.5C 6.83333,979 6.66667,951.5 6.5,924C 7.64238,627.166 7.80904,330.333 7,33.5C 10.3006,24.5307 16.1339,17.6973 24.5,13C 30.3281,9.78826 36.3281,7.28826 42.5,5.5 Z"/></g>
<g><path style="opacity:1" fill="#202016" d="M 60.5,54.5 C 84.0036,53.1768 96.1702,64.1768 97,87.5C 95.1727,94.6589 91.6727,100.826 86.5,106C 105.41,121.128 107.41,138.128 92.5,157C 83.2119,164.729 72.5452,167.396 60.5,165C 47.7283,161.562 39.5616,153.395 36,140.5C 34.7684,133.161 35.7684,126.161 39,119.5C 42.0505,115.226 45.2172,111.059 48.5,107C 45.0294,102.561 42.196,97.7281 40,92.5C 36.4151,74.0175 43.2485,61.3508 60.5,54.5 Z"/></g>
<g><path style="opacity:1" fill="#fbfbfb" d="M 61.5,64.5 C 76.1864,62.3679 84.853,68.5346 87.5,83C 85.2578,97.2926 76.9244,103.626 62.5,102C 48.4433,95.4973 44.9433,85.3306 52,71.5C 54.7901,68.535 57.9567,66.2016 61.5,64.5 Z"/></g>
<g><path style="opacity:1" fill="#fbfbfb" d="M 62.5,111.5 C 82.2105,110.052 92.0438,119.052 92,138.5C 86.2035,153.649 75.3701,159.149 59.5,155C 45.1885,147.213 41.6885,136.046 49,121.5C 52.8018,117.037 57.3018,113.703 62.5,111.5 Z"/></g>
<g><path style="opacity:1" fill="#1d1d13" d="M 194.5,138.5 C 208.288,137.931 219.788,142.598 229,152.5C 237.235,164.088 238.569,176.421 233,189.5C 229.02,196.624 224.186,203.124 218.5,209C 224.539,207.412 230.705,206.245 237,205.5C 244.811,205.994 252.311,207.828 259.5,211C 277.364,232.33 276.697,252.997 257.5,273C 253.714,274.393 250.048,276.059 246.5,278C 233.448,281.093 222.615,277.593 214,267.5C 211.157,262.481 207.824,257.814 204,253.5C 203.427,259.539 203.761,265.539 205,271.5C 208.131,281.087 211.797,290.42 216,299.5C 216.494,301.134 216.66,302.801 216.5,304.5C 210.364,303.688 204.197,303.021 198,302.5C 191.928,302.592 185.928,303.259 180,304.5C 178.72,304.387 177.887,303.72 177.5,302.5C 183.405,290.674 188.238,278.34 192,265.5C 192.828,260.798 192.662,256.131 191.5,251.5C 187.199,259.65 181.866,267.15 175.5,274C 167.869,279.095 159.536,280.761 150.5,279C 145.615,277.117 140.948,274.784 136.5,272C 121.697,255.775 119.53,237.942 130,218.5C 136.689,210.155 145.356,205.822 156,205.5C 163.645,206.294 171.145,207.461 178.5,209C 164.187,197.884 158.021,183.384 160,165.5C 163.26,155.237 169.76,147.737 179.5,143C 184.435,140.841 189.435,139.341 194.5,138.5 Z"/></g>
<g><path style="opacity:1" fill="#1d1d13" d="M 481.5,139.5 C 494.845,137.884 506.845,141.05 517.5,149C 527.045,158.629 530.212,170.129 527,183.5C 523.59,192.658 518.423,200.658 511.5,207.5C 512.333,207.833 513.167,208.167 514,208.5C 538.15,199.656 554.483,207.323 563,231.5C 565.674,247.48 561.174,260.98 549.5,272C 538.371,279.364 526.705,280.364 514.5,275C 511.37,272.872 508.537,270.372 506,267.5C 502.667,262.833 499.333,258.167 496,253.5C 495.333,257.833 495.333,262.167 496,266.5C 499.616,279.055 503.783,291.388 508.5,303.5C 502.01,303.066 495.51,302.732 489,302.5C 482.404,302.567 475.904,303.067 469.5,304C 474.584,292.417 479.084,280.584 483,268.5C 484.095,263.22 484.595,257.887 484.5,252.5C 483.325,252.281 482.325,252.614 481.5,253.5C 471.706,276.406 455.372,283.239 432.5,274C 416.98,261.1 412.146,244.933 418,225.5C 428.685,205.714 444.518,200.214 465.5,209C 466.833,209.667 468.167,209.667 469.5,209C 461.531,201.557 455.697,192.724 452,182.5C 449.465,159.546 459.298,145.212 481.5,139.5 Z"/></g>
<g><path style="opacity:1" fill="#1e1e15" d="M 73.5,244.5 C 73.5,245.833 73.5,247.167 73.5,248.5C 68.9014,248.8 64.4014,248.467 60,247.5C 61.0934,243.898 62.4267,240.232 64,236.5C 64.6667,234.167 64.6667,231.833 64,229.5C 57.9582,239.451 50.1248,241.118 40.5,234.5C 34.4865,227.186 33.9865,219.52 39,211.5C 43.3684,207.401 48.5351,205.734 54.5,206.5C 53.4914,201.823 52.4914,197.156 51.5,192.5C 51.9237,185.902 55.2571,181.402 61.5,179C 71.217,177.077 78.717,180.244 84,188.5C 84.5584,194.831 83.0584,200.665 79.5,206C 96.4218,206.239 102.588,214.405 98,230.5C 93.8089,236.676 87.9755,239.176 80.5,238C 69.7789,226.506 67.4456,228.673 73.5,244.5 Z"/></g>
<g><path style="opacity:1" fill="#185c9a" d="M 73.5,244.5 C 74.5862,244.62 75.2528,245.287 75.5,246.5C 75.2528,247.713 74.5862,248.38 73.5,248.5C 73.5,247.167 73.5,245.833 73.5,244.5 Z"/></g>
<g><path style="opacity:1" fill="#1c1d13" d="M 332.5,295.5 C 349.061,292.508 363.228,296.842 375,308.5C 386.188,328.544 383.188,346.211 366,361.5C 365.517,362.448 365.351,363.448 365.5,364.5C 391.15,354.742 408.65,362.742 418,388.5C 419.234,400.461 416.567,411.461 410,421.5C 397.879,434.993 383.713,437.827 367.5,430C 364.705,428.207 362.205,426.04 360,423.5C 356.915,418.328 353.581,413.328 350,408.5C 348.183,413.472 348.183,418.472 350,423.5C 354.277,435.498 358.443,447.498 362.5,459.5C 349.837,458.222 337.171,458.222 324.5,459.5C 328.758,447.896 332.924,436.229 337,424.5C 338.554,418.86 338.721,413.193 337.5,407.5C 336.522,407.977 335.689,408.643 335,409.5C 326.2,431.317 310.7,438.483 288.5,431C 268.027,415.889 263.861,397.055 276,374.5C 288.768,359.31 304.102,356.31 322,365.5C 322.315,364.092 321.982,362.759 321,361.5C 308.692,350.888 303.692,337.554 306,321.5C 310.148,307.85 318.981,299.184 332.5,295.5 Z"/></g>
<g><path style="opacity:1" fill="#1c1c13" d="M 188.5,446.5 C 204.897,444.686 218.73,449.686 230,461.5C 237.333,474.833 237.333,488.167 230,501.5C 226.547,506.621 222.714,511.454 218.5,516C 224.972,514.131 231.639,512.965 238.5,512.5C 256.229,513.724 267.063,523.057 271,540.5C 273.456,556.134 268.956,569.3 257.5,580C 237.463,591.366 220.963,587.532 208,568.5C 206.648,565.28 205.814,561.947 205.5,558.5C 204.5,558.5 203.5,558.5 202.5,558.5C 202.089,565.655 202.922,572.655 205,579.5C 208.118,589.067 211.785,598.4 216,607.5C 216.494,609.134 216.66,610.801 216.5,612.5C 210.989,610.975 205.322,610.308 199.5,610.5C 192.491,610.75 185.491,611.084 178.5,611.5C 180.111,604.592 182.611,597.925 186,591.5C 187.869,586.228 189.535,580.894 191,575.5C 191.667,569.833 191.667,564.167 191,558.5C 186.702,569.122 179.868,577.622 170.5,584C 149.691,589.859 134.858,583.025 126,563.5C 118.381,541.675 124.548,525.175 144.5,514C 154.73,511.66 164.73,512.493 174.5,516.5C 175.167,516.167 175.833,515.833 176.5,515.5C 168.727,508.289 163.227,499.623 160,489.5C 157.799,467.232 167.299,452.899 188.5,446.5 Z"/></g>
<g><path style="opacity:1" fill="#1c1d13" d="M 478.5,446.5 C 495.032,444.289 509.199,448.955 521,460.5C 529.632,474.422 529.632,488.422 521,502.5C 517.849,507.147 514.349,511.481 510.5,515.5C 513.885,515.688 517.218,514.854 520.5,513C 540.052,510.189 553.886,517.689 562,535.5C 565.96,552.95 561.46,567.783 548.5,580C 532.389,590.137 517.889,588.304 505,574.5C 502.167,568.83 498.834,563.497 495,558.5C 494.333,563.5 494.333,568.5 495,573.5C 499.103,585.81 503.603,597.976 508.5,610C 508.167,610.5 507.833,611 507.5,611.5C 495.217,610.52 482.884,610.187 470.5,610.5C 474.931,598.628 479.098,586.628 483,574.5C 484.391,569.508 484.557,564.508 483.5,559.5C 482.186,560.313 481.019,561.313 480,562.5C 471.029,583.406 455.862,590.24 434.5,583C 418.819,572.328 412.653,557.495 416,538.5C 420.278,521.216 431.278,512.549 449,512.5C 455.961,513.248 462.794,514.415 469.5,516C 463.911,510.749 458.744,505.249 454,499.5C 446.072,474.036 454.239,456.37 478.5,446.5 Z"/></g>
<g><path style="opacity:1" fill="#1c1d13" d="M 324.5,598.5 C 337.187,599.408 349.854,599.742 362.5,599.5C 357.772,610.29 353.605,621.29 350,632.5C 348.838,638.445 348.338,644.445 348.5,650.5C 349.5,650.5 350.5,650.5 351.5,650.5C 361.327,624.089 378.661,617.589 403.5,631C 415.498,641.17 419.998,654.003 417,669.5C 411.564,691.908 397.397,701.075 374.5,697C 371.068,695.929 367.735,694.929 364.5,694C 371.383,701.597 376.883,710.097 381,719.5C 381.963,728.388 380.963,737.055 378,745.5C 361.042,765.342 341.209,768.842 318.5,756C 302.437,740.777 300.604,723.943 313,705.5C 316.167,701.667 319.333,697.833 322.5,694C 285.361,704.2 267.861,690.033 270,651.5C 278.316,627.425 294.483,619.592 318.5,628C 326.485,633.828 332.152,641.328 335.5,650.5C 336.5,650.5 337.5,650.5 338.5,650.5C 338.75,645.42 338.25,640.42 337,635.5C 332.131,623.392 327.964,611.059 324.5,598.5 Z"/></g>
<g><path style="opacity:1" fill="#1d1d13" d="M 178.5,754.5 C 191.167,755.833 203.833,755.833 216.5,754.5C 212.437,764.312 208.604,774.312 205,784.5C 202.953,792.059 202.287,799.726 203,807.5C 206.172,803.159 208.839,798.492 211,793.5C 227.619,775.505 244.952,774.839 263,791.5C 273.007,806.611 274.007,822.278 266,838.5C 253.636,853.831 238.303,857.498 220,849.5C 219.5,849.833 219,850.167 218.5,850.5C 226,857.495 231.5,865.829 235,875.5C 238.631,894.968 231.464,908.468 213.5,916C 198.364,921.374 184.031,919.707 170.5,911C 156.911,896.84 155.077,881.34 165,864.5C 168.297,859.372 172.13,854.706 176.5,850.5C 175.833,850.167 175.167,849.833 174.5,849.5C 148.054,859.027 130.888,850.361 123,823.5C 121.331,804 129.164,789.833 146.5,781C 168.211,777.185 182.545,785.685 189.5,806.5C 190.5,806.5 191.5,806.5 192.5,806.5C 193.135,793.245 189.635,781.245 182,770.5C 181.715,764.945 180.548,759.612 178.5,754.5 Z"/></g>
<g><path style="opacity:1" fill="#1d1d13" d="M 503.5,753.5 C 505.912,753.244 507.579,754.244 508.5,756.5C 499.618,771.644 495.118,787.977 495,805.5C 500.327,796.164 507.161,787.997 515.5,781C 538.393,775.701 553.893,784.201 562,806.5C 565.098,822.537 560.932,836.37 549.5,848C 546.554,848.806 543.888,850.139 541.5,852C 538.07,852.956 534.57,853.456 531,853.5C 523.926,853.127 517.093,851.96 510.5,850C 513.248,854.752 516.748,858.919 521,862.5C 531.678,881.078 529.178,897.578 513.5,912C 499.27,919.328 484.603,920.328 469.5,915C 452.128,903.216 446.961,887.382 454,867.5C 458.906,862.017 463.572,856.351 468,850.5C 468.667,849.5 468.667,848.5 468,847.5C 446.484,859.38 429.817,854.713 418,833.5C 412.062,816.978 414.729,801.978 426,788.5C 450.378,772.959 468.712,778.292 481,804.5C 482.011,805.337 483.178,805.67 484.5,805.5C 483.549,789.146 479.049,773.812 471,759.5C 470.506,757.866 470.34,756.199 470.5,754.5C 476.526,754.359 482.526,754.692 488.5,755.5C 493.678,755.066 498.678,754.399 503.5,753.5 Z"/></g>
<g><path style="opacity:1" fill="#1d1d14" d="M 613.5,806.5 C 618.214,806.173 622.88,806.507 627.5,807.5C 624.704,813.662 623.371,819.995 623.5,826.5C 625.588,822.576 628.588,819.409 632.5,817C 640.725,815.363 646.892,818.196 651,825.5C 651.667,830.5 651.667,835.5 651,840.5C 649.122,842.043 647.622,843.876 646.5,846C 641.663,846.637 636.996,847.803 632.5,849.5C 633.747,852.329 635.247,854.995 637,857.5C 636.28,872.317 628.447,878.151 613.5,875C 606.937,872.217 603.937,867.217 604.5,860C 604.511,855.841 605.511,852.007 607.5,848.5C 592.967,848.803 586.8,841.803 589,827.5C 596.685,813.978 605.852,812.978 616.5,824.5C 616.833,823.5 617.167,822.5 617.5,821.5C 615.87,816.574 614.536,811.574 613.5,806.5 Z"/></g>
<g><path style="opacity:1" fill="#202017" d="M 610.5,888.5 C 640.984,888.135 653.484,902.802 648,932.5C 644.852,937.98 641.352,943.147 637.5,948C 650.315,962.303 650.815,977.136 639,992.5C 627.635,1000.43 615.468,1001.6 602.5,996C 586.396,981.047 585.396,965.214 599.5,948.5C 582.283,933.91 579.95,917.243 592.5,898.5C 597.992,894.091 603.992,890.758 610.5,888.5 Z"/></g>
<g><path style="opacity:1" fill="#fcfcfc" d="M 610.5,898.5 C 627.776,896.288 638.109,903.621 641.5,920.5C 637.257,938.797 625.924,945.63 607.5,941C 594.011,932.858 590.845,921.691 598,907.5C 601.651,903.609 605.818,900.609 610.5,898.5 Z"/></g>
<g><path style="opacity:1" fill="#fcfcfc" d="M 611.5,952.5 C 623.165,950.097 631.665,954.097 637,964.5C 639.644,975.821 635.81,983.988 625.5,989C 614.932,992.136 606.766,988.969 601,979.5C 597.294,967.593 600.794,958.593 611.5,952.5 Z"/></g>
</svg>
