<?xml version="1.0" encoding="UTF-8"?>
<!DOCTYPE svg PUBLIC "-//W3C//DTD SVG 1.1//EN" "http://www.w3.org/Graphics/SVG/1.1/DTD/svg11.dtd">
<svg xmlns="http://www.w3.org/2000/svg" version="1.1" width="691px" height="1056px" style="shape-rendering:geometricPrecision; text-rendering:geometricPrecision; image-rendering:optimizeQuality; fill-rule:evenodd; clip-rule:evenodd" xmlns:xlink="http://www.w3.org/1999/xlink">
<g><path style="opacity:0.906" fill="#bdbfc1" d="M 45.5,0.5 C 245.833,1.12134 446.166,1.62134 646.5,2C 665.686,6.52403 678.519,18.024 685,36.5C 684.264,355.74 684.431,674.906 685.5,994C 683.799,1022.7 669.466,1042.03 642.5,1052C 639.833,1052.33 637.167,1052.67 634.5,1053C 437.167,1053.67 239.833,1053.67 42.5,1053C 27.9238,1049.1 16.7571,1040.6 9,1027.5C 6.21067,1022.47 4.21067,1017.13 3,1011.5C 2.00077,1002.53 1.50077,993.531 1.5,984.5C 2.61472,668.167 2.78139,351.834 2,35.5C 3.21735,26.6166 7.38401,19.4499 14.5,14C 23.7345,6.70993 34.0678,2.20993 45.5,0.5 Z"/></g>
<g><path style="opacity:1" fill="#fefefe" d="M 42.5,5.5 C 243.5,5.98485 444.5,6.48485 645.5,7C 661.811,10.6415 673.311,20.1415 680,35.5C 680.667,356.167 680.667,676.833 680,997.5C 677.433,1024.07 663.267,1040.9 637.5,1048C 438.833,1048.67 240.167,1048.67 41.5,1048C 22.3766,1040.54 10.8766,1026.71 7,1006.5C 6.83333,979 6.66667,951.5 6.5,924C 7.64238,627.166 7.80904,330.333 7,33.5C 10.3006,24.5307 16.1339,17.6973 24.5,13C 30.3281,9.78826 36.3281,7.28826 42.5,5.5 Z"/></g>
<g><path style="opacity:1" fill="#d12606" d="M 48.5,60.5 C 62.9171,57.9037 74.0838,62.5704 82,74.5C 86.9994,87.6664 85.1661,99.8331 76.5,111C 79.294,113.794 82.1273,116.627 85,119.5C 94.9353,137.122 92.4353,152.622 77.5,166C 59.9763,175.387 44.4763,172.887 31,158.5C 21.58,141.35 24.08,126.35 38.5,113.5C 26.3642,101.106 24.1976,87.1059 32,71.5C 36.5994,66.2112 42.0994,62.5446 48.5,60.5 Z"/></g>
<g><path style="opacity:1" fill="#fefcfb" d="M 49.5,70.5 C 66.6383,68.1511 75.1383,75.4844 75,92.5C 69.4139,107.05 59.5806,111.216 45.5,105C 37.0527,97.6142 35.2194,88.7809 40,78.5C 42.772,75.2166 45.9386,72.5499 49.5,70.5 Z"/></g>
<g><path style="opacity:1" fill="#fefcfb" d="M 52.5,119.5 C 64.097,117.881 72.597,122.215 78,132.5C 79.8333,152 71,160.833 51.5,159C 38.4067,153.32 34.2401,143.82 39,130.5C 42.3358,125.269 46.8358,121.602 52.5,119.5 Z"/></g>
<g><path style="opacity:1" fill="#d02101" d="M 470.5,136.5 C 472.017,136.511 473.184,137.177 474,138.5C 495.957,165.459 518.29,192.126 541,218.5C 543.18,222.414 542.846,226.081 540,229.5C 518.156,257.206 496.322,284.872 474.5,312.5C 471.849,310.35 469.349,308.017 467,305.5C 446.238,280.315 425.238,255.315 404,230.5C 402,227.167 402,223.833 404,220.5C 426.416,192.652 448.583,164.652 470.5,136.5 Z"/></g>
<g><path style="opacity:1" fill="#d02101" d="M 201.5,142.5 C 203.467,142.261 205.301,142.594 207,143.5C 230.157,171.796 253.323,200.13 276.5,228.5C 273.183,232.453 270.35,236.786 268,241.5C 251.368,260.775 235.701,280.775 221,301.5C 217.573,304.256 214.907,307.59 213,311.5C 211.235,313.774 209.068,315.441 206.5,316.5C 204.617,316.124 203.117,315.124 202,313.5C 178.865,286.355 156.032,258.855 133.5,231C 156.368,201.635 179.035,172.135 201.5,142.5 Z"/></g>
<g><path style="opacity:1" fill="#d02302" d="M 57.5,185.5 C 61.302,186.779 64.4687,189.112 67,192.5C 73.3333,200.167 79.6667,207.833 86,215.5C 86.9963,219.207 86.3296,222.541 84,225.5C 76.8991,233.265 70.5658,241.599 65,250.5C 63.6106,252.227 61.9439,253.561 60,254.5C 51.4048,244.562 42.7381,234.562 34,224.5C 32.5783,221.97 32.245,219.303 33,216.5C 41.3808,206.292 49.5475,195.958 57.5,185.5 Z"/></g>
<g><path style="opacity:1" fill="#d02101" d="M 339.5,288.5 C 363.135,315.641 386.635,342.975 410,370.5C 410.923,372.034 411.423,373.701 411.5,375.5C 411.065,379.037 409.565,382.037 407,384.5C 387.759,408.652 368.759,432.985 350,457.5C 347.873,460.132 345.54,462.466 343,464.5C 318.656,437.484 294.99,409.817 272,381.5C 271.004,377.793 271.67,374.459 274,371.5C 295.842,343.803 317.675,316.136 339.5,288.5 Z"/></g>
<g><path style="opacity:1" fill="#d02101" d="M 474.5,436.5 C 475.978,436.238 477.311,436.571 478.5,437.5C 501.492,464.662 524.325,491.996 547,519.5C 548.02,523.71 547.02,527.377 544,530.5C 523.516,556.139 503.516,582.139 484,608.5C 481.311,613.193 478.311,613.527 475,609.5C 473.248,606.328 471.248,603.328 469,600.5C 455.667,585.167 442.333,569.833 429,554.5C 422.379,545.544 415.379,536.877 408,528.5C 407.245,525.697 407.578,523.03 409,520.5C 413.769,515.732 417.769,510.399 421,504.5C 439.834,482.514 457.667,459.847 474.5,436.5 Z"/></g>
<g><path style="opacity:1" fill="#d02101" d="M 206.5,443.5 C 209.862,443.07 212.695,444.07 215,446.5C 234.187,471.035 254.187,495.035 275,518.5C 277.694,521.188 279.527,524.355 280.5,528C 269.691,545.085 257.524,561.252 244,576.5C 234.565,589.717 224.899,602.717 215,615.5C 211.17,617.26 208.17,616.26 206,612.5C 195.751,598.913 184.751,585.913 173,573.5C 162.711,560.209 152.045,547.209 141,534.5C 139,531.833 139,529.167 141,526.5C 162.864,498.725 184.697,471.058 206.5,443.5 Z"/></g>
<g><path style="opacity:1" fill="#d02101" d="M 343.5,590.5 C 347.147,590.622 349.981,592.288 352,595.5C 373.333,620.833 394.667,646.167 416,671.5C 416.781,672.729 417.281,674.062 417.5,675.5C 395.315,706.357 371.981,736.357 347.5,765.5C 325.521,739.02 303.355,712.687 281,686.5C 278.757,683.926 276.924,681.092 275.5,678C 297.324,648.188 319.991,619.021 343.5,590.5 Z"/></g>
<g><path style="opacity:1" fill="#d02101" d="M 479.5,737.5 C 482.325,737.081 484.491,738.081 486,740.5C 507.333,765.833 528.667,791.167 550,816.5C 551.555,818.443 552.722,820.61 553.5,823C 537.954,843.868 522.454,864.701 507,885.5C 500.547,891.783 495.047,898.783 490.5,906.5C 488.167,908.5 485.833,910.5 483.5,912.5C 467.782,895.277 452.949,877.277 439,858.5C 432,850.833 425,843.167 418,835.5C 415.467,832.148 413.634,828.481 412.5,824.5C 412.667,823.5 412.833,822.5 413,821.5C 435.822,793.864 457.989,765.864 479.5,737.5 Z"/></g>
<g><path style="opacity:1" fill="#d02101" d="M 211.5,742.5 C 215.273,741.822 218.106,743.156 220,746.5C 242.387,773.381 264.554,800.381 286.5,827.5C 284.265,831.63 281.765,835.63 279,839.5C 259.284,864.214 239.951,889.214 221,914.5C 220.044,915.894 218.711,916.561 217,916.5C 214.073,914.58 211.406,912.247 209,909.5C 188.782,883.939 167.782,858.939 146,834.5C 144,831.833 144,829.167 146,826.5C 163.574,805.016 180.907,783.349 198,761.5C 202.51,755.137 207.01,748.804 211.5,742.5 Z"/></g>
<g><path style="opacity:1" fill="#d02202" d="M 625.5,799.5 C 628.959,800.436 631.793,802.436 634,805.5C 640.333,813.167 646.667,820.833 653,828.5C 654.422,831.03 654.755,833.697 654,836.5C 645.31,847.023 636.81,857.689 628.5,868.5C 619.51,858.674 610.676,848.674 602,838.5C 600.578,835.97 600.245,833.303 601,830.5C 609.381,820.292 617.547,809.958 625.5,799.5 Z"/></g>
<g><path style="opacity:1" fill="#d02504" d="M 621.5,882.5 C 642.025,879.831 655.525,888.164 662,907.5C 663.445,920.669 659.278,931.669 649.5,940.5C 654.016,945.53 657.516,951.196 660,957.5C 662.712,975.43 655.546,987.264 638.5,993C 614.38,994.88 602.547,983.714 603,959.5C 604.716,953.738 607.216,948.405 610.5,943.5C 610.281,942.062 609.781,940.729 609,939.5C 592.843,923.464 592.343,906.964 607.5,890C 611.886,886.828 616.552,884.328 621.5,882.5 Z"/></g>
<g><path style="opacity:1" fill="#fefbfb" d="M 623.5,894.5 C 645.238,893.72 653.405,903.72 648,924.5C 640.231,934.756 630.397,937.256 618.5,932C 606.402,922.015 605.402,911.015 615.5,899C 618.099,897.205 620.766,895.705 623.5,894.5 Z"/></g>
<g><path style="opacity:1" fill="#fefcfb" d="M 625.5,946.5 C 647.394,946.203 654.56,956.203 647,976.5C 636.667,987.167 626.333,987.167 616,976.5C 609.161,963.205 612.328,953.205 625.5,946.5 Z"/></g>
</svg>
