<?xml version="1.0" encoding="UTF-8"?>
<!DOCTYPE svg PUBLIC "-//W3C//DTD SVG 1.1//EN" "http://www.w3.org/Graphics/SVG/1.1/DTD/svg11.dtd">
<svg xmlns="http://www.w3.org/2000/svg" version="1.1" width="691px" height="1056px" style="shape-rendering:geometricPrecision; text-rendering:geometricPrecision; image-rendering:optimizeQuality; fill-rule:evenodd; clip-rule:evenodd" xmlns:xlink="http://www.w3.org/1999/xlink">
<g><path style="opacity:0.906" fill="#bdbfc1" d="M 45.5,0.5 C 245.833,1.12134 446.166,1.62134 646.5,2C 665.686,6.52403 678.519,18.024 685,36.5C 684.274,355.74 684.441,674.906 685.5,994C 683.799,1022.7 669.466,1042.03 642.5,1052C 639.833,1052.33 637.167,1052.67 634.5,1053C 437.167,1053.67 239.833,1053.67 42.5,1053C 27.9238,1049.1 16.7571,1040.6 9,1027.5C 6.21067,1022.47 4.21067,1017.13 3,1011.5C 2.00077,1002.53 1.50077,993.531 1.5,984.5C 2.61472,668.167 2.78139,351.834 2,35.5C 3.21735,26.6166 7.38401,19.4499 14.5,14C 23.7345,6.70993 34.0678,2.20993 45.5,0.5 Z"/></g>
<g><path style="opacity:1" fill="#fefefe" d="M 42.5,5.5 C 243.5,5.98485 444.5,6.48485 645.5,7C 661.811,10.6415 673.311,20.1415 680,35.5C 680.667,356.167 680.667,676.833 680,997.5C 677.215,1023.9 663.048,1040.73 637.5,1048C 438.833,1048.67 240.167,1048.67 41.5,1048C 22.3766,1040.54 10.8766,1026.71 7,1006.5C 6.83333,979 6.66667,951.5 6.5,924C 7.64238,627.166 7.80904,330.333 7,33.5C 10.3006,24.5307 16.1339,17.6973 24.5,13C 30.3281,9.78826 36.3281,7.28826 42.5,5.5 Z"/></g>
<g><path style="opacity:1" fill="#d02505" d="M 74.5,47.5 C 95.983,49.4744 106.15,61.1411 105,82.5C 103.253,89.1653 100.086,94.9986 95.5,100C 101.194,106.031 105.694,112.864 109,120.5C 110.874,144.428 99.874,157.428 76,159.5C 55.538,158.538 44.3714,147.871 42.5,127.5C 42.6155,123.78 43.1155,120.113 44,116.5C 47.4586,110.713 51.2919,105.213 55.5,100C 51.4625,94.4227 48.6292,88.256 47,81.5C 46.0407,61.9606 55.2074,50.6273 74.5,47.5 Z"/></g>
<g><path style="opacity:1" fill="#fefbfb" d="M 72.5,57.5 C 91.6957,58.5812 98.529,68.2479 93,86.5C 85.6681,95.8742 76.5014,98.0408 65.5,93C 55.8575,85.4401 54.0242,76.2734 60,65.5C 63.5789,61.724 67.7456,59.0573 72.5,57.5 Z"/></g>
<g><path style="opacity:1" fill="#fefcfb" d="M 69.5,107.5 C 81.2549,106.128 90.0882,110.461 96,120.5C 98.9127,136.767 92.0793,145.767 75.5,147.5C 59.8524,145.899 53.0191,137.232 55,121.5C 57.774,114.557 62.6073,109.89 69.5,107.5 Z"/></g>
<g><path style="opacity:1" fill="#d02101" d="M 176.5,134.5 C 196.534,133.428 211.034,141.761 220,159.5C 225.973,151.191 233.473,144.691 242.5,140C 256.372,135.439 269.372,137.106 281.5,145C 289.095,153.111 292.762,162.778 292.5,174C 291.773,188.518 287.606,202.018 280,214.5C 262.093,240.42 241.926,264.587 219.5,287C 215.328,287.868 212.162,286.368 210,282.5C 197.517,267.529 185.517,252.196 174,236.5C 162.749,220.996 154.415,203.996 149,185.5C 146.644,170.588 149.644,156.921 158,144.5C 163.175,139.177 169.342,135.843 176.5,134.5 Z"/></g>
<g><path style="opacity:1" fill="#d02101" d="M 443.5,143.5 C 458.336,141.348 471.169,145.348 482,155.5C 484.6,159.713 487.433,163.713 490.5,167.5C 495.71,159.791 502.376,153.625 510.5,149C 523.5,143.911 536.166,144.578 548.5,151C 559.813,161.718 564.313,174.885 562,190.5C 559.982,201.885 555.982,212.552 550,222.5C 532.009,249.842 511.009,274.842 487,297.5C 465.904,274.627 447.238,249.961 431,223.5C 423.911,211.068 419.745,197.734 418.5,183.5C 418.356,169.967 423.022,158.467 432.5,149C 436.017,146.674 439.683,144.84 443.5,143.5 Z"/></g>
<g><path style="opacity:1" fill="#d02202" d="M 53.5,169.5 C 57.9152,169.305 62.2486,169.805 66.5,171C 69.9646,173.463 73.1312,176.296 76,179.5C 79.5518,176.281 83.3851,173.448 87.5,171C 103.333,169.5 110.5,176.667 109,192.5C 105.783,203.371 100.45,213.038 93,221.5C 87.8472,227.62 82.3472,233.453 76.5,239C 75.1667,239.667 73.8333,239.667 72.5,239C 59.8884,226.046 50.055,211.213 43,194.5C 40.6492,183.445 44.1492,175.112 53.5,169.5 Z"/></g>
<g><path style="opacity:1" fill="#d02101" d="M 306.5,294.5 C 326.56,293.526 341.227,301.859 350.5,319.5C 354.324,315.507 357.991,311.34 361.5,307C 375.76,296.439 391.093,294.772 407.5,302C 415.468,307.427 420.302,314.927 422,324.5C 423.889,341.279 420.555,356.945 412,371.5C 394.193,399.323 373.36,424.823 349.5,448C 348.167,448.667 346.833,448.667 345.5,448C 324.304,425.142 305.804,400.309 290,373.5C 280.953,357.977 277.619,341.31 280,323.5C 283.514,308.825 292.348,299.158 306.5,294.5 Z"/></g>
<g><path style="opacity:1" fill="#d02101" d="M 163.5,447.5 C 178.884,445.35 192.05,449.684 203,460.5C 205.422,464.344 208.089,468.01 211,471.5C 217.363,462.467 225.529,455.634 235.5,451C 247.859,448.007 259.526,449.673 270.5,456C 279.007,464.51 283.007,474.844 282.5,487C 282.172,501.652 278.006,515.152 270,527.5C 251.825,554.477 230.825,579.144 207,601.5C 186.029,578.535 167.362,553.869 151,527.5C 143.798,514.897 139.632,501.397 138.5,487C 138.535,474.215 142.868,463.215 151.5,454C 155.434,451.536 159.434,449.369 163.5,447.5 Z"/></g>
<g><path style="opacity:1" fill="#d02101" d="M 434.5,455.5 C 448.392,453.632 460.559,457.299 471,466.5C 474.333,471.167 477.667,475.833 481,480.5C 494.324,458.725 512.824,452.559 536.5,462C 547.4,469.8 552.733,480.467 552.5,494C 552.316,508.208 548.483,521.375 541,533.5C 522.974,561.507 501.641,586.841 477,609.5C 453.917,585.324 434.25,558.658 418,529.5C 408.81,511.825 407.143,493.492 413,474.5C 417.585,465.073 424.751,458.739 434.5,455.5 Z"/></g>
<g><path style="opacity:1" fill="#d02101" d="M 339.5,610.5 C 343.273,609.822 346.106,611.156 348,614.5C 366.62,635.745 383.287,658.411 398,682.5C 410.166,701.165 413.166,721.165 407,742.5C 403.833,752.333 397.333,758.833 387.5,762C 371.035,766.287 357.201,762.121 346,749.5C 343.667,745.833 341.333,742.167 339,738.5C 333.93,745.183 328.097,751.016 321.5,756C 307.253,763.594 293.253,763.26 279.5,755C 272.275,748.049 268.108,739.549 267,729.5C 265.842,714.459 269.175,700.459 277,687.5C 285.018,674.13 294.018,661.464 304,649.5C 315.671,636.33 327.504,623.33 339.5,610.5 Z"/></g>
<g><path style="opacity:1" fill="#d02101" d="M 200.5,762.5 C 203.785,762.269 206.285,763.603 208,766.5C 226.62,787.745 243.287,810.411 258,834.5C 268.852,851.427 272.519,869.761 269,889.5C 263.05,909.736 249.55,918.236 228.5,915C 214.871,911.431 205.037,903.265 199,890.5C 185.18,911.662 166.347,917.828 142.5,909C 132.469,901.44 127.302,891.273 127,878.5C 126.078,870.264 127.078,862.264 130,854.5C 137.594,836.925 147.594,820.925 160,806.5C 172.658,791.011 186.158,776.344 200.5,762.5 Z"/></g>
<g><path style="opacity:1" fill="#d02101" d="M 470.5,770.5 C 474.642,772.12 478.142,774.786 481,778.5C 498.045,798.258 513.378,819.258 527,841.5C 535.109,854.204 539.609,868.037 540.5,883C 538.08,918.536 520.08,930.536 486.5,919C 479.24,913.577 473.24,907.077 468.5,899.5C 457.906,915.796 442.906,922.963 423.5,921C 410.878,918.379 402.711,910.879 399,898.5C 395.005,879.146 398.338,861.146 409,844.5C 426.696,817.625 447.196,792.959 470.5,770.5 Z"/></g>
<g><path style="opacity:1" fill="#d02202" d="M 610.5,815.5 C 613.325,815.081 615.491,816.081 617,818.5C 627.94,830.711 636.607,844.378 643,859.5C 645.213,868.681 643.047,876.515 636.5,883C 632.106,885.374 627.44,886.041 622.5,885C 618.069,882.404 614.069,879.238 610.5,875.5C 604.775,882.53 597.441,885.364 588.5,884C 579.492,879.148 575.992,871.648 578,861.5C 581.87,850.758 587.536,841.091 595,832.5C 600.004,826.664 605.171,820.997 610.5,815.5 Z"/></g>
<g><path style="opacity:1" fill="#d02504" d="M 602.5,895.5 C 623.745,892.194 637.912,900.528 645,920.5C 646.276,929.12 644.609,937.12 640,944.5C 637.153,948.011 634.32,951.511 631.5,955C 641.789,967.04 643.289,980.207 636,994.5C 623.871,1007.78 610.038,1009.95 594.5,1001C 583.821,992.124 580.321,980.957 584,967.5C 585.349,963.467 587.682,960.134 591,957.5C 591.667,955.5 591.667,953.5 591,951.5C 576.489,937.872 574.823,922.872 586,906.5C 590.654,901.433 596.154,897.766 602.5,895.5 Z"/></g>
<g><path style="opacity:1" fill="#fefbfa" d="M 607.5,906.5 C 619.748,905.205 628.248,910.205 633,921.5C 634.465,937.208 627.299,945.875 611.5,947.5C 597.467,944.975 590.634,936.641 591,922.5C 593.752,914.247 599.252,908.913 607.5,906.5 Z"/></g>
<g><path style="opacity:1" fill="#fefbfb" d="M 605.5,958.5 C 622.98,957.15 631.48,965.15 631,982.5C 624.332,996.167 614.165,999.667 600.5,993C 592.174,985.954 590.341,977.454 595,967.5C 598.103,963.886 601.603,960.886 605.5,958.5 Z"/></g>
</svg>
