<?xml version="1.0" encoding="UTF-8"?>
<!DOCTYPE svg PUBLIC "-//W3C//DTD SVG 1.1//EN" "http://www.w3.org/Graphics/SVG/1.1/DTD/svg11.dtd">
<svg xmlns="http://www.w3.org/2000/svg" version="1.1" width="691px" height="1056px" style="shape-rendering:geometricPrecision; text-rendering:geometricPrecision; image-rendering:optimizeQuality; fill-rule:evenodd; clip-rule:evenodd" xmlns:xlink="http://www.w3.org/1999/xlink">
<g><path style="opacity:0.906" fill="#bdbfc1" d="M 45.5,0.5 C 245.833,1.12134 446.166,1.62134 646.5,2C 665.686,6.52403 678.519,18.024 685,36.5C 684.264,355.74 684.431,674.906 685.5,994C 683.799,1022.7 669.466,1042.03 642.5,1052C 639.833,1052.33 637.167,1052.67 634.5,1053C 437.167,1053.67 239.833,1053.67 42.5,1053C 27.9238,1049.1 16.7571,1040.6 9,1027.5C 6.21067,1022.47 4.21067,1017.13 3,1011.5C 2.00077,1002.53 1.50077,993.531 1.5,984.5C 2.61472,668.167 2.78139,351.834 2,35.5C 3.21735,26.6166 7.38401,19.4499 14.5,14C 23.7345,6.70993 34.0678,2.20993 45.5,0.5 Z"/></g>
<g><path style="opacity:1" fill="#fefefe" d="M 42.5,5.5 C 243.5,5.98485 444.5,6.48485 645.5,7C 661.811,10.6415 673.311,20.1415 680,35.5C 680.667,356.167 680.667,676.833 680,997.5C 677.215,1023.9 663.048,1040.73 637.5,1048C 438.833,1048.67 240.167,1048.67 41.5,1048C 22.3766,1040.54 10.8766,1026.71 7,1006.5C 6.83333,979 6.66667,951.5 6.5,924C 7.64238,627.166 7.80904,330.333 7,33.5C 10.3006,24.5307 16.1339,17.6973 24.5,13C 30.3281,9.78826 36.3281,7.28826 42.5,5.5 Z"/></g>
<g><path style="opacity:1" fill="#060606" d="M 45.5,57.5 C 63.4811,55.0666 75.9811,62.0666 83,78.5C 83.8703,89.8909 80.7036,100.058 73.5,109C 79.8287,113.995 84.662,120.162 88,127.5C 91.3951,148.086 83.2284,161.586 63.5,168C 43.8012,170.575 30.3012,162.741 23,144.5C 22.3081,139.109 22.6415,133.775 24,128.5C 27.3308,121.834 31.1641,115.501 35.5,109.5C 27.2113,100.017 24.0446,89.0172 26,76.5C 29.7481,67.2508 36.2481,60.9175 45.5,57.5 Z"/></g>
<g><path style="opacity:1" fill="#fafafa" d="M 49.5,66.5 C 69.7127,67.2786 76.8794,77.2786 71,96.5C 60.9194,107.622 50.2528,108.289 39,98.5C 30.6045,83.8537 34.1045,73.187 49.5,66.5 Z"/></g>
<g><path style="opacity:1" fill="#fafafa" d="M 48.5,114.5 C 62.7881,112.194 72.9548,117.527 79,130.5C 80.2478,150.586 70.7478,160.086 50.5,159C 35.1756,154.177 29.3423,144.01 33,128.5C 36.4922,121.834 41.6589,117.168 48.5,114.5 Z"/></g>
<g><path style="opacity:1" fill="#010101" d="M 471.5,123.5 C 490.314,147.097 509.147,170.764 528,194.5C 540.117,209.97 542.783,226.97 536,245.5C 530.048,256.904 520.548,262.904 507.5,263.5C 499.057,262.861 492.223,259.195 487,252.5C 484.027,248.026 480.86,243.693 477.5,239.5C 476.268,246.523 476.434,253.523 478,260.5C 480.809,269.092 483.309,277.759 485.5,286.5C 475.788,286.786 466.121,286.286 456.5,285C 462.079,272.592 465.413,259.592 466.5,246C 466.609,243.3 466.109,240.8 465,238.5C 461.02,245.624 456.186,252.124 450.5,258C 434.745,266.851 420.912,264.351 409,250.5C 403.768,239.757 402.101,228.424 404,216.5C 404.758,212.315 406.091,208.315 408,204.5C 428.298,176.716 449.465,149.716 471.5,123.5 Z"/></g>
<g><path style="opacity:1" fill="#020202" d="M 208.5,124.5 C 210.371,124.859 211.871,125.859 213,127.5C 232.333,152.167 251.667,176.833 271,201.5C 277.208,213.427 279.208,226.094 277,239.5C 271.387,257.437 259.22,265.27 240.5,263C 236.888,261.861 233.554,260.194 230.5,258C 225.263,252.6 220.597,246.766 216.5,240.5C 215.808,241.025 215.308,241.692 215,242.5C 214.333,246.5 214.333,250.5 215,254.5C 217.785,265.143 220.951,275.643 224.5,286C 214.839,286.5 205.172,286.666 195.5,286.5C 199.155,276.063 201.988,265.396 204,254.5C 206.283,236.876 203.616,235.543 196,250.5C 184.828,264.429 171.328,267.262 155.5,259C 145.282,250.722 140.282,239.889 140.5,226.5C 140.585,216.079 143.751,206.745 150,198.5C 169.364,173.646 188.864,148.98 208.5,124.5 Z"/></g>
<g><path style="opacity:1" fill="#030303" d="M 56.5,178.5 C 67.502,190.124 77.3354,202.791 86,216.5C 86.6667,220.5 86.6667,224.5 86,228.5C 84.8602,233.64 81.6935,236.807 76.5,238C 74.5,238.667 72.5,238.667 70.5,238C 66.7424,236.077 63.4091,233.577 60.5,230.5C 60.1667,231 59.8333,231.5 59.5,232C 60.9178,237.094 61.9178,242.261 62.5,247.5C 59.2234,247.216 56.0567,247.549 53,248.5C 53.6667,242.5 54.3333,236.5 55,230.5C 50.9656,234.601 46.1323,237.267 40.5,238.5C 34.3355,237.835 30.5022,234.501 29,228.5C 27.9091,222.903 28.5758,217.57 31,212.5C 39.2657,200.958 47.7657,189.625 56.5,178.5 Z"/></g>
<g><path style="opacity:1" fill="#010101" d="M 341.5,282.5 C 360.705,308.552 380.538,334.219 401,359.5C 411.162,375.6 412.162,392.267 404,409.5C 396.055,420.602 385.221,425.102 371.5,423C 365.876,421.044 361.043,417.877 357,413.5C 354,409.167 351,404.833 348,400.5C 346.386,405.99 346.053,411.657 347,417.5C 349.213,427.019 352.046,436.352 355.5,445.5C 345.833,446.833 336.167,446.833 326.5,445.5C 333.322,431.214 335.822,416.214 334,400.5C 329.786,408.101 324.286,414.601 317.5,420C 293.782,428.221 278.949,420.054 273,395.5C 271.108,383.288 273.441,371.955 280,361.5C 300.333,335.005 320.833,308.671 341.5,282.5 Z"/></g>
<g><path style="opacity:1" fill="#010101" d="M 224.5,606.5 C 220.366,607.485 216.032,607.818 211.5,607.5C 206.5,607.5 201.5,607.5 196.5,607.5C 198.992,598.87 201.492,590.204 204,581.5C 205.378,574.882 205.711,568.215 205,561.5C 203.853,560.542 202.853,560.875 202,562.5C 191.22,584.983 175.054,590.15 153.5,578C 146.899,571.965 143.065,564.465 142,555.5C 140.057,542.198 143.057,530.198 151,519.5C 170.363,494.097 190.196,469.097 210.5,444.5C 229.477,468.644 248.643,492.644 268,516.5C 279.241,532.194 281.574,549.194 275,567.5C 267.443,580.817 255.943,586.317 240.5,584C 230.695,579.361 223.361,572.195 218.5,562.5C 217.833,561.167 217.167,561.167 216.5,562.5C 215.39,567.111 215.223,571.778 216,576.5C 218.837,586.518 221.671,596.518 224.5,606.5 Z"/></g>
<g><path style="opacity:1" fill="#010101" d="M 471.5,444.5 C 491.849,468.69 511.682,493.356 531,518.5C 540.787,534.415 542.12,551.082 535,568.5C 527.923,580.455 517.423,585.622 503.5,584C 496.297,581.803 490.463,577.636 486,571.5C 476.865,555.351 474.199,557.017 478,576.5C 480.331,586.99 483.165,597.324 486.5,607.5C 476.833,607.5 467.167,607.5 457.5,607.5C 461.383,596.02 464.549,584.354 467,572.5C 467.667,568.167 467.667,563.833 467,559.5C 462.231,564.268 458.231,569.601 455,575.5C 438.655,588.565 423.655,587.232 410,571.5C 400.785,553.289 401.785,535.622 413,518.5C 432.394,493.622 451.894,468.955 471.5,444.5 Z"/></g>
<g><path style="opacity:1" fill="#010101" d="M 327.5,605.5 C 336.82,606.129 346.154,606.462 355.5,606.5C 352.707,614.714 350.207,623.048 348,631.5C 346.434,638.477 346.268,645.477 347.5,652.5C 350.828,648.331 353.995,643.997 357,639.5C 372.579,624.72 387.912,625.053 403,640.5C 410.105,653.872 411.439,667.872 407,682.5C 405.254,686.327 403.254,689.993 401,693.5C 381.574,718.682 361.908,743.682 342,768.5C 322.621,745.457 303.621,722.123 285,698.5C 273.31,683.05 270.31,666.05 276,647.5C 285.689,629.714 299.856,624.881 318.5,633C 325.096,638.433 330.429,644.933 334.5,652.5C 336.484,647.7 336.984,642.7 336,637.5C 333.469,626.742 330.636,616.075 327.5,605.5 Z"/></g>
<g><path style="opacity:1" fill="#b6b6b6" d="M 224.5,606.5 C 225.043,606.56 225.376,606.893 225.5,607.5C 220.682,608.812 216.015,608.812 211.5,607.5C 216.032,607.818 220.366,607.485 224.5,606.5 Z"/></g>
<g><path style="opacity:1" fill="#010101" d="M 203.5,811.5 C 203.56,812.043 203.893,812.376 204.5,812.5C 205.814,807.348 205.814,802.348 204.5,797.5C 204.543,794.09 204.043,790.757 203,787.5C 200.924,780.44 198.757,773.44 196.5,766.5C 206.19,766.168 215.856,766.502 225.5,767.5C 218.013,781.759 215.513,796.759 218,812.5C 222.214,804.899 227.714,798.399 234.5,793C 248.815,786.416 261.315,788.916 272,800.5C 282.24,818.286 281.906,835.953 271,853.5C 251.063,879.055 230.896,904.388 210.5,929.5C 188.76,902.595 167.593,875.262 147,847.5C 141.958,834.695 141.291,821.695 145,808.5C 157.109,787.684 173.109,784.017 193,797.5C 196.332,802.327 199.832,806.993 203.5,811.5 Z"/></g>
<g><path style="opacity:1" fill="#010101" d="M 479.5,765.5 C 481.924,765.192 484.257,765.526 486.5,766.5C 479.822,780.866 477.488,795.866 479.5,811.5C 483.653,803.703 489.32,797.203 496.5,792C 515.108,785.385 528.942,790.885 538,808.5C 542.089,822.241 541.089,835.575 535,848.5C 515.484,874.861 495.484,900.861 475,926.5C 473.612,927.554 472.112,927.72 470.5,927C 450.953,903.121 431.786,878.955 413,854.5C 404.982,842.299 402.315,828.966 405,814.5C 412.655,790.922 427.821,784.088 450.5,794C 456.497,798.824 461.163,804.657 464.5,811.5C 465.325,812.386 466.325,812.719 467.5,812.5C 467.168,796.839 463.835,781.839 457.5,767.5C 464.989,766.833 472.322,766.167 479.5,765.5 Z"/></g>
<g><path style="opacity:1" fill="#9a9a9a" d="M 204.5,797.5 C 205.814,802.348 205.814,807.348 204.5,812.5C 203.893,812.376 203.56,812.043 203.5,811.5C 204.486,807.03 204.819,802.363 204.5,797.5 Z"/></g>
<g><path style="opacity:1" fill="#8e8e8e" d="M 626.5,808.5 C 625.486,807.235 623.986,806.569 622,806.5C 620.014,806.569 618.514,807.235 617.5,808.5C 616.596,807.791 616.263,806.791 616.5,805.5C 620.167,805.5 623.833,805.5 627.5,805.5C 627.737,806.791 627.404,807.791 626.5,808.5 Z"/></g>
<g><path style="opacity:1" fill="#030303" d="M 626.5,808.5 C 625.58,812.102 624.913,815.769 624.5,819.5C 625.277,825.962 626.777,825.962 629,819.5C 635.586,814.029 641.919,814.362 648,820.5C 652.667,827.5 652.667,834.5 648,841.5C 639.818,853.193 631.152,864.527 622,875.5C 611.69,863.545 602.357,850.878 594,837.5C 593.104,832.051 593.437,826.718 595,821.5C 598.194,816.487 602.694,814.654 608.5,816C 612.345,817.42 615.678,819.587 618.5,822.5C 618.833,821.667 619.167,820.833 619.5,820C 618.638,816.189 617.971,812.356 617.5,808.5C 618.514,807.235 620.014,806.569 622,806.5C 623.986,806.569 625.486,807.235 626.5,808.5 Z"/></g>
<g><path style="opacity:1" fill="#090909" d="M 615.5,884.5 C 635.847,881.581 649.68,889.581 657,908.5C 658.304,917.58 656.304,925.913 651,933.5C 648.428,936.403 646.261,939.569 644.5,943C 648.313,948.791 651.479,954.958 654,961.5C 654.729,985.103 643.229,996.269 619.5,995C 601.727,989.626 594.561,977.792 598,959.5C 600.107,954.119 602.607,948.952 605.5,944C 602.347,940.178 599.18,936.345 596,932.5C 586.195,909.786 592.695,893.786 615.5,884.5 Z"/></g>
<g><path style="opacity:1" fill="#fcfcfc" d="M 618.5,893.5 C 638.509,892.344 648.009,901.677 647,921.5C 641.916,934.578 632.416,940.078 618.5,938C 602.433,931.821 597.6,920.654 604,904.5C 607.857,899.468 612.69,895.801 618.5,893.5 Z"/></g>
<g><path style="opacity:1" fill="#fbfbfb" d="M 619.5,947.5 C 636.98,946.15 645.48,954.15 645,971.5C 638.107,985.52 627.607,989.02 613.5,982C 602.526,968.184 604.526,956.684 619.5,947.5 Z"/></g>
</svg>
