<?xml version="1.0" encoding="UTF-8"?>
<!DOCTYPE svg PUBLIC "-//W3C//DTD SVG 1.1//EN" "http://www.w3.org/Graphics/SVG/1.1/DTD/svg11.dtd">
<svg xmlns="http://www.w3.org/2000/svg" version="1.1" width="691px" height="1056px" style="shape-rendering:geometricPrecision; text-rendering:geometricPrecision; image-rendering:optimizeQuality; fill-rule:evenodd; clip-rule:evenodd" xmlns:xlink="http://www.w3.org/1999/xlink">
<g><path style="opacity:0.906" fill="#bdbfc1" d="M 45.5,0.5 C 245.833,1.12134 446.166,1.62134 646.5,2C 665.686,6.52403 678.519,18.024 685,36.5C 684.264,355.74 684.431,674.906 685.5,994C 683.799,1022.7 669.466,1042.03 642.5,1052C 639.833,1052.33 637.167,1052.67 634.5,1053C 437.167,1053.67 239.833,1053.67 42.5,1053C 27.9238,1049.1 16.7571,1040.6 9,1027.5C 6.21067,1022.47 4.21067,1017.13 3,1011.5C 2.00077,1002.53 1.50077,993.531 1.5,984.5C 2.61472,668.167 2.78139,351.834 2,35.5C 3.21735,26.6166 7.38401,19.4499 14.5,14C 23.7345,6.70993 34.0678,2.20993 45.5,0.5 Z"/></g>
<g><path style="opacity:1" fill="#fefefe" d="M 42.5,5.5 C 243.5,5.98485 444.5,6.48485 645.5,7C 661.811,10.6415 673.311,20.1415 680,35.5C 680.667,356.167 680.667,676.833 680,997.5C 677.433,1024.07 663.267,1040.9 637.5,1048C 438.833,1048.67 240.167,1048.67 41.5,1048C 22.3766,1040.54 10.8766,1026.71 7,1006.5C 6.83333,979 6.66667,951.5 6.5,924C 7.64238,627.166 7.80904,330.333 7,33.5C 10.3006,24.5307 16.1339,17.6973 24.5,13C 30.3281,9.78826 36.3281,7.28826 42.5,5.5 Z"/></g>
<g><path style="opacity:1" fill="#212117" d="M 64.5,57.5 C 82.8114,57.6311 94.3114,66.6311 99,84.5C 105.675,108.212 103.008,130.879 91,152.5C 75.5212,169.497 59.5212,169.83 43,153.5C 41.0924,150.794 40.259,147.794 40.5,144.5C 42.5996,144.523 44.4329,143.856 46,142.5C 49.4702,146.299 53.3035,149.799 57.5,153C 67.5775,156.632 76.0775,154.465 83,146.5C 89.1026,137.423 91.7693,127.423 91,116.5C 79.1531,129.302 65.9865,130.802 51.5,121C 40.9681,110.796 36.8014,98.296 39,83.5C 43.0519,70.2829 51.5519,61.6162 64.5,57.5 Z"/></g>
<g><path style="opacity:1" fill="#fcfcfb" d="M 63.5,67.5 C 77.1891,66.6709 85.6891,73.0043 89,86.5C 90.4075,97.2786 87.2408,106.445 79.5,114C 69.0892,119.915 60.2558,118.082 53,108.5C 44.1825,91.4819 47.6825,77.8152 63.5,67.5 Z"/></g>
<g><path style="opacity:1" fill="#1c1d13" d="M 193.5,252.5 C 192.5,249.833 191.5,249.833 190.5,252.5C 186.854,260.28 181.854,267.113 175.5,273C 160.358,281.53 146.524,279.697 134,267.5C 120.774,251.036 120.108,234.036 132,216.5C 144.728,203.403 159.228,201.07 175.5,209.5C 177.101,208.965 177.601,207.965 177,206.5C 161.791,193.542 157.124,177.542 163,158.5C 173.709,142.908 188.542,136.741 207.5,140C 229.018,145.24 238.518,158.74 236,180.5C 233.08,191.503 227.247,200.669 218.5,208C 227.742,206.463 237.075,205.796 246.5,206C 256.129,207.885 263.295,213.052 268,221.5C 276.384,241.357 272.551,258.524 256.5,273C 239.924,282.343 225.424,279.843 213,265.5C 210.252,260.334 207.252,255.334 204,250.5C 203.058,257.982 203.725,265.315 206,272.5C 209.445,282.839 213.279,293.005 217.5,303C 204.834,302.223 192.167,302.39 179.5,303.5C 180.453,297.914 182.286,292.581 185,287.5C 189.256,276.142 192.09,264.476 193.5,252.5 Z"/></g>
<g><path style="opacity:1" fill="#1d1d13" d="M 482.5,139.5 C 499.43,137.889 513.263,143.556 524,156.5C 531.219,176.295 526.886,192.962 511,206.5C 510.517,207.448 510.351,208.448 510.5,209.5C 514.525,208.694 518.525,207.528 522.5,206C 547.76,203.918 561.426,215.585 563.5,241C 562.941,254.358 557.608,265.358 547.5,274C 523.752,284.63 507.085,277.796 497.5,253.5C 496.675,252.614 495.675,252.281 494.5,252.5C 494.334,257.179 494.501,261.845 495,266.5C 499.214,279.103 503.547,291.437 508,303.5C 507.275,304.059 506.442,304.392 505.5,304.5C 493.822,301.898 482.155,301.898 470.5,304.5C 472.826,291.865 476.992,279.865 483,268.5C 484.778,262.721 484.778,257.054 483,251.5C 480.18,257.137 476.847,262.47 473,267.5C 460.197,279.909 446.03,281.742 430.5,273C 416.296,260.346 412.129,244.846 418,226.5C 429.353,205.162 446.019,199.828 468,210.5C 468.5,210.167 469,209.833 469.5,209.5C 460.524,201.352 454.691,191.352 452,179.5C 450.605,157.391 460.771,144.058 482.5,139.5 Z"/></g>
<g><path style="opacity:1" fill="#1e1e14" d="M 65.5,177.5 C 85.7463,178.659 90.7463,187.992 80.5,205.5C 98.1065,206.27 103.94,214.937 98,231.5C 89.0984,239.934 80.7651,239.267 73,229.5C 72.1234,234.544 73.1234,239.211 76,243.5C 76.6667,244.833 76.6667,246.167 76,247.5C 71.6251,247.758 67.1251,247.758 62.5,247.5C 63.1978,242.042 64.5312,236.709 66.5,231.5C 66.1667,230.833 65.8333,230.167 65.5,229.5C 62.9783,231.856 60.3116,234.023 57.5,236C 44.8651,238.827 38.1985,233.66 37.5,220.5C 37.4702,215.025 39.8035,210.859 44.5,208C 48.7963,207.036 53.1296,206.203 57.5,205.5C 48.7485,192.713 51.4152,183.379 65.5,177.5 Z"/></g>
<g><path style="opacity:1" fill="#dabb66" d="M 193.5,252.5 C 192.5,252.5 191.5,252.5 190.5,252.5C 191.5,249.833 192.5,249.833 193.5,252.5 Z"/></g>
<g><path style="opacity:1" fill="#1c1c13" d="M 204.5,449.5 C 204.44,448.957 204.107,448.624 203.5,448.5C 202.194,451.98 202.194,455.313 203.5,458.5C 205.323,469.8 208.823,480.467 214,490.5C 214.953,493.432 215.453,496.432 215.5,499.5C 203.261,498.545 191.094,498.212 179,498.5C 178.333,497.167 178.333,495.833 179,494.5C 184.55,483.635 188.883,472.302 192,460.5C 193.004,455.853 192.338,451.519 190,447.5C 186.529,455.617 181.695,462.783 175.5,469C 154.102,479.699 137.936,474.532 127,453.5C 118.43,430.909 124.597,413.743 145.5,402C 148.764,401.061 152.097,400.561 155.5,400.5C 162.89,401.686 170.224,402.853 177.5,404C 168.785,396.282 162.952,386.782 160,375.5C 158.879,349.454 171.379,336.12 197.5,335.5C 227.054,336.915 239.221,352.248 234,381.5C 230.149,389.511 225.316,396.844 219.5,403.5C 221.523,404.041 223.523,403.541 225.5,402C 248.782,396.505 263.949,405.005 271,427.5C 274.137,448.165 266.637,463.331 248.5,473C 240.003,475.25 231.669,474.917 223.5,472C 215.113,466.123 208.78,458.623 204.5,449.5 Z"/></g>
<g><path style="opacity:1" fill="#1c1d13" d="M 481.5,335.5 C 493.14,334.933 504.14,337.433 514.5,343C 528.045,357.12 530.211,372.953 521,390.5C 518.358,394.775 515.025,398.442 511,401.5C 510.51,402.793 510.343,404.127 510.5,405.5C 535.322,395.165 552.488,402.498 562,427.5C 564.85,445.616 559.017,460.116 544.5,471C 527.441,478.643 513.274,475.143 502,460.5C 499.268,456.759 496.934,452.759 495,448.5C 494.268,464.24 497.935,478.907 506,492.5C 507.119,495.057 507.285,497.557 506.5,500C 494.267,499.519 482.1,499.352 470,499.5C 469.833,498.667 469.667,497.833 469.5,497C 476.153,483.686 480.82,469.686 483.5,455C 483.477,452.075 482.977,449.241 482,446.5C 477.319,459.849 468.485,469.349 455.5,475C 432.549,476.057 419.049,465.224 415,442.5C 413.679,429.285 417.512,417.785 426.5,408C 430.453,405.19 434.787,403.19 439.5,402C 449.231,402.015 458.898,402.682 468.5,404C 456.076,393.628 450.242,380.461 451,364.5C 454.864,348.134 465.031,338.468 481.5,335.5 Z"/></g>
<g><path style="opacity:1" fill="#1d1d13" d="M 336.5,571.5 C 337.808,567.981 337.808,564.315 336.5,560.5C 335.893,560.624 335.56,560.957 335.5,561.5C 330.039,574.13 320.706,582.297 307.5,586C 282.893,585.229 269.893,572.395 268.5,547.5C 273.515,515.523 291.182,505.523 321.5,517.5C 321.833,517.167 322.167,516.833 322.5,516.5C 317.423,510.924 312.923,504.924 309,498.5C 304.883,491.331 303.55,483.664 305,475.5C 306.466,470.768 308.133,466.102 310,461.5C 328.102,444.226 347.935,442.059 369.5,455C 379.396,464.353 382.896,475.853 380,489.5C 379.261,493.385 377.927,497.052 376,500.5C 372.398,505.938 368.232,510.938 363.5,515.5C 364.167,515.833 364.833,516.167 365.5,516.5C 389.399,506.848 406.232,513.848 416,537.5C 418.535,551.544 415.535,564.211 407,575.5C 389.292,591.128 372.626,590.128 357,572.5C 348.521,554.732 345.855,555.732 349,575.5C 352.919,587.653 357.086,599.653 361.5,611.5C 354.973,611.131 348.473,610.464 342,609.5C 336.203,610.386 330.369,610.72 324.5,610.5C 328.733,597.667 332.733,584.667 336.5,571.5 Z"/></g>
<g><path style="opacity:1" fill="#959590" d="M 204.5,449.5 C 203.523,452.287 203.19,455.287 203.5,458.5C 202.194,455.313 202.194,451.98 203.5,448.5C 204.107,448.624 204.44,448.957 204.5,449.5 Z"/></g>
<g><path style="opacity:1" fill="#1c1c13" d="M 179.5,558.5 C 191.819,559.177 204.153,559.677 216.5,560C 211.651,569.867 207.485,580.034 204,590.5C 202.504,597.099 202.171,603.766 203,610.5C 204,609.5 205,608.5 206,607.5C 210.136,591.866 220.303,583.866 236.5,583.5C 254.143,584.968 265.309,594.302 270,611.5C 272.817,626.051 269.317,638.884 259.5,650C 249.787,656.239 239.12,658.239 227.5,656C 223.983,654.266 220.316,653.599 216.5,654C 223.08,660.011 228.58,666.844 233,674.5C 239.28,699.358 230.113,715.191 205.5,722C 185.193,725.428 170.026,718.261 160,700.5C 156.898,689.212 158.232,678.545 164,668.5C 167.5,664.167 171,659.833 174.5,655.5C 171.167,654.985 167.834,655.485 164.5,657C 141.749,659.568 127.916,649.735 123,627.5C 121.28,606.422 130.113,591.922 149.5,584C 168.498,582.48 181.498,590.646 188.5,608.5C 189.328,609.415 190.328,610.081 191.5,610.5C 192.66,606.541 192.827,602.541 192,598.5C 186.967,586.21 182.467,573.71 178.5,561C 178.743,560.098 179.077,559.265 179.5,558.5 Z"/></g>
<g><path style="opacity:1" fill="#1c1c13" d="M 469.5,560.5 C 471.265,559.539 473.265,559.205 475.5,559.5C 486.249,559.37 496.916,559.37 507.5,559.5C 503.373,569.048 499.54,578.714 496,588.5C 493.763,595.661 492.596,602.994 492.5,610.5C 493.822,610.67 494.989,610.337 496,609.5C 506.243,585.449 523.077,578.949 546.5,590C 562.363,604.585 565.863,621.752 557,641.5C 551.85,650.637 544.017,655.803 533.5,657C 526.409,658.281 519.742,657.281 513.5,654C 511.741,653.202 510.074,653.369 508.5,654.5C 516,661.495 521.5,669.829 525,679.5C 528.365,702.637 518.865,717.137 496.5,723C 475.466,726.901 460.299,719.401 451,700.5C 447.433,688.068 449.433,676.735 457,666.5C 460.465,662.033 464.298,657.867 468.5,654C 461.585,655.238 454.585,656.404 447.5,657.5C 429.156,656.995 418.323,647.662 415,629.5C 412.206,609.922 419.373,595.422 436.5,586C 457.668,581.336 472.168,589.169 480,609.5C 481,610.833 482,610.833 483,609.5C 483.638,603.374 482.971,597.374 481,591.5C 477.453,581.022 473.62,570.689 469.5,560.5 Z"/></g>
<g><path style="opacity:1" fill="#a0a09c" d="M 475.5,559.5 C 473.265,559.205 471.265,559.539 469.5,560.5C 468.957,560.44 468.624,560.107 468.5,559.5C 470.973,558.203 473.307,558.203 475.5,559.5 Z"/></g>
<g><path style="opacity:1" fill="#7d7d77" d="M 335.5,561.5 C 335.56,560.957 335.893,560.624 336.5,560.5C 337.808,564.315 337.808,567.981 336.5,571.5C 336.813,567.958 336.479,564.625 335.5,561.5 Z"/></g>
<g><path style="opacity:1" fill="#1d1d13" d="M 201.5,797.5 C 200.523,800.287 200.19,803.287 200.5,806.5C 201.791,806.737 202.791,806.404 203.5,805.5C 208.249,793.918 216.249,785.418 227.5,780C 246.483,777.412 259.983,784.912 268,802.5C 274.21,822.202 269.043,838.035 252.5,850C 240.882,854.919 229.549,854.419 218.5,848.5C 217.417,849.365 217.251,850.365 218,851.5C 230.978,862.764 235.978,876.764 233,893.5C 226.62,910.533 214.287,918.866 196,918.5C 169.337,917.17 156.67,903.17 158,876.5C 161.83,866.167 167.663,857.167 175.5,849.5C 174.833,849.167 174.167,848.833 173.5,848.5C 150.928,858.957 134.428,852.957 124,830.5C 118.987,812.538 123.487,797.371 137.5,785C 154.419,775.633 169.252,778.133 182,792.5C 184.094,797.702 186.928,802.369 190.5,806.5C 191.659,802.878 191.825,799.211 191,795.5C 187.796,781.722 183.296,768.389 177.5,755.5C 189.815,754.501 202.149,754.168 214.5,754.5C 211.3,764.575 207.8,774.575 204,784.5C 203.026,788.825 202.193,793.158 201.5,797.5 Z"/></g>
<g><path style="opacity:1" fill="#1c1c13" d="M 469.5,754.5 C 481.816,755.204 494.15,755.704 506.5,756C 501.014,768.124 496.514,780.624 493,793.5C 492.333,798.167 492.333,802.833 493,807.5C 497.13,800.739 501.63,794.239 506.5,788C 519.819,777.044 533.486,776.711 547.5,787C 563.135,802.525 565.635,820.025 555,839.5C 543.567,853.863 529.401,857.363 512.5,850C 510.833,849.333 509.167,849.333 507.5,850C 514.597,857.096 520.097,865.262 524,874.5C 527.806,899.667 517.306,914.5 492.5,919C 474.825,921.246 461.325,914.746 452,899.5C 447.105,888.616 447.439,877.95 453,867.5C 457.122,861.709 461.622,856.209 466.5,851C 459.956,852.27 453.289,853.104 446.5,853.5C 435.837,853.917 427.337,849.917 421,841.5C 412.263,827.445 411.263,812.778 418,797.5C 428.746,781.376 443.246,776.543 461.5,783C 465.633,786.131 469.466,789.631 473,793.5C 475.349,798.212 478.183,802.545 481.5,806.5C 482.502,792.02 479.002,778.687 471,766.5C 470.899,763.079 470.066,759.912 468.5,757C 468.743,756.098 469.077,755.265 469.5,754.5 Z"/></g>
<g><path style="opacity:1" fill="#969692" d="M 201.5,797.5 C 200.964,800.698 201.631,803.365 203.5,805.5C 202.791,806.404 201.791,806.737 200.5,806.5C 200.19,803.287 200.523,800.287 201.5,797.5 Z"/></g>
<g><path style="opacity:1" fill="#1e1e14" d="M 611.5,806.5 C 616.214,806.173 620.88,806.507 625.5,807.5C 622.23,813.894 620.896,820.56 621.5,827.5C 623.209,824.278 625.542,821.444 628.5,819C 637.518,815.561 644.351,818.061 649,826.5C 651.984,841.534 645.817,848.867 630.5,848.5C 630.841,851.516 632.007,854.182 634,856.5C 635.982,869.35 630.482,876.017 617.5,876.5C 605.071,874.886 600.238,867.886 603,855.5C 604.879,853.473 606.046,851.14 606.5,848.5C 592.069,849.569 585.569,842.902 587,828.5C 594.849,813.859 604.182,812.859 615,825.5C 615.667,823.167 615.667,820.833 615,818.5C 613.119,814.693 611.953,810.693 611.5,806.5 Z"/></g>
<g><path style="opacity:1" fill="#202017" d="M 612.5,889.5 C 627.267,888.049 638.267,893.716 645.5,906.5C 643.47,910.374 640.47,911.374 636.5,909.5C 628.999,899.941 619.666,897.441 608.5,902C 598.226,911.062 593.226,922.562 593.5,936.5C 598.667,933.535 604,930.701 609.5,928C 628.903,925.964 641.07,934.464 646,953.5C 648.428,969.232 643.595,982.065 631.5,992C 612.934,1000.63 599.101,995.798 590,977.5C 582.139,956.781 581.473,935.781 588,914.5C 592.378,902.29 600.544,893.957 612.5,889.5 Z"/></g>
<g><path style="opacity:1" fill="#fcfcfc" d="M 610.5,937.5 C 627.17,936.996 636.17,945.163 637.5,962C 636.195,978.985 627.195,986.985 610.5,986C 597.574,977.851 593.407,966.351 598,951.5C 600.636,945.369 604.803,940.703 610.5,937.5 Z"/></g>
</svg>
