<?xml version="1.0" encoding="UTF-8"?>
<!DOCTYPE svg PUBLIC "-//W3C//DTD SVG 1.1//EN" "http://www.w3.org/Graphics/SVG/1.1/DTD/svg11.dtd">
<svg xmlns="http://www.w3.org/2000/svg" version="1.1" width="691px" height="1056px" style="shape-rendering:geometricPrecision; text-rendering:geometricPrecision; image-rendering:optimizeQuality; fill-rule:evenodd; clip-rule:evenodd" xmlns:xlink="http://www.w3.org/1999/xlink">
<g><path style="opacity:0.906" fill="#bdbfc1" d="M 45.5,0.5 C 245.833,1.12134 446.166,1.62134 646.5,2C 665.686,6.52403 678.519,18.024 685,36.5C 684.264,355.74 684.431,674.906 685.5,994C 683.799,1022.7 669.466,1042.03 642.5,1052C 639.833,1052.33 637.167,1052.67 634.5,1053C 437.167,1053.67 239.833,1053.67 42.5,1053C 27.9238,1049.1 16.7571,1040.6 9,1027.5C 6.21067,1022.47 4.21067,1017.13 3,1011.5C 2.00077,1002.53 1.50077,993.531 1.5,984.5C 2.61472,668.167 2.78139,351.834 2,35.5C 3.21735,26.6166 7.38401,19.4499 14.5,14C 23.7345,6.70993 34.0678,2.20993 45.5,0.5 Z"/></g>
<g><path style="opacity:1" fill="#fefefe" d="M 42.5,5.5 C 243.5,5.98485 444.5,6.48485 645.5,7C 661.811,10.6415 673.311,20.1415 680,35.5C 680.667,356.167 680.667,676.833 680,997.5C 677.433,1024.07 663.267,1040.9 637.5,1048C 438.833,1048.67 240.167,1048.67 41.5,1048C 22.3766,1040.54 10.8766,1026.71 7,1006.5C 6.83333,979 6.66667,951.5 6.5,924C 7.64238,627.166 7.80904,330.333 7,33.5C 10.3006,24.5307 16.1339,17.6973 24.5,13C 30.3281,9.78826 36.3281,7.28826 42.5,5.5 Z"/></g>
<g><path style="opacity:1" fill="#d12606" d="M 47.5,63.5 C 61.3519,63.0545 71.8519,68.7211 79,80.5C 86.1637,97.0615 88.4971,114.395 86,132.5C 84.302,139.934 81.9687,147.267 79,154.5C 66.2457,172.98 50.4124,176.146 31.5,164C 27.5854,161.01 25.7521,157.177 26,152.5C 29.1305,149.878 32.2972,149.878 35.5,152.5C 38.2221,157.044 42.2221,159.877 47.5,161C 59.0902,161.605 67.2568,156.438 72,145.5C 74.5198,139.068 75.6864,132.401 75.5,125.5C 70.3814,128.223 65.048,130.723 59.5,133C 39.8287,134.575 27.662,125.742 23,106.5C 20.0573,91.5566 24.5573,79.3899 36.5,70C 40.2299,67.807 43.8965,65.6404 47.5,63.5 Z"/></g>
<g><path style="opacity:1" fill="#fefcfc" d="M 46.5,74.5 C 59.7648,73.0475 68.2648,78.7141 72,91.5C 74.3445,102.637 71.5112,112.137 63.5,120C 48.016,126.677 37.8493,121.843 33,105.5C 30.4575,91.9324 34.9575,81.5991 46.5,74.5 Z"/></g>
<g><path style="opacity:1" fill="#d02101" d="M 467.5,135.5 C 469.716,136.203 471.549,137.536 473,139.5C 493.954,165.723 515.621,191.39 538,216.5C 541.299,220.691 540.966,224.691 537,228.5C 516.257,254.741 496.09,281.408 476.5,308.5C 475.441,309.696 474.107,310.363 472.5,310.5C 469.932,309.441 467.765,307.774 466,305.5C 445.041,280.206 423.708,255.206 402,230.5C 400.924,228.933 400.091,227.266 399.5,225.5C 401.735,221.37 404.235,217.37 407,213.5C 427.44,187.573 447.606,161.573 467.5,135.5 Z"/></g>
<g><path style="opacity:1" fill="#d02100" d="M 199.5,143.5 C 203.61,145.078 207.11,147.744 210,151.5C 230.292,176.127 250.958,200.46 272,224.5C 274.066,228.586 273.399,232.253 270,235.5C 249.564,262.719 228.898,289.719 208,316.5C 207.275,317.059 206.442,317.392 205.5,317.5C 202.594,316.103 200.094,314.103 198,311.5C 177.356,286.192 156.022,261.526 134,237.5C 131.817,233.075 132.484,229.075 136,225.5C 157.382,198.291 178.548,170.957 199.5,143.5 Z"/></g>
<g><path style="opacity:1" fill="#d02202" d="M 55.5,187.5 C 58.2626,187.744 60.4293,189.077 62,191.5C 69.3333,200.167 76.6667,208.833 84,217.5C 84.6667,219.833 84.6667,222.167 84,224.5C 76.6153,233.55 69.6153,242.884 63,252.5C 61.6487,254.019 60.1487,255.352 58.5,256.5C 49.2051,246.366 40.0385,236.033 31,225.5C 30.245,222.697 30.5783,220.03 32,217.5C 40.0479,207.625 47.8813,197.625 55.5,187.5 Z"/></g>
<g><path style="opacity:1" fill="#d02101" d="M 471.5,336.5 C 474.959,337.436 477.793,339.436 480,342.5C 500.252,367.423 521.252,391.757 543,415.5C 546.481,420.431 546.148,425.097 542,429.5C 520.85,455.805 500.183,482.472 480,509.5C 479.275,510.059 478.442,510.392 477.5,510.5C 474.594,509.103 472.094,507.103 470,504.5C 450.57,481.314 430.904,458.314 411,435.5C 408.025,432.52 405.859,429.02 404.5,425C 406.284,421.265 408.451,417.765 411,414.5C 431.417,388.651 451.584,362.651 471.5,336.5 Z"/></g>
<g><path style="opacity:1" fill="#d02101" d="M 204.5,342.5 C 205.552,342.351 206.552,342.517 207.5,343C 230.333,369.833 253.167,396.667 276,423.5C 278.19,425.783 278.857,428.449 278,431.5C 256.603,459.549 235.269,487.549 214,515.5C 210.689,519.527 207.689,519.193 205,514.5C 183,488.5 161,462.5 139,436.5C 136.851,432.913 137.184,429.58 140,426.5C 162.13,398.885 183.63,370.885 204.5,342.5 Z"/></g>
<g><path style="opacity:1" fill="#d02101" d="M 341.5,439.5 C 344.084,441.578 346.584,443.912 349,446.5C 368.667,469.5 388.333,492.5 408,515.5C 410.793,518.453 412.96,521.787 414.5,525.5C 414.281,526.938 413.781,528.271 413,529.5C 391.349,556.807 370.182,584.473 349.5,612.5C 345.474,614.326 342.307,613.326 340,609.5C 319.041,584.206 297.708,559.206 276,534.5C 274.692,532.866 273.858,531.032 273.5,529C 274.13,525.704 275.63,522.87 278,520.5C 299.175,493.47 320.342,466.47 341.5,439.5 Z"/></g>
<g><path style="opacity:1" fill="#d02101" d="M 476.5,536.5 C 479.372,537.526 481.872,539.192 484,541.5C 504.292,566.127 524.958,590.46 546,614.5C 547.733,616.723 549.233,619.056 550.5,621.5C 550.281,622.938 549.781,624.271 549,625.5C 528,653.167 507,680.833 486,708.5C 485.196,709.804 484.029,710.471 482.5,710.5C 478.921,708.429 475.754,705.762 473,702.5C 469.108,696.6 464.441,691.267 459,686.5C 443.042,666.873 426.709,647.54 410,628.5C 409.333,626.5 409.333,624.5 410,622.5C 432.417,593.984 454.584,565.317 476.5,536.5 Z"/></g>
<g><path style="opacity:1" fill="#d02101" d="M 208.5,543.5 C 210.288,543.215 211.955,543.548 213.5,544.5C 234.859,570.538 256.692,596.205 279,621.5C 280.914,623.748 282.414,626.248 283.5,629C 262.732,657.439 241.565,685.606 220,713.5C 218.281,715.557 216.281,717.224 214,718.5C 191.345,692.84 169.012,666.84 147,640.5C 142.799,635.422 142.466,630.089 146,624.5C 167.81,598.192 188.644,571.192 208.5,543.5 Z"/></g>
<g><path style="opacity:1" fill="#d02101" d="M 480.5,737.5 C 485.775,738.247 489.942,740.914 493,745.5C 514.083,770.691 534.917,796.025 555.5,821.5C 554.863,824.107 553.696,826.44 552,828.5C 532.667,853.833 513.333,879.167 494,904.5C 492.077,907.057 489.743,909.057 487,910.5C 484.332,909.33 481.998,907.663 480,905.5C 472.749,895.578 464.749,886.244 456,877.5C 443.42,860.916 430.087,844.916 416,829.5C 413.934,825.414 414.601,821.747 418,818.5C 439.049,791.624 459.882,764.624 480.5,737.5 Z"/></g>
<g><path style="opacity:1" fill="#d02101" d="M 214.5,743.5 C 217.643,744.134 220.143,745.8 222,748.5C 242.292,773.127 262.958,797.46 284,821.5C 285.866,823.519 287.033,825.852 287.5,828.5C 285.968,832.568 284.135,836.568 282,840.5C 271.514,851.982 262.181,864.316 254,877.5C 244.873,887.121 236.707,897.454 229.5,908.5C 226.5,912.167 223.167,915.5 219.5,918.5C 196.556,893.044 174.056,867.044 152,840.5C 147.881,835.69 147.547,830.69 151,825.5C 172.382,798.291 193.548,770.957 214.5,743.5 Z"/></g>
<g><path style="opacity:1" fill="#d02202" d="M 627.5,798.5 C 631.302,799.779 634.469,802.112 637,805.5C 642.626,812.794 648.626,819.794 655,826.5C 656.076,828.067 656.909,829.734 657.5,831.5C 648.999,843.817 639.999,855.817 630.5,867.5C 622.147,858.315 613.98,848.981 606,839.5C 604.134,837.481 602.967,835.148 602.5,832.5C 602.667,831.5 602.833,830.5 603,829.5C 611.186,819.097 619.353,808.764 627.5,798.5 Z"/></g>
<g><path style="opacity:1" fill="#d12606" d="M 628.5,883.5 C 642.512,881.663 653.679,886.329 662,897.5C 663.042,900.804 661.875,902.971 658.5,904C 657.167,904.667 655.833,904.667 654.5,904C 646.633,892.837 636.633,890.504 624.5,897C 615.76,906.375 611.427,917.542 611.5,930.5C 616.792,927.187 622.459,924.354 628.5,922C 648.446,919.928 660.613,928.762 665,948.5C 666.934,961.696 663.434,973.196 654.5,983C 633.361,995.956 617.528,991.122 607,968.5C 600.122,948.252 599.788,927.918 606,907.5C 609.956,896.048 617.456,888.048 628.5,883.5 Z"/></g>
<g><path style="opacity:1" fill="#fefcfb" d="M 628.5,931.5 C 642.665,929.665 651.498,935.665 655,949.5C 657.331,963.674 652.164,973.841 639.5,980C 625.392,980.577 617.225,973.744 615,959.5C 613.91,947.349 618.41,938.016 628.5,931.5 Z"/></g>
</svg>
