<?xml version="1.0" encoding="UTF-8"?>
<!DOCTYPE svg PUBLIC "-//W3C//DTD SVG 1.1//EN" "http://www.w3.org/Graphics/SVG/1.1/DTD/svg11.dtd">
<svg xmlns="http://www.w3.org/2000/svg" version="1.1" width="691px" height="1056px" style="shape-rendering:geometricPrecision; text-rendering:geometricPrecision; image-rendering:optimizeQuality; fill-rule:evenodd; clip-rule:evenodd" xmlns:xlink="http://www.w3.org/1999/xlink">
<g><path style="opacity:0.906" fill="#bdbfc1" d="M 45.5,0.5 C 245.833,1.12134 446.166,1.62134 646.5,2C 665.686,6.52403 678.519,18.024 685,36.5C 684.264,355.74 684.431,674.906 685.5,994C 683.799,1022.7 669.466,1042.03 642.5,1052C 639.833,1052.33 637.167,1052.67 634.5,1053C 437.167,1053.67 239.833,1053.67 42.5,1053C 27.9238,1049.1 16.7571,1040.6 9,1027.5C 6.21067,1022.47 4.21067,1017.13 3,1011.5C 2.00077,1002.53 1.50077,993.531 1.5,984.5C 2.61472,668.167 2.78139,351.834 2,35.5C 3.21735,26.6166 7.38401,19.4499 14.5,14C 23.7345,6.70993 34.0678,2.20993 45.5,0.5 Z"/></g>
<g><path style="opacity:1" fill="#fefefe" d="M 42.5,5.5 C 243.5,5.98485 444.5,6.48485 645.5,7C 661.811,10.6415 673.311,20.1415 680,35.5C 680.667,356.167 680.667,676.833 680,997.5C 677.433,1024.07 663.267,1040.9 637.5,1048C 438.833,1048.67 240.167,1048.67 41.5,1048C 22.3766,1040.54 10.8766,1026.71 7,1006.5C 6.83333,979 6.66667,951.5 6.5,924C 7.64238,627.166 7.80904,330.333 7,33.5C 10.3006,24.5307 16.1339,17.6973 24.5,13C 30.3281,9.78826 36.3281,7.28826 42.5,5.5 Z"/></g>
<g><path style="opacity:1" fill="#d12606" d="M 66.5,55.5 C 82.1682,55.0807 93.0016,62.0807 99,76.5C 107.634,101.573 105.967,125.906 94,149.5C 84.5623,161.574 72.3956,165.408 57.5,161C 49.0797,158.256 43.9131,152.756 42,144.5C 44.264,141.48 47.0973,140.813 50.5,142.5C 61.2927,156.289 72.7927,156.955 85,144.5C 90.4362,135.96 93.2696,126.626 93.5,116.5C 88.8744,119.48 83.8744,121.98 78.5,124C 61.5347,127.067 49.7014,120.567 43,104.5C 36.4477,80.9444 44.281,64.6111 66.5,55.5 Z"/></g>
<g><path style="opacity:1" fill="#fefbfb" d="M 66.5,65.5 C 79.7036,65.1991 87.8703,71.5324 91,84.5C 92.4188,95.2434 89.2521,104.41 81.5,112C 65.2505,118.287 55.0838,112.787 51,95.5C 49.0676,81.6948 54.2343,71.6948 66.5,65.5 Z"/></g>
<g><path style="opacity:1" fill="#d02100" d="M 169.5,136.5 C 184.758,134.766 197.258,139.766 207,151.5C 208.689,154.891 210.856,157.891 213.5,160.5C 223.986,142.257 239.653,134.757 260.5,138C 272.224,140.723 279.724,147.89 283,159.5C 285.698,173.465 284.698,187.132 280,200.5C 270.824,220.204 259.157,238.204 245,254.5C 236.667,264.167 228.333,273.833 220,283.5C 217.95,285.888 215.616,287.888 213,289.5C 190.359,266.857 170.692,241.857 154,214.5C 143.415,196.993 140.415,178.326 145,158.5C 149.323,146.667 157.49,139.333 169.5,136.5 Z"/></g>
<g><path style="opacity:1" fill="#d02101" d="M 435.5,138.5 C 451.634,135.93 464.801,140.93 475,153.5C 476.752,156.672 478.752,159.672 481,162.5C 490.718,145.057 505.552,137.223 525.5,139C 541.446,142.948 550.279,153.115 552,169.5C 553.028,186.723 549.028,202.723 540,217.5C 522.983,244.359 503.15,269.025 480.5,291.5C 463.001,273.839 447.168,254.839 433,234.5C 424.5,222.501 417.833,209.501 413,195.5C 409.507,182.728 409.84,170.061 414,157.5C 417.94,147.387 425.107,141.053 435.5,138.5 Z"/></g>
<g><path style="opacity:1" fill="#d02202" d="M 48.5,176.5 C 58.1939,175.113 65.6939,178.446 71,186.5C 77.9194,176.77 86.7527,174.27 97.5,179C 99.7089,180.873 101.542,183.04 103,185.5C 104.392,194.186 103.392,202.519 100,210.5C 92.3629,223.476 83.1962,235.31 72.5,246C 71.5,246.667 70.5,246.667 69.5,246C 57.3072,233.813 47.4739,219.98 40,204.5C 35.6828,192.786 38.5161,183.452 48.5,176.5 Z"/></g>
<g><path style="opacity:1" fill="#d02101" d="M 169.5,344.5 C 188.619,343.633 202.619,351.633 211.5,368.5C 217.427,359.741 225.094,352.908 234.5,348C 264.538,340.22 280.871,351.72 283.5,382.5C 282.749,397.501 278.582,411.501 271,424.5C 255.243,448.598 237.576,471.265 218,492.5C 216.213,494.958 213.879,496.624 211,497.5C 187.638,474.469 167.638,448.803 151,420.5C 140.397,401.223 138.731,381.223 146,360.5C 151.402,351.552 159.235,346.219 169.5,344.5 Z"/></g>
<g><path style="opacity:1" fill="#d02101" d="M 435.5,346.5 C 449.242,345.025 461.076,349.025 471,358.5C 473.6,362.713 476.433,366.713 479.5,370.5C 485.11,360.726 493.11,353.56 503.5,349C 511.087,347.437 518.754,347.104 526.5,348C 538.667,350.833 546.167,358.333 549,370.5C 552.88,389.319 549.88,406.986 540,423.5C 523.01,451.493 502.676,476.827 479,499.5C 472.679,494.512 467.012,488.846 462,482.5C 446.452,464.285 432.452,444.952 420,424.5C 408.846,406.256 406.179,386.923 412,366.5C 416.379,355.611 424.212,348.944 435.5,346.5 Z"/></g>
<g><path style="opacity:1" fill="#d02101" d="M 301.5,468.5 C 314.903,467.244 326.403,471.244 336,480.5C 338.615,484.783 341.615,488.783 345,492.5C 351.604,481.219 361.104,473.719 373.5,470C 394.766,466.036 408.6,474.203 415,494.5C 417.842,514.312 413.842,532.645 403,549.5C 388.195,571.644 371.862,592.644 354,612.5C 350.953,615.883 347.62,618.883 344,621.5C 321.69,599.187 302.357,574.521 286,547.5C 276.863,533.099 272.863,517.433 274,500.5C 276.024,483.327 285.191,472.661 301.5,468.5 Z"/></g>
<g><path style="opacity:1" fill="#d02101" d="M 209.5,550.5 C 212.959,551.436 215.793,553.436 218,556.5C 237.255,578.084 254.589,601.084 270,625.5C 276.465,637.225 280.298,649.725 281.5,663C 281.499,676.355 276.832,687.688 267.5,697C 248.809,707.607 231.976,705.107 217,689.5C 214.81,685.924 212.81,682.257 211,678.5C 206.755,684.469 201.922,689.969 196.5,695C 184.349,702.908 171.349,704.575 157.5,700C 147.911,695.063 142.077,687.229 140,676.5C 139.333,667.833 139.333,659.167 140,650.5C 142.558,641.382 146.225,632.715 151,624.5C 168.048,597.945 187.548,573.279 209.5,550.5 Z"/></g>
<g><path style="opacity:1" fill="#d02101" d="M 476.5,552.5 C 480.147,552.622 482.981,554.288 485,557.5C 501.479,576.308 516.812,595.974 531,616.5C 538.84,628.18 544.506,640.847 548,654.5C 550.396,668.906 547.729,682.239 540,694.5C 528.565,704.981 515.398,707.815 500.5,703C 496.664,700.916 492.997,698.583 489.5,696C 485.282,691.288 481.282,686.454 477.5,681.5C 467.375,699.395 452.042,706.895 431.5,704C 421.193,701.437 414.026,695.27 410,685.5C 405.081,670.715 405.414,656.049 411,641.5C 421.644,620.206 434.644,600.539 450,582.5C 458.67,572.332 467.503,562.332 476.5,552.5 Z"/></g>
<g><path style="opacity:1" fill="#d02101" d="M 207.5,763.5 C 210.785,763.269 213.285,764.603 215,767.5C 234.61,789.398 252.276,812.731 268,837.5C 278.405,853.855 281.738,871.522 278,890.5C 273.601,907.534 262.601,915.867 245,915.5C 235.784,915.65 227.618,912.817 220.5,907C 216.261,902.435 212.428,897.602 209,892.5C 204.194,898.307 199.028,903.807 193.5,909C 178.753,917.568 164.086,917.568 149.5,909C 143.018,902.91 139.185,895.41 138,886.5C 136.141,873.651 137.808,861.317 143,849.5C 150.835,833.818 160.168,819.151 171,805.5C 182.466,790.908 194.633,776.908 207.5,763.5 Z"/></g>
<g><path style="opacity:1" fill="#d02101" d="M 474.5,765.5 C 477.652,764.959 480.152,765.959 482,768.5C 502.308,790.803 520.308,814.803 536,840.5C 542.756,851.935 546.59,864.268 547.5,877.5C 544.649,912.532 526.649,924.365 493.5,913C 486.213,907.882 480.546,901.382 476.5,893.5C 465.417,912.374 449.083,919.874 427.5,916C 416.497,912.329 409.663,904.829 407,893.5C 402.844,874.63 405.844,856.964 416,840.5C 433.094,813.659 452.594,788.659 474.5,765.5 Z"/></g>
<g><path style="opacity:1" fill="#d02202" d="M 616.5,807.5 C 630.609,820.455 641.442,835.788 649,853.5C 650.781,862.219 648.614,869.719 642.5,876C 631.822,880.911 623.322,878.411 617,868.5C 610.763,876.691 602.596,879.524 592.5,877C 584.764,871.47 581.93,863.97 584,854.5C 588.201,843.095 594.201,832.762 602,823.5C 606.671,817.997 611.504,812.664 616.5,807.5 Z"/></g>
<g><path style="opacity:1" fill="#d12707" d="M 613.5,891.5 C 628.696,889.765 640.03,895.431 647.5,908.5C 646.206,911.238 644.04,912.904 641,913.5C 637.547,911.05 634.38,908.217 631.5,905C 615.65,898.169 604.817,903.002 599,919.5C 596.865,925.313 595.698,931.313 595.5,937.5C 600.838,934.503 606.505,932.003 612.5,930C 631.955,928.439 643.789,937.273 648,956.5C 650.274,973.698 644.108,986.865 629.5,996C 609.389,1001.6 595.889,994.431 589,974.5C 580.919,949.185 583.585,925.185 597,902.5C 601.654,897.433 607.154,893.766 613.5,891.5 Z"/></g>
<g><path style="opacity:1" fill="#fefcfb" d="M 612.5,939.5 C 629.067,938.727 637.733,946.727 638.5,963.5C 638.02,974.989 632.686,983.156 622.5,988C 613.351,989.842 606.518,986.676 602,978.5C 595.442,966.517 596.442,955.183 605,944.5C 607.479,942.686 609.979,941.019 612.5,939.5 Z"/></g>
</svg>
