<?xml version="1.0" encoding="UTF-8"?>
<!DOCTYPE svg PUBLIC "-//W3C//DTD SVG 1.1//EN" "http://www.w3.org/Graphics/SVG/1.1/DTD/svg11.dtd">
<svg xmlns="http://www.w3.org/2000/svg" version="1.1" width="691px" height="1056px" style="shape-rendering:geometricPrecision; text-rendering:geometricPrecision; image-rendering:optimizeQuality; fill-rule:evenodd; clip-rule:evenodd" xmlns:xlink="http://www.w3.org/1999/xlink">
<g><path style="opacity:0.906" fill="#bdbfc1" d="M 45.5,0.5 C 245.833,1.12134 446.166,1.62134 646.5,2C 665.686,6.52403 678.519,18.024 685,36.5C 684.264,355.74 684.431,674.906 685.5,994C 683.799,1022.7 669.466,1042.03 642.5,1052C 639.833,1052.33 637.167,1052.67 634.5,1053C 437.167,1053.67 239.833,1053.67 42.5,1053C 27.9238,1049.1 16.7571,1040.6 9,1027.5C 6.21067,1022.47 4.21067,1017.13 3,1011.5C 2.00077,1002.53 1.50077,993.531 1.5,984.5C 2.61472,668.167 2.78139,351.834 2,35.5C 3.21735,26.6166 7.38401,19.4499 14.5,14C 23.7345,6.70993 34.0678,2.20993 45.5,0.5 Z"/></g>
<g><path style="opacity:1" fill="#fefefe" d="M 42.5,5.5 C 243.5,5.98485 444.5,6.48485 645.5,7C 661.811,10.6415 673.311,20.1415 680,35.5C 680.667,356.167 680.667,676.833 680,997.5C 677.433,1024.07 663.267,1040.9 637.5,1048C 438.833,1048.67 240.167,1048.67 41.5,1048C 22.3766,1040.54 10.8766,1026.71 7,1006.5C 6.83333,979 6.66667,951.5 6.5,924C 7.64238,627.166 7.80904,330.333 7,33.5C 10.3006,24.5307 16.1339,17.6973 24.5,13C 30.3281,9.78826 36.3281,7.28826 42.5,5.5 Z"/></g>
<g><path style="opacity:1" fill="#090909" d="M 52.5,56.5 C 71.1417,54.6402 83.3084,62.6402 89,80.5C 95.3143,100.645 94.981,120.645 88,140.5C 79.5251,160.328 65.0251,166.828 44.5,160C 38.4292,156.93 34.0959,152.263 31.5,146C 33.0562,143.948 35.0562,142.448 37.5,141.5C 41.788,146.291 46.788,150.125 52.5,153C 68.3665,153.819 77.8665,146.319 81,130.5C 82.463,125.851 82.6297,121.185 81.5,116.5C 68.1707,127.769 54.504,128.269 40.5,118C 27.365,101.944 26.1983,85.111 37,67.5C 41.4778,62.694 46.6444,59.0274 52.5,56.5 Z"/></g>
<g><path style="opacity:1" fill="#fcfcfc" d="M 53.5,63.5 C 68.1956,62.0275 77.6956,68.3608 82,82.5C 84.4229,94.7884 81.2562,105.288 72.5,114C 56.2831,121.985 44.7831,117.485 38,100.5C 34.367,84.1779 39.5336,71.8446 53.5,63.5 Z"/></g>
<g><path style="opacity:1" fill="#010101" d="M 208.5,283.5 C 206.052,284.473 203.385,284.806 200.5,284.5C 194.158,284.666 187.825,284.5 181.5,284C 181.043,283.586 180.709,283.086 180.5,282.5C 186.801,268.113 189.635,253.113 189,237.5C 184.21,243.959 179.043,250.126 173.5,256C 149.754,266.879 134.254,259.712 127,234.5C 124.866,222.086 126.866,210.419 133,199.5C 152.906,172.924 173.572,146.924 195,121.5C 214,145.5 233,169.5 252,193.5C 264.491,211.306 265.825,229.972 256,249.5C 245.187,262.45 232.354,264.95 217.5,257C 210.933,251.43 205.433,244.93 201,237.5C 199.455,242.047 199.121,246.713 200,251.5C 202.521,262.249 205.354,272.916 208.5,283.5 Z"/></g>
<g><path style="opacity:1" fill="#010101" d="M 490.5,121.5 C 509.754,146.6 529.254,171.6 549,196.5C 559.173,213.284 560.173,230.618 552,248.5C 540.847,262.325 527.347,265.159 511.5,257C 506.233,251.623 501.566,245.79 497.5,239.5C 496.675,238.614 495.675,238.281 494.5,238.5C 494.831,254.157 498.164,269.157 504.5,283.5C 494.856,284.498 485.19,284.832 475.5,284.5C 477.559,277.155 479.725,269.822 482,262.5C 483.405,254.208 483.738,245.875 483,237.5C 479.915,242.672 476.581,247.672 473,252.5C 463.314,261.793 452.147,263.959 439.5,259C 429.305,253.122 423.471,244.289 422,232.5C 419.788,219.685 422.454,208.019 430,197.5C 449.475,171.511 469.642,146.178 490.5,121.5 Z"/></g>
<g><path style="opacity:1" fill="#040404" d="M 64.5,244.5 C 61.5,244.5 58.5,244.5 55.5,244.5C 55.5,243.5 55.5,242.5 55.5,241.5C 56.4976,237.193 56.9976,232.86 57,228.5C 52.1081,233.369 46.2747,235.536 39.5,235C 33.4626,231.94 30.4626,226.94 30.5,220C 30.5166,216.617 31.3499,213.45 33,210.5C 41.2739,198.292 50.2739,186.625 60,175.5C 69.7174,187.55 79.0507,199.883 88,212.5C 89.1411,219.084 88.4744,225.417 86,231.5C 77.0808,237.802 69.4141,236.469 63,227.5C 63.2466,233.151 63.7466,238.817 64.5,244.5 Z"/></g>
<g><path style="opacity:1" fill="#7f7f7f" d="M 55.5,241.5 C 55.5,242.5 55.5,243.5 55.5,244.5C 58.5,244.5 61.5,244.5 64.5,244.5C 61.3752,245.479 58.0419,245.813 54.5,245.5C 54.2322,243.901 54.5655,242.568 55.5,241.5 Z"/></g>
<g><path style="opacity:1" fill="#9e9e9e" d="M 208.5,283.5 C 209.043,283.56 209.376,283.893 209.5,284.5C 206.355,285.803 203.355,285.803 200.5,284.5C 203.385,284.806 206.052,284.473 208.5,283.5 Z"/></g>
<g><path style="opacity:1" fill="#010101" d="M 208.5,499.5 C 200.167,500.167 191.833,500.833 183.5,501.5C 182.5,501.5 181.5,501.5 180.5,501.5C 182.361,494.417 184.528,487.417 187,480.5C 188.419,471.875 188.752,463.208 188,454.5C 184.265,460.904 179.765,466.737 174.5,472C 158.043,482.504 143.877,480.004 132,464.5C 124.374,448.313 124.708,432.313 133,416.5C 152.959,390.045 173.459,364.045 194.5,338.5C 214.539,362.376 234.039,386.709 253,411.5C 267.024,431.497 266.857,451.33 252.5,471C 236.229,482.558 221.729,480.724 209,465.5C 207.03,462.032 204.864,458.699 202.5,455.5C 201.675,454.614 200.675,454.281 199.5,454.5C 199.488,460.871 199.988,467.204 201,473.5C 203.196,482.287 205.696,490.954 208.5,499.5 Z"/></g>
<g><path style="opacity:1" fill="#010101" d="M 489.5,338.5 C 510.432,363.959 530.932,389.959 551,416.5C 559.636,433.152 559.636,449.819 551,466.5C 539.133,479.516 525.633,481.682 510.5,473C 505.13,467.069 500.13,460.902 495.5,454.5C 494.667,470.514 497.667,485.847 504.5,500.5C 494.856,501.498 485.19,501.832 475.5,501.5C 478.088,492.898 480.588,484.231 483,475.5C 484.331,468.541 484.664,461.541 484,454.5C 478.875,461.293 473.375,467.793 467.5,474C 451.267,482.365 437.767,479.198 427,464.5C 418.967,446.988 419.967,429.988 430,413.5C 449.667,388.337 469.5,363.337 489.5,338.5 Z"/></g>
<g><path style="opacity:1" fill="#010101" d="M 356.5,606.5 C 354.393,607.468 352.059,607.802 349.5,607.5C 342.5,607.5 335.5,607.5 328.5,607.5C 330.349,599.781 332.516,592.115 335,584.5C 336.478,576.846 336.644,569.179 335.5,561.5C 331.339,568.308 326.339,574.475 320.5,580C 294.966,590.148 279.799,581.648 275,554.5C 272.803,541.14 275.803,529.14 284,518.5C 302.961,493.709 322.461,469.376 342.5,445.5C 361.159,468.331 379.659,491.331 398,514.5C 412.7,533.07 414.367,552.736 403,573.5C 391.848,585.477 379.015,587.644 364.5,580C 363.271,578.471 361.771,577.304 360,576.5C 356.327,571.334 352.494,566.334 348.5,561.5C 347.41,568.509 347.576,575.509 349,582.5C 351.409,590.56 353.909,598.56 356.5,606.5 Z"/></g>
<g><path style="opacity:1" fill="#7f7f7f" d="M 208.5,499.5 C 209.043,499.56 209.376,499.893 209.5,500.5C 200.859,501.498 192.192,501.831 183.5,501.5C 191.833,500.833 200.167,500.167 208.5,499.5 Z"/></g>
<g><path style="opacity:1" fill="#707070" d="M 484.5,552.5 C 481.287,552.19 478.287,552.523 475.5,553.5C 474.957,553.44 474.624,553.107 474.5,552.5C 477.98,551.194 481.313,551.194 484.5,552.5 Z"/></g>
<g><path style="opacity:1" fill="#010101" d="M 180.5,553.5 C 190.008,552.177 199.675,552.177 209.5,553.5C 202.151,568.184 199.318,583.517 201,599.5C 205.23,592.88 210.063,586.713 215.5,581C 232.119,571.422 246.286,574.255 258,589.5C 265.397,605.256 265.064,620.923 257,636.5C 238,660.833 219,685.167 200,709.5C 198.611,711.227 196.944,712.561 195,713.5C 192.257,712.057 189.923,710.057 188,707.5C 168.95,683.452 150.284,659.118 132,634.5C 124.416,618.572 124.749,602.905 133,587.5C 143.645,574.983 156.478,572.15 171.5,579C 174.295,580.793 176.795,582.96 179,585.5C 182.333,590.167 185.667,594.833 189,599.5C 189.929,583.399 187.095,568.065 180.5,553.5 Z"/></g>
<g><path style="opacity:1" fill="#010101" d="M 484.5,552.5 C 491.2,552.17 497.866,552.503 504.5,553.5C 497.045,567.981 494.045,583.315 495.5,599.5C 500.225,592.58 505.558,586.08 511.5,580C 526.586,572.565 539.752,575.065 551,587.5C 555.986,595.222 558.153,603.722 557.5,613C 557.528,623.582 554.362,633.082 548,641.5C 529.039,666.291 509.539,690.624 489.5,714.5C 469.461,690.624 449.961,666.291 431,641.5C 419.658,624.017 418.658,606.017 428,587.5C 437.962,575.733 450.129,572.566 464.5,578C 472.118,583.449 478.118,590.282 482.5,598.5C 483.664,592.193 483.831,585.859 483,579.5C 480.998,570.663 478.498,561.996 475.5,553.5C 478.287,552.523 481.287,552.19 484.5,552.5 Z"/></g>
<g><path style="opacity:1" fill="#707070" d="M 356.5,606.5 C 357.043,606.56 357.376,606.893 357.5,607.5C 354.691,608.8 352.024,608.8 349.5,607.5C 352.059,607.802 354.393,607.468 356.5,606.5 Z"/></g>
<g><path style="opacity:1" fill="#010101" d="M 180.5,765.5 C 189.991,764.342 199.658,764.175 209.5,765C 203.075,779.527 200.241,794.694 201,810.5C 204.388,807.403 207.055,803.736 209,799.5C 221.025,786.006 234.858,783.84 250.5,793C 261.033,803.282 265.2,815.782 263,830.5C 261.321,837.868 258.655,844.868 255,851.5C 235.326,876.668 215.493,901.668 195.5,926.5C 175.128,902.291 155.294,877.625 136,852.5C 126.147,838.741 123.813,823.741 129,807.5C 138.632,787.622 153.465,782.455 173.5,792C 178.847,797.202 183.347,803.035 187,809.5C 187.667,810.833 188.333,810.833 189,809.5C 190.521,803.876 190.521,798.209 189,792.5C 186.919,783.147 184.085,774.147 180.5,765.5 Z"/></g>
<g><path style="opacity:1" fill="#010101" d="M 475.5,764.5 C 485.172,764.334 494.839,764.5 504.5,765C 497.118,779.688 494.118,795.188 495.5,811.5C 500.225,804.58 505.558,798.08 511.5,792C 527.322,783.831 540.822,786.665 552,800.5C 559.994,818.269 558.994,835.602 549,852.5C 529,877.833 509,903.167 489,928.5C 470.049,903.214 450.716,878.214 431,853.5C 419.252,835.477 418.585,817.144 429,798.5C 440.095,786.501 452.929,784.334 467.5,792C 474.058,797.932 479.558,804.765 484,812.5C 484.667,806.5 484.667,800.5 484,794.5C 481.475,784.397 478.641,774.397 475.5,764.5 Z"/></g>
<g><path style="opacity:1" fill="#030303" d="M 617.5,804.5 C 620.898,804.18 624.232,804.513 627.5,805.5C 626.172,811.131 625.338,816.798 625,822.5C 630.63,814.325 637.797,812.491 646.5,817C 652.536,824.751 653.036,832.918 648,841.5C 639.691,852.643 631.191,863.643 622.5,874.5C 613.476,863.31 604.642,851.976 596,840.5C 592.718,833.473 592.718,826.473 596,819.5C 600.218,814.37 605.384,813.204 611.5,816C 614.473,817.31 616.807,819.31 618.5,822C 619.167,822.667 619.833,822.667 620.5,822C 619.611,816.18 618.611,810.347 617.5,804.5 Z"/></g>
<g><path style="opacity:1" fill="#090909" d="M 617.5,890.5 C 629.633,889.152 639.8,892.818 648,901.5C 649.039,903.746 650.206,905.913 651.5,908C 649.626,909.435 647.626,910.602 645.5,911.5C 626.153,892.996 611.653,896.33 602,921.5C 600.154,927.052 599.488,932.719 600,938.5C 612.371,926.961 625.871,925.461 640.5,934C 655.488,949.706 657.321,966.873 646,985.5C 637.572,994.976 627.072,998.476 614.5,996C 604.936,992.102 598.436,985.269 595,975.5C 587.128,952.894 587.795,930.561 597,908.5C 601.544,899.823 608.377,893.823 617.5,890.5 Z"/></g>
<g><path style="opacity:1" fill="#fcfcfc" d="M 616.5,935.5 C 631.196,934.027 640.696,940.361 645,954.5C 647.542,966.227 644.709,976.394 636.5,985C 620.773,993.888 609.273,990.055 602,973.5C 597.12,956.955 601.954,944.289 616.5,935.5 Z"/></g>
</svg>
