<?xml version="1.0" encoding="UTF-8"?>
<!DOCTYPE svg PUBLIC "-//W3C//DTD SVG 1.1//EN" "http://www.w3.org/Graphics/SVG/1.1/DTD/svg11.dtd">
<svg xmlns="http://www.w3.org/2000/svg" version="1.1" width="691px" height="1056px" style="shape-rendering:geometricPrecision; text-rendering:geometricPrecision; image-rendering:optimizeQuality; fill-rule:evenodd; clip-rule:evenodd" xmlns:xlink="http://www.w3.org/1999/xlink">
<g><path style="opacity:0.906" fill="#bdbfc1" d="M 45.5,0.5 C 245.833,1.12134 446.166,1.62134 646.5,2C 665.686,6.52403 678.519,18.024 685,36.5C 684.264,355.74 684.431,674.906 685.5,994C 683.799,1022.7 669.466,1042.03 642.5,1052C 639.833,1052.33 637.167,1052.67 634.5,1053C 437.167,1053.67 239.833,1053.67 42.5,1053C 27.9238,1049.1 16.7571,1040.6 9,1027.5C 6.21067,1022.47 4.21067,1017.13 3,1011.5C 2.00077,1002.53 1.50077,993.531 1.5,984.5C 2.61472,668.167 2.78139,351.834 2,35.5C 3.21735,26.6166 7.38401,19.4499 14.5,14C 23.7345,6.70993 34.0678,2.20993 45.5,0.5 Z"/></g>
<g><path style="opacity:1" fill="#fefefe" d="M 42.5,5.5 C 243.5,5.98485 444.5,6.48485 645.5,7C 661.811,10.6415 673.311,20.1415 680,35.5C 680.667,356.167 680.667,676.833 680,997.5C 677.215,1023.9 663.048,1040.73 637.5,1048C 438.833,1048.67 240.167,1048.67 41.5,1048C 22.3766,1040.54 10.8766,1026.71 7,1006.5C 6.83333,979 6.66667,951.5 6.5,924C 7.64238,627.166 7.80904,330.333 7,33.5C 10.3006,24.5307 16.1339,17.6973 24.5,13C 30.3281,9.78826 36.3281,7.28826 42.5,5.5 Z"/></g>
<g><path style="opacity:1" fill="#0a0a0a" d="M 61.5,59.5 C 65.8839,59.1744 70.2172,59.5078 74.5,60.5C 80.7828,90.8577 87.2828,121.191 94,151.5C 96.4343,153.023 99.101,154.023 102,154.5C 102.498,157.817 102.665,161.15 102.5,164.5C 93.8269,164.666 85.1603,164.5 76.5,164C 72.5394,157.352 74.3727,153.518 82,152.5C 83.4367,133.926 75.27,127.092 57.5,132C 56.2986,132.903 55.4652,134.069 55,135.5C 54.4852,140.225 53.6519,144.892 52.5,149.5C 52.5698,150.772 52.9032,151.938 53.5,153C 59.9541,153.132 62.1208,156.298 60,162.5C 59.5,163 59,163.5 58.5,164C 49.8333,164.667 41.1667,164.667 32.5,164C 30.2711,161.447 29.9377,158.614 31.5,155.5C 34.2125,154.772 36.8791,153.939 39.5,153C 40.8932,151.829 41.7265,150.329 42,148.5C 47.1496,120.447 52.483,92.4465 58,64.5C 58.9973,62.6769 60.1639,61.0103 61.5,59.5 Z"/></g>
<g><path style="opacity:1" fill="#f4f4f4" d="M 66.5,79.5 C 71.2088,92.6811 74.2088,106.348 75.5,120.5C 69.9066,120.807 64.4066,120.473 59,119.5C 60.2721,105.971 62.7721,92.6375 66.5,79.5 Z"/></g>
<g><path style="opacity:1" fill="#060606" d="M 65.5,179.5 C 84.5372,180.703 89.8705,189.869 81.5,207C 97.0783,207.567 103.245,215.401 100,230.5C 91.4983,242.1 82.4983,242.434 73,231.5C 73.2446,237.718 74.4112,243.718 76.5,249.5C 71.9014,249.8 67.4014,249.467 63,248.5C 62.3333,246.833 62.3333,245.167 63,243.5C 65.5759,239.525 67.0759,235.192 67.5,230.5C 66.448,230.351 65.448,230.517 64.5,231C 59.6428,239.064 52.9761,241.064 44.5,237C 38.8829,231.289 37.0496,224.455 39,216.5C 43.2555,209.626 49.4222,206.96 57.5,208.5C 56.6332,205.092 55.4665,201.758 54,198.5C 52.6297,189.033 56.4631,182.7 65.5,179.5 Z"/></g>
<g><path style="opacity:1" fill="#030303" d="M 333.5,427.5 C 351.083,424.889 366.583,429.222 380,440.5C 392.089,456.375 393.756,473.375 385,491.5C 380.216,498.719 374.716,505.386 368.5,511.5C 369.333,511.833 370.167,512.167 371,512.5C 385.411,506.055 399.911,505.888 414.5,512C 427.468,521.599 434.135,534.599 434.5,551C 433.218,574.261 421.552,589.261 399.5,596C 384.644,597.99 372.477,593.157 363,581.5C 359.73,575.236 356.064,569.236 352,563.5C 351.333,569.833 351.333,576.167 352,582.5C 356.638,597.747 361.638,612.747 367,627.5C 351.928,625.248 336.761,624.915 321.5,626.5C 321.34,624.801 321.506,623.134 322,621.5C 331.669,603.33 337.169,583.997 338.5,563.5C 336.61,563.297 335.11,563.963 334,565.5C 322.764,593.374 303.264,601.874 275.5,591C 258.133,577.24 251.633,559.407 256,537.5C 267.688,508.158 288.021,499.824 317,512.5C 317.833,512.167 318.667,511.833 319.5,511.5C 313.808,504.308 308.308,496.975 303,489.5C 292.298,458.395 302.465,437.728 333.5,427.5 Z"/></g>
<g><path style="opacity:1" fill="#050505" d="M 612.5,804.5 C 617.167,804.5 621.833,804.5 626.5,804.5C 625.64,807.911 624.474,811.244 623,814.5C 622.333,817.167 622.333,819.833 623,822.5C 631.068,812.341 639.402,812.007 648,821.5C 653.943,837.958 648.11,846.458 630.5,847C 634.748,853.378 635.581,860.211 633,867.5C 627.331,873.212 620.497,875.045 612.5,873C 604.495,869.351 601.661,863.184 604,854.5C 605.167,852 606.333,849.5 607.5,847C 601.822,846.25 596.489,844.584 591.5,842C 584.47,830.509 586.804,821.509 598.5,815C 605.75,814.707 611.583,817.54 616,823.5C 616.667,821.167 616.667,818.833 616,816.5C 614.21,812.673 613.044,808.673 612.5,804.5 Z"/></g>
<g><path style="opacity:1" fill="#070707" d="M 588.5,891.5 C 596.752,891.184 604.919,891.518 613,892.5C 614.625,898.21 612.458,901.044 606.5,901C 605.919,901.893 605.585,902.893 605.5,904C 606.588,909.517 607.754,915.017 609,920.5C 609.465,921.931 610.299,923.097 611.5,924C 617.833,924.667 624.167,924.667 630.5,924C 631.416,923.626 632.25,923.126 633,922.5C 634.213,916.841 635.38,911.175 636.5,905.5C 636.449,903.9 636.116,902.4 635.5,901C 633.567,900.749 631.734,900.249 630,899.5C 629.231,896.901 629.398,894.401 630.5,892C 638.833,891.333 647.167,891.333 655.5,892C 658.48,899.026 656.146,902.026 648.5,901C 647.299,901.903 646.465,903.069 646,904.5C 640.852,933.207 635.518,961.873 630,990.5C 629.263,994.728 626.763,996.395 622.5,995.5C 618.105,996.227 615.272,994.56 614,990.5C 608.125,961.457 602.125,932.457 596,903.5C 594.106,900.156 591.273,898.822 587.5,899.5C 587.279,896.721 587.612,894.054 588.5,891.5 Z"/></g>
<g><path style="opacity:1" fill="#f6f6f6" d="M 613.5,933.5 C 619.537,933.171 625.537,933.504 631.5,934.5C 629.037,948.982 625.87,963.316 622,977.5C 617.726,964.494 614.559,951.161 612.5,937.5C 612.623,936.075 612.957,934.742 613.5,933.5 Z"/></g>
</svg>
