<?xml version="1.0" encoding="UTF-8"?>
<!DOCTYPE svg PUBLIC "-//W3C//DTD SVG 1.1//EN" "http://www.w3.org/Graphics/SVG/1.1/DTD/svg11.dtd">
<svg xmlns="http://www.w3.org/2000/svg" version="1.1" width="691px" height="1056px" style="shape-rendering:geometricPrecision; text-rendering:geometricPrecision; image-rendering:optimizeQuality; fill-rule:evenodd; clip-rule:evenodd" xmlns:xlink="http://www.w3.org/1999/xlink">
<g><path style="opacity:0.906" fill="#bdbfc1" d="M 45.5,0.5 C 245.833,1.12134 446.166,1.62134 646.5,2C 665.686,6.52403 678.519,18.024 685,36.5C 684.264,355.74 684.431,674.906 685.5,994C 683.799,1022.7 669.466,1042.03 642.5,1052C 639.833,1052.33 637.167,1052.67 634.5,1053C 437.167,1053.67 239.833,1053.67 42.5,1053C 27.9238,1049.1 16.7571,1040.6 9,1027.5C 6.21067,1022.47 4.21067,1017.13 3,1011.5C 2.00077,1002.53 1.50077,993.531 1.5,984.5C 2.61472,668.167 2.78139,351.834 2,35.5C 3.21735,26.6166 7.38401,19.4499 14.5,14C 23.7345,6.70993 34.0678,2.20993 45.5,0.5 Z"/></g>
<g><path style="opacity:1" fill="#fefefe" d="M 42.5,5.5 C 243.5,5.98485 444.5,6.48485 645.5,7C 661.811,10.6415 673.311,20.1415 680,35.5C 680.667,356.167 680.667,676.833 680,997.5C 677.215,1023.9 663.048,1040.73 637.5,1048C 438.833,1048.67 240.167,1048.67 41.5,1048C 22.3766,1040.54 10.8766,1026.71 7,1006.5C 6.83333,979 6.66667,951.5 6.5,924C 7.64238,627.166 7.80904,330.333 7,33.5C 10.3006,24.5307 16.1339,17.6973 24.5,13C 30.3281,9.78826 36.3281,7.28826 42.5,5.5 Z"/></g>
<g><path style="opacity:1" fill="#d12707" d="M 55.5,59.5 C 59.5138,59.3345 63.5138,59.5012 67.5,60C 68.3333,60.8333 69.1667,61.6667 70,62.5C 76.2544,92.5953 82.9211,122.595 90,152.5C 92.7379,153.729 95.4045,155.062 98,156.5C 99.0361,159.68 98.2028,162.18 95.5,164C 87.8333,164.667 80.1667,164.667 72.5,164C 70.5561,161.847 70.0561,159.347 71,156.5C 73.3333,155.167 75.6667,153.833 78,152.5C 78.7208,131.528 69.7208,125.528 51,134.5C 49.2822,140.411 48.6155,146.411 49,152.5C 51.3333,153.833 53.6667,155.167 56,156.5C 56.8141,158.902 56.6474,161.235 55.5,163.5C 45.9701,164.823 36.4701,164.823 27,163.5C 26.3333,160.833 26.3333,158.167 27,155.5C 29.7405,154.718 32.5738,154.218 35.5,154C 36,153.5 36.5,153 37,152.5C 42.5502,123.198 47.8835,93.8647 53,64.5C 53.3661,62.5483 54.1995,60.8816 55.5,59.5 Z"/></g>
<g><path style="opacity:1" fill="#fef6f5" d="M 61.5,77.5 C 62.6491,77.7911 63.3158,78.6244 63.5,80C 66.4227,92.6136 69.0894,105.28 71.5,118C 71.4148,119.107 71.0814,120.107 70.5,121C 64.8431,121.499 59.1764,121.666 53.5,121.5C 55.3085,106.646 57.9751,91.9797 61.5,77.5 Z"/></g>
<g><path style="opacity:1" fill="#d02302" d="M 61.5,181.5 C 63.1703,181.751 64.6703,182.418 66,183.5C 73.2888,193.124 80.9555,202.458 89,211.5C 91.066,215.586 90.3993,219.253 87,222.5C 79.9534,230.545 73.2867,238.878 67,247.5C 64.2533,250.034 61.5867,250.034 59,247.5C 51.6447,238.979 44.478,230.312 37.5,221.5C 36.3679,219.402 35.3679,217.235 34.5,215C 43.6234,203.912 52.6234,192.745 61.5,181.5 Z"/></g>
<g><path style="opacity:1" fill="#d02100" d="M 343.5,421.5 C 345.229,422.117 346.729,423.117 348,424.5C 373.956,456.791 400.289,488.791 427,520.5C 428.308,522.134 429.142,523.968 429.5,526C 428.87,529.296 427.37,532.13 425,534.5C 399.62,565.545 374.62,596.878 350,628.5C 348.883,630.124 347.383,631.124 345.5,631.5C 342.932,630.441 340.765,628.774 339,626.5C 314,596.167 289,565.833 264,535.5C 261.63,533.13 260.13,530.296 259.5,527C 259.625,525.373 260.125,523.873 261,522.5C 288.712,488.959 316.212,455.293 343.5,421.5 Z"/></g>
<g><path style="opacity:1" fill="#d02302" d="M 623.5,803.5 C 625.144,803.286 626.644,803.62 628,804.5C 633.748,812.309 639.748,819.976 646,827.5C 653.098,831.486 654.265,836.82 649.5,843.5C 641.863,852.096 634.697,861.096 628,870.5C 626.186,871.76 624.353,871.76 622.5,870.5C 614.01,859.511 605.343,848.678 596.5,838C 597.444,835.278 598.777,832.778 600.5,830.5C 607.958,821.203 615.624,812.203 623.5,803.5 Z"/></g>
<g><path style="opacity:1" fill="#d12606" d="M 590.5,889.5 C 599.173,889.334 607.84,889.5 616.5,890C 617.61,892.737 617.777,895.571 617,898.5C 615.477,900.62 613.644,900.953 611.5,899.5C 610.28,899.887 609.613,900.72 609.5,902C 610.305,908.314 611.472,914.48 613,920.5C 613.75,921.126 614.584,921.626 615.5,922C 621.833,922.667 628.167,922.667 634.5,922C 635.667,921.5 636.5,920.667 637,919.5C 638.812,913.265 639.478,906.932 639,900.5C 632.733,899.468 630.9,895.968 633.5,890C 642.494,889.5 651.494,889.334 660.5,889.5C 660.665,892.518 660.498,895.518 660,898.5C 657.595,899.274 655.095,899.774 652.5,900C 651.667,900.833 650.833,901.667 650,902.5C 647.998,914.847 645.831,927.18 643.5,939.5C 644.051,943.921 643.218,948.254 641,952.5C 639.315,965.942 636.982,979.276 634,992.5C 629.654,994.189 625.154,994.689 620.5,994C 619.272,993.221 618.272,992.221 617.5,991C 611.713,961.317 605.546,931.817 599,902.5C 596.804,899.875 593.97,898.875 590.5,899.5C 590.5,896.167 590.5,892.833 590.5,889.5 Z"/></g>
<g><path style="opacity:1" fill="#fefaf9" d="M 618.5,932.5 C 623.648,931.926 628.482,932.593 633,934.5C 632.482,949.096 630.149,963.43 626,977.5C 622.646,963.898 619.479,950.232 616.5,936.5C 616.752,934.927 617.418,933.594 618.5,932.5 Z"/></g>
</svg>
