<?xml version="1.0" encoding="UTF-8"?>
<!DOCTYPE svg PUBLIC "-//W3C//DTD SVG 1.1//EN" "http://www.w3.org/Graphics/SVG/1.1/DTD/svg11.dtd">
<svg xmlns="http://www.w3.org/2000/svg" version="1.1" width="691px" height="1056px" style="shape-rendering:geometricPrecision; text-rendering:geometricPrecision; image-rendering:optimizeQuality; fill-rule:evenodd; clip-rule:evenodd" xmlns:xlink="http://www.w3.org/1999/xlink">
<g><path style="opacity:0.906" fill="#bdbfc1" d="M 45.5,0.5 C 245.833,1.12134 446.166,1.62134 646.5,2C 665.686,6.52403 678.519,18.024 685,36.5C 684.264,355.74 684.431,674.906 685.5,994C 683.799,1022.7 669.466,1042.03 642.5,1052C 639.833,1052.33 637.167,1052.67 634.5,1053C 437.167,1053.67 239.833,1053.67 42.5,1053C 27.9238,1049.1 16.7571,1040.6 9,1027.5C 6.21067,1022.47 4.21067,1017.13 3,1011.5C 2.00077,1002.53 1.50077,993.531 1.5,984.5C 2.61472,668.167 2.78139,351.834 2,35.5C 3.21735,26.6166 7.38401,19.4499 14.5,14C 23.7345,6.70993 34.0678,2.20993 45.5,0.5 Z"/></g>
<g><path style="opacity:1" fill="#fefefe" d="M 42.5,5.5 C 243.5,5.98485 444.5,6.48485 645.5,7C 661.811,10.6415 673.311,20.1415 680,35.5C 680.667,356.167 680.667,676.833 680,997.5C 677.215,1023.9 663.048,1040.73 637.5,1048C 438.833,1048.67 240.167,1048.67 41.5,1048C 22.3766,1040.54 10.8766,1026.71 7,1006.5C 6.83333,979 6.66667,951.5 6.5,924C 7.64238,627.166 7.80904,330.333 7,33.5C 10.3006,24.5307 16.1339,17.6973 24.5,13C 30.3281,9.78826 36.3281,7.28826 42.5,5.5 Z"/></g>
<g><path style="opacity:1" fill="#cc362c" d="M 57.5,60.5 C 61.8461,60.3343 66.1794,60.501 70.5,61C 78.1142,90.1542 84.6142,119.654 90,149.5C 91.812,153.608 94.9787,155.608 99.5,155.5C 99.9804,158.685 99.3137,161.519 97.5,164C 89.8333,164.667 82.1667,164.667 74.5,164C 70.9373,158.712 72.2706,155.379 78.5,154C 79.8045,153.196 80.4712,152.029 80.5,150.5C 79.3972,145.153 78.2305,139.819 77,134.5C 76.1667,133.667 75.3333,132.833 74.5,132C 68.5,131.333 62.5,131.333 56.5,132C 54.6667,132.5 53.5,133.667 53,135.5C 51.3497,141.419 50.683,147.419 51,153.5C 56.7503,154.359 58.7503,157.692 57,163.5C 48,164.833 39,164.833 30,163.5C 27.7847,157.214 29.9514,154.381 36.5,155C 38.4875,153.681 39.6541,151.848 40,149.5C 45.641,121.605 50.641,93.6052 55,65.5C 55.8466,63.8068 56.6799,62.1401 57.5,60.5 Z"/></g>
<g><path style="opacity:1" fill="#fdf5f4" d="M 63.5,77.5 C 64.1174,77.6107 64.6174,77.944 65,78.5C 68.2287,91.2479 71.062,104.081 73.5,117C 73.5607,118.711 72.8941,120.044 71.5,121C 66.7892,122.844 62.1226,122.844 57.5,121C 56.8778,119.431 56.5445,117.764 56.5,116C 58.4164,103.084 60.7497,90.2503 63.5,77.5 Z"/></g>
<g><path style="opacity:1" fill="#cc342a" d="M 45.5,177.5 C 49.5817,177.344 53.5817,177.844 57.5,179C 60.646,181.312 63.646,183.812 66.5,186.5C 70.3244,183.421 74.3244,180.588 78.5,178C 94.5282,176.81 101.362,184.31 99,200.5C 97.5014,206.499 95.1681,212.166 92,217.5C 85.2619,227.575 77.7619,237.075 69.5,246C 67.8333,246.667 66.1667,246.667 64.5,246C 51.7973,233.422 41.964,218.922 35,202.5C 32.2399,191.223 35.7399,182.89 45.5,177.5 Z"/></g>
<g><path style="opacity:1" fill="#cc3329" d="M 289.5,431.5 C 307.072,430.206 321.572,436.206 333,449.5C 335.6,453.713 338.433,457.713 341.5,461.5C 344.655,457.205 347.821,452.871 351,448.5C 363.793,434.369 379.626,429.202 398.5,433C 417.808,438.394 427.975,451.227 429,471.5C 430.744,484.301 429.077,496.634 424,508.5C 414.542,530.093 402.542,550.093 388,568.5C 374.585,585.919 360.418,602.753 345.5,619C 343.833,619.667 342.167,619.667 340.5,619C 314.289,592.137 291.123,562.97 271,531.5C 261.879,516.138 256.379,499.638 254.5,482C 254.229,456.659 265.896,439.826 289.5,431.5 Z"/></g>
<g><path style="opacity:1" fill="#cc342a" d="M 617.5,802.5 C 619.903,802.393 621.736,803.393 623,805.5C 633.942,816.777 642.942,829.444 650,843.5C 652.647,851.951 651.814,859.951 647.5,867.5C 642.652,871.947 636.985,873.447 630.5,872C 626.405,869.741 622.738,866.907 619.5,863.5C 613.482,870.784 605.815,873.617 596.5,872C 589.295,868.264 585.961,862.264 586.5,854C 586.544,850.43 587.044,846.93 588,843.5C 595.882,828.392 605.715,814.725 617.5,802.5 Z"/></g>
<g><path style="opacity:1" fill="#cd372c" d="M 588.5,889.5 C 596.889,889.197 605.222,889.53 613.5,890.5C 615.955,895.989 614.288,899.155 608.5,900C 607.196,900.804 606.529,901.971 606.5,903.5C 608.084,909.412 609.751,915.246 611.5,921C 618.5,921.667 625.5,921.667 632.5,921C 633,920.5 633.5,920 634,919.5C 635.059,914.144 636.226,908.81 637.5,903.5C 636.348,899.85 633.848,897.85 630,897.5C 629.231,894.901 629.398,892.401 630.5,890C 639.745,889.183 648.911,889.35 658,890.5C 658.711,892.899 658.544,895.232 657.5,897.5C 652.335,897.489 648.835,899.823 647,904.5C 642.312,933.297 636.978,961.964 631,990.5C 625.153,996.161 619.82,995.828 615,989.5C 609.301,959.328 602.468,929.494 594.5,900C 592.236,899.764 590.069,899.264 588,898.5C 587.264,895.408 587.431,892.408 588.5,889.5 Z"/></g>
<g><path style="opacity:1" fill="#fdf9f8" d="M 618.5,931.5 C 629,929.166 632.833,933.166 630,943.5C 628.472,954.014 626.305,964.347 623.5,974.5C 618.885,960.808 615.551,946.808 613.5,932.5C 615.415,932.784 617.081,932.451 618.5,931.5 Z"/></g>
</svg>
