<?xml version="1.0" encoding="UTF-8"?>
<!DOCTYPE svg PUBLIC "-//W3C//DTD SVG 1.1//EN" "http://www.w3.org/Graphics/SVG/1.1/DTD/svg11.dtd">
<svg xmlns="http://www.w3.org/2000/svg" version="1.1" width="691px" height="1056px" style="shape-rendering:geometricPrecision; text-rendering:geometricPrecision; image-rendering:optimizeQuality; fill-rule:evenodd; clip-rule:evenodd" xmlns:xlink="http://www.w3.org/1999/xlink">
<g><path style="opacity:0.906" fill="#bdbfc1" d="M 45.5,0.5 C 245.833,1.12134 446.166,1.62134 646.5,2C 665.686,6.52403 678.519,18.024 685,36.5C 684.264,355.74 684.431,674.906 685.5,994C 683.799,1022.7 669.466,1042.03 642.5,1052C 639.833,1052.33 637.167,1052.67 634.5,1053C 437.167,1053.67 239.833,1053.67 42.5,1053C 27.9238,1049.1 16.7571,1040.6 9,1027.5C 6.21067,1022.47 4.21067,1017.13 3,1011.5C 2.00077,1002.53 1.50077,993.531 1.5,984.5C 2.61472,668.167 2.78139,351.834 2,35.5C 3.21735,26.6166 7.38401,19.4499 14.5,14C 23.7345,6.70993 34.0678,2.20993 45.5,0.5 Z"/></g>
<g><path style="opacity:1" fill="#fefefe" d="M 42.5,5.5 C 243.5,5.98485 444.5,6.48485 645.5,7C 661.811,10.6415 673.311,20.1415 680,35.5C 680.667,356.167 680.667,676.833 680,997.5C 677.215,1023.9 663.048,1040.73 637.5,1048C 438.833,1048.67 240.167,1048.67 41.5,1048C 22.3766,1040.54 10.8766,1026.71 7,1006.5C 6.83333,979 6.66667,951.5 6.5,924C 7.64238,627.166 7.80904,330.333 7,33.5C 10.3006,24.5307 16.1339,17.6973 24.5,13C 30.3281,9.78826 36.3281,7.28826 42.5,5.5 Z"/></g>
<g><path style="opacity:1" fill="#050505" d="M 78.5,130.5 C 74.6812,129.834 70.6812,129.501 66.5,129.5C 62.107,129.509 58.107,130.176 54.5,131.5C 53.4383,136.976 52.4383,142.476 51.5,148C 51.8333,149.167 52.1667,150.333 52.5,151.5C 54.9176,152.457 57.0843,153.791 59,155.5C 59.6514,157.235 59.4847,158.902 58.5,160.5C 49.5246,161.498 40.5246,161.832 31.5,161.5C 31.3367,159.143 31.5034,156.81 32,154.5C 35.0047,152.998 38.1714,151.998 41.5,151.5C 46.7958,120.762 52.4625,90.0953 58.5,59.5C 63.5,59.5 68.5,59.5 73.5,59.5C 79.7397,90.5055 86.073,121.505 92.5,152.5C 99.4083,151.741 102.075,154.741 100.5,161.5C 92.1667,161.5 83.8333,161.5 75.5,161.5C 75.3367,159.143 75.5034,156.81 76,154.5C 78.3193,153.178 80.486,151.678 82.5,150C 80.9726,143.529 79.6393,137.029 78.5,130.5 Z"/></g>
<g><path style="opacity:1" fill="#f1f1f1" d="M 65.5,77.5 C 68.5708,83.75 70.7375,90.4166 72,97.5C 73.2352,104.839 74.4018,112.173 75.5,119.5C 69.5362,120.307 63.5362,120.64 57.5,120.5C 58.6861,105.853 61.3528,91.5192 65.5,77.5 Z"/></g>
<g><path style="opacity:1" fill="#a8a8a8" d="M 78.5,130.5 C 70.4144,130.199 62.4144,130.533 54.5,131.5C 58.107,130.176 62.107,129.509 66.5,129.5C 70.6812,129.501 74.6812,129.834 78.5,130.5 Z"/></g>
<g><path style="opacity:1" fill="#040404" d="M 64.5,174.5 C 74.8502,186.375 84.3502,199.041 93,212.5C 93.6667,217.167 93.6667,221.833 93,226.5C 89.6282,233.433 84.1282,235.933 76.5,234C 73.6884,232.023 71.0217,229.856 68.5,227.5C 68.1667,228.167 67.8333,228.833 67.5,229.5C 68.3952,234.542 69.3952,239.542 70.5,244.5C 67.1667,244.5 63.8333,244.5 60.5,244.5C 60.7625,239.947 61.4292,235.447 62.5,231C 62.1667,229.833 61.8333,228.667 61.5,227.5C 57.0903,233.041 51.4237,235.208 44.5,234C 38.7038,230.744 36.0371,225.744 36.5,219C 36.6368,216.102 37.1368,213.269 38,210.5C 47.4615,198.885 56.2949,186.885 64.5,174.5 Z"/></g>
<g><path style="opacity:1" fill="#020202" d="M 342.5,235.5 C 345.298,236.706 347.465,238.706 349,241.5C 371.784,276.285 396.118,309.951 422,342.5C 454.045,380.876 485.711,419.543 517,458.5C 532.671,479.157 546.337,501.157 558,524.5C 570.036,551.953 572.703,580.286 566,609.5C 554.37,646.128 529.537,667.295 491.5,673C 460.907,675.145 435.74,664.645 416,641.5C 405.333,626.833 394.667,612.167 384,597.5C 380,594.833 376.667,591.5 374,587.5C 370.061,579.955 366.394,572.288 363,564.5C 359.82,560.328 356.153,559.662 352,562.5C 346.378,584.462 349.878,604.962 362.5,624C 350.171,624.5 337.838,624.667 325.5,624.5C 329.801,615.547 333.301,606.214 336,596.5C 337.898,585.447 337.898,574.447 336,563.5C 331.295,558.036 326.962,558.369 323,564.5C 317.884,579.606 309.55,592.606 298,603.5C 288.244,617.344 278.244,631.011 268,644.5C 238.887,674.455 205.053,681.288 166.5,665C 128.934,643.031 112.767,610.198 118,566.5C 121.68,540.807 130.68,517.14 145,495.5C 158.021,475.459 172.021,456.126 187,437.5C 232.95,384.228 276.616,329.228 318,272.5C 326.187,260.11 334.354,247.776 342.5,235.5 Z"/></g>
<g><path style="opacity:1" fill="#fcfcfc" d="M 342.5,292.5 C 344.017,292.511 345.184,293.177 346,294.5C 362.838,320.337 380.838,345.337 400,369.5C 426.906,402.317 453.573,435.317 480,468.5C 493.25,486.656 505.25,505.656 516,525.5C 526.626,552.549 525.959,579.215 514,605.5C 496.157,632.832 470.991,643.999 438.5,639C 431.998,637.415 425.998,634.748 420.5,631C 465.361,630.974 488.361,608.474 489.5,563.5C 489.178,546.031 484.678,529.697 476,514.5C 470.916,505.997 465.583,497.664 460,489.5C 436,457.5 412,425.5 388,393.5C 373.329,372.006 358.496,350.672 343.5,329.5C 328.228,351.948 312.728,374.281 297,396.5C 276.667,423.167 256.333,449.833 236,476.5C 226.938,489.899 218.272,503.566 210,517.5C 195.702,543.58 193.702,570.58 204,598.5C 217.843,622.339 238.677,632.839 266.5,630C 250.114,640.563 232.447,643.23 213.5,638C 184.526,627.679 168.026,607.179 164,576.5C 162.157,550.539 168.157,526.539 182,504.5C 191.224,489.943 201.224,475.943 212,462.5C 248.87,418.41 284.537,373.41 319,327.5C 326.843,315.805 334.677,304.138 342.5,292.5 Z"/></g>
<g><path style="opacity:1" fill="#fafafa" d="M 342.5,363.5 C 344.129,364.625 345.629,365.959 347,367.5C 372.273,407.72 399.273,446.72 428,484.5C 437.026,497.881 445.026,511.881 452,526.5C 458.546,544.263 459.212,562.263 454,580.5C 445.04,602.228 428.873,612.062 405.5,610C 400.876,608.69 396.876,606.356 393.5,603C 429.083,605.082 445.583,588.249 443,552.5C 441.63,543.054 438.297,534.387 433,526.5C 404.475,486.81 374.642,448.144 343.5,410.5C 317.602,444.573 291.102,478.24 264,511.5C 256.389,521.716 250.056,532.716 245,544.5C 239.848,561.544 242.514,577.211 253,591.5C 265.342,602.465 279.508,606.132 295.5,602.5C 285.046,610.539 273.379,612.706 260.5,609C 241.55,600.305 231.05,585.472 229,564.5C 227.857,547.881 231.19,532.214 239,517.5C 247.333,504.167 255.667,490.833 264,477.5C 292.339,440.995 318.506,402.995 342.5,363.5 Z"/></g>
<g><path style="opacity:1" fill="#090909" d="M 327.5,638.5 C 337.839,638.334 348.172,638.5 358.5,639C 362.627,646.086 366.627,653.253 370.5,660.5C 367.442,662.141 364.108,662.974 360.5,663C 354.5,663.167 348.5,663.333 342.5,663.5C 333.424,663.665 324.424,662.999 315.5,661.5C 320.291,654.252 324.291,646.585 327.5,638.5 Z"/></g>
<g><path style="opacity:1" fill="#020202" d="M 321.5,679.5 C 335.849,679.167 350.182,679.501 364.5,680.5C 371.833,693.5 379.167,706.5 386.5,719.5C 370.38,721.031 354.214,721.698 338,721.5C 325.114,721.628 312.28,721.128 299.5,720C 308.732,707.583 316.065,694.083 321.5,679.5 Z"/></g>
<g><path style="opacity:1" fill="#030303" d="M 616.5,804.5 C 619.625,803.521 622.958,803.187 626.5,803.5C 625.944,807.84 625.277,812.173 624.5,816.5C 624.833,817.5 625.167,818.5 625.5,819.5C 631.618,813.061 638.618,811.894 646.5,816C 651.619,823.673 651.785,831.507 647,839.5C 638.667,850.833 630.333,862.167 622,873.5C 612.615,861.783 603.615,849.783 595,837.5C 593,831.5 593,825.5 595,819.5C 598.277,813.891 603.11,812.058 609.5,814C 613.275,815.442 616.108,817.942 618,821.5C 618.333,821.167 618.667,820.833 619,820.5C 619.244,814.905 618.411,809.572 616.5,804.5 Z"/></g>
<g><path style="opacity:1" fill="#040404" d="M 587.5,889.5 C 595.833,889.5 604.167,889.5 612.5,889.5C 614.01,895.643 611.677,898.976 605.5,899.5C 607.09,906.448 608.423,913.448 609.5,920.5C 617.49,921.023 625.49,921.356 633.5,921.5C 634.192,914.707 635.525,908.04 637.5,901.5C 635.462,899.724 633.296,898.057 631,896.5C 630.503,894.19 630.337,891.857 630.5,889.5C 639.192,889.169 647.859,889.502 656.5,890.5C 657.348,892.409 657.682,894.409 657.5,896.5C 653.904,897.199 650.404,898.199 647,899.5C 640.918,930.407 635.418,961.407 630.5,992.5C 625.5,992.5 620.5,992.5 615.5,992.5C 609.014,963.237 602.847,933.904 597,904.5C 595.655,899.651 592.489,897.318 587.5,897.5C 587.5,894.833 587.5,892.167 587.5,889.5 Z"/></g>
<g><path style="opacity:1" fill="#7e7e7e" d="M 613.5,932.5 C 619.31,931.51 625.31,931.177 631.5,931.5C 631.737,932.791 631.404,933.791 630.5,934.5C 625.265,932.55 619.598,931.883 613.5,932.5 Z"/></g>
<g><path style="opacity:1" fill="#f8f8f8" d="M 613.5,932.5 C 619.598,931.883 625.265,932.55 630.5,934.5C 628.578,947.941 626.078,961.275 623,974.5C 617.474,961.036 614.307,947.036 613.5,932.5 Z"/></g>
</svg>
