<?xml version="1.0" encoding="UTF-8"?>
<!DOCTYPE svg PUBLIC "-//W3C//DTD SVG 1.1//EN" "http://www.w3.org/Graphics/SVG/1.1/DTD/svg11.dtd">
<svg xmlns="http://www.w3.org/2000/svg" version="1.1" width="691px" height="1056px" style="shape-rendering:geometricPrecision; text-rendering:geometricPrecision; image-rendering:optimizeQuality; fill-rule:evenodd; clip-rule:evenodd" xmlns:xlink="http://www.w3.org/1999/xlink">
<g><path style="opacity:0.906" fill="#bfbfbf" d="M 45.5,0.5 C 245.833,1.12134 446.166,1.62134 646.5,2C 665.686,6.52403 678.519,18.024 685,36.5C 684.264,355.74 684.431,674.906 685.5,994C 683.799,1022.7 669.466,1042.03 642.5,1052C 639.833,1052.33 637.167,1052.67 634.5,1053C 437.167,1053.67 239.833,1053.67 42.5,1053C 27.9238,1049.1 16.7571,1040.6 9,1027.5C 6.21067,1022.47 4.21067,1017.13 3,1011.5C 2.00077,1002.53 1.50077,993.531 1.5,984.5C 2.61472,668.167 2.78139,351.834 2,35.5C 3.21735,26.6166 7.38401,19.4499 14.5,14C 23.7345,6.70993 34.0678,2.20993 45.5,0.5 Z"/></g>
<g><path style="opacity:1" fill="#fefefe" d="M 43.5,5.5 C 243.167,5.33333 442.834,5.5 642.5,6C 660.196,9.26057 672.696,19.0939 680,35.5C 680.667,356.167 680.667,676.833 680,997.5C 677.215,1023.9 663.048,1040.73 637.5,1048C 439.167,1048.67 240.833,1048.67 42.5,1048C 22.8191,1040.98 10.9858,1027.15 7,1006.5C 6.83333,979 6.66667,951.5 6.5,924C 7.63225,627.164 7.79892,330.33 7,33.5C 12.3827,21.0359 21.5493,12.5359 34.5,8C 37.678,7.34049 40.678,6.50716 43.5,5.5 Z"/></g>
<g><path style="opacity:1" fill="#686868" d="M 38.5,42.5 C 242.167,42.5 445.833,42.5 649.5,42.5C 649.5,365.5 649.5,688.5 649.5,1011.5C 445.833,1011.5 242.167,1011.5 38.5,1011.5C 38.5,688.5 38.5,365.5 38.5,42.5 Z"/></g>
<g><path style="opacity:1" fill="#f8f8f8" d="M 89.5,92.5 C 258.833,92.5 428.167,92.5 597.5,92.5C 597.5,382.167 597.5,671.833 597.5,961.5C 428.167,961.5 258.833,961.5 89.5,961.5C 89.5,671.833 89.5,382.167 89.5,92.5 Z"/></g>
<g><path style="opacity:1" fill="#686868" d="M 98.5,101.5 C 262.167,101.5 425.833,101.5 589.5,101.5C 589.5,385.5 589.5,669.5 589.5,953.5C 425.833,953.5 262.167,953.5 98.5,953.5C 98.5,669.5 98.5,385.5 98.5,101.5 Z"/></g>
<g><path style="opacity:1" fill="#f3f3f3" d="M 327.5,170.5 C 391.819,167.403 440.652,193.07 474,247.5C 496.295,292.334 497.295,337.667 477,383.5C 445.193,441.498 396.027,468.998 329.5,466C 265.597,456.64 223.097,421.473 202,360.5C 186.414,298.604 202.247,246.437 249.5,204C 272.559,185.927 298.559,174.76 327.5,170.5 Z"/></g>
<g><path style="opacity:1" fill="#6d6d6d" d="M 335.5,173.5 C 409.052,174.505 458.219,209.505 483,278.5C 497.136,339.752 480.636,390.919 433.5,432C 384.437,467.08 332.437,472.08 277.5,447C 222.207,414.928 196.374,366.761 200,302.5C 209.477,241.367 243.31,200.534 301.5,180C 312.743,176.629 324.076,174.463 335.5,173.5 Z"/></g>
<g><path style="opacity:1" fill="#fdfdfd" d="M 334.5,178.5 C 393.122,177.881 437.289,202.548 467,252.5C 493.386,308.936 487.386,361.603 449,410.5C 409.677,451.545 362.177,465.712 306.5,453C 247.396,433.634 213.563,393.134 205,331.5C 202.183,271.956 226.016,226.789 276.5,196C 294.837,186.422 314.17,180.589 334.5,178.5 Z"/></g>
<g><path style="opacity:1" fill="#6f6f6f" d="M 349.5,203.5 C 352.85,203.335 356.183,203.502 359.5,204C 363.859,205.503 364.359,207.67 361,210.5C 355.091,204.519 350.924,205.519 348.5,213.5C 350.186,220.881 354.019,222.215 360,217.5C 362.168,218.629 362.668,220.129 361.5,222C 354.368,226.287 348.868,224.787 345,217.5C 343.454,211.794 344.954,207.127 349.5,203.5 Z"/></g>
<g><path style="opacity:1" fill="#717171" d="M 366.5,205.5 C 372.36,206.215 378.027,207.715 383.5,210C 381.788,212.519 379.621,213.019 377,211.5C 374.564,216.578 373.064,221.911 372.5,227.5C 369.757,227.923 368.424,226.756 368.5,224C 370.058,219.272 371.058,214.438 371.5,209.5C 368.05,210.244 366.384,208.91 366.5,205.5 Z"/></g>
<g><path style="opacity:1" fill="#6f6f6f" d="M 329.5,203.5 C 331.144,203.286 332.644,203.62 334,204.5C 337.626,210.25 341.126,216.084 344.5,222C 341.153,223.206 338.82,222.206 337.5,219C 334.338,218.398 331.338,218.898 328.5,220.5C 327.754,221.736 327.421,223.07 327.5,224.5C 324.933,224.855 322.433,225.521 320,226.5C 316.906,223.869 313.406,222.202 309.5,221.5C 309.511,223.547 309.844,225.547 310.5,227.5C 310.167,229.167 309.167,230.167 307.5,230.5C 305.365,224.095 303.032,217.762 300.5,211.5C 305.04,208.376 310.04,207.209 315.5,208C 319.032,211.39 319.366,215.057 316.5,219C 318.641,220.308 320.641,221.808 322.5,223.5C 325.232,216.97 327.566,210.303 329.5,203.5 Z"/></g>
<g><path style="opacity:1" fill="#dfdfdf" d="M 331.5,209.5 C 333.054,210.914 334.388,212.581 335.5,214.5C 333.955,215.452 332.288,215.785 330.5,215.5C 330.517,213.435 330.85,211.435 331.5,209.5 Z"/></g>
<g><path style="opacity:1" fill="#f4f4f4" d="M 309.5,211.5 C 313.909,210.899 315.242,212.566 313.5,216.5C 308.573,219.919 306.239,218.586 306.5,212.5C 307.791,212.737 308.791,212.404 309.5,211.5 Z"/></g>
<g><path style="opacity:1" fill="#6f6f6f" d="M 293.5,213.5 C 295.346,213.222 296.68,213.889 297.5,215.5C 296.055,217.063 294.389,218.396 292.5,219.5C 295.167,224.167 297.833,228.833 300.5,233.5C 299.672,234.415 298.672,235.081 297.5,235.5C 294.015,231.21 291.015,226.543 288.5,221.5C 287.059,222.304 285.559,222.971 284,223.5C 282.72,223.387 281.887,222.72 281.5,221.5C 285.565,218.81 289.565,216.143 293.5,213.5 Z"/></g>
<g><path style="opacity:1" fill="#6f6f6f" d="M 401.5,218.5 C 404.899,220.031 408.233,221.865 411.5,224C 412.573,225.313 413.24,226.813 413.5,228.5C 411.027,232.16 409.194,236.16 408,240.5C 404.518,243.021 401.018,242.855 397.5,240C 395.024,238.691 393.024,236.858 391.5,234.5C 395.282,229.398 398.616,224.064 401.5,218.5 Z"/></g>
<g><path style="opacity:1" fill="#6e6e6e" d="M 275.5,224.5 C 277.716,225.203 279.549,226.536 281,228.5C 284.025,232.024 286.858,235.691 289.5,239.5C 289,240.881 288,241.547 286.5,241.5C 281.451,240.436 276.451,239.603 271.5,239C 273.979,242.313 276.645,245.48 279.5,248.5C 278.672,249.415 277.672,250.081 276.5,250.5C 271.822,245.821 267.489,240.821 263.5,235.5C 264.171,234.054 265.338,233.388 267,233.5C 271.859,234.607 276.692,235.44 281.5,236C 279.707,233.205 277.54,230.705 275,228.5C 274.421,227.072 274.588,225.738 275.5,224.5 Z"/></g>
<g><path style="opacity:1" fill="#f1f1f1" d="M 402.5,224.5 C 406.293,224.44 408.459,226.107 409,229.5C 406.01,230.608 403.51,229.775 401.5,227C 402.252,226.329 402.586,225.496 402.5,224.5 Z"/></g>
<g><path style="opacity:1" fill="#ededed" d="M 398.5,230.5 C 400.754,231.415 402.754,232.748 404.5,234.5C 405.903,237.601 404.903,238.767 401.5,238C 399.651,236.907 397.984,235.574 396.5,234C 397.823,233.184 398.489,232.017 398.5,230.5 Z"/></g>
<g><path style="opacity:1" fill="#6e6e6e" d="M 420.5,231.5 C 424.88,234.365 427.88,238.199 429.5,243C 429.114,248.543 426.114,250.709 420.5,249.5C 420.453,252.568 419.953,255.568 419,258.5C 417.647,257.315 416.48,255.981 415.5,254.5C 416.575,251.562 416.741,248.562 416,245.5C 415.586,245.043 415.086,244.709 414.5,244.5C 412.833,245.833 411.167,247.167 409.5,248.5C 408.354,247.855 407.354,247.022 406.5,246C 411.37,241.298 416.037,236.465 420.5,231.5 Z"/></g>
<g><path style="opacity:1" fill="#fbfbfb" d="M 420.5,237.5 C 423.833,239.159 425.5,241.825 425.5,245.5C 422.033,245.554 419.366,244.054 417.5,241C 418.71,239.961 419.71,238.794 420.5,237.5 Z"/></g>
<g><path style="opacity:1" fill="#707070" d="M 257.5,243.5 C 267.859,244.023 272.025,249.356 270,259.5C 263.667,266.167 257.333,266.167 251,259.5C 248.475,252.221 250.642,246.888 257.5,243.5 Z"/></g>
<g><path style="opacity:1" fill="#f7f7f7" d="M 258.5,247.5 C 266.517,248.859 268.517,253.025 264.5,260C 257.325,261.48 253.825,258.647 254,251.5C 255.397,249.93 256.897,248.596 258.5,247.5 Z"/></g>
<g><path style="opacity:1" fill="#6f6f6f" d="M 335.5,247.5 C 371.818,246.229 396.985,262.229 411,295.5C 419.066,325.076 412.232,350.576 390.5,372C 360.021,394.937 329.355,395.271 298.5,373C 271.796,347.143 266.296,317.309 282,283.5C 294.451,263.368 312.284,251.368 335.5,247.5 Z"/></g>
<g><path style="opacity:1" fill="#717171" d="M 434.5,247.5 C 436.609,248.052 437.442,249.386 437,251.5C 432.41,254.879 427.91,258.379 423.5,262C 420.866,262.925 419.699,262.091 420,259.5C 424.996,255.601 429.829,251.601 434.5,247.5 Z"/></g>
<g><path style="opacity:1" fill="#f1f1f1" d="M 333.5,252.5 C 362.594,249.634 385.094,260.3 401,284.5C 415.665,313.173 412.665,339.84 392,364.5C 367.493,386.525 340.326,390.358 310.5,376C 280.92,355.597 271.42,328.097 282,293.5C 292.384,271.087 309.551,257.42 333.5,252.5 Z"/></g>
<g><path style="opacity:1" fill="#6a6a6a" d="M 332.5,255.5 C 370.395,252.684 394.895,269.351 406,305.5C 409.911,346.233 392.078,371.4 352.5,381C 324.105,383.553 302.605,372.72 288,348.5C 273.632,314.975 280.799,287.141 309.5,265C 316.824,260.661 324.49,257.494 332.5,255.5 Z"/></g>
<g><path style="opacity:1" fill="#6f6f6f" d="M 440.5,255.5 C 445.388,259.642 447.221,264.976 446,271.5C 443.081,277.025 438.581,278.858 432.5,277C 428.437,274.061 425.437,270.228 423.5,265.5C 429.427,262.379 435.093,259.046 440.5,255.5 Z"/></g>
<g><path style="opacity:1" fill="#fdfdfd" d="M 344.5,257.5 C 351.981,271.118 360.481,284.118 370,296.5C 379.023,304.524 387.69,312.858 396,321.5C 403.247,337.343 399.08,349.176 383.5,357C 377.235,358.484 370.902,358.818 364.5,358C 359.968,355.588 355.635,353.088 351.5,350.5C 352.438,359.017 353.938,367.35 356,375.5C 348.587,376.481 341.087,376.814 333.5,376.5C 334.275,370.669 335.775,365.002 338,359.5C 338.498,356.518 338.665,353.518 338.5,350.5C 337.127,350.343 335.793,350.51 334.5,351C 319.522,361.801 305.355,360.968 292,348.5C 286.042,338.565 286.042,328.565 292,318.5C 303.633,308.536 314.966,298.202 326,287.5C 333.431,278.309 339.598,268.309 344.5,257.5 Z"/></g>
<g><path style="opacity:1" fill="#fafafa" d="M 438.5,261.5 C 440.411,261.574 441.578,262.574 442,264.5C 443.218,271.283 440.384,274.116 433.5,273C 431.586,271.587 430.253,269.753 429.5,267.5C 432.357,265.242 435.357,263.242 438.5,261.5 Z"/></g>
<g><path style="opacity:1" fill="#6f6f6f" d="M 245.5,261.5 C 247.121,261.787 248.121,262.787 248.5,264.5C 242.434,267.718 241.434,271.885 245.5,277C 251.207,279.977 254.874,278.31 256.5,272C 255.852,270.56 255.519,269.06 255.5,267.5C 257.144,267.286 258.644,267.62 260,268.5C 260.693,278.805 255.859,283.305 245.5,282C 239.398,277.895 237.898,272.395 241,265.5C 242.397,263.93 243.897,262.596 245.5,261.5 Z"/></g>
<g><path style="opacity:1" fill="#717171" d="M 441.5,279.5 C 453.952,278.439 458.285,283.773 454.5,295.5C 451.17,294.65 450.503,292.817 452.5,290C 451.422,284.455 448.089,282.455 442.5,284C 437.351,287.589 437.185,291.422 442,295.5C 443.158,295.002 443.991,294.169 444.5,293C 443.852,291.56 443.519,290.06 443.5,288.5C 444.822,288.33 445.989,288.663 447,289.5C 448.341,292.022 449.174,294.689 449.5,297.5C 439.197,301.382 434.363,297.715 435,286.5C 436.694,283.642 438.861,281.309 441.5,279.5 Z"/></g>
<g><path style="opacity:1" fill="#6f6f6f" d="M 229.5,298.5 C 236.523,298.969 243.523,299.636 250.5,300.5C 250.67,301.822 250.337,302.989 249.5,304C 244.999,306.416 240.666,309.083 236.5,312C 240.363,313.354 244.363,313.854 248.5,313.5C 248.5,314.833 248.5,316.167 248.5,317.5C 241.826,317.287 235.159,316.954 228.5,316.5C 228.178,314.278 228.845,312.444 230.5,311C 234.167,308.667 237.833,306.333 241.5,304C 237.534,303.172 233.534,302.672 229.5,302.5C 229.5,301.167 229.5,299.833 229.5,298.5 Z"/></g>
<g><path style="opacity:1" fill="#6f6f6f" d="M 445.5,301.5 C 450.167,301.5 454.833,301.5 459.5,301.5C 459.223,306.233 459.557,310.9 460.5,315.5C 459.311,316.429 457.978,316.762 456.5,316.5C 456.058,312.846 455.724,309.179 455.5,305.5C 454.167,305.5 452.833,305.5 451.5,305.5C 451.5,308.833 451.5,312.167 451.5,315.5C 450.167,315.5 448.833,315.5 447.5,315.5C 447.5,312.5 447.5,309.5 447.5,306.5C 445.833,306.5 444.167,306.5 442.5,306.5C 442.833,310.5 443.167,314.5 443.5,318.5C 442.167,318.5 440.833,318.5 439.5,318.5C 439.313,313.155 438.98,307.822 438.5,302.5C 441.059,302.802 443.393,302.468 445.5,301.5 Z"/></g>
<g><path style="opacity:1" fill="#707070" d="M 247.5,318.5 C 249.231,321.628 248.398,323.961 245,325.5C 244.542,328.558 244.876,331.558 246,334.5C 247.356,335.38 248.856,335.714 250.5,335.5C 250.5,336.833 250.5,338.167 250.5,339.5C 244.669,338.725 239.002,337.225 233.5,335C 230.041,334.084 229.041,332.084 230.5,329C 236.566,325.976 242.232,322.476 247.5,318.5 Z"/></g>
<g><path style="opacity:1" fill="#f3f3f3" d="M 238.5,328.5 C 240.176,329.183 240.843,330.517 240.5,332.5C 235.256,332.335 234.59,331.001 238.5,328.5 Z"/></g>
<g><path style="opacity:1" fill="#727272" d="M 438.5,333.5 C 444.554,334.35 450.554,335.517 456.5,337C 459.064,338.481 459.064,339.981 456.5,341.5C 452.155,340.608 447.822,339.608 443.5,338.5C 440.644,340.703 439.311,343.703 439.5,347.5C 438.167,347.5 436.833,347.5 435.5,347.5C 436.085,342.745 437.085,338.079 438.5,333.5 Z"/></g>
<g><path style="opacity:1" fill="#717171" d="M 246.5,340.5 C 252.889,342.938 255.389,347.605 254,354.5C 248.364,362.667 242.031,363.333 235,356.5C 233.496,352.961 233.163,349.295 234,345.5C 234.741,344.359 235.575,344.359 236.5,345.5C 235.079,353.844 238.412,357.344 246.5,356C 249.991,354.179 251.157,351.346 250,347.5C 248.478,345.978 246.978,344.478 245.5,343C 245.743,342.098 246.077,341.265 246.5,340.5 Z"/></g>
<g><path style="opacity:1" fill="#6f6f6f" d="M 434.5,348.5 C 440.831,350.748 446.997,353.414 453,356.5C 451.827,361.19 450.327,365.856 448.5,370.5C 446.654,370.778 445.32,370.111 444.5,368.5C 445.704,365.261 447.038,362.094 448.5,359C 447.241,358.018 445.908,357.685 444.5,358C 443.188,360.941 441.688,363.774 440,366.5C 438.842,366.002 438.009,365.169 437.5,364C 438.598,361.54 439.598,359.04 440.5,356.5C 439.38,354.404 437.88,354.07 436,355.5C 434.861,358.583 433.528,361.583 432,364.5C 431.282,363.549 430.449,363.383 429.5,364C 434.43,369.878 437.93,376.378 440,383.5C 432.434,383.873 424.934,382.873 417.5,380.5C 417.833,379.833 418.167,379.167 418.5,378.5C 420.766,377.686 423.1,377.186 425.5,377C 427.032,374.966 428.365,372.799 429.5,370.5C 427.744,368.809 427.244,366.809 428,364.5C 430.271,359.183 432.437,353.85 434.5,348.5 Z"/></g>
<g><path style="opacity:1" fill="#737373" d="M 259.5,363.5 C 253.613,366.026 247.78,368.693 242,371.5C 240.978,370.646 240.145,369.646 239.5,368.5C 245.114,365.109 250.947,362.109 257,359.5C 259.02,360.032 259.853,361.365 259.5,363.5 Z"/></g>
<g><path style="opacity:1" fill="#6e6e6e" d="M 259.5,363.5 C 260.652,364.834 261.652,366.334 262.5,368C 261.402,370.46 260.402,372.96 259.5,375.5C 259.865,376.902 260.699,377.902 262,378.5C 264.058,377.888 265.891,376.888 267.5,375.5C 268.415,376.328 269.081,377.328 269.5,378.5C 264.089,382.622 258.589,386.622 253,390.5C 251.248,387.328 249.248,384.328 247,381.5C 245.361,373.975 248.195,370.975 255.5,372.5C 257.219,369.677 258.553,366.677 259.5,363.5 Z"/></g>
<g><path style="opacity:1" fill="#ededed" d="M 431.5,374.5 C 436.097,378.524 435.43,379.857 429.5,378.5C 430.18,377.14 430.847,375.807 431.5,374.5 Z"/></g>
<g><path style="opacity:1" fill="#f2f2f2" d="M 251.5,375.5 C 254.815,375.972 257.149,377.805 258.5,381C 255.427,385.508 252.927,385.341 251,380.5C 250.36,378.735 250.527,377.068 251.5,375.5 Z"/></g>
<g><path style="opacity:1" fill="#747474" d="M 269.5,380.5 C 274.527,382.685 278.527,386.185 281.5,391C 277.364,396.303 272.697,401.137 267.5,405.5C 263.5,402.167 259.833,398.5 256.5,394.5C 257.328,393.585 258.328,392.919 259.5,392.5C 262.167,394.833 264.833,397.167 267.5,399.5C 268.646,398.855 269.646,398.022 270.5,397C 267.983,394.651 265.65,392.151 263.5,389.5C 264.145,388.354 264.978,387.354 266,386.5C 268.349,389.017 270.849,391.35 273.5,393.5C 274.646,392.855 275.646,392.022 276.5,391C 274,388.5 271.5,386 269,383.5C 268.53,382.423 268.697,381.423 269.5,380.5 Z"/></g>
<g><path style="opacity:1" fill="#707070" d="M 413.5,383.5 C 425.214,383.706 429.381,389.373 426,400.5C 423.681,403.773 420.514,405.44 416.5,405.5C 416.5,404.167 416.5,402.833 416.5,401.5C 422.849,400.973 425.016,397.639 423,391.5C 416.936,385.514 412.936,386.514 411,394.5C 411.414,394.957 411.914,395.291 412.5,395.5C 414.755,392.005 417.088,391.838 419.5,395C 417.273,397.935 414.606,399.935 411.5,401C 410,399.5 408.5,398 407,396.5C 406.483,390.868 408.649,386.535 413.5,383.5 Z"/></g>
<g><path style="opacity:1" fill="#6f6f6f" d="M 283.5,393.5 C 285.09,393.628 286.423,394.295 287.5,395.5C 285.289,398.756 282.955,401.922 280.5,405C 283.716,404.103 287.049,403.269 290.5,402.5C 290.336,405.187 290.503,407.854 291,410.5C 293.167,407.5 295.333,404.5 297.5,401.5C 298.646,402.145 299.646,402.978 300.5,404C 297.026,409.792 293.193,415.292 289,420.5C 288.228,420.355 287.561,420.022 287,419.5C 286.667,415.5 286.333,411.5 286,407.5C 281.802,410.721 277.302,411.554 272.5,410C 276.549,404.729 280.216,399.229 283.5,393.5 Z"/></g>
<g><path style="opacity:1" fill="#6f6f6f" d="M 395.5,397.5 C 398.978,397.184 402.312,397.684 405.5,399C 408.167,403 410.833,407 413.5,411C 412.534,412.678 411.201,413.345 409.5,413C 407.167,409.333 404.833,405.667 402.5,402C 398.518,400.579 395.852,401.746 394.5,405.5C 396.147,409.459 398.314,413.125 401,416.5C 401.783,418.319 401.283,419.652 399.5,420.5C 395.942,417.065 393.109,413.065 391,408.5C 390.333,406.5 390.333,404.5 391,402.5C 392.707,400.963 394.207,399.296 395.5,397.5 Z"/></g>
<g><path style="opacity:1" fill="#6d6d6d" d="M 301.5,404.5 C 302.583,404.539 303.583,404.873 304.5,405.5C 305.466,407.396 305.799,409.396 305.5,411.5C 307.905,411.866 310.238,412.533 312.5,413.5C 314.447,412.723 316.28,411.723 318,410.5C 319.225,410.862 320.391,411.362 321.5,412C 316.5,417 311.5,422 306.5,427C 305.5,427.667 304.5,427.667 303.5,427C 302.313,419.595 301.647,412.095 301.5,404.5 Z"/></g>
<g><path style="opacity:1" fill="#6f6f6f" d="M 383.5,404.5 C 384.496,404.414 385.329,404.748 386,405.5C 388.757,411.669 390.923,418.003 392.5,424.5C 387.826,425.669 383.326,427.336 379,429.5C 378.018,428.241 377.685,426.908 378,425.5C 381.438,424.199 384.605,422.532 387.5,420.5C 387.081,419.328 386.415,418.328 385.5,417.5C 382.607,418.74 379.773,420.074 377,421.5C 376.5,420.5 376,419.5 375.5,418.5C 378.083,416.378 381.083,415.045 384.5,414.5C 384.617,412.516 383.95,410.85 382.5,409.5C 379.5,410.833 376.5,412.167 373.5,413.5C 372.28,413.113 371.613,412.28 371.5,411C 375.374,408.564 379.374,406.397 383.5,404.5 Z"/></g>
<g><path style="opacity:1" fill="#ededed" d="M 306.5,415.5 C 311.448,416.722 311.615,418.722 307,421.5C 306.505,419.527 306.338,417.527 306.5,415.5 Z"/></g>
<g><path style="opacity:1" fill="#727272" d="M 341.5,420.5 C 348.803,421.267 350.136,424.433 345.5,430C 340.667,430.5 338.5,428.333 339,423.5C 339.698,422.309 340.531,421.309 341.5,420.5 Z"/></g>
<g><path style="opacity:1" fill="#f2f2f2" d="M 331.5,587.5 C 397.892,586.097 446.726,614.431 478,672.5C 501.584,729.707 494.584,782.707 457,831.5C 413.413,878.245 360.579,893.411 298.5,877C 248.983,859.483 216.483,825.65 201,775.5C 185.55,703.139 208.717,646.972 270.5,607C 289.652,596.336 309.986,589.836 331.5,587.5 Z"/></g>
<g><path style="opacity:1" fill="#6d6d6d" d="M 327.5,591.5 C 379.939,587.988 423.106,605.988 457,645.5C 494.028,696.379 498.361,750.045 470,806.5C 441.185,853.668 399.018,878.335 343.5,880.5C 289.965,878.495 248.798,855.162 220,810.5C 193.45,762.188 192.783,713.522 218,664.5C 243.144,623.198 279.644,598.864 327.5,591.5 Z"/></g>
<g><path style="opacity:1" fill="#fdfdfd" d="M 330.5,596.5 C 388.328,593.662 432.828,616.328 464,664.5C 489.155,710.469 489.821,756.803 466,803.5C 431.694,858.564 382.194,881.731 317.5,873C 263.408,860.551 227.575,828.051 210,775.5C 195.848,718.589 210.015,670.089 252.5,630C 275.121,610.853 301.121,599.687 330.5,596.5 Z"/></g>
<g><path style="opacity:1" fill="#6b6b6b" d="M 341.5,624.5 C 348.676,623.985 350.342,626.818 346.5,633C 339.416,633.475 337.749,630.642 341.5,624.5 Z"/></g>
<g><path style="opacity:1" fill="#6f6f6f" d="M 305.5,625.5 C 307.716,625.275 309.383,626.108 310.5,628C 307.428,629.858 304.095,631.024 300.5,631.5C 300.116,633.665 300.783,635.332 302.5,636.5C 304.88,635.206 307.38,634.206 310,633.5C 311.169,634.009 312.002,634.842 312.5,636C 309.721,637.722 306.721,638.889 303.5,639.5C 303.231,641.429 303.731,643.095 305,644.5C 308.094,643.038 311.261,641.704 314.5,640.5C 315.415,641.328 316.081,642.328 316.5,643.5C 311.817,646.284 306.817,648.284 301.5,649.5C 299.594,643.185 297.261,637.018 294.5,631C 298.227,629.136 301.894,627.303 305.5,625.5 Z"/></g>
<g><path style="opacity:1" fill="#6e6e6e" d="M 380.5,626.5 C 382.39,626.297 383.89,626.963 385,628.5C 385.577,635.5 386.077,642.5 386.5,649.5C 385.178,649.67 384.011,649.337 383,648.5C 382.749,646.567 382.249,644.734 381.5,643C 378.868,642.551 376.368,641.717 374,640.5C 372.566,640.93 371.399,641.764 370.5,643C 369.056,643.781 367.723,643.614 366.5,642.5C 371.562,637.443 376.228,632.11 380.5,626.5 Z"/></g>
<g><path style="opacity:1" fill="#717171" d="M 287.5,633.5 C 289.624,634.031 291.124,635.365 292,637.5C 294.611,640.72 296.111,644.387 296.5,648.5C 295.943,653.56 293.109,656.56 288,657.5C 285.077,657.205 282.743,655.871 281,653.5C 278.818,649.99 276.651,646.49 274.5,643C 275.009,641.831 275.842,640.998 277,640.5C 279.955,644.244 282.789,648.078 285.5,652C 289.508,653.416 291.841,652.082 292.5,648C 290.43,643.744 288.096,639.577 285.5,635.5C 286.243,634.818 286.909,634.151 287.5,633.5 Z"/></g>
<g><path style="opacity:1" fill="#eeeeee" d="M 380.5,632.5 C 381.461,634.265 381.795,636.265 381.5,638.5C 379.654,638.778 378.32,638.111 377.5,636.5C 378.524,635.148 379.524,633.815 380.5,632.5 Z"/></g>
<g><path style="opacity:1" fill="#6d6d6d" d="M 397.5,633.5 C 398.583,633.539 399.583,633.873 400.5,634.5C 401.327,638.459 401.827,642.459 402,646.5C 405.033,644.877 408.2,643.544 411.5,642.5C 413,642.453 414,643.119 414.5,644.5C 411.291,649.752 407.958,654.918 404.5,660C 402.681,660.783 401.348,660.283 400.5,658.5C 403.124,655.433 404.958,652.1 406,648.5C 403.413,650.196 400.579,651.196 397.5,651.5C 397.665,648.482 397.498,645.482 397,642.5C 395.056,646.11 392.723,649.443 390,652.5C 388.842,652.002 388.009,651.169 387.5,650C 391.07,644.607 394.404,639.107 397.5,633.5 Z"/></g>
<g><path style="opacity:1" fill="#a2a2a2" d="M 267.5,649.5 C 268.568,648.566 269.901,648.232 271.5,648.5C 271.5,650.167 271.5,651.833 271.5,653.5C 270.5,653.5 269.5,653.5 268.5,653.5C 269.806,652.533 270.473,651.199 270.5,649.5C 269.5,649.5 268.5,649.5 267.5,649.5 Z"/></g>
<g><path style="opacity:1" fill="#6f6f6f" d="M 267.5,649.5 C 268.5,649.5 269.5,649.5 270.5,649.5C 270.473,651.199 269.806,652.533 268.5,653.5C 262.832,656.354 262.166,660.187 266.5,665C 271.685,667.412 275.352,665.912 277.5,660.5C 276.758,659.713 275.925,659.047 275,658.5C 273.041,661.789 270.875,662.123 268.5,659.5C 273.132,651.431 277.466,651.598 281.5,660C 280.468,666.864 276.468,670.364 269.5,670.5C 259.761,667.183 257.427,661.016 262.5,652C 264.078,650.906 265.745,650.072 267.5,649.5 Z"/></g>
<g><path style="opacity:1" fill="#6c6c6c" d="M 419.5,648.5 C 423.479,651.812 427.146,655.479 430.5,659.5C 429.652,661.283 428.319,661.783 426.5,661C 424.333,658.833 422.167,656.667 420,654.5C 418.978,655.354 418.145,656.354 417.5,657.5C 419.149,659.65 420.982,661.65 423,663.5C 423.483,664.448 423.649,665.448 423.5,666.5C 420.213,665.736 417.546,663.903 415.5,661C 413.609,660.691 412.275,661.525 411.5,663.5C 413.483,665.984 415.65,668.317 418,670.5C 418.601,671.965 418.101,672.965 416.5,673.5C 412.682,670.182 409.015,666.682 405.5,663C 410.37,658.298 415.037,653.465 419.5,648.5 Z"/></g>
<g><path style="opacity:1" fill="#6e6e6e" d="M 330.5,665.5 C 368.94,661.789 395.774,677.455 411,712.5C 419.788,745.469 410.954,772.636 384.5,794C 360.26,809.016 335.26,810.349 309.5,798C 277.998,777.185 267.165,748.352 277,711.5C 287.044,686.946 304.877,671.613 330.5,665.5 Z"/></g>
<g><path style="opacity:1" fill="#6f6f6f" d="M 428.5,690.5 C 426.522,689.683 425.522,688.183 425.5,686C 426.657,682.887 427.157,679.72 427,676.5C 424.595,675.755 422.428,676.422 420.5,678.5C 419.354,677.855 418.354,677.022 417.5,676C 422.821,671.672 428.488,667.838 434.5,664.5C 438.794,668.261 440.961,672.928 441,678.5C 438.893,682.501 435.727,683.501 431.5,681.5C 429.899,684.304 428.899,687.304 428.5,690.5 Z"/></g>
<g><path style="opacity:1" fill="#f0f0f0" d="M 334.5,669.5 C 369.348,667.55 393.515,682.55 407,714.5C 415.087,746.577 405.921,772.41 379.5,792C 342.565,810.556 311.732,803.39 287,770.5C 269.376,734.6 276.21,704.433 307.5,680C 315.942,674.768 324.942,671.268 334.5,669.5 Z"/></g>
<g><path style="opacity:1" fill="#f6f6f6" d="M 431.5,670.5 C 434.669,670.662 436.669,672.328 437.5,675.5C 437.135,676.902 436.301,677.902 435,678.5C 430.595,676.739 429.428,674.072 431.5,670.5 Z"/></g>
<g><path style="opacity:1" fill="#6a6a6a" d="M 333.5,672.5 C 370.755,670.522 394.922,687.188 406,722.5C 410.176,755.323 397.676,779.157 368.5,794C 335.011,805.48 308.511,796.647 289,767.5C 272.504,731.306 280.671,702.14 313.5,680C 320.017,676.777 326.683,674.277 333.5,672.5 Z"/></g>
<g><path style="opacity:1" fill="#fdfdfd" d="M 331.5,678.5 C 339.167,678.5 346.833,678.5 354.5,678.5C 353.295,683.248 351.795,687.915 350,692.5C 349.501,696.152 349.335,699.818 349.5,703.5C 350.873,703.657 352.207,703.49 353.5,703C 369.338,691.762 383.838,693.262 397,707.5C 401.946,717.452 401.279,727.119 395,736.5C 383.367,746.464 372.034,756.798 361,767.5C 353.812,776.371 347.812,786.037 343,796.5C 335.747,783.655 327.747,771.322 319,759.5C 310.637,750.803 301.97,742.469 293,734.5C 283.637,718.456 287.137,705.956 303.5,697C 309.442,695.594 315.442,695.261 321.5,696C 326.874,698.02 331.874,700.52 336.5,703.5C 335.626,695.004 333.959,686.67 331.5,678.5 Z"/></g>
<g><path style="opacity:1" fill="#747474" d="M 428.5,690.5 C 434.266,688.118 439.932,685.451 445.5,682.5C 447.596,683.62 447.93,685.12 446.5,687C 440.922,689.706 435.422,692.539 430,695.5C 428.192,693.967 427.692,692.3 428.5,690.5 Z"/></g>
<g><path style="opacity:1" fill="#707070" d="M 247.5,669.5 C 255.239,670.413 262.906,671.746 270.5,673.5C 270.023,674.478 269.357,675.311 268.5,676C 266.5,676.333 264.5,676.667 262.5,677C 261.696,678.771 260.529,680.271 259,681.5C 258.709,683.783 259.209,685.95 260.5,688C 257.923,693.91 255.256,699.743 252.5,705.5C 245.842,703.504 239.842,700.504 234.5,696.5C 235.845,691.968 237.678,687.635 240,683.5C 241.205,684.071 242.372,684.738 243.5,685.5C 241.892,688.382 240.559,691.382 239.5,694.5C 240.463,696.49 241.796,696.823 243.5,695.5C 244.601,693.358 245.601,691.192 246.5,689C 247.944,688.219 249.277,688.386 250.5,689.5C 249.598,692.04 248.598,694.54 247.5,697C 248.172,699.39 249.505,699.89 251.5,698.5C 252.695,696.249 253.695,693.915 254.5,691.5C 255.376,690.749 256.376,690.249 257.5,690C 253.582,684.167 249.916,678.167 246.5,672C 247.252,671.329 247.586,670.496 247.5,669.5 Z"/></g>
<g><path style="opacity:1" fill="#f0f0f0" d="M 252.5,675.5 C 254.435,674.291 256.435,674.458 258.5,676C 257.299,676.903 256.465,678.069 256,679.5C 255.051,677.907 253.885,676.574 252.5,675.5 Z"/></g>
<g><path style="opacity:1" fill="#6e6e6e" d="M 438.5,713.5 C 433.596,709.017 432.429,703.683 435,697.5C 439.546,693.251 444.713,692.418 450.5,695C 454.897,699.341 455.563,704.174 452.5,709.5C 451.328,709.081 450.328,708.415 449.5,707.5C 451.532,699.697 448.532,696.53 440.5,698C 436.174,703.044 436.84,707.378 442.5,711C 441.692,712.706 440.359,713.539 438.5,713.5 Z"/></g>
<g><path style="opacity:1" fill="#717171" d="M 248.5,706.5 C 249.833,706.5 251.167,706.5 252.5,706.5C 251.363,710.417 250.53,714.417 250,718.5C 249.161,719.624 247.994,720.291 246.5,720.5C 241.196,719.227 235.863,718.06 230.5,717C 229.253,715.506 229.253,714.006 230.5,712.5C 235.567,713.58 240.567,714.913 245.5,716.5C 246.907,713.279 247.907,709.945 248.5,706.5 Z"/></g>
<g><path style="opacity:1" fill="#707070" d="M 438.5,713.5 C 444.758,716.588 451.425,718.922 458.5,720.5C 458.714,722.144 458.38,723.644 457.5,725C 451.37,728.3 445.37,731.8 439.5,735.5C 438.008,732.233 439.008,730.066 442.5,729C 443.059,728.275 443.392,727.442 443.5,726.5C 442.777,724.218 442.443,721.884 442.5,719.5C 439.412,719.633 437.412,718.3 436.5,715.5C 436.747,714.287 437.414,713.62 438.5,713.5 Z"/></g>
<g><path style="opacity:1" fill="#e4e4e4" d="M 446.5,721.5 C 454.296,722.395 454.296,723.729 446.5,725.5C 446.5,724.167 446.5,722.833 446.5,721.5 Z"/></g>
<g><path style="opacity:1" fill="#707070" d="M 236.5,742.5 C 236.5,741.167 236.5,739.833 236.5,738.5C 237.5,738.5 238.5,738.5 239.5,738.5C 239.704,741.518 240.037,744.518 240.5,747.5C 242.288,747.785 243.955,747.452 245.5,746.5C 244.583,743.242 244.249,739.909 244.5,736.5C 245.822,736.33 246.989,736.663 248,737.5C 248.351,742.198 248.851,746.864 249.5,751.5C 242.485,752.047 235.485,752.713 228.5,753.5C 228.431,748.146 228.098,742.813 227.5,737.5C 228.833,737.5 230.167,737.5 231.5,737.5C 231.724,741.179 232.058,744.846 232.5,748.5C 233.833,748.5 235.167,748.5 236.5,748.5C 236.5,746.5 236.5,744.5 236.5,742.5 Z"/></g>
<g><path style="opacity:1" fill="#717171" d="M 438.5,736.5 C 445.523,736.969 452.523,737.636 459.5,738.5C 459.703,740.39 459.037,741.89 457.5,743C 453.664,745.084 449.997,747.417 446.5,750C 450.418,751.156 454.418,751.656 458.5,751.5C 458.5,752.833 458.5,754.167 458.5,755.5C 451.49,755.332 444.49,754.999 437.5,754.5C 437.286,752.856 437.62,751.356 438.5,750C 443.001,747.584 447.334,744.917 451.5,742C 447.187,741.265 442.853,740.765 438.5,740.5C 438.5,739.167 438.5,737.833 438.5,736.5 Z"/></g>
<g><path style="opacity:1" fill="#b2b2b2" d="M 239.5,738.5 C 238.5,738.5 237.5,738.5 236.5,738.5C 236.5,739.833 236.5,741.167 236.5,742.5C 235.549,741.081 235.216,739.415 235.5,737.5C 237.099,737.232 238.432,737.566 239.5,738.5 Z"/></g>
<g><path style="opacity:1" fill="#707070" d="M 243.5,754.5 C 252.108,756.722 254.608,762.055 251,770.5C 244.922,777.077 238.922,777.077 233,770.5C 231.763,766.94 231.263,763.273 231.5,759.5C 233.429,759.231 235.095,759.731 236.5,761C 234.695,768.529 237.695,771.529 245.5,770C 248.576,767.388 249.243,764.221 247.5,760.5C 246.311,759.571 244.978,759.238 243.5,759.5C 243.833,761.5 244.167,763.5 244.5,765.5C 243.167,765.5 241.833,765.5 240.5,765.5C 240.145,762.933 239.479,760.433 238.5,758C 239.921,756.377 241.588,755.21 243.5,754.5 Z"/></g>
<g><path style="opacity:1" fill="#6e6e6e" d="M 434.5,771.5 C 444.828,771.326 449.328,776.326 448,786.5C 446.636,789.363 444.47,791.363 441.5,792.5C 440.28,792.113 439.613,791.28 439.5,790C 442.203,788.141 443.869,785.641 444.5,782.5C 442.964,776.399 439.298,774.566 433.5,777C 431.406,779.634 431.073,782.467 432.5,785.5C 430.531,787.421 429.031,787.421 428,785.5C 426.669,779.163 428.836,774.497 434.5,771.5 Z"/></g>
<g><path style="opacity:1" fill="#707070" d="M 247.5,776.5 C 256.18,775.674 261.514,779.507 263.5,788C 258.197,791.99 252.531,795.49 246.5,798.5C 238.238,790.486 238.571,783.153 247.5,776.5 Z"/></g>
<g><path style="opacity:1" fill="#f9f9f9" d="M 248.5,780.5 C 253.4,779.948 256.734,781.948 258.5,786.5C 255.391,789.139 251.891,791.139 248,792.5C 244.606,788.398 244.773,784.398 248.5,780.5 Z"/></g>
<g><path style="opacity:1" fill="#6f6f6f" d="M 422.5,789.5 C 436.699,789.066 440.699,795.233 434.5,808C 422.803,812.96 416.969,809.127 417,796.5C 417.967,793.379 419.8,791.046 422.5,789.5 Z"/></g>
<g><path style="opacity:1" fill="#717171" d="M 264.5,791.5 C 266.196,791.685 267.529,792.519 268.5,794C 263.165,798.802 257.499,802.802 251.5,806C 250.643,805.311 249.977,804.478 249.5,803.5C 254.752,799.721 259.752,795.721 264.5,791.5 Z"/></g>
<g><path style="opacity:1" fill="#f8f8f8" d="M 423.5,793.5 C 432.807,792.953 435.474,796.787 431.5,805C 425.47,807.484 421.803,805.484 420.5,799C 420.863,796.808 421.863,794.974 423.5,793.5 Z"/></g>
<g><path style="opacity:1" fill="#6f6f6f" d="M 268.5,795.5 C 269.458,795.953 270.292,796.619 271,797.5C 271.784,800.76 271.617,803.927 270.5,807C 271.354,808.022 272.354,808.855 273.5,809.5C 275.167,808.167 276.833,806.833 278.5,805.5C 279.72,805.887 280.387,806.72 280.5,808C 276.364,813.303 271.697,818.137 266.5,822.5C 261.959,819.629 258.959,815.629 257.5,810.5C 258.864,805.476 262.197,803.476 267.5,804.5C 267.368,801.43 267.701,798.43 268.5,795.5 Z"/></g>
<g><path style="opacity:1" fill="#717171" d="M 410.5,803.5 C 415.484,808.237 420.15,813.404 424.5,819C 423.056,820.064 421.389,820.564 419.5,820.5C 415.156,819.66 410.822,819.16 406.5,819C 409.192,821.557 411.525,824.391 413.5,827.5C 412.855,828.646 412.022,829.646 411,830.5C 406.312,825.313 401.812,819.98 397.5,814.5C 398.559,813.304 399.893,812.637 401.5,812.5C 405.714,813.309 409.88,814.309 414,815.5C 414.5,815.167 415,814.833 415.5,814.5C 412.785,811.786 410.451,808.786 408.5,805.5C 409.243,804.818 409.909,804.151 410.5,803.5 Z"/></g>
<g><path style="opacity:1" fill="#f1f1f1" d="M 262.5,808.5 C 265.967,808.446 268.634,809.946 270.5,813C 267.522,817.62 264.689,817.453 262,812.5C 261.421,811.072 261.588,809.738 262.5,808.5 Z"/></g>
<g><path style="opacity:1" fill="#6e6e6e" d="M 281.5,811.5 C 287.235,812.371 292.235,814.871 296.5,819C 293.048,824.944 289.048,830.444 284.5,835.5C 282.167,834 279.833,832.5 277.5,831C 275.406,829.745 274.406,827.912 274.5,825.5C 277.017,820.965 279.35,816.298 281.5,811.5 Z"/></g>
<g><path style="opacity:1" fill="#f4f4f4" d="M 282.5,816.5 C 285.99,816.245 288.657,817.578 290.5,820.5C 290.081,821.672 289.415,822.672 288.5,823.5C 285.005,822.345 283.005,820.012 282.5,816.5 Z"/></g>
<g><path style="opacity:1" fill="#707070" d="M 389.5,818.5 C 390.496,818.414 391.329,818.748 392,819.5C 393.995,824.16 396.495,828.494 399.5,832.5C 402.225,829.932 404.558,830.099 406.5,833C 401.552,835.721 396.719,838.554 392,841.5C 391.535,840.069 390.701,838.903 389.5,838C 391.475,837.022 393.142,835.689 394.5,834C 392.557,829.28 390.224,824.78 387.5,820.5C 388.243,819.818 388.909,819.151 389.5,818.5 Z"/></g>
<g><path style="opacity:1" fill="#f3f3f3" d="M 279.5,823.5 C 282.09,824.128 284.423,825.295 286.5,827C 284.325,830.95 281.825,830.783 279,826.5C 278.53,825.423 278.697,824.423 279.5,823.5 Z"/></g>
<g><path style="opacity:1" fill="#6f6f6f" d="M 378.5,823.5 C 379.496,823.414 380.329,823.748 381,824.5C 382.934,830.136 384.767,835.802 386.5,841.5C 383.583,844.487 379.916,846.154 375.5,846.5C 368.675,845.183 367.008,841.516 370.5,835.5C 368.992,833.493 367.158,831.826 365,830.5C 361.937,836.857 359.77,843.524 358.5,850.5C 356.712,850.785 355.045,850.452 353.5,849.5C 350.167,843.833 346.833,838.167 343.5,832.5C 344.723,831.386 346.056,831.219 347.5,832C 348.495,833.834 349.995,835.001 352,835.5C 354.462,834.841 356.962,834.507 359.5,834.5C 359.286,832.856 359.62,831.356 360.5,830C 362.871,829.265 365.205,828.432 367.5,827.5C 369.679,828.757 371.679,830.257 373.5,832C 375.134,832.494 376.801,832.66 378.5,832.5C 378.613,829.951 377.946,827.618 376.5,825.5C 377.243,824.818 377.909,824.151 378.5,823.5 Z"/></g>
<g><path style="opacity:1" fill="#717171" d="M 315.5,827.5 C 316.833,827.5 318.167,827.5 319.5,827.5C 318.013,833.114 316.68,838.781 315.5,844.5C 317.696,844.565 319.696,845.232 321.5,846.5C 321.081,847.672 320.415,848.672 319.5,849.5C 314.53,848.008 309.53,846.674 304.5,845.5C 304.5,844.167 304.5,842.833 304.5,841.5C 306.806,841.993 309.139,842.326 311.5,842.5C 312.681,837.441 314.014,832.441 315.5,827.5 Z"/></g>
<g><path style="opacity:1" fill="#6f6f6f" d="M 328.5,830.5 C 338.992,828.834 343.826,833.167 343,843.5C 340.747,849.926 336.247,852.426 329.5,851C 327.714,850.215 326.214,849.049 325,847.5C 324.399,846.035 324.899,845.035 326.5,844.5C 334.357,849.778 338.523,847.778 339,838.5C 336.001,832.887 332.168,832.22 327.5,836.5C 324.848,834.099 325.181,832.099 328.5,830.5 Z"/></g>
<g><path style="opacity:1" fill="#efefef" d="M 377.5,835.5 C 380.779,836.031 382.113,838.031 381.5,841.5C 378.583,842.291 375.75,842.291 373,841.5C 372.333,840.5 372.333,839.5 373,838.5C 374.652,837.601 376.152,836.601 377.5,835.5 Z"/></g>
<g><path style="opacity:1" fill="#e2e2e2" d="M 352.5,838.5 C 354.167,838.5 355.833,838.5 357.5,838.5C 356.128,844.999 354.462,844.999 352.5,838.5 Z"/></g>
</svg>
