<?xml version="1.0" encoding="UTF-8"?>
<!DOCTYPE svg PUBLIC "-//W3C//DTD SVG 1.1//EN" "http://www.w3.org/Graphics/SVG/1.1/DTD/svg11.dtd">
<svg xmlns="http://www.w3.org/2000/svg" version="1.1" width="691px" height="1056px" style="shape-rendering:geometricPrecision; text-rendering:geometricPrecision; image-rendering:optimizeQuality; fill-rule:evenodd; clip-rule:evenodd" xmlns:xlink="http://www.w3.org/1999/xlink">
<g><path style="opacity:0.906" fill="#bdbfc1" d="M 45.5,0.5 C 245.833,1.12134 446.166,1.62134 646.5,2C 665.686,6.52403 678.519,18.024 685,36.5C 684.264,355.74 684.431,674.906 685.5,994C 683.799,1022.7 669.466,1042.03 642.5,1052C 639.833,1052.33 637.167,1052.67 634.5,1053C 437.167,1053.67 239.833,1053.67 42.5,1053C 27.9238,1049.1 16.7571,1040.6 9,1027.5C 6.21067,1022.47 4.21067,1017.13 3,1011.5C 2.00077,1002.53 1.50077,993.531 1.5,984.5C 2.61472,668.167 2.78139,351.834 2,35.5C 3.21735,26.6166 7.38401,19.4499 14.5,14C 23.7345,6.70993 34.0678,2.20993 45.5,0.5 Z"/></g>
<g><path style="opacity:1" fill="#fefdfd" d="M 42.5,5.5 C 243.5,5.98485 444.5,6.48485 645.5,7C 661.811,10.6415 673.311,20.1415 680,35.5C 680.667,356.167 680.667,676.833 680,997.5C 677.215,1023.9 663.048,1040.73 637.5,1048C 438.833,1048.67 240.167,1048.67 41.5,1048C 22.3766,1040.54 10.8766,1026.71 7,1006.5C 6.83333,979 6.66667,951.5 6.5,924C 7.64238,627.166 7.80904,330.333 7,33.5C 10.3006,24.5307 16.1339,17.6973 24.5,13C 30.3281,9.78826 36.3281,7.28826 42.5,5.5 Z"/></g>
<g><path style="opacity:1" fill="#d02000" d="M 38.5,42.5 C 242.167,42.5 445.833,42.5 649.5,42.5C 649.5,365.5 649.5,688.5 649.5,1011.5C 445.833,1011.5 242.167,1011.5 38.5,1011.5C 38.5,688.5 38.5,365.5 38.5,42.5 Z"/></g>
<g><path style="opacity:1" fill="#fef5f3" d="M 89.5,92.5 C 258.833,92.5 428.167,92.5 597.5,92.5C 597.5,382.167 597.5,671.833 597.5,961.5C 428.167,961.5 258.833,961.5 89.5,961.5C 89.5,671.833 89.5,382.167 89.5,92.5 Z"/></g>
<g><path style="opacity:1" fill="#d02000" d="M 98.5,101.5 C 262.167,101.5 425.833,101.5 589.5,101.5C 589.5,385.5 589.5,669.5 589.5,953.5C 425.833,953.5 262.167,953.5 98.5,953.5C 98.5,669.5 98.5,385.5 98.5,101.5 Z"/></g>
<g><path style="opacity:1" fill="#fcedea" d="M 329.5,170.5 C 393.013,167.999 441.179,193.665 474,247.5C 496.579,293.153 497.246,339.153 476,385.5C 441.74,444.883 390.24,471.383 321.5,465C 268.532,455.355 230.699,426.188 208,377.5C 183.179,310.242 197.013,252.409 249.5,204C 273.08,185.374 299.747,174.207 329.5,170.5 Z"/></g>
<g><path style="opacity:1" fill="#d22c0d" d="M 342.5,173.5 C 411.46,176.981 457.96,210.981 482,275.5C 497.799,337.76 481.632,389.926 433.5,432C 384.444,467.075 332.444,472.075 277.5,447C 222.202,414.917 196.368,366.75 200,302.5C 208.254,248.609 236.754,209.776 285.5,186C 303.888,178.387 322.888,174.22 342.5,173.5 Z"/></g>
<g><path style="opacity:1" fill="#fefcfb" d="M 340.5,178.5 C 399.39,180.174 442.557,206.841 470,258.5C 492.961,313.391 485.961,364.057 449,410.5C 403.759,456.685 350.593,468.851 289.5,447C 240.213,424.034 212.047,385.534 205,331.5C 202.177,266.947 229.344,220.113 286.5,191C 303.882,183.561 321.882,179.394 340.5,178.5 Z"/></g>
<g><path style="opacity:1" fill="#d22e10" d="M 349.5,203.5 C 352.85,203.335 356.183,203.502 359.5,204C 363.859,205.503 364.359,207.67 361,210.5C 355.091,204.519 350.924,205.519 348.5,213.5C 350.186,220.881 354.019,222.215 360,217.5C 362.168,218.629 362.668,220.129 361.5,222C 354.368,226.287 348.868,224.787 345,217.5C 343.454,211.794 344.954,207.127 349.5,203.5 Z"/></g>
<g><path style="opacity:1" fill="#d43315" d="M 366.5,205.5 C 372.406,206.226 378.072,207.726 383.5,210C 381.788,212.519 379.621,213.019 377,211.5C 374.564,216.578 373.064,221.911 372.5,227.5C 369.757,227.923 368.424,226.756 368.5,224C 370.058,219.272 371.058,214.438 371.5,209.5C 368.05,210.244 366.384,208.91 366.5,205.5 Z"/></g>
<g><path style="opacity:1" fill="#d22e0f" d="M 329.5,203.5 C 331.144,203.286 332.644,203.62 334,204.5C 337.626,210.25 341.126,216.084 344.5,222C 341.153,223.206 338.82,222.206 337.5,219C 334.338,218.398 331.338,218.898 328.5,220.5C 327.754,221.736 327.421,223.07 327.5,224.5C 324.882,224.779 322.382,225.446 320,226.5C 316.912,223.698 313.412,222.198 309.5,222C 309.167,222.333 308.833,222.667 308.5,223C 311.222,226.143 310.889,228.643 307.5,230.5C 305.365,224.095 303.032,217.762 300.5,211.5C 305.04,208.376 310.04,207.209 315.5,208C 319.032,211.39 319.366,215.057 316.5,219C 318.667,220.5 320.833,222 323,223.5C 325.477,216.921 327.644,210.255 329.5,203.5 Z"/></g>
<g><path style="opacity:1" fill="#f9d5ce" d="M 331.5,209.5 C 333.054,210.914 334.388,212.581 335.5,214.5C 333.955,215.452 332.288,215.785 330.5,215.5C 330.833,213.5 331.167,211.5 331.5,209.5 Z"/></g>
<g><path style="opacity:1" fill="#fdf0ed" d="M 309.5,211.5 C 313.909,210.899 315.242,212.566 313.5,216.5C 308.573,219.919 306.239,218.586 306.5,212.5C 307.791,212.737 308.791,212.404 309.5,211.5 Z"/></g>
<g><path style="opacity:1" fill="#d32f11" d="M 293.5,213.5 C 295.346,213.222 296.68,213.889 297.5,215.5C 296.055,217.063 294.389,218.396 292.5,219.5C 295.167,224.167 297.833,228.833 300.5,233.5C 299.672,234.415 298.672,235.081 297.5,235.5C 294.015,231.21 291.015,226.543 288.5,221.5C 287.059,222.304 285.559,222.971 284,223.5C 282.72,223.387 281.887,222.72 281.5,221.5C 285.565,218.81 289.565,216.143 293.5,213.5 Z"/></g>
<g><path style="opacity:1" fill="#d22e10" d="M 401.5,218.5 C 404.899,220.031 408.233,221.865 411.5,224C 412.573,225.313 413.24,226.813 413.5,228.5C 411.015,232.167 409.182,236.167 408,240.5C 404.518,243.021 401.018,242.855 397.5,240C 395.024,238.691 393.024,236.858 391.5,234.5C 395.282,229.398 398.616,224.064 401.5,218.5 Z"/></g>
<g><path style="opacity:1" fill="#d32f11" d="M 275.5,224.5 C 277.716,225.203 279.549,226.536 281,228.5C 284.025,232.024 286.858,235.691 289.5,239.5C 289,240.881 288,241.547 286.5,241.5C 281.451,240.436 276.451,239.603 271.5,239C 273.979,242.313 276.645,245.48 279.5,248.5C 278.672,249.415 277.672,250.081 276.5,250.5C 271.822,245.821 267.489,240.821 263.5,235.5C 264.171,234.054 265.338,233.388 267,233.5C 271.445,234.792 275.945,235.292 280.5,235C 279.042,232.54 277.209,230.373 275,228.5C 274.421,227.072 274.588,225.738 275.5,224.5 Z"/></g>
<g><path style="opacity:1" fill="#fcece9" d="M 402.5,224.5 C 406.293,224.44 408.459,226.107 409,229.5C 406.01,230.608 403.51,229.775 401.5,227C 402.252,226.329 402.586,225.496 402.5,224.5 Z"/></g>
<g><path style="opacity:1" fill="#fbe5e1" d="M 398.5,230.5 C 400.754,231.415 402.754,232.748 404.5,234.5C 405.903,237.601 404.903,238.767 401.5,238C 399.651,236.907 397.984,235.574 396.5,234C 397.823,233.184 398.489,232.017 398.5,230.5 Z"/></g>
<g><path style="opacity:1" fill="#d22e0f" d="M 420.5,231.5 C 424.88,234.365 427.88,238.199 429.5,243C 429.114,248.543 426.114,250.709 420.5,249.5C 420.453,252.568 419.953,255.568 419,258.5C 417.647,257.315 416.48,255.981 415.5,254.5C 416.575,251.562 416.741,248.562 416,245.5C 415.586,245.043 415.086,244.709 414.5,244.5C 412.833,245.833 411.167,247.167 409.5,248.5C 408.354,247.855 407.354,247.022 406.5,246C 411.37,241.298 416.037,236.465 420.5,231.5 Z"/></g>
<g><path style="opacity:1" fill="#fefaf9" d="M 420.5,237.5 C 423.833,239.159 425.5,241.825 425.5,245.5C 422.033,245.554 419.366,244.054 417.5,241C 418.71,239.961 419.71,238.794 420.5,237.5 Z"/></g>
<g><path style="opacity:1" fill="#d33012" d="M 257.5,243.5 C 267.859,244.023 272.025,249.356 270,259.5C 263.667,266.167 257.333,266.167 251,259.5C 248.475,252.221 250.642,246.888 257.5,243.5 Z"/></g>
<g><path style="opacity:1" fill="#fef4f2" d="M 258.5,247.5 C 266.517,248.859 268.517,253.025 264.5,260C 257.325,261.48 253.825,258.647 254,251.5C 255.397,249.93 256.897,248.596 258.5,247.5 Z"/></g>
<g><path style="opacity:1" fill="#d22e0f" d="M 335.5,247.5 C 373.222,246.42 398.722,263.42 412,298.5C 419.944,337.775 406.111,366.275 370.5,384C 334.934,395.699 306.101,386.532 284,356.5C 270.819,332.497 270.152,308.163 282,283.5C 294.439,263.372 312.272,251.372 335.5,247.5 Z"/></g>
<g><path style="opacity:1" fill="#d33214" d="M 434.5,247.5 C 436.609,248.052 437.442,249.386 437,251.5C 432.41,254.879 427.91,258.379 423.5,262C 420.866,262.925 419.699,262.091 420,259.5C 424.996,255.601 429.829,251.601 434.5,247.5 Z"/></g>
<g><path style="opacity:1" fill="#fcebe8" d="M 331.5,252.5 C 361.373,249.05 384.54,259.717 401,284.5C 415.932,314.07 412.432,341.237 390.5,366C 368.56,385.386 343.893,389.72 316.5,379C 286.04,362.913 273.54,337.746 279,303.5C 286.862,276.47 304.362,259.47 331.5,252.5 Z"/></g>
<g><path style="opacity:1" fill="#d02504" d="M 332.5,255.5 C 370.395,252.684 394.895,269.351 406,305.5C 409.912,346.232 392.079,371.399 352.5,381C 316.444,382.926 292.944,366.759 282,332.5C 277.45,292.589 294.283,266.922 332.5,255.5 Z"/></g>
<g><path style="opacity:1" fill="#d22e10" d="M 440.5,255.5 C 445.428,259.705 447.262,265.038 446,271.5C 443.081,277.025 438.581,278.858 432.5,277C 428.437,274.061 425.437,270.228 423.5,265.5C 429.427,262.379 435.093,259.046 440.5,255.5 Z"/></g>
<g><path style="opacity:1" fill="#fefdfd" d="M 344.5,257.5 C 351.981,271.118 360.481,284.118 370,296.5C 379.023,304.524 387.69,312.858 396,321.5C 403.234,337.412 399.068,349.245 383.5,357C 377.569,358.471 371.569,358.804 365.5,358C 360.407,356.022 355.741,353.522 351.5,350.5C 352.541,358.979 354.041,367.312 356,375.5C 348.587,376.481 341.087,376.814 333.5,376.5C 334.396,370.697 335.896,365.03 338,359.5C 338.498,356.518 338.665,353.518 338.5,350.5C 334.191,351.485 330.191,353.319 326.5,356C 313.184,361.963 301.684,359.463 292,348.5C 286.042,338.565 286.042,328.565 292,318.5C 303.633,308.536 314.966,298.202 326,287.5C 333.431,278.309 339.598,268.309 344.5,257.5 Z"/></g>
<g><path style="opacity:1" fill="#fef7f6" d="M 438.5,261.5 C 440.411,261.574 441.578,262.574 442,264.5C 443.167,271.333 440.333,274.167 433.5,273C 431.586,271.587 430.253,269.753 429.5,267.5C 432.357,265.242 435.357,263.242 438.5,261.5 Z"/></g>
<g><path style="opacity:1" fill="#d33011" d="M 245.5,261.5 C 247.121,261.787 248.121,262.787 248.5,264.5C 242.434,267.718 241.434,271.885 245.5,277C 251.207,279.977 254.874,278.31 256.5,272C 255.852,270.56 255.519,269.06 255.5,267.5C 257.144,267.286 258.644,267.62 260,268.5C 260.693,278.805 255.859,283.305 245.5,282C 239.398,277.895 237.898,272.395 241,265.5C 242.397,263.93 243.897,262.596 245.5,261.5 Z"/></g>
<g><path style="opacity:1" fill="#d43315" d="M 441.5,279.5 C 453.952,278.439 458.285,283.773 454.5,295.5C 451.17,294.65 450.503,292.817 452.5,290C 451.422,284.455 448.089,282.455 442.5,284C 437.351,287.589 437.185,291.422 442,295.5C 443.158,295.002 443.991,294.169 444.5,293C 443.852,291.56 443.519,290.06 443.5,288.5C 444.833,288.5 446.167,288.5 447.5,288.5C 448.167,291.5 448.833,294.5 449.5,297.5C 439.197,301.382 434.363,297.715 435,286.5C 436.694,283.642 438.861,281.309 441.5,279.5 Z"/></g>
<g><path style="opacity:1" fill="#d22f10" d="M 229.5,298.5 C 236.523,298.969 243.523,299.636 250.5,300.5C 250.67,301.822 250.337,302.989 249.5,304C 244.999,306.416 240.666,309.083 236.5,312C 240.363,313.354 244.363,313.854 248.5,313.5C 248.5,314.833 248.5,316.167 248.5,317.5C 241.826,317.287 235.159,316.954 228.5,316.5C 228.178,314.278 228.845,312.444 230.5,311C 234.167,308.667 237.833,306.333 241.5,304C 237.534,303.172 233.534,302.672 229.5,302.5C 229.5,301.167 229.5,299.833 229.5,298.5 Z"/></g>
<g><path style="opacity:1" fill="#d22e10" d="M 445.5,301.5 C 450.167,301.5 454.833,301.5 459.5,301.5C 459.223,306.233 459.557,310.9 460.5,315.5C 459.311,316.429 457.978,316.762 456.5,316.5C 456.058,312.846 455.724,309.179 455.5,305.5C 454.167,305.5 452.833,305.5 451.5,305.5C 451.5,308.833 451.5,312.167 451.5,315.5C 450.167,315.5 448.833,315.5 447.5,315.5C 447.5,312.5 447.5,309.5 447.5,306.5C 445.833,306.5 444.167,306.5 442.5,306.5C 442.833,310.5 443.167,314.5 443.5,318.5C 442.167,318.5 440.833,318.5 439.5,318.5C 439.313,313.155 438.98,307.822 438.5,302.5C 441.059,302.802 443.393,302.468 445.5,301.5 Z"/></g>
<g><path style="opacity:1" fill="#d33012" d="M 247.5,318.5 C 249.231,321.628 248.398,323.961 245,325.5C 244.542,328.558 244.876,331.558 246,334.5C 247.356,335.38 248.856,335.714 250.5,335.5C 250.5,336.833 250.5,338.167 250.5,339.5C 244.697,338.604 239.03,337.104 233.5,335C 230.041,334.084 229.041,332.084 230.5,329C 236.566,325.976 242.232,322.476 247.5,318.5 Z"/></g>
<g><path style="opacity:1" fill="#fcedea" d="M 238.5,328.5 C 240.176,329.183 240.843,330.517 240.5,332.5C 235.256,332.335 234.59,331.001 238.5,328.5 Z"/></g>
<g><path style="opacity:1" fill="#d43416" d="M 438.5,333.5 C 444.478,334.66 450.478,335.827 456.5,337C 459.064,338.481 459.064,339.981 456.5,341.5C 452.155,340.608 447.822,339.608 443.5,338.5C 440.644,340.703 439.311,343.703 439.5,347.5C 438.167,347.5 436.833,347.5 435.5,347.5C 436.085,342.745 437.085,338.079 438.5,333.5 Z"/></g>
<g><path style="opacity:1" fill="#d33214" d="M 246.5,340.5 C 254.575,344.01 256.408,349.676 252,357.5C 245.964,363.072 240.298,362.738 235,356.5C 233.496,352.961 233.163,349.295 234,345.5C 234.741,344.359 235.575,344.359 236.5,345.5C 235.079,353.844 238.412,357.344 246.5,356C 249.991,354.179 251.157,351.346 250,347.5C 248.478,345.978 246.978,344.478 245.5,343C 245.743,342.098 246.077,341.265 246.5,340.5 Z"/></g>
<g><path style="opacity:1" fill="#d32f11" d="M 434.5,348.5 C 440.831,350.748 446.997,353.414 453,356.5C 451.827,361.19 450.327,365.856 448.5,370.5C 446.654,370.778 445.32,370.111 444.5,368.5C 445.704,365.261 447.038,362.094 448.5,359C 447.241,358.018 445.908,357.685 444.5,358C 443.188,360.941 441.688,363.774 440,366.5C 438.842,366.002 438.009,365.169 437.5,364C 438.598,361.54 439.598,359.04 440.5,356.5C 439.38,354.404 437.88,354.07 436,355.5C 434.941,358.618 433.608,361.618 432,364.5C 431.282,363.549 430.449,363.383 429.5,364C 434.43,369.878 437.93,376.378 440,383.5C 432.434,383.873 424.934,382.873 417.5,380.5C 417.833,379.833 418.167,379.167 418.5,378.5C 420.766,377.686 423.1,377.186 425.5,377C 427.032,374.966 428.365,372.799 429.5,370.5C 427.744,368.809 427.244,366.809 428,364.5C 430.271,359.183 432.437,353.85 434.5,348.5 Z"/></g>
<g><path style="opacity:1" fill="#d53819" d="M 259.5,363.5 C 253.613,366.026 247.78,368.693 242,371.5C 240.978,370.646 240.145,369.646 239.5,368.5C 245.114,365.109 250.947,362.109 257,359.5C 259.02,360.032 259.853,361.365 259.5,363.5 Z"/></g>
<g><path style="opacity:1" fill="#d22c0d" d="M 259.5,363.5 C 260.652,364.834 261.652,366.334 262.5,368C 261.402,370.46 260.402,372.96 259.5,375.5C 259.865,376.902 260.699,377.902 262,378.5C 264.058,377.888 265.891,376.888 267.5,375.5C 268.415,376.328 269.081,377.328 269.5,378.5C 264.089,382.622 258.589,386.622 253,390.5C 251.248,387.328 249.248,384.328 247,381.5C 245.584,373.582 248.751,370.416 256.5,372C 257.798,369.273 258.798,366.44 259.5,363.5 Z"/></g>
<g><path style="opacity:1" fill="#fbe5e1" d="M 431.5,374.5 C 436.097,378.524 435.43,379.857 429.5,378.5C 430.18,377.14 430.847,375.807 431.5,374.5 Z"/></g>
<g><path style="opacity:1" fill="#fcece9" d="M 251.5,375.5 C 254.815,375.972 257.149,377.805 258.5,381C 255.427,385.508 252.927,385.341 251,380.5C 250.36,378.735 250.527,377.068 251.5,375.5 Z"/></g>
<g><path style="opacity:1" fill="#d4381a" d="M 269.5,380.5 C 274.527,382.685 278.527,386.185 281.5,391C 277.364,396.303 272.697,401.137 267.5,405.5C 263.5,402.167 259.833,398.5 256.5,394.5C 257.328,393.585 258.328,392.919 259.5,392.5C 262.167,394.833 264.833,397.167 267.5,399.5C 268.646,398.855 269.646,398.022 270.5,397C 267.983,394.651 265.65,392.151 263.5,389.5C 264.145,388.354 264.978,387.354 266,386.5C 268.349,389.017 270.849,391.35 273.5,393.5C 274.646,392.855 275.646,392.022 276.5,391C 274,388.5 271.5,386 269,383.5C 268.53,382.423 268.697,381.423 269.5,380.5 Z"/></g>
<g><path style="opacity:1" fill="#d33012" d="M 413.5,383.5 C 425.214,383.706 429.381,389.373 426,400.5C 423.681,403.773 420.514,405.44 416.5,405.5C 416.5,404.167 416.5,402.833 416.5,401.5C 422.849,400.973 425.016,397.639 423,391.5C 416.936,385.514 412.936,386.514 411,394.5C 411.414,394.957 411.914,395.291 412.5,395.5C 414.755,392.005 417.088,391.838 419.5,395C 417.317,397.35 414.984,399.517 412.5,401.5C 406.062,398.14 404.895,393.474 409,387.5C 410.667,386.267 412.167,384.933 413.5,383.5 Z"/></g>
<g><path style="opacity:1" fill="#d32f10" d="M 283.5,393.5 C 285.09,393.628 286.423,394.295 287.5,395.5C 285.289,398.756 282.955,401.922 280.5,405C 283.716,404.103 287.049,403.269 290.5,402.5C 290.336,405.187 290.503,407.854 291,410.5C 293.167,407.5 295.333,404.5 297.5,401.5C 298.646,402.145 299.646,402.978 300.5,404C 297.026,409.792 293.193,415.292 289,420.5C 288.228,420.355 287.561,420.022 287,419.5C 286.667,415.5 286.333,411.5 286,407.5C 281.802,410.721 277.302,411.554 272.5,410C 276.549,404.729 280.216,399.229 283.5,393.5 Z"/></g>
<g><path style="opacity:1" fill="#d22e10" d="M 396.5,397.5 C 399.649,397.211 402.649,397.711 405.5,399C 408.167,403 410.833,407 413.5,411C 412.534,412.678 411.201,413.345 409.5,413C 407.167,409.333 404.833,405.667 402.5,402C 398.518,400.579 395.852,401.746 394.5,405.5C 396.147,409.459 398.314,413.125 401,416.5C 401.783,418.319 401.283,419.652 399.5,420.5C 394.202,415.574 391.368,409.574 391,402.5C 392.73,400.598 394.563,398.931 396.5,397.5 Z"/></g>
<g><path style="opacity:1" fill="#d22a0b" d="M 301.5,404.5 C 302.583,404.539 303.583,404.873 304.5,405.5C 305.466,407.396 305.799,409.396 305.5,411.5C 307.905,411.866 310.238,412.533 312.5,413.5C 314.447,412.723 316.28,411.723 318,410.5C 319.225,410.862 320.391,411.362 321.5,412C 316.5,417 311.5,422 306.5,427C 305.5,427.667 304.5,427.667 303.5,427C 302.313,419.595 301.647,412.095 301.5,404.5 Z"/></g>
<g><path style="opacity:1" fill="#d32f11" d="M 383.5,404.5 C 384.496,404.414 385.329,404.748 386,405.5C 388.757,411.669 390.923,418.003 392.5,424.5C 387.826,425.669 383.326,427.336 379,429.5C 378.018,428.241 377.685,426.908 378,425.5C 381.438,424.199 384.605,422.532 387.5,420.5C 387.081,419.328 386.415,418.328 385.5,417.5C 382.607,418.74 379.773,420.074 377,421.5C 376.5,420.5 376,419.5 375.5,418.5C 378.083,416.378 381.083,415.045 384.5,414.5C 384.617,412.516 383.95,410.85 382.5,409.5C 379.618,411.108 376.618,412.441 373.5,413.5C 372.28,413.113 371.613,412.28 371.5,411C 375.374,408.564 379.374,406.397 383.5,404.5 Z"/></g>
<g><path style="opacity:1" fill="#fae1dc" d="M 306.5,415.5 C 311.467,416.693 311.633,418.693 307,421.5C 306.505,419.527 306.338,417.527 306.5,415.5 Z"/></g>
<g><path style="opacity:1" fill="#d43416" d="M 341.5,420.5 C 348.803,421.267 350.136,424.433 345.5,430C 340.667,430.5 338.5,428.333 339,423.5C 339.698,422.309 340.531,421.309 341.5,420.5 Z"/></g>
<g><path style="opacity:1" fill="#fcedea" d="M 334.5,587.5 C 394.363,586.688 440.196,611.355 472,661.5C 493.007,699.304 497.341,738.97 485,780.5C 466.463,832.371 430.63,865.538 377.5,880C 318.232,891.245 268.732,874.412 229,829.5C 195.97,786.305 187.637,738.638 204,686.5C 228.128,627.862 271.628,594.862 334.5,587.5 Z"/></g>
<g><path style="opacity:1" fill="#d22c0d" d="M 327.5,591.5 C 379.885,587.957 423.052,605.957 457,645.5C 493.914,696.417 498.247,750.083 470,806.5C 436.255,860.622 387.422,884.788 323.5,879C 273.142,869.929 236.309,842.762 213,797.5C 189.6,741.255 196.6,689.255 234,641.5C 259.212,613.645 290.379,596.978 327.5,591.5 Z"/></g>
<g><path style="opacity:1" fill="#fefcfb" d="M 330.5,596.5 C 388.328,593.662 432.828,616.328 464,664.5C 492.38,718.371 489.38,770.371 455,820.5C 419.099,863.584 373.265,881.084 317.5,873C 263.408,860.551 227.575,828.051 210,775.5C 195.851,718.577 210.017,670.077 252.5,630C 275.121,610.853 301.121,599.687 330.5,596.5 Z"/></g>
<g><path style="opacity:1" fill="#d12808" d="M 341.5,624.5 C 348.676,623.985 350.342,626.818 346.5,633C 339.416,633.475 337.749,630.642 341.5,624.5 Z"/></g>
<g><path style="opacity:1" fill="#d33012" d="M 305.5,625.5 C 307.716,625.275 309.383,626.108 310.5,628C 307.618,629.52 304.618,630.853 301.5,632C 300.07,633.88 300.404,635.38 302.5,636.5C 304.88,635.206 307.38,634.206 310,633.5C 311.169,634.009 312.002,634.842 312.5,636C 309.721,637.722 306.721,638.889 303.5,639.5C 303.231,641.429 303.731,643.095 305,644.5C 308.094,643.038 311.261,641.704 314.5,640.5C 315.415,641.328 316.081,642.328 316.5,643.5C 311.817,646.284 306.817,648.284 301.5,649.5C 299.594,643.185 297.261,637.018 294.5,631C 298.227,629.136 301.894,627.303 305.5,625.5 Z"/></g>
<g><path style="opacity:1" fill="#d22e0f" d="M 380.5,626.5 C 382.39,626.297 383.89,626.963 385,628.5C 385.577,635.5 386.077,642.5 386.5,649.5C 385.178,649.67 384.011,649.337 383,648.5C 382.749,646.567 382.249,644.734 381.5,643C 378.868,642.551 376.368,641.717 374,640.5C 372.566,640.93 371.399,641.764 370.5,643C 369.056,643.781 367.723,643.614 366.5,642.5C 371.562,637.443 376.228,632.11 380.5,626.5 Z"/></g>
<g><path style="opacity:1" fill="#d33314" d="M 287.5,633.5 C 289.624,634.031 291.124,635.365 292,637.5C 294.611,640.72 296.111,644.387 296.5,648.5C 295.943,653.56 293.109,656.56 288,657.5C 285.077,657.205 282.743,655.871 281,653.5C 278.818,649.99 276.651,646.49 274.5,643C 275.009,641.831 275.842,640.998 277,640.5C 279.955,644.244 282.789,648.078 285.5,652C 289.508,653.416 291.841,652.082 292.5,648C 290.43,643.744 288.096,639.577 285.5,635.5C 286.243,634.818 286.909,634.151 287.5,633.5 Z"/></g>
<g><path style="opacity:1" fill="#fbeae7" d="M 380.5,632.5 C 381.793,634.364 381.793,636.364 380.5,638.5C 379.328,638.081 378.328,637.415 377.5,636.5C 378.524,635.148 379.524,633.815 380.5,632.5 Z"/></g>
<g><path style="opacity:1" fill="#d22c0d" d="M 397.5,633.5 C 398.583,633.539 399.583,633.873 400.5,634.5C 401.327,638.459 401.827,642.459 402,646.5C 405.033,644.877 408.2,643.544 411.5,642.5C 413,642.453 414,643.119 414.5,644.5C 411.291,649.752 407.958,654.918 404.5,660C 402.681,660.783 401.348,660.283 400.5,658.5C 403.124,655.433 404.958,652.1 406,648.5C 403.413,650.196 400.579,651.196 397.5,651.5C 397.665,648.482 397.498,645.482 397,642.5C 395.056,646.11 392.723,649.443 390,652.5C 388.842,652.002 388.009,651.169 387.5,650C 391.07,644.607 394.404,639.107 397.5,633.5 Z"/></g>
<g><path style="opacity:1" fill="#d33113" d="M 267.5,648.5 C 268.833,648.5 270.167,648.5 271.5,648.5C 271.5,649.833 271.5,651.167 271.5,652.5C 264.674,653.491 262.507,657.158 265,663.5C 270.383,667.947 274.549,666.947 277.5,660.5C 276.758,659.713 275.925,659.047 275,658.5C 273.041,661.789 270.875,662.123 268.5,659.5C 270.202,656.963 272.369,654.963 275,653.5C 282.748,657.089 283.581,661.923 277.5,668C 269.533,672.652 263.7,670.819 260,662.5C 259.11,655.943 261.61,651.276 267.5,648.5 Z"/></g>
<g><path style="opacity:1" fill="#d1290a" d="M 419.5,648.5 C 423.479,651.812 427.146,655.479 430.5,659.5C 429.652,661.283 428.319,661.783 426.5,661C 424.333,658.833 422.167,656.667 420,654.5C 418.978,655.354 418.145,656.354 417.5,657.5C 419.149,659.65 420.982,661.65 423,663.5C 423.483,664.448 423.649,665.448 423.5,666.5C 420.213,665.736 417.546,663.903 415.5,661C 413.609,660.691 412.275,661.525 411.5,663.5C 413.483,665.984 415.65,668.317 418,670.5C 418.601,671.965 418.101,672.965 416.5,673.5C 412.682,670.182 409.015,666.682 405.5,663C 410.37,658.298 415.037,653.465 419.5,648.5 Z"/></g>
<g><path style="opacity:1" fill="#d22e0f" d="M 330.5,665.5 C 368.94,661.789 395.774,677.455 411,712.5C 419.788,745.469 410.954,772.636 384.5,794C 360.26,809.016 335.26,810.349 309.5,798C 277.998,777.185 267.165,748.352 277,711.5C 287.044,686.946 304.877,671.613 330.5,665.5 Z"/></g>
<g><path style="opacity:1" fill="#d22e0f" d="M 428.5,690.5 C 426.757,689.359 425.757,687.692 425.5,685.5C 427.102,682.662 427.602,679.662 427,676.5C 424.595,675.755 422.428,676.422 420.5,678.5C 419.354,677.855 418.354,677.022 417.5,676C 422.821,671.672 428.488,667.838 434.5,664.5C 438.794,668.261 440.961,672.928 441,678.5C 438.782,682.315 435.616,683.315 431.5,681.5C 429.899,684.304 428.899,687.304 428.5,690.5 Z"/></g>
<g><path style="opacity:1" fill="#fce9e6" d="M 334.5,669.5 C 376.702,668.213 401.868,688.213 410,729.5C 410.171,770.66 390.005,794.827 349.5,802C 316.431,802.884 293.597,788.051 281,757.5C 271.35,718.071 284.85,689.905 321.5,673C 325.919,671.648 330.252,670.481 334.5,669.5 Z"/></g>
<g><path style="opacity:1" fill="#fdf3f1" d="M 431.5,670.5 C 434.669,670.662 436.669,672.328 437.5,675.5C 437.135,676.902 436.301,677.902 435,678.5C 430.595,676.739 429.428,674.072 431.5,670.5 Z"/></g>
<g><path style="opacity:1" fill="#d02504" d="M 336.5,672.5 C 369.084,671.288 391.584,685.621 404,715.5C 411.79,746.815 402.623,771.649 376.5,790C 343.621,806.234 315.454,800.401 292,772.5C 273.343,740.284 277.51,711.451 304.5,686C 314.144,678.848 324.81,674.348 336.5,672.5 Z"/></g>
<g><path style="opacity:1" fill="#fefdfd" d="M 347.5,677.5 C 349.833,677.5 352.167,677.5 354.5,677.5C 353.588,682.663 352.088,687.663 350,692.5C 349.501,696.152 349.335,699.818 349.5,703.5C 350.873,703.657 352.207,703.49 353.5,703C 369.338,691.762 383.838,693.262 397,707.5C 401.971,717.479 401.304,727.146 395,736.5C 383.367,746.464 372.034,756.798 361,767.5C 353.812,776.371 347.812,786.037 343,796.5C 335.747,783.655 327.747,771.322 319,759.5C 310.637,750.803 301.97,742.469 293,734.5C 283.943,719.562 286.776,707.395 301.5,698C 307.978,695.632 314.645,694.965 321.5,696C 326.874,698.02 331.874,700.52 336.5,703.5C 335.626,695.004 333.959,686.67 331.5,678.5C 337.026,678.821 342.36,678.488 347.5,677.5 Z"/></g>
<g><path style="opacity:1" fill="#d5381a" d="M 428.5,690.5 C 434.266,688.118 439.932,685.451 445.5,682.5C 447.596,683.62 447.93,685.12 446.5,687C 440.922,689.706 435.422,692.539 430,695.5C 428.192,693.967 427.692,692.3 428.5,690.5 Z"/></g>
<g><path style="opacity:1" fill="#d33113" d="M 247.5,669.5 C 255.239,670.413 262.906,671.746 270.5,673.5C 270.023,674.478 269.357,675.311 268.5,676C 266.5,676.333 264.5,676.667 262.5,677C 261.696,678.771 260.529,680.271 259,681.5C 258.709,683.783 259.209,685.95 260.5,688C 257.923,693.91 255.256,699.743 252.5,705.5C 246.753,703.362 241.086,701.029 235.5,698.5C 235.314,693.056 236.981,688.056 240.5,683.5C 241.5,684 242.5,684.5 243.5,685C 242.038,688.094 240.704,691.261 239.5,694.5C 240.463,696.49 241.796,696.823 243.5,695.5C 244.601,693.358 245.601,691.192 246.5,689C 247.944,688.219 249.277,688.386 250.5,689.5C 248.905,692.68 247.905,696.013 247.5,699.5C 248.978,699.762 250.311,699.429 251.5,698.5C 252.695,696.249 253.695,693.915 254.5,691.5C 255.376,690.749 256.376,690.249 257.5,690C 253.582,684.167 249.916,678.167 246.5,672C 247.252,671.329 247.586,670.496 247.5,669.5 Z"/></g>
<g><path style="opacity:1" fill="#fbeae7" d="M 252.5,675.5 C 254.435,674.291 256.435,674.458 258.5,676C 257.299,676.903 256.465,678.069 256,679.5C 255.051,677.907 253.885,676.574 252.5,675.5 Z"/></g>
<g><path style="opacity:1" fill="#d22d0e" d="M 439.5,693.5 C 448.189,691.659 453.189,694.993 454.5,703.5C 454.635,705.808 453.969,707.808 452.5,709.5C 451.328,709.081 450.328,708.415 449.5,707.5C 451.934,701.974 450.267,698.641 444.5,697.5C 438.631,697.865 436.464,700.865 438,706.5C 438.93,708.552 440.43,710.052 442.5,711C 441.687,712.885 440.353,713.551 438.5,713C 431.606,706.024 431.939,699.524 439.5,693.5 Z"/></g>
<g><path style="opacity:1" fill="#d33112" d="M 248.5,706.5 C 249.978,706.238 251.311,706.571 252.5,707.5C 251.286,711.451 250.286,715.451 249.5,719.5C 248.5,719.833 247.5,720.167 246.5,720.5C 240.932,719.324 235.432,717.991 230,716.5C 229.219,715.056 229.386,713.723 230.5,712.5C 235.532,713.727 240.532,715.061 245.5,716.5C 246.907,713.279 247.907,709.945 248.5,706.5 Z"/></g>
<g><path style="opacity:1" fill="#d22f10" d="M 436.5,715.5 C 436.917,714.876 437.584,714.543 438.5,714.5C 445.125,716.709 451.792,718.709 458.5,720.5C 458.714,722.144 458.38,723.644 457.5,725C 451.37,728.3 445.37,731.8 439.5,735.5C 438.008,732.233 439.008,730.066 442.5,729C 443.059,728.275 443.392,727.442 443.5,726.5C 442.777,724.218 442.443,721.884 442.5,719.5C 439.413,719.633 437.413,718.3 436.5,715.5 Z"/></g>
<g><path style="opacity:1" fill="#f9d8d1" d="M 446.5,721.5 C 454.296,722.395 454.296,723.729 446.5,725.5C 446.5,724.167 446.5,722.833 446.5,721.5 Z"/></g>
<g><path style="opacity:1" fill="#d32f10" d="M 236.5,742.5 C 236.5,741.167 236.5,739.833 236.5,738.5C 237.5,738.5 238.5,738.5 239.5,738.5C 239.704,741.518 240.037,744.518 240.5,747.5C 242.288,747.785 243.955,747.452 245.5,746.5C 244.583,743.242 244.249,739.909 244.5,736.5C 245.822,736.33 246.989,736.663 248,737.5C 248.351,742.198 248.851,746.864 249.5,751.5C 242.468,751.874 235.468,752.541 228.5,753.5C 228.431,748.146 228.098,742.813 227.5,737.5C 228.833,737.5 230.167,737.5 231.5,737.5C 231.724,741.179 232.058,744.846 232.5,748.5C 233.833,748.5 235.167,748.5 236.5,748.5C 236.5,746.5 236.5,744.5 236.5,742.5 Z"/></g>
<g><path style="opacity:1" fill="#d33113" d="M 438.5,736.5 C 445.523,736.969 452.523,737.636 459.5,738.5C 459.703,740.39 459.037,741.89 457.5,743C 453.664,745.084 449.997,747.417 446.5,750C 450.297,751.424 454.297,751.924 458.5,751.5C 458.5,752.833 458.5,754.167 458.5,755.5C 451.49,755.332 444.49,754.999 437.5,754.5C 437.286,752.856 437.62,751.356 438.5,750C 443.001,747.584 447.334,744.917 451.5,742C 447.187,741.265 442.853,740.765 438.5,740.5C 438.5,739.167 438.5,737.833 438.5,736.5 Z"/></g>
<g><path style="opacity:1" fill="#e78e7e" d="M 239.5,738.5 C 238.5,738.5 237.5,738.5 236.5,738.5C 236.5,739.833 236.5,741.167 236.5,742.5C 235.549,741.081 235.216,739.415 235.5,737.5C 237.099,737.232 238.432,737.566 239.5,738.5 Z"/></g>
<g><path style="opacity:1" fill="#d33213" d="M 243.5,754.5 C 252.108,756.722 254.608,762.055 251,770.5C 244.922,777.077 238.922,777.077 233,770.5C 231.763,766.94 231.263,763.273 231.5,759.5C 233.429,759.231 235.095,759.731 236.5,761C 234.695,768.529 237.695,771.529 245.5,770C 248.576,767.388 249.243,764.221 247.5,760.5C 246.311,759.571 244.978,759.238 243.5,759.5C 243.833,761.5 244.167,763.5 244.5,765.5C 243.167,765.5 241.833,765.5 240.5,765.5C 240.145,762.933 239.479,760.433 238.5,758C 239.921,756.377 241.588,755.21 243.5,754.5 Z"/></g>
<g><path style="opacity:1" fill="#d22e0f" d="M 434.5,771.5 C 444.828,771.326 449.328,776.326 448,786.5C 446.636,789.363 444.47,791.363 441.5,792.5C 440.28,792.113 439.613,791.28 439.5,790C 442.203,788.141 443.869,785.641 444.5,782.5C 442.964,776.399 439.298,774.566 433.5,777C 431.406,779.634 431.073,782.467 432.5,785.5C 430.531,787.421 429.031,787.421 428,785.5C 426.669,779.163 428.836,774.497 434.5,771.5 Z"/></g>
<g><path style="opacity:1" fill="#d33213" d="M 247.5,776.5 C 256.18,775.674 261.514,779.507 263.5,788C 258.197,791.99 252.531,795.49 246.5,798.5C 238.238,790.486 238.571,783.153 247.5,776.5 Z"/></g>
<g><path style="opacity:1" fill="#fdf6f4" d="M 248.5,780.5 C 253.4,779.948 256.734,781.948 258.5,786.5C 255.427,789.124 251.927,791.124 248,792.5C 244.606,788.398 244.773,784.398 248.5,780.5 Z"/></g>
<g><path style="opacity:1" fill="#d32f10" d="M 422.5,789.5 C 436.699,789.066 440.699,795.233 434.5,808C 427.101,812.376 421.267,810.876 417,803.5C 415.814,797.553 417.647,792.887 422.5,789.5 Z"/></g>
<g><path style="opacity:1" fill="#d33314" d="M 264.5,791.5 C 266.196,791.685 267.529,792.519 268.5,794C 263.165,798.802 257.499,802.802 251.5,806C 250.643,805.311 249.977,804.478 249.5,803.5C 254.752,799.721 259.752,795.721 264.5,791.5 Z"/></g>
<g><path style="opacity:1" fill="#fdf5f3" d="M 423.5,793.5 C 432.868,793.006 435.535,796.839 431.5,805C 425.47,807.484 421.803,805.484 420.5,799C 420.863,796.808 421.863,794.974 423.5,793.5 Z"/></g>
<g><path style="opacity:1" fill="#d32f10" d="M 268.5,795.5 C 269.458,795.953 270.292,796.619 271,797.5C 271.784,800.76 271.617,803.927 270.5,807C 271.354,808.022 272.354,808.855 273.5,809.5C 275.167,808.167 276.833,806.833 278.5,805.5C 279.72,805.887 280.387,806.72 280.5,808C 276.364,813.303 271.697,818.137 266.5,822.5C 261.959,819.629 258.959,815.629 257.5,810.5C 258.864,805.476 262.197,803.476 267.5,804.5C 267.368,801.43 267.701,798.43 268.5,795.5 Z"/></g>
<g><path style="opacity:1" fill="#d33214" d="M 410.5,803.5 C 415.484,808.237 420.15,813.404 424.5,819C 423.056,820.064 421.389,820.564 419.5,820.5C 415.156,819.66 410.822,819.16 406.5,819C 409.192,821.557 411.525,824.391 413.5,827.5C 412.855,828.646 412.022,829.646 411,830.5C 406.44,825.611 402.274,820.445 398.5,815C 398.734,813.268 399.734,812.434 401.5,812.5C 405.714,813.309 409.88,814.309 414,815.5C 414.5,815.167 415,814.833 415.5,814.5C 412.785,811.786 410.451,808.786 408.5,805.5C 409.243,804.818 409.909,804.151 410.5,803.5 Z"/></g>
<g><path style="opacity:1" fill="#fcebe8" d="M 262.5,808.5 C 265.967,808.446 268.634,809.946 270.5,813C 267.522,817.62 264.689,817.453 262,812.5C 261.421,811.072 261.588,809.738 262.5,808.5 Z"/></g>
<g><path style="opacity:1" fill="#d22e0f" d="M 281.5,811.5 C 287.235,812.371 292.235,814.871 296.5,819C 293.048,824.944 289.048,830.444 284.5,835.5C 282.167,834 279.833,832.5 277.5,831C 275.406,829.745 274.406,827.912 274.5,825.5C 277.017,820.965 279.35,816.298 281.5,811.5 Z"/></g>
<g><path style="opacity:1" fill="#fdf3f1" d="M 282.5,816.5 C 286.679,816.142 289.179,817.809 290,821.5C 289.333,822.167 288.667,822.833 288,823.5C 284.805,822.149 282.972,819.815 282.5,816.5 Z"/></g>
<g><path style="opacity:1" fill="#d22e10" d="M 389.5,818.5 C 391.074,818.937 392.241,819.937 393,821.5C 394.706,825.079 396.539,828.579 398.5,832C 400.368,832.004 402.202,831.504 404,830.5C 405.169,831.009 406.002,831.842 406.5,833C 401.584,835.707 396.751,838.541 392,841.5C 391.535,840.069 390.701,838.903 389.5,838C 391.813,837.359 393.48,836.026 394.5,834C 392.557,829.28 390.224,824.78 387.5,820.5C 388.243,819.818 388.909,819.151 389.5,818.5 Z"/></g>
<g><path style="opacity:1" fill="#fceeec" d="M 279.5,823.5 C 282.09,824.128 284.423,825.295 286.5,827C 284.325,830.95 281.825,830.783 279,826.5C 278.53,825.423 278.697,824.423 279.5,823.5 Z"/></g>
<g><path style="opacity:1" fill="#d22d0e" d="M 378.5,823.5 C 379.496,823.414 380.329,823.748 381,824.5C 382.756,830.357 384.589,836.19 386.5,842C 381.754,846.138 376.42,847.138 370.5,845C 367.887,841.796 367.887,838.63 370.5,835.5C 368.992,833.493 367.158,831.826 365,830.5C 361.937,836.857 359.77,843.524 358.5,850.5C 356.712,850.785 355.045,850.452 353.5,849.5C 350.167,843.833 346.833,838.167 343.5,832.5C 344.723,831.386 346.056,831.219 347.5,832C 348.495,833.834 349.995,835.001 352,835.5C 354.462,834.841 356.962,834.507 359.5,834.5C 359.421,833.07 359.754,831.736 360.5,830.5C 362.742,829.308 365.075,828.308 367.5,827.5C 369.679,828.757 371.679,830.257 373.5,832C 375.134,832.494 376.801,832.66 378.5,832.5C 378.613,829.951 377.946,827.618 376.5,825.5C 377.243,824.818 377.909,824.151 378.5,823.5 Z"/></g>
<g><path style="opacity:1" fill="#d43315" d="M 315.5,827.5 C 316.833,827.5 318.167,827.5 319.5,827.5C 318.013,833.114 316.68,838.781 315.5,844.5C 317.696,844.565 319.696,845.232 321.5,846.5C 321.081,847.672 320.415,848.672 319.5,849.5C 314.53,848.008 309.53,846.674 304.5,845.5C 304.5,844.167 304.5,842.833 304.5,841.5C 306.806,841.993 309.139,842.326 311.5,842.5C 312.681,837.441 314.014,832.441 315.5,827.5 Z"/></g>
<g><path style="opacity:1" fill="#d33011" d="M 328.5,830.5 C 338.992,828.834 343.826,833.167 343,843.5C 340.747,849.926 336.247,852.426 329.5,851C 327.714,850.215 326.214,849.049 325,847.5C 324.399,846.035 324.899,845.035 326.5,844.5C 334.357,849.778 338.523,847.778 339,838.5C 336.001,832.887 332.168,832.22 327.5,836.5C 324.848,834.099 325.181,832.099 328.5,830.5 Z"/></g>
<g><path style="opacity:1" fill="#fce8e4" d="M 378.5,835.5 C 380.969,836.607 381.969,838.607 381.5,841.5C 378.607,842.523 375.774,842.523 373,841.5C 372.333,840.5 372.333,839.5 373,838.5C 374.876,837.391 376.709,836.391 378.5,835.5 Z"/></g>
<g><path style="opacity:1" fill="#f9d5ce" d="M 352.5,838.5 C 354.167,838.5 355.833,838.5 357.5,838.5C 356.128,844.999 354.462,844.999 352.5,838.5 Z"/></g>
</svg>
